<?xml version="1.0" encoding="utf-8"?>
<!-- Generator: Adobe Illustrator 24.1.0, SVG Export Plug-In . SVG Version: 6.00 Build 0)  -->
<svg version="1.1" id="레이어_1" xmlns="http://www.w3.org/2000/svg" xmlns:xlink="http://www.w3.org/1999/xlink" x="0px"
	 y="0px" width="200px" height="200px" viewBox="0 0 200 200" style="enable-background:new 0 0 200 200;" xml:space="preserve">
<style type="text/css">
	.st0{fill:#0C0C0C;}
	.st1{fill:#FFEBB5;stroke:#0C0C0C;stroke-width:3;stroke-miterlimit:10;}
	.st2{fill:#FFFFFF;stroke:#0C0C0C;stroke-width:2;stroke-miterlimit:10;}
	.st3{fill:#FFFFFF;stroke:#0C0C0C;stroke-width:3;stroke-miterlimit:10;}
	.st4{fill:none;stroke:#1D1D1B;stroke-width:2;stroke-linecap:round;stroke-miterlimit:10;}
	.st5{fill:none;stroke:#0C0C0C;stroke-width:2;stroke-linecap:round;stroke-miterlimit:10;}
	.st6{fill:none;stroke:#0C0C0C;stroke-width:2;stroke-linecap:round;stroke-linejoin:round;stroke-miterlimit:10;}
	.st7{fill:#FFDD84;stroke:#0C0C0C;stroke-width:3;stroke-linecap:round;stroke-linejoin:round;stroke-miterlimit:10;}
</style>
<g>
	<path class="st0" d="M97.92,22.56c0,0-35.24-7.99-48.23,41.12c-8.4,31.73,0.17,44.94,0.33,49.89c0.18,5.43-1.17,12.72,1.46,14.1
		c2.64,1.37,26.69,6.27,49.15,6.27s48.83-5.78,52.05-7.08s1.34-10.55,1.19-13.73s3.28-23.44-0.41-44.82S136.83,14.82,97.92,22.56z"
		/>
	<g>
		<path class="st1" d="M177.5,203.5c-5.74-15.87-9.92-36.6-23.61-45.76c-14.74-9.87-32.58-16.96-52.01-16.96
			c-18.54,0-35.23,7.6-48.97,16.18c-14.68,9.17-20.39,29.87-26.41,46.53"/>
	</g>
	<path class="st2" d="M86.76,124.2c0.47,2.57-3.62,33.16,13.15,33.16s13.14-33.16,13.14-33.16H86.76z"/>
	<ellipse class="st3" cx="62.99" cy="97.09" rx="7.92" ry="10.25"/>
	<ellipse class="st3" cx="139.13" cy="95.91" rx="7.92" ry="10.25"/>
	<g>
		<path class="st3" d="M125.52,57.54c-5.08-17.49-17.9-22.1-22.97-23.62c-1.11-0.33-2.06-0.06-3.13,0.38
			c-20.66,8.4-35.06,33.54-39.09,51.36c-0.23,0.64-0.48,1.8-0.48,2.88c0.21,30.28,22.32,48.32,40.06,48.32
			c17.83,0,40.92-19.53,40.92-50.07c0-1.06-0.03-2.1-0.07-3.14c-0.01-0.3-0.13-0.58-0.34-0.79
			C135.06,77.22,128.77,68.72,125.52,57.54z"/>
	</g>
	<path class="st4" d="M130.19,69.18"/>
	<path class="st0" d="M129.32,74.41c-10.04-3.61-18.88-2.4-18.88-2.4c-1.08,0.1-1.21,1.99-0.51,2.37c0.77,0.42,7.4,0.21,10.08,0.46
		c3.95,0.38,8.78,1.14,11.11,1.75C132.92,77.07,131.12,75.06,129.32,74.41z"/>
	<path class="st0" d="M72.92,73.14c8.81-3.44,18.24-1.77,18.24-1.77c1.07,0.15,1.12,2.1,0.4,2.46c-0.79,0.39-7.64-0.13-10.09,0
		c-4.78,0.25-8.21,1.06-10.57,1.58C69.08,75.8,71.13,73.83,72.92,73.14z"/>
	<path class="st4" d="M81.32,68.95"/>
	<path class="st4" d="M82.49,68.91"/>
	<path class="st5" d="M96.65,88.99c0,0-0.86,4.45-1.56,7.04s-3.26,7.06,2.44,8.22c0.87,0.18,2.39,0,2.39,0"/>
	<path class="st6" d="M111.99,112.95c0,0-5.89,4.75-12.33,4.75c-7.28,0-11.84-4.75-11.84-4.75s5.18,1.46,7.25,0.69
		c2.99-1.11,5.87-1.05,8.66-0.16C106.22,114.27,111.99,112.95,111.99,112.95z"/>
	<path class="st0" d="M87.69,86.21c0,3.03-2.33,0.63-5.2,0.63c-2.87,0-5.2,2.4-5.2-0.63s2.33-5.49,5.2-5.49S87.69,83.18,87.69,86.21
		z"/>
	<path class="st0" d="M121.3,86.21c0,3.03-2.37,0.63-5.28,0.63c-2.92,0-5.28,2.4-5.28-0.63s2.37-5.49,5.28-5.49
		C118.94,80.72,121.3,83.18,121.3,86.21z"/>
	<path class="st0" d="M96.09,33.77c-2.63,4-12.66,16.62-15.74,31.28c-0.22,1.05,0.57,2.03,1.64,2.03l0,0c0.72,0,1.37-0.46,1.59-1.15
		c1.64-5.05,8.72-25.28,18.41-31.43c3.16-2-0.98-3.53-2.4-3.21C99.02,31.41,96.41,33.28,96.09,33.77z"/>
	<path class="st0" d="M105.42,33.58c2.43,4.12,11.83,17.22,14.18,32.02c0.17,1.06-0.67,2-1.74,1.95l0,0
		c-0.72-0.04-1.34-0.53-1.53-1.23c-1.39-5.12-7.46-25.68-16.83-32.3c-3.05-2.16,1.15-3.48,2.55-3.09
		C102.61,31.08,105.12,33.07,105.42,33.58z"/>
	<path class="st0" d="M99.5,34.01c0,0-3.85,17-1.95,29.97c0.78,5.34,3.89,2.33,3.53-0.67c-0.35-2.99-0.74-24.28,2.07-28.38
		S99.58,31.09,99.5,34.01z"/>
	<path class="st7" d="M147.57,200.12c0,0-8.63-19.26-8.16-24.69c0.55-6.36,4.43-23.43,4.43-23.43s-3.05-2.12-6.16-3.27
		c-3.11-1.15-7.48-2.98-7.48-2.98l-4.48,22.2c-0.27,1.32-1.08,1.71-2.78,2.27c0,0-4.91,1.34-10.32,3.28
		c-4.15,1.49-12.26,6.03-12.26,6.03s-4.87-2.46-10.85-5.15c-5.99-2.7-12.59-4.16-12.59-4.16c-1.55-0.47-2.5-0.94-2.78-2.26
		l-4.03-19.39c0,0-3.6,1.4-6.89,2.84c-2.64,1.15-6.61,3.35-6.61,3.35s3.61,16.12,3.61,20.11c0,10.86-5.12,25.25-5.12,25.25"/>
	<path class="st5" d="M118.37,82.28c0,0,1.2,0.21,2.41-1.88"/>
	<path class="st5" d="M80.79,82.28c0,0-1.35-0.17-2.55-2.26"/>
</g>
</svg>
