<?xml version="1.0" encoding="utf-8"?>
<!-- Generator: Adobe Illustrator 24.1.0, SVG Export Plug-In . SVG Version: 6.00 Build 0)  -->
<svg version="1.1" id="레이어_1" xmlns="http://www.w3.org/2000/svg" xmlns:xlink="http://www.w3.org/1999/xlink" x="0px"
	 y="0px" width="200px" height="200px" viewBox="0 0 200 200" style="enable-background:new 0 0 200 200;" xml:space="preserve">
<style type="text/css">
	.st0{fill:#FFEBB5;stroke:#0C0C0C;stroke-width:3;stroke-miterlimit:10;}
	.st1{fill:#FFDD84;stroke:#0C0C0C;stroke-width:3;stroke-linecap:round;stroke-linejoin:round;stroke-miterlimit:10;}
	.st2{fill:#FFFFFF;stroke:#0C0C0C;stroke-width:3;stroke-miterlimit:10;}
	.st3{fill:none;stroke:#1D1D1B;stroke-width:2;stroke-linecap:round;stroke-miterlimit:10;}
	.st4{fill:none;stroke:#0C0C0C;stroke-width:3;stroke-linecap:round;stroke-miterlimit:10;}
	.st5{fill:none;stroke:#0C0C0C;stroke-width:2;stroke-linecap:round;stroke-miterlimit:10;}
	.st6{fill:#0C0C0C;}
</style>
<g>
	<g>
		<path class="st0" d="M177.24,201.51c-5.85-17.33-9.5-36.28-23.47-46.28c-15.04-10.77-33.25-16.1-53.07-16.1
			c-18.92,0-35.95,5.88-49.97,15.25c-14.98,10.01-20.21,28.93-26.35,47.13"/>
	</g>
	<path class="st1" d="M24.38,201.51c11.94-57.34,47.69-55.7,47.69-55.7l11.81,23.91l2.57,31.88"/>
	<path class="st1" d="M179.05,201.51c-11.94-57.34-47.69-55.7-47.69-55.7l-17.62,22.94l-1.32,32.85"/>
	<path class="st2" d="M84.48,126.88c0.67,3.6-1.43,34.44,14.22,34.44s15.65-34.44,15.65-34.44S84.48,126.88,84.48,126.88z"/>
	<path class="st2" d="M67.01,96.33c0,6.21-3.89,11.24-8.68,11.24c-3.94,0-7.52-5.14-8.68-11.24c-1.36-7.18,2.59-13.99,8.68-11.24
		C62.7,87.07,67.01,90.12,67.01,96.33z"/>
	<path class="st2" d="M129.91,96.33c0,6.21,3.89,11.24,8.68,11.24c3.94,0,7.52-5.14,8.68-11.24c1.36-7.18-2.59-13.99-8.68-11.24
		C134.22,87.07,129.91,90.12,129.91,96.33z"/>
	<path class="st3" d="M131.44,68.15"/>
	<path class="st2" d="M98.87,27.29c-26.28,0-46.29,15.2-41.32,61.94c4.82,45.28,34.84,51.09,42.09,51.09s37.11-8.69,39.49-53.29
		C141.38,44.78,129.88,27.29,98.87,27.29z"/>
	<path class="st4" d="M109.69,71.03c0,0,10.39-4.33,21.75-2.88"/>
	<path class="st3" d="M77.87,67.91"/>
	<path class="st3" d="M79.14,67.86"/>
	<path class="st4" d="M88.7,71.03c0,0-10.34-2.23-21.01-1.59"/>
	<path class="st5" d="M95.62,93.71c-0.1,1.69-0.59,3.98-0.95,7.4c-0.31,2.92-1.56,6.4,3.41,6.83c1.14,0.1,3.41-0.43,3.41-0.43"/>
	<path class="st5" d="M91.62,118.12c0,0,2.46,2.42,7.03,2.4c5.3-0.02,7.55-2.4,7.55-2.4"/>
	<ellipse class="st6" cx="115.91" cy="84.47" rx="4.66" ry="6.02"/>
	<path class="st5" d="M119.5,79.05c0,0,2.3,0.69,3.68-1.41"/>
	<path class="st6" d="M89.94,31.52c0,0-0.19,18.09,2.21,38.27c0.08,0.71,0.69,1.24,1.4,1.24l5.07-0.16c0.77,0,1.39-0.61,1.4-1.38
		c0.1-7.08-1.04-38.94-3.03-40.44C94.75,27.36,89.94,31.52,89.94,31.52z"/>
	<path class="st6" d="M96.19,29.74c0,0,5.82,27.93,6.26,39.97c0.02,0.6,0.51,1.06,1.11,1.06h3.86c0.62,0,1.12-0.5,1.11-1.12
		c-0.05-5.09-0.66-26.37-7-39.14L96.19,29.74z"/>
	<path class="st6" d="M91.57,29.74c0,0-4.7,28.3-5.12,40.3c-0.02,0.55-0.48,0.99-1.03,0.99H81.4c-0.58,0-1.04-0.46-1.03-1.04
		c0.05-4.94,0.63-26.38,7-39.22L91.57,29.74z"/>
	<path class="st6" d="M100.29,29.98c0,0,10.92,22.76,11.91,39.23c0.05,0.83,0.78,1.46,1.61,1.35l8.54-1.14
		c0.84-0.11,1.4-0.92,1.19-1.74C122.03,61.53,115.45,38.56,100.29,29.98z"/>
	<path class="st6" d="M103.1,31.8c0,0,19.05,19.12,24.52,36.49c0.13,0.41,0.37,0.77,0.76,0.93l6.01,2.44
		c1.06,0.43,2.12-0.64,1.66-1.69C132.45,61.67,121.13,37.86,103.1,31.8z"/>
	<path class="st6" d="M89.94,29.98c0,0-13.79,23-15.32,39.49c-0.13,1.38-1.07,2.53-2.4,2.91l-4.94,1.41
		c-0.94,0.27-1.81-0.57-1.58-1.52C67.57,64.63,74.99,38.44,89.94,29.98z"/>
	<path class="st6" d="M95.94,24.19c0,0,13.2-6.48,27.96,3.1s25.94,26.91,29.94,42.89c3.99,15.98-5.79,27.28-5.79,27.28
		s3.56-12.93-7.93-12.37c0,0,2.2-48.23-45.37-57.73L95.94,24.19z"/>
	<path class="st6" d="M95.94,24.19c0,0-18.24-6.25-32.65,8.86S45.4,64.66,44.18,74.38s5.09,22.07,5.09,22.07s-0.64-14.51,9.06-11.36
		c0,0,2.29-2.44,5.51-11.94c2.24-6.61,6.3-15.77,10.96-22.89c5.83-8.89,12.99-16.73,21.14-19.48V24.19z"/>
	<path class="st6" d="M55.84,107.95c0,0,4.6,6.9,4.39,11.94s1.24,5.73,8.68,5.56c0,0-7.06-15.41-8.48-17.5H55.84z"/>
	<path class="st6" d="M140.98,107.95c0,0-4.54,6.9-4.33,11.94c0.21,5.04-1.24,5.73-8.68,5.56c0,0,7.34-15.41,8.77-17.5H140.98z"/>
	<path class="st6" d="M95.94,30.78c0,0,18.06,8.35,26.64,17.9c16.33,18.19,18.26,35.12,18.26,35.12s4.26-41.38-34.3-55.27
		l-11.79-1.17l-0.11,2.73L95.94,30.78z"/>
	<path class="st5" d="M110.39,82.83c0,0,1.47-3.73,5.52-4.05c3.98-0.32,7.68,1.78,7.68,1.78"/>
	<ellipse class="st6" cx="80.22" cy="84.47" rx="4.66" ry="6.02"/>
	<path class="st5" d="M76.63,79.05c0,0-2.3,0.69-3.68-1.41"/>
	<path class="st5" d="M85.74,82.83c0,0-1.47-3.73-5.52-4.05c-3.98-0.32-7.68,1.78-7.68,1.78"/>
	<path class="st1" d="M129.93,142.61c6.03,1.58,20.74,3.92,23.35,10.53c0,0-7.69,1.09-15.61,10.17c-2.48,2.84-4.91,6.78-6.62,9.79
		c-1.37,2.42-4.27,3.26-6.59,1.91l-10.72-6.25c0,0,7.48-16.72,12-24.35C126.63,142.9,128.31,142.19,129.93,142.61z"/>
	<path class="st1" d="M68.47,144.27c-5.65,1.46-20.24,5.8-22.82,12.33c0,0,7.89,1.32,13.49,8.19c2.48,3.05,5.54,7.09,7.66,9.94
		c1.49,2,4.1,2.56,6.2,1.34l10.88-6.34c0,0-7.45-16.64-11.81-23.92C71.3,144.53,69.86,143.92,68.47,144.27z"/>
</g>
</svg>
