<?xml version="1.0" encoding="utf-8"?>
<!-- Generator: Adobe Illustrator 24.1.0, SVG Export Plug-In . SVG Version: 6.00 Build 0)  -->
<svg version="1.1" id="레이어_1" xmlns="http://www.w3.org/2000/svg" xmlns:xlink="http://www.w3.org/1999/xlink" x="0px"
	 y="0px" width="200px" height="200px" viewBox="0 0 200 200" style="enable-background:new 0 0 200 200;" xml:space="preserve">
<style type="text/css">
	.st0{fill:#0C0C0C;stroke:#0C0C0C;stroke-width:3;stroke-miterlimit:10;}
	.st1{fill:#FFDD84;stroke:#0C0C0C;stroke-width:3;stroke-linecap:round;stroke-linejoin:round;stroke-miterlimit:10;}
	.st2{fill:#FFFFFF;stroke:#0C0C0C;stroke-width:3;stroke-miterlimit:10;}
	.st3{fill:none;stroke:#1D1D1B;stroke-width:2;stroke-linecap:round;stroke-miterlimit:10;}
	.st4{fill:#0C0C0C;}
	.st5{fill:none;stroke:#0C0C0C;stroke-width:2;stroke-linecap:round;stroke-miterlimit:10;}
	.st6{fill:none;stroke:#0C0C0C;stroke-width:3;stroke-linecap:round;stroke-miterlimit:10;}
</style>
<g>
	<path class="st0" d="M95.72,22.55c0,0-43.57,1.28-47.71,61.42c-2.08,30.19,3.83,27.32-1.73,60.12
		c-1.93,11.39,4.62,19.93,9.55,22.95c2.99,1.83,16.64,5.67,43.08,5.67s49.66-3.15,53.35-4.84c9.34-4.27,7.17-16.88,6.87-21.78
		c-0.53-8.87-3.65-15.2-6.43-33.7c-1.55-10.33,0.45-23.45-1.11-32.59C147.25,54.29,138.85,18.62,95.72,22.55z"/>
	<g>
		<path class="st1" d="M175.16,207.25c-5.74-15.87-9.31-33.22-23-42.38c-14.74-9.87-32.58-14.74-52.01-14.74
			c-18.54,0-35.23,5.38-48.97,13.97c-14.68,9.17-19.8,26.49-25.83,43.16"/>
	</g>
	<path class="st2" d="M80.03,131.33c2.16,1.41,12.68,30.68,18.16,30.68s17.5-30.68,17.5-30.68L80.03,131.33L80.03,131.33z"/>
	<ellipse class="st2" cx="62.54" cy="99.87" rx="7.92" ry="10.25"/>
	<ellipse class="st2" cx="135.36" cy="99.87" rx="7.92" ry="10.25"/>
	<g>
		<path class="st2" d="M119.38,64.09c-12.58-15.41-14.45-25.61-19.13-27.12c-1.02-0.33-2.25,0.1-3.26,0.46
			c-13,4.69-33.14,24.49-35.53,52.74c-0.19,1.05-0.19,1.5-0.19,2.02c0.19,30.28,20.59,48.65,36.96,48.65
			c16.44,0,37.75-19.53,37.75-50.07c0-1.06-0.03-2.1-0.07-3.14c-0.01-0.3-0.23-0.51-0.31-0.79
			C133.18,78.62,128.11,74.79,119.38,64.09z"/>
	</g>
	<path class="st3" d="M128.45,73.13"/>
	<path class="st4" d="M127.7,74.26c-8.88-2.14-16.5-1.14-18.55-0.93c-0.3,0.03-0.52,0.32-0.52,0.67v1.62c0,0.4,0.3,0.72,0.64,0.67
		c1.69-0.24,6.43-0.84,11.08-0.58c5.07,0.28,11.86,1.55,11.86,1.55S129.57,74.71,127.7,74.26z"/>
	<path class="st4" d="M72.38,72.75c8.98-1.6,16.53-0.26,18.57,0.05c0.3,0.04,0.51,0.33,0.49,0.67l-0.08,1.55
		c-0.02,0.39-0.33,0.67-0.68,0.61c-1.67-0.32-6.38-1.13-11.03-1.11c-5.08,0.01-11.92,0.88-11.92,0.88S70.49,73.09,72.38,72.75z"/>
	<path class="st3" d="M79.59,72.91"/>
	<path class="st3" d="M80.75,72.87"/>
	<path class="st5" d="M95.17,88.82c0,0-0.55,7.89-1.81,12.23c-0.75,2.57-3.26,7.06,2.44,8.22c0.87,0.18,2.39,0,2.39,0"/>
	<path class="st5" d="M88.69,117.55c0,0,3.02,3.5,8.66,3.5c6.56,0,9.66-3.5,9.66-3.5"/>
	<ellipse class="st4" cx="114.29" cy="88.02" rx="4.25" ry="5.49"/>
	<path class="st5" d="M117.79,84.14c0,0,1.95,0.68,2.62-0.88"/>
	<path class="st6" d="M100.23,36.94c0,0,7.8,30.15,30.08,46.43"/>
	<path class="st5" d="M109.44,86.04c0,0,1.74-2.54,4.84-2.54c4.68,0,6.12,2.75,6.12,2.75"/>
	<ellipse class="st4" cx="80.75" cy="88.02" rx="4.25" ry="5.49"/>
	<path class="st5" d="M77.25,84.14c0,0-1.95,0.68-2.62-0.88"/>
	<path class="st5" d="M85.59,86.04c0,0-1.74-2.54-4.84-2.54c-4.68,0-6.12,2.75-6.12,2.75"/>
</g>
</svg>
