<?xml version="1.0" encoding="utf-8"?>
<!-- Generator: Adobe Illustrator 24.1.0, SVG Export Plug-In . SVG Version: 6.00 Build 0)  -->
<svg version="1.1" id="레이어_1" xmlns="http://www.w3.org/2000/svg" xmlns:xlink="http://www.w3.org/1999/xlink" x="0px"
	 y="0px" width="200px" height="200px" viewBox="0 0 200 200" style="enable-background:new 0 0 200 200;" xml:space="preserve">
<style type="text/css">
	.st0{fill:#0C0C0C;}
	.st1{fill:#FFDD84;stroke:#0C0C0C;stroke-width:3;stroke-linecap:round;stroke-linejoin:round;stroke-miterlimit:10;}
	.st2{fill:#FFFFFF;stroke:#0C0C0C;stroke-width:3;stroke-miterlimit:10;}
	.st3{fill:none;stroke:#1D1D1B;stroke-width:2;stroke-linecap:round;stroke-miterlimit:10;}
	.st4{fill:none;stroke:#0C0C0C;stroke-width:2;stroke-linecap:round;stroke-miterlimit:10;}
	.st5{fill:none;stroke:#0C0C0C;stroke-width:1.5;stroke-linecap:round;stroke-linejoin:round;stroke-miterlimit:10;}
	.st6{fill:none;stroke:#0C0C0C;stroke-linecap:round;stroke-linejoin:round;stroke-miterlimit:10;}
</style>
<g>
	<path class="st0" d="M95.68,24.1c0,0,23.2-8.34,40.44,17.53c14.34,21.53,7.59,29.65,13.8,40.19s7.51,23.13,1.63,30.96
		c-5.88,7.83-4.57,13.96,1.63,22.47c6.21,8.51,4.9,20.6-1.96,28.68H46.02c0,0-5.87-0.61-4.55-13.6c1.15-11.31,6.52-12.94,6.52-21.45
		s-7.13-14.86-6.48-27.12c0.82-15.64,4.99-19.07,6.48-26.9c1.22-6.44-0.66-35.61,23.68-49.08C78.14,22.19,87.02,19.91,95.68,24.1z"
		/>
	<g>
		<path class="st1" d="M174.9,199.76c-5.74-15.87-9.31-33.22-23-42.38c-14.74-9.87-32.58-14.74-52.01-14.74
			c-18.54,0-35.23,5.38-48.97,13.97c-14.68,9.17-19.8,26.49-25.83,43.16"/>
	</g>
	<path class="st2" d="M79.77,126.53c2.16,1.41,12.09,37.4,17.56,37.4s18.1-37.4,18.1-37.4S79.77,126.53,79.77,126.53z"/>
	<path class="st2" d="M69.47,94.55c0,6.08-1.21,12.04-5.9,12.04s-8.37-6.05-9.59-12.01c-1.36-6.68,1.88-12.42,6.99-11.04
		C65.5,84.76,69.47,88.47,69.47,94.55z"/>
	<path class="st3" d="M130.48,65.83"/>
	<path class="st2" d="M97.24,25.78c-24.48,0-38.53,16.57-36.83,60.7c1.73,45.23,31.97,52.06,37.55,52.06s35.27-9.6,36.44-52.72
		C135.5,45.05,126.13,25.78,97.24,25.78z"/>
	<path class="st3" d="M77.98,65.59"/>
	<path class="st3" d="M79.23,65.54"/>
	<path class="st0" d="M126.25,76.16c0.2,0.09,0.37-0.18,0.23-0.35c-2.2-2.54-3.68-3.6-6.24-4.06c-6.58-1.17-12.42,0.13-14.67,0.73
		c-0.46,0.12-0.79,0.55-0.75,1.04l0.08,1.1c0.04,0.55,0.52,1.01,1.04,0.89c3.86-0.89,10.64-1.33,13.56-0.99
		C122.43,74.86,124.98,75.6,126.25,76.16z"/>
	<path class="st0" d="M68.71,76.06c-0.2,0.09-0.37-0.18-0.22-0.35c2.22-2.52,3.72-3.57,6.27-4c6.59-1.11,12.42,0.25,14.66,0.87
		c0.46,0.13,0.78,0.55,0.74,1.05l-0.09,1.1c-0.05,0.55-0.53,1-1.04,0.88c-3.85-0.93-10.62-1.43-13.55-1.12
		C72.55,74.8,69.99,75.51,68.71,76.06z"/>
	<path class="st4" d="M95.07,89.19c0,0-0.6,5.54-1.36,8.31s-3.5,7.58,2.62,8.83c0.94,0.19,2.57,0,2.57,0"/>
	<path class="st4" d="M88.95,114.93c0,0,3.35,2.89,8.76,2.88c6.26-0.02,8.48-2.88,8.48-2.88"/>
	<ellipse class="st0" cx="113" cy="85.14" rx="4.18" ry="5.4"/>
	<path class="st0" d="M96.42,25.79c0,0,0.43,10.72,0.77,14.64c0,0-9.19,0.5-19.21,9.14c-9.04,7.8-6.77,19.97-11.59,27.6
		c-5.79,9.16-7.26,6.36-12.01,9.94c0,0-4.6-30.67,4.94-44.97S87.91,23.06,96.42,25.79z"/>
	<path class="st0" d="M97.19,40.43c0,0,17.28-1.66,23.9,14.95c4.93,12.37,7.37,29.42,23.58,35.1c0,0,11.54-62.6-50.01-65.43
		L97.19,40.43z"/>
	<path class="st4" d="M117.03,80.44c0,0,1.83,0.35,2.78-1.29"/>
	<line class="st5" x1="68.27" y1="92.37" x2="68.34" y2="92.62"/>
	<line class="st6" x1="79.77" y1="125.12" x2="79.82" y2="125.37"/>
	<path class="st4" d="M107.85,82.65c0,0,1.65-2.85,5.22-2.85c3.85,0,6.28,1.69,8.02,2.85"/>
	<ellipse class="st0" cx="80.74" cy="85.14" rx="4.18" ry="5.4"/>
	<path class="st4" d="M76.62,80.44c0,0-1.83,0.35-2.78-1.29"/>
	<path class="st4" d="M85.9,82.65c0,0-1.65-2.85-5.22-2.85c-3.85,0-6.22,1.69-7.97,2.85"/>
</g>
</svg>
