<?xml version="1.0" encoding="utf-8"?>
<!-- Generator: Adobe Illustrator 24.1.0, SVG Export Plug-In . SVG Version: 6.00 Build 0)  -->
<svg version="1.1" id="레이어_1" xmlns="http://www.w3.org/2000/svg" xmlns:xlink="http://www.w3.org/1999/xlink" x="0px"
	 y="0px" width="200px" height="200px" viewBox="0 0 200 200" style="enable-background:new 0 0 200 200;" xml:space="preserve">
<style type="text/css">
	.st0{fill:#0C0C0C;}
	.st1{fill:#FFDD84;}
	.st2{fill:none;}
	.st3{fill:#FFFFFF;stroke:#0C0C0C;stroke-width:3;stroke-miterlimit:10;}
	.st4{fill:none;stroke:#1D1D1B;stroke-width:2;stroke-linecap:round;stroke-miterlimit:10;}
	.st5{fill:none;stroke:#0C0C0C;stroke-width:2;stroke-linecap:round;stroke-miterlimit:10;}
</style>
<path class="st0" d="M53.1,69.8c0,0,3.1,85.4-6.5,114L148.8,165c0,0-2.2-51.2-2.4-62.3S53.1,69.8,53.1,69.8z"/>
<g>
	<g>
		<path class="st1" d="M153,154.8c-16.1-7.5-31.3-11-50.7-11c-13.8,0-26.6,3.3-38.4,7.5c-0.2,0-30.2,6.7-36.8,30.9
			c-1.1,4.2-3,13.1-4.8,23.4h156.1C172.9,185.4,164.1,160,153,154.8z"/>
	</g>
	<g>
		<path class="st2" d="M152.4,156.2c-16.2-7.6-31.2-10.8-50.1-10.8c-11.6,0-23.7,2.3-37.9,7.4c-0.1,0-0.1,0-0.2,0
			c-0.3,0.1-7.6,1.7-15.6,6.3c-10.7,6-17.4,13.9-20,23.6c-1.1,4.2-3,12.9-4.8,23.1h153C168.8,176.7,160.7,160.1,152.4,156.2z"/>
		<path class="st0" d="M28.6,182.6c2.6-9.6,9.4-17.6,20-23.6c8-4.5,15.3-6.2,15.6-6.3c0.1,0,0.1,0,0.2,0c14.2-5,26.3-7.4,37.9-7.4
			c18.9,0,33.8,3.2,50.1,10.8c8.3,3.9,16.5,20.5,24.4,49.5h3.1c-8.4-30.7-17-47.8-26.3-52.2c-16.6-7.8-32-11.1-51.3-11.1
			c-12,0-24.3,2.4-38.8,7.5c-2.2,0.5-31.2,7.6-37.8,32c-1.2,4.3-3,13.3-4.9,23.8h3C25.6,195.5,27.4,186.8,28.6,182.6z"/>
	</g>
</g>
<path class="st3" d="M88.6,129c0.2,1.5,0.6,5.6,0.6,14.9c0,0-1,21.6,14.4,21.6s14.6-21,14.6-21l0.5-15.6L88.6,129L88.6,129z"/>
<ellipse class="st3" cx="63.9" cy="95.2" rx="8.5" ry="11"/>
<ellipse class="st3" cx="140.3" cy="98.8" rx="8.5" ry="11"/>
<g>
	<path class="st3" d="M136.8,47.6c-5.3-8.2-12.3-19-36.8-17.7c-24.8,1.4-39.2,16.9-37.2,56.9c0,0.8,0,2.6,0,3.7
		c0.2,32.5,28.7,49,43.1,49s38.4-17.7,38.4-50.5c0-1.1,0-4.2,0-4.6C144.8,72.5,143.1,57.4,136.8,47.6z"/>
</g>
<path class="st4" d="M130.9,70.1"/>
<path class="st4" d="M80.4,69.8"/>
<path class="st5" d="M110,86.1c0,0,0.2,2.7,1.3,8c0.6,2.8,1.9,5.8,1.2,7.9c-1,2.8-7.1,2.1-7.1,2.1"/>
<path class="st5" d="M99.3,115.5c0,0,3.6,3,8,3c5.1,0,8.2-3,8.2-3"/>
<ellipse class="st0" cx="90.9" cy="86" rx="4.6" ry="5.9"/>
<ellipse class="st0" cx="125.2" cy="86" rx="4.6" ry="5.9"/>
<path class="st5" d="M87.5,81c0,0-3.1,1.4-4.4-1.3"/>
<path class="st5" d="M127.9,80.6c0,0,1.9,0.6,2.9-0.9"/>
<path class="st0" d="M97.7,23.9c0,0,20.5,11.5,26.1,30c2.4,7.9,7.3,29.6,24.9,39.1c0,0,9.1-30.4-3.5-52.6
	C133.5,19.4,111.1,15.1,97.7,23.9z"/>
<path class="st0" d="M106.4,20c0,0-30.5-5.1-46,20.7C47.2,62.7,56,88.4,56,88.4l7-2.6c0,0,9.6-7,13.6-17.6
	c5.4-14,14.3-36.9,37.2-33.5L106.4,20z"/>
<path class="st0" d="M116.6,73.2l0.6,1.4c0.2,0.4,0.7,0.6,1.1,0.5c2.1-0.9,7.8-3.1,12.1-3.1c5.4,0,10.9,1.2,10.9,1.2
	s-4.5-5.4-12.6-5c-4.9,0.3-8.3,1.3-10.8,2.4C116.8,71.2,116.2,72.2,116.6,73.2z"/>
<path class="st0" d="M100.4,72.3l-0.4,1.5c-0.1,0.4-0.6,0.7-1,0.5c-2.1-0.7-8-2.5-12.3-2.1C81.3,72.6,76,74.3,76,74.3
	s4.1-5.8,12.2-5.9c4.9-0.1,8.4,0.7,10.9,1.6C100,70.2,100.7,71.2,100.4,72.3z"/>
<path class="st5" d="M95.9,82.7c0,0-1.3-2.7-5.1-2.6c-3.7,0.1-7.6,3-7.6,3"/>
<path class="st5" d="M130.4,82.7c0,0-1.3-2.7-5.1-2.6c-3.7,0.1-7.6,3-7.6,3"/>
<path class="st0" d="M88,205.8h-4.2c-8.4,0-15.3-0.2-15.3-0.2v-81.4l19.5,9.4c0,0-1.7,10.4-1.7,33.8S88,205.8,88,205.8z"/>
<path class="st0" d="M104,35.7"/>
</svg>
