<?xml version="1.0" encoding="utf-8"?>
<!-- Generator: Adobe Illustrator 24.1.0, SVG Export Plug-In . SVG Version: 6.00 Build 0)  -->
<svg version="1.1" id="레이어_1" xmlns="http://www.w3.org/2000/svg" xmlns:xlink="http://www.w3.org/1999/xlink" x="0px"
	 y="0px" width="200px" height="200px" viewBox="0 0 200 200" style="enable-background:new 0 0 200 200;" xml:space="preserve">
<style type="text/css">
	.st0{fill:#FFDD84;stroke:#0C0C0C;stroke-width:3;stroke-linecap:round;stroke-linejoin:round;stroke-miterlimit:10;}
	.st1{fill:#FFFFFF;stroke:#0C0C0C;stroke-width:3;stroke-miterlimit:10;}
	.st2{fill:none;stroke:#1D1D1B;stroke-width:2;stroke-linecap:round;stroke-miterlimit:10;}
	.st3{fill:#0C0C0C;}
	.st4{fill:none;stroke:#0C0C0C;stroke-width:2;stroke-linecap:round;stroke-miterlimit:10;}
</style>
<g>
	<g>
		<path class="st0" d="M182.65,207.76c-6.34-15.87-10.29-33.22-25.43-42.38c-16.3-9.87-36.03-14.74-57.51-14.74
			c-20.51,0-38.96,5.38-54.16,13.97c-16.23,9.17-21.9,26.49-28.56,43.16"/>
	</g>
	<path class="st1" d="M81.72,134.53c2.16,1.41,12.09,37.4,17.56,37.4s18.1-37.4,18.1-37.4H81.72z"/>
	<path class="st1" d="M148.39,97.32c-0.31,2.18-1.91,5.57-2.97,7.12c-1.11,1.63-1,6.99-5.3,7.24c-4.69,0.28-8.51-6.6-8.51-12.68
		s4.05-9.51,8.51-11.01C147.64,85.46,149.3,90.95,148.39,97.32z"/>
	<path class="st1" d="M50.57,97.32c0.31,2.18,1.91,5.57,2.97,7.12c1.11,1.63,1.01,6.98,5.31,7.23c4.69,0.28,8.49-6.59,8.49-12.67
		c0-6.08-4.05-9.51-8.51-11.01C51.32,85.46,49.66,90.95,50.57,97.32z"/>
	<path class="st2" d="M132.51,73.83"/>
	<path class="st1" d="M99.63,33.78c-25.52,0-44.59,16.54-40.13,60.7s31.96,52.06,40.88,52.06s38.29-10.01,39.84-52.72
		C141.73,52.4,129.75,33.78,99.63,33.78z"/>
	<path class="st3" d="M126.51,74.63c-7.67-0.08-14.47,1.28-16.56,1.74c-0.39,0.09-0.66,0.43-0.66,0.82v1.75
		c0,0.52,0.46,0.91,0.97,0.84c2.67-0.41,9.98-1.48,12.6-1.68c2.97-0.22,5.91-0.05,7.19,0.02c0.29,0.02,0.49-0.3,0.33-0.55
		C129.77,76.58,128.36,74.65,126.51,74.63z"/>
	<path class="st3" d="M74.06,74.63c7.67-0.08,14.47,1.28,16.56,1.74c0.39,0.09,0.66,0.43,0.66,0.82v1.75c0,0.52-0.46,0.91-0.97,0.84
		c-2.67-0.41-9.98-1.48-12.6-1.68c-2.97-0.22-5.91-0.05-7.19,0.02c-0.29,0.02-0.49-0.3-0.33-0.55
		C70.8,76.58,72.21,74.65,74.06,74.63z"/>
	<path class="st2" d="M80.01,73.59"/>
	<path class="st2" d="M81.26,73.54"/>
	<path class="st4" d="M97.48,94.31c0,0-1.11,4.9-1.89,9.3c-0.58,3.28-1.54,10.3,4.49,10.3c0.96,0,3.31,0,3.31,0"/>
	<path class="st4" d="M94.32,123.5c0,0,1.99,1.81,5.85,1.97c4.47,0.19,6.44-1.4,6.44-1.4"/>
	<ellipse class="st3" cx="81.8" cy="90.16" rx="4.56" ry="5.9"/>
	<ellipse class="st3" cx="116.57" cy="90.16" rx="4.56" ry="5.9"/>
	<path class="st3" d="M129.63,27.86C113.4,16.7,98.72,25.1,98.11,25.47l-0.79,0.46l0.85,15.62l1.37,0.05c0.13,0,12.75,0.5,20.3,4.86
		c7.25,4.18,12.22,12.26,13.21,14.73c2.63,6.55,4.54,19.82,5.58,27.02l0.57,3.94l2.17-3.33c0.13-0.2,3.25-5.09,5.02-16.41
		c0.18-1.15,0.39-2.33,0.61-3.53c0.69-3.81,1.47-8.14,1.36-12.59C148.15,46.84,138.5,33.96,129.63,27.86z"/>
	<path class="st3" d="M101.09,40.03c-0.02-0.44-0.47-10.85-0.73-13.42l-0.09-0.38c-0.1-0.28-2.63-6.78-10.88-6.78h-0.01
		c-4.85,0-17.91,5.02-22.78,9.35c-5.02,4.47-13.63,13.99-17.04,21.15c-3.89,8.19-5.01,23.46,1.27,39.12l0.8,1.99l1.6-1.43
		c0.76-0.68,1.78-0.97,2.78-0.79l2.41,0.43v-1.79c0-0.05,0.02-5.05,2.14-12.3c0.34-0.83,3.4-3.82,5.86-6.23
		c4.46-4.36,9.52-9.31,11.1-12.69c2.29-4.9,12.68-14.42,22.11-14.66l1.53-0.04L101.09,40.03z"/>
	<path class="st4" d="M86.87,87.13c0,0-1.55-1.85-4.23-2.08c-1.95-0.17-4.43-0.27-6.01,0.41c-1.57,0.67-2.08,1.9-2.08,1.9"/>
	<path class="st4" d="M111.3,87.13c0,0,1.55-1.85,4.23-2.08c1.95-0.17,4.43-0.27,6.01,0.41c1.57,0.67,2.08,1.9,2.08,1.9"/>
</g>
</svg>
