<?xml version="1.0" encoding="utf-8"?>
<!-- Generator: Adobe Illustrator 24.1.0, SVG Export Plug-In . SVG Version: 6.00 Build 0)  -->
<svg version="1.1" id="레이어_1" xmlns="http://www.w3.org/2000/svg" xmlns:xlink="http://www.w3.org/1999/xlink" x="0px"
	 y="0px" width="200px" height="200px" viewBox="0 0 200 200" style="enable-background:new 0 0 200 200;" xml:space="preserve">
<style type="text/css">
	.st0{fill:#FFDD84;stroke:#0C0C0C;stroke-width:3;stroke-linecap:round;stroke-linejoin:round;stroke-miterlimit:10;}
	.st1{fill:#FFFFFF;stroke:#0C0C0C;stroke-width:3;stroke-miterlimit:10;}
	.st2{fill:#FFFFFF;stroke:#0C0C0C;stroke-width:3;stroke-miterlimit:9.9999;}
	.st3{fill:#FFFFFF;stroke:#0C0C0C;stroke-width:2.9999;stroke-miterlimit:9.9998;}
	.st4{fill:none;stroke:#1D1D1B;stroke-width:2;stroke-linecap:round;stroke-miterlimit:10;}
	.st5{fill:#0C0C0C;}
	.st6{fill:none;stroke:#0C0C0C;stroke-width:2;stroke-linecap:round;stroke-miterlimit:10;}
	.st7{fill:none;stroke:#0C0C0C;stroke-width:3;stroke-linecap:round;stroke-linejoin:round;stroke-miterlimit:10;}
</style>
<g>
	<g>
		<path class="st0" d="M182.79,203.12c-4.78-16.83-6.31-35.59-22.02-44.96c-15.35-9.15-38.69-12.17-59.91-12.17
			c-20.25,0-40.52,4.41-53.5,11.39c-16.26,8.75-21.63,29.07-28.21,45.73"/>
	</g>
	<path class="st0" d="M92.11,170.03c0,0-3.45-4.05-11.96-5.93c-10.07-2.22-27.49,2.26-30.89-8.02s9.7-13.43,9.7-13.43
		s-4.77-6.68,1.29-11.99c7.57-6.63,34.48-5.92,34.48-5.92c18.83-0.3,41.93-2.82,52.11,4.79c3.28,2.45,6.6,12.28-2.46,12.84
		c0,0,12.9-0.96,13.3,9.68c0.41,10.64-23.22,6.87-33.46,10.64c-8.48,3.13-11.58,7.34-11.58,7.34"/>
	<path class="st1" d="M87.37,129.9c1.89,1.3-0.47,34.6,15.33,34.6s15.8-34.6,15.8-34.6H87.37z"/>
	
		<ellipse transform="matrix(0.9773 -0.2118 0.2118 0.9773 -20.1669 15.3943)" class="st2" cx="61.77" cy="101.83" rx="8.74" ry="11.32"/>
	
		<ellipse transform="matrix(0.1775 -0.9841 0.9841 0.1775 18.4815 223.1629)" class="st3" cx="142.75" cy="100.52" rx="11.32" ry="8.74"/>
	<g>
		<path class="st1" d="M138.51,52.32c-11.64-14.46-27.41-17.31-33.33-18.38c-1.2-0.22-5.4-0.41-7.04-0.41
			C73,33.57,57.32,47.38,59.44,84.97c-0.14,0.94,0.41,7.34,0.4,8.33c6.65,33.03,23.48,47.62,42.29,47.62
			c18.9,0,38.76-17.12,43.39-50.72c0.15-1.06,0.3-5.72,0.4-7.4C146.57,71.65,145.59,61.11,138.51,52.32z"/>
	</g>
	<path class="st4" d="M135.54,73.8"/>
	<path class="st4" d="M81.58,73.55"/>
	<path class="st4" d="M82.87,73.51"/>
	<path class="st5" d="M92.06,77.09c0.15-0.51-0.09-1.06-0.57-1.23c-1.75-0.64-6.33-1.87-14.3-1c-0.57,0.06-1.75,1.47-2.55,2.51
		c-0.32,0.42-0.02,1.05,0.48,1c3.11-0.28,11.02-0.84,15.72,0.02c0.45,0.08,0.89-0.22,1.03-0.69L92.06,77.09z"/>
	<path class="st5" d="M111.82,76.97c-0.14-0.51,0.11-1.06,0.58-1.22c1.76-0.62,6.36-1.78,14.31-0.8c0.57,0.07,1.73,1.49,2.51,2.55
		c0.32,0.43,0.01,1.05-0.5,0.99c-3.1-0.32-11-1-15.72-0.2c-0.45,0.08-0.89-0.23-1.02-0.7L111.82,76.97z"/>
	<path class="st6" d="M99.45,89.78c0,0-1.24,6.44-2.01,9.29s-3.6,7.8,2.69,9.07c0.97,0.2,2.64,0,2.64,0"/>
	<path class="st6" d="M91.57,118.07c0,0,3.55,2.43,10.17,2.42c7.67-0.02,10.92-2.42,10.92-2.42"/>
	<ellipse class="st5" cx="82.87" cy="90.23" rx="4.69" ry="6.06"/>
	<ellipse class="st5" cx="119.9" cy="90.23" rx="4.69" ry="6.06"/>
	<path class="st5" d="M153.56,40.65c-0.52-1.41-1.82-2.05-3.21-1.6c-1.75,0.56-4.13,0.44-4.79,0.05c0.08-0.21,0.35-0.7,1.17-1.51
		c0.91-0.9,3.66-3.63,2.48-5.98c-1.15-2.29-4.71-1.72-5.77-1.5c-1.5,0.32-3.22,0.2-4.24-0.04c1.83-2.02,2.49-6.57,2.09-9
		c-0.33-2.02-1.27-2.74-2.01-2.98c-1.14-0.38-2.4,0.13-3.74,1.51c-4.33,4.48-15.53,3.73-26.36,3.01c-7.38-0.49-15.01-1-21.39-0.05
		C67.92,25.51,57.94,34.51,53.35,53.6c-4.17,17.32,0.85,40.13,1.06,41.09l0,0l6.75-3.33l0.12-0.4c0.09-0.29,8.81-29.54,13.61-35.87
		c1.46-1.93,8.98-4.22,25.37-4.32c11.94-0.07,24.28,1.12,28.09,2.73c5.4,2.28,12.28,23.96,15.35,37.1l1.05,4.48l1.68-4.27
		c2.14-5.43,2.2-15.97,2.24-25.27c0.03-6.06,0.07-14.33,1.05-15.66C152.82,48.27,154.53,43.28,153.56,40.65z"/>
	<path class="st6" d="M115.19,87.17c0,0,4.93-5.11,11.86,0.65"/>
	<path class="st6" d="M87.46,87.07c0,0-5.02-5.02-11.85,0.86"/>
	<path class="st7" d="M68.54,144.31c0,0,15.63,0,24.5,13.47"/>
	<path class="st7" d="M136.67,143.68c0,0-19.8,4.96-24.01,14.1"/>
	<path class="st7" d="M87.39,167.25c0,0,2.62,13.57,2.71,20.56"/>
	<circle class="st7" cx="90.1" cy="191.02" r="3.21"/>
	<circle class="st7" cx="120.64" cy="185.23" r="3.21"/>
	<path class="st7" d="M120.07,164.49c0,0-0.87,11.74,0.57,16.95"/>
	<line class="st7" x1="90.1" y1="194.23" x2="90.1" y2="199.43"/>
	<line class="st7" x1="121.89" y1="189.11" x2="122.83" y2="194.22"/>
</g>
</svg>
