<?xml version="1.0" encoding="utf-8"?>
<!-- Generator: Adobe Illustrator 24.1.0, SVG Export Plug-In . SVG Version: 6.00 Build 0)  -->
<svg version="1.1" id="레이어_1" xmlns="http://www.w3.org/2000/svg" xmlns:xlink="http://www.w3.org/1999/xlink" x="0px"
	 y="0px" width="200px" height="200px" viewBox="0 0 200 200" style="enable-background:new 0 0 200 200;" xml:space="preserve">
<style type="text/css">
	.st0{fill:#FFDD84;}
	.st1{fill:#0C0C0C;}
	.st2{fill:#FFDD84;stroke:#0C0C0C;stroke-width:3;stroke-linecap:round;stroke-linejoin:round;stroke-miterlimit:10;}
	.st3{fill:#FFFFFF;stroke:#0C0C0C;stroke-width:3;stroke-miterlimit:10;}
	.st4{fill:none;stroke:#1D1D1B;stroke-width:2;stroke-linecap:round;stroke-miterlimit:10;}
	.st5{fill:none;stroke:#0C0C0C;stroke-width:2;stroke-linecap:round;stroke-miterlimit:10;}
</style>
<g>
	<g>
		<path class="st0" d="M163.1,169.7c-9.3-4.5-33.3-15-56.3-13.9c-13,0.6-37.6,6.6-57.5,16.6c-5.5,2.7-10.7,16.2-15.8,30.7h141.1
			C174.7,189.8,172.9,174.5,163.1,169.7z"/>
		<path class="st1" d="M48.6,171c19.1-9.6,43.7-16.1,58.1-16.8c19.7-0.9,41.6,6.5,57.1,14.1c10.5,5.1,12.4,20.9,12.4,34.7h1.5
			c0.1-14.3-1.9-30.5-13.2-36c-9.5-4.6-34-15.3-57.8-14.2c-13.6,0.6-38.2,6.6-58.7,16.9c-6.6,3.3-12.1,17.4-17.6,33.3H32
			C37.2,187.9,42.6,174,48.6,171z"/>
		<path class="st1" d="M163.8,168.4c-15.4-7.5-37.4-15-57.1-14.1c-14.4,0.6-39,7.2-58.1,16.8c-6,3-11.4,16.9-16.7,32h1.6
			c5.1-14.5,10.3-27.9,15.8-30.7c20-10,44.5-16,57.5-16.6c23.1-1,47.1,9.4,56.3,13.9c9.7,4.8,11.5,20.1,11.5,33.3h1.5
			C176.2,189.2,174.3,173.5,163.8,168.4z"/>
	</g>
	<path class="st2" d="M64.9,65.8l-7.6-4c-1.9-1-4.3,0.1-4.7,2.3l-6.2,32.8c-0.3,1.4,0.4,2.7,1.6,3.4l10.3,5.9L64.9,65.8z"/>
	<path class="st1" d="M72,48.9c0-0.1,0-0.2,0-0.3c-0.3-1.6-2.8-14.9-14.3-14.8c-8.3,0.1-11,4-12.1,5.9c-0.3,0.5,0.2,1.2,0.8,0.9
		c1-0.4,2.2-0.7,3.4-0.2c0,0-6.3,1.3-7.1,8c-0.1,0.9,1,1.4,1.6,0.7c0.8-1,1.8-1.9,2.6-1.8c0,0-3.4,3-3.7,6.9c-0.1,0.9,1,1.3,1.5,0.7
		c1.9-2.3,5.1-4.7,7.9-4.8c5.9-0.1,7.5,3.9,6.4,13c-0.9,7.6-12.6,20.4,1.2,39.1c13.3,18,6.9-14.7,6.3-17.2c0-0.1,0-0.2,0-0.3
		L72,48.9z"/>
	<path class="st1" d="M89,141.4c0,0-33.5,2.8-38.8-25.7s9.9-44.8,9.9-44.8S98.2,110.8,89,141.4z"/>
	<path class="st3" d="M90.3,138.2c1.1,0.7,1.6,7.3,1.6,17.3c0,0-10.6,2.4-19.9,6c-5.2,2.1,17.4,13.8,40.1,16.1
		c2.5,0.2,38.5-14.3,29.8-17.9c-5.5-2.3-16.9-5.4-16.9-5.4l-0.6-16.1L90.3,138.2L90.3,138.2z"/>
	<ellipse class="st3" cx="68.6" cy="102.6" rx="8.5" ry="11"/>
	<ellipse class="st3" cx="144.1" cy="99.3" rx="8.5" ry="11"/>
	<g>
		<path class="st3" d="M141.7,52.2c-5.3-8.1-12.4-16.6-36.8-17.5S65.5,54.3,67.6,94.2c0,0.8,0,2.6,0,3.7
			c0.2,32.5,30.3,56.4,47.3,52.3c12.9-3.1,34.1-21,34.1-53.8c0-1.1,0-4.2,0-4.6C149.5,79.9,148,62,141.7,52.2z"/>
	</g>
	<path class="st4" d="M137.9,77.4"/>
	<path class="st1" d="M142.2,81.2c0.2,0.1,0.4-0.3,0.2-0.4c-1.4-1.2-3.6-2.9-6-3.2c-4.9-0.4-11.4,1.2-13.1,1.7
		c-0.2,0.1-0.4,0.3-0.4,0.6l-0.1,1.8c0,0.4,0.3,0.7,0.7,0.6c2.3-0.5,9.6-2,12.6-2C138.6,80.2,141,80.9,142.2,81.2z"/>
	<path class="st1" d="M84.2,82.3c-0.2,0-0.4-0.3-0.2-0.4c1.6-1.2,4.2-3.7,6.9-4.2c5.3-0.9,13,1,14.9,1.4c0.3,0.1,0.5,0.3,0.5,0.5
		l0.1,1.8c0,0.4-0.4,0.7-0.8,0.6c-2.6-0.4-11-2-14.6-1.4C88.1,81.2,85.6,82,84.2,82.3z"/>
	<path class="st4" d="M85.1,77.2"/>
	<path class="st5" d="M115.2,93.8c0,0,2.6,10.1,3.6,12.9s3.6,8.1-4.5,9.4c-1.2,0.2-3.4,0-3.4,0"/>
	<path class="st5" d="M105.9,127.1c0,0,3.7,2.9,8.4,2.9c5.4,0,8.6-2.8,8.6-2.8"/>
	<ellipse class="st1" cx="98.5" cy="93.8" rx="4.3" ry="5.6"/>
	<ellipse class="st1" cx="131" cy="93.8" rx="4.3" ry="5.6"/>
	<path class="st1" d="M111.3,41.3c0,0-30.7,0-43.1,51.3c0,0-8.1-2.8-8.1,13.5c0,5.3-16.5-38.4,4.5-65.7
		C82.2,17.7,100.6,28.5,111.3,41.3z"/>
	<path class="st1" d="M86.5,27.3c0,0,26.7-17,53.1,5.3c25,21.1,14,61.9,14,67.3c0,0,0.2-6.3-4.4-9.8c0,0,0-42.6-37.9-48.8
		C111.3,41.3,95.3,31,86.5,27.3z"/>
	<path class="st5" d="M99.8,88.8c0,0,2.2,1.1,3.5-0.9"/>
	<path class="st5" d="M133.4,89.2c0,0,1.9,0.7,2.9-0.8"/>
	<path class="st5" d="M124.2,91.8c0,0,1.3-3.5,5.7-3.5s5.9,3.3,5.9,3.3"/>
	<path class="st5" d="M103.3,92c0,0-1.3-3.5-5.7-3.5s-6.8,4.1-6.8,4.1"/>
</g>
</svg>
