<?xml version="1.0" encoding="utf-8"?>
<!-- Generator: Adobe Illustrator 24.1.0, SVG Export Plug-In . SVG Version: 6.00 Build 0)  -->
<svg version="1.1" id="레이어_1" xmlns="http://www.w3.org/2000/svg" xmlns:xlink="http://www.w3.org/1999/xlink" x="0px"
	 y="0px" width="200px" height="200px" viewBox="0 0 200 200" style="enable-background:new 0 0 200 200;" xml:space="preserve">
<style type="text/css">
	.st0{fill:#FFDD84;}
	.st1{fill:#0C0C0C;}
	.st2{fill:#FFFFFF;stroke:#0C0C0C;stroke-width:3;stroke-miterlimit:10;}
	.st3{fill:none;stroke:#1D1D1B;stroke-width:2;stroke-linecap:round;stroke-miterlimit:10;}
	.st4{fill:none;stroke:#0C0C0C;stroke-width:2;stroke-linecap:round;stroke-miterlimit:10;}
	.st5{fill:#FFFFFF;}
	.st6{fill:none;stroke:#0C0C0C;stroke-miterlimit:10;}
	.st7{fill:none;stroke:#0C0C0C;stroke-width:3;stroke-linecap:round;stroke-linejoin:round;stroke-miterlimit:10;}
</style>
<g>
	<g>
		<path class="st0" d="M156.9,164.4c-13-10.8-33.2-17.3-53.9-17.3c-21.7,0-41.5,5-57.4,14.5c-7.9,4.7-19.5,14.2-28.9,41.5
			c-0.2,0.9-0.3,1.8-0.4,2.8h164.6C175.9,189.5,168.3,173.9,156.9,164.4z"/>
		<path class="st1" d="M15.2,202.7c5.9-17.1,14.3-33.2,29.6-42.4c16.5-9.9,36.5-14.7,58.2-14.7c20.7,0,41.3,6.4,54.8,17.6
			c11.8,9.8,19.6,25.8,24.7,42.7h1.6c-6-20.1-14.5-34.8-25.3-43.8c-13.5-11.3-34.4-18-55.8-18c-22.2,0-42.6,5.2-59,15
			c-8.3,5-20.5,14.9-30.3,43.2c0,0.1,0,0.2-0.1,0.2c-0.2,1.1-0.4,2.2-0.5,3.4h1.5C14.9,204.8,15.1,203.7,15.2,202.7z"/>
		<path class="st1" d="M157.9,163.2c-13.5-11.3-34.1-17.6-54.8-17.6c-21.7,0-41.7,4.9-58.2,14.7c-15.3,9.2-23.7,25.3-29.6,42.4
			c-0.2,1-0.3,2.1-0.5,3.2h1.5c0.1-1,0.3-1.9,0.4-2.8c9.4-27.3,21-36.7,28.9-41.5c15.9-9.5,35.7-14.5,57.4-14.5
			c20.7,0,40.8,6.5,53.9,17.3c11.4,9.5,19,25.1,24,41.5h1.6C177.4,189.1,169.7,173,157.9,163.2z"/>
	</g>
	<path class="st1" d="M117.5,24.7c0,0,16.2-4.9,28.2,5.8c10.2,9,12.6,11.5,14,21.8s4.9,6.2,3.2,16.2c-1.5,8.6-5.5,21-11,25
		C145.5,98,59.4,93,59.4,93s-7-16-5.4-23.8s-1.3-14.6,1.9-19.9c2.7-4.4,7.5-4.5,9.7-9.8C69.2,30.6,93.5,10.5,117.5,24.7z"/>
	<path class="st2" d="M127.3,123.7c0,3.1,0.9,43.2-19.8,43.2c-25.9,0-21.3-43.2-21.3-43.2H127.3z"/>
	<path class="st2" d="M138.8,98.9c0,6.1,3.8,11,8.5,11s7.6-5,8.5-11c1.3-8.8-3.8-11-8.5-11S138.8,92.8,138.8,98.9z"/>
	<path class="st2" d="M58.8,98.8c1.5,5.9,3.8,11,8.5,11s6.7-4.9,6.7-11s-3.8-11-8.5-11S56.8,90.4,58.8,98.8z"/>
	<path class="st3" d="M75.1,75.3"/>
	<path class="st2" d="M108,35.3c27.9,0,48.7,15.8,43.8,58.2c-2,17.2-6.2,28-11.5,36.1c-7.8,11.8-21.5,15.8-30.1,15.8
		s-25.2-5.4-34-16.8c-6-7.8-10.8-19.9-10.8-39.5C65.5,55.4,75.1,35.3,108,35.3z"/>
	<path class="st3" d="M127.6,75.1"/>
	<path class="st3" d="M126.4,75.1"/>
	<path class="st4" d="M119.1,100.8c0,0,0.2,1.4,1,4.2s3.6,8.2-2.6,8.8c-0.9,0.1-2.6,0-2.6,0"/>
	<ellipse class="st1" cx="133" cy="90.7" rx="3.6" ry="4.6"/>
	<ellipse class="st1" cx="99.5" cy="90.7" rx="3.6" ry="4.6"/>
	<path class="st1" d="M124.8,37.8c0,0-6.7,3.7-4.6,10.4c2.2,6.7,4.1,19.4-9.2,25.6c-1.8,0.8-3.4-0.1-4.5-0.2c-1.4-0.2-1.8-2-0.6-2.7
		c3-1.7,3.9-8.6,4.3-13.3c1.2-14.1-8.2-16.6,1.3-21.9C119,31.5,125.1,34.5,124.8,37.8z"/>
	<path class="st1" d="M130.8,32.4c0,0-4.1,6.6,1.1,11.8c5.2,5.2,13.3,14.7,4.7,26.6c-1.1,1.6-3.2,2.8-4.3,3.2
		c-1.3,0.5-2.6-0.9-1.8-2.2c1.8-3,3.5-7.7,1.6-12.2c-5.8-13.6-19.7-13.5-13.9-22.9C122.6,29.4,129.4,29.2,130.8,32.4z"/>
	<path class="st1" d="M142.1,32.5c0,0-4.7,6.2,0,11.8s14,15.6,3.9,26.3c-2.7,2.9-5,3.1-6.1,3.4c-1.4,0.4-2.5-1.2-1.6-2.3
		c2.1-2.8,4.2-7.4,2.6-12c-4.6-14-18.4-15.2-11.8-24.1C134.3,28.8,141.1,29.3,142.1,32.5z"/>
	<path class="st1" d="M113,37.4c0,0-5,6.4-2.8,13.4s0.8,22.7-10.9,22.7c-1.9,0-3.4-0.1-4.5-0.2c-1.4-0.2-1.8-2.1-0.6-2.8
		c3-1.8,7.2-5.2,7.1-10c-0.2-7.5-5.6-19.8,1.6-24.6S113.3,34,113,37.4z"/>
	<path class="st1" d="M103,36.3c0,0-4.7,3.4-2.5,10.5c2.2,7,2.5,26.8-9.2,26.8c-1.9,0-3.4-0.1-4.5-0.2c-1.4-0.2-1.8-2.1-0.6-2.8
		c3-1.8,7.2-5.2,7.1-10c-0.2-7.5-7.1-19.4,0-24.2C100.5,31.5,103.4,32.9,103,36.3z"/>
	<path class="st1" d="M95.5,36.3c0,0-4.7,3.4-2.5,10.5c2.2,7,2.5,26.8-9.2,26.8c-1.9,0-3.4-0.1-4.5-0.2c-1.4-0.2-1.8-2.1-0.6-2.8
		c3-1.8,7.2-5.2,7.1-10c-0.2-7.5-7.1-19.4,0-24.2C93,31.5,95.8,32.9,95.5,36.3z"/>
	<path class="st1" d="M87.8,39.7c0,0-4.7,3.4-2.5,10.5s2.5,26.7-9.2,26.7c-1.9,0-3.4-0.1-4.5-0.2c-1.4-0.2-1.8-2.1-0.6-2.8
		c3-1.8,7.2-5.2,7.1-10c-0.2-7.5-7.1-19.4,0-24.2C85.3,35,88.1,36.3,87.8,39.7z"/>
	<path class="st1" d="M80.3,42.5c0,0-4.7,3.4-2.5,10.5c2.2,7,2.5,26.8-9.2,26.8c-1.9,0-3.4-0.1-4.5-0.2c-1.4-0.2-1.8-2.1-0.6-2.8
		c3-1.8,7.2-5.2,7.1-10c-0.2-7.5-7.1-19.4,0-24.2S80.6,39.2,80.3,42.5z"/>
	<path class="st1" d="M74.2,45.7c0,0-4.7,3.4-2.5,10.5c2.2,7,2.5,26.8-9.2,26.8c-2,0-3.4-0.1-4.5-0.2c-1.4-0.2-1.8-2.1-0.6-2.8
		c3-1.8,7.2-5.2,7.1-10c-0.2-7.5-7.1-19.4,0-24.2C71.8,41,74.6,42.3,74.2,45.7z"/>
	<path class="st1" d="M79.3,73.3c0,0-6.5,6-7.8,11.5l-8.8,0.7C62.8,85.4,63.8,73.3,79.3,73.3z"/>
	<path class="st1" d="M71.1,86.7c0,0-1.6,6.9-3.3,8.1c-2.7,1.8,0.5-4.7-2.2-7.1L71.1,86.7z"/>
	<path class="st4" d="M122.5,125.5c0,0-6.2,3.2-15.1,0"/>
	<path class="st5" d="M103,87.5c0,0-2.7,0.6-10.4,1.1C84.9,89,98.2,81,103,87.5z"/>
	<path class="st5" d="M127.6,87.5c0,0,2.7,0.6,10.4,1.1C145.7,89,132.4,81,127.6,87.5z"/>
	<path class="st1" d="M148.6,83.6l0.9,0.1c0.4,0,0.7,0.3,0.7,0.7v2.7c0,0,0,0.3-0.3,0.6s-0.9,0.2-0.9,0.2s-1.7,0.3-1.9,2.1
		c0,0.2-0.2,0.3-0.4,0.3l-1.3-0.1c-0.2,0-0.4-0.2-0.4-0.4c0.1-0.9,0-3.3-1.9-4.4c-2.4-1.4-6.1-1.8-11.8-1.8c-5.5,0-9,2.7-9.2,6.3
		c0,0.2-0.2,0.4-0.4,0.4h-1.1c-0.2,0-0.4-0.2-0.4-0.4c0-0.4-0.1-1.1-0.7-1.7c-0.2-0.2-0.4-0.7-0.4-1v-2.8c0-0.6,0.3-1.1,0.9-1.3
		c0.4-0.2,0.9-0.4,1.6-0.7c4.4-1.7,14.5-4.2,26.5,0.9C148.2,83.6,148.4,83.6,148.6,83.6z"/>
	<path class="st1" d="M82.2,83.2h-1.4c-0.4,0-0.7,0.3-0.7,0.7v2.4c0,0,0,0.8,0.3,1.1c0.5,0.4,1,0.4,1,0.4s2.3,0.1,2.7,2.5
		c0,0.2,0.2,0.4,0.4,0.4h1.7c0.2,0,0.4-0.2,0.4-0.4c-0.1-1.1-0.2-3.9,2-5.1c2.8-1.6,6.8-2.1,13.2-2.1c6.2,0,10.9,3.8,10.3,7.3
		c0,0.2,0.1,0.3,0.2,0.3h1.2c0.1,0,0.3-0.1,0.3-0.2c0-0.4,0.1-1.4,0.5-2.1c0.2-0.3,0.3-0.7,0.3-1.1v-3.2c0-0.6-0.3-1.1-0.8-1.4
		c-3.2-1.6-15.2-6.5-30.7,0.3C82.7,83.2,82.4,83.2,82.2,83.2z"/>
	<path class="st6" d="M146,89.3c0,0-1.2,8.7-5,11.2s-8.3,2.4-12.5,1.6s-6.7-3.4-7.2-13.5"/>
	<path class="st6" d="M113,89.3c0,0-1.4,8.7-5.7,11.2s-9.5,2.4-14.3,1.6s-7.7-3.4-8.2-13.5"/>
	<path class="st4" d="M103,89.2c0,0-3.5-3.1-8.6,1.4"/>
	<path class="st4" d="M129.9,89c0,0,3.9-2.9,7.9,0.9"/>
	<polygon class="st1" points="80.8,83.9 65.5,85.2 65.5,87.8 81.8,86.7 	"/>
	<polygon class="st1" points="149,84.4 156,88.4 156,90.9 148,87.2 	"/>
	<g>
		<path class="st1" d="M112.5,85.9c0.1,0,0.1,0,0.1,0c3.2-0.9,7.4-0.2,7.4-0.2c0.3,0.1,0.5-0.1,0.6-0.4s-0.1-0.5-0.4-0.6
			c-0.2,0-4.5-0.8-7.9,0.2c-0.3,0.1-0.4,0.3-0.3,0.6C112.1,85.8,112.3,85.9,112.5,85.9z"/>
	</g>
	<path class="st7" d="M133.9,151.9c0,0-3.6,23.5-27.3,23.5c-27.3,0-27.6-27.2-27.6-27.2"/>
	<path class="st1" d="M106.7,75.6c0.4,0.1,0.7,0.4,0.7,0.8c0,0.8,0,1.9-0.7,2.1c-0.8,0.2-4.9-1.1-10.6-0.5c-0.7,0.1-1.1-0.7-0.6-1.1
		c1.2-1,3.2-2.1,5.7-2.1C103.4,74.8,105.6,75.3,106.7,75.6z"/>
	<path class="st1" d="M126.4,75.9c-0.4,0.1-0.7,0.4-0.7,0.8c0,0.8,0,1.9,0.7,2.1c0.8,0.2,5-1,10.6-0.3c0.7,0.1,1.1-0.6,0.6-1.1
		c-1.2-1-3.1-2.1-5.7-2.2C129.6,75.2,127.4,75.7,126.4,75.9z"/>
</g>
</svg>
