<?xml version="1.0" encoding="utf-8"?>
<!-- Generator: Adobe Illustrator 24.1.0, SVG Export Plug-In . SVG Version: 6.00 Build 0)  -->
<svg version="1.1" id="레이어_1" xmlns="http://www.w3.org/2000/svg" xmlns:xlink="http://www.w3.org/1999/xlink" x="0px"
	 y="0px" width="200px" height="200px" viewBox="0 0 200 200" style="enable-background:new 0 0 200 200;" xml:space="preserve">
<style type="text/css">
	.st0{fill:#0C0C0C;}
	.st1{fill:#FFDD84;stroke:#0C0C0C;stroke-width:3;stroke-linecap:round;stroke-linejoin:round;stroke-miterlimit:10;}
	.st2{fill:#FFFFFF;stroke:#0C0C0C;stroke-width:3;stroke-miterlimit:10;}
	.st3{fill:none;stroke:#1D1D1B;stroke-width:2;stroke-linecap:round;stroke-miterlimit:10;}
	.st4{fill:none;stroke:#0C0C0C;stroke-width:2;stroke-linecap:round;stroke-miterlimit:10;}
	.st5{fill:#FFFFFF;stroke:#0C0C0C;stroke-width:2;stroke-linecap:round;stroke-miterlimit:10;}
</style>
<g>
	<path class="st0" d="M95.19,22.07c0,0-32.93-1.04-45.05,31.98s-7.61,49.19-10.04,54.32c-2.43,5.12-5.3,11.59,0,15.2
		c7.54,5.14,9.12,5.74,13.6,8.28c5.55,3.15,11.18,1.25,19.09,4.24c10.62,4.03,19.65,4.64,30.85,4.65
		c14.31,0.02,21.26-5.1,27.56-5.41c8.71-0.43,13.13-7.36,19.52-7.56c6.98-0.21,9.77-7.64,8.96-13.46
		c-0.81-5.81-6.06-16.54-9.98-46.22S127.69,20.33,95.19,22.07z"/>
	<g>
		<path class="st1" d="M176.55,201.78c-5.86-16.21-9.5-33.92-23.48-43.27c-15.05-10.07-33.27-15.05-53.1-15.05
			c-18.93,0-35.97,5.5-50.01,14.26c-14.99,9.36-20.22,27.05-26.37,44.07"/>
	</g>
	<path class="st2" d="M82.03,122.71c0.92,5.77,3.09,18.16,4.84,30.19c1.46,10.02,18.33,11.04,21.5,0.28
		c1.57-5.33,4.56-30.47,4.56-30.47S82.03,122.71,82.03,122.71z"/>
	<ellipse class="st2" cx="59.91" cy="95.64" rx="8.68" ry="11.25"/>
	<ellipse class="st2" cx="137.18" cy="94.35" rx="8.68" ry="11.25"/>
	<path class="st3" d="M131.2,65.02"/>
	<path class="st2" d="M97.62,24.13c-24.88,0-42.03,16.82-39.12,61.98c2.92,45.22,32.12,53.16,39.84,53.16s38.71-10.19,38.83-53.84
		C137.31,43.39,126.98,24.13,97.62,24.13z"/>
	<path class="st3" d="M77.59,64.78"/>
	<path class="st3" d="M78.86,64.73"/>
	<path class="st4" d="M96.08,93.06c0,0-0.28,2.52-0.77,5.68c-0.34,2.17-2.65,6.02-1.73,8.16c1.73,4.04,7.96,2.06,7.96,2.06"/>
	<path class="st4" d="M89.74,117.35c0,0,2.99,2.42,8.55,2.4c6.44-0.02,9.18-2.4,9.18-2.4"/>
	<ellipse class="st0" cx="115.4" cy="86.1" rx="4.29" ry="5.55"/>
	<path class="st5" d="M119.04,81.17c0,0,2.34,0.31,3.19-1.63"/>
	<path class="st0" d="M100.07,24.16l2.07,16.78c0,0-20.34-5.05-26.22,14.16C68.9,78.02,56.55,86.09,56.55,86.09
		s-7.94-13.57-6.72-20.77C51.05,58.13,56.11,22.7,100.07,24.16z"/>
	<path class="st0" d="M102.15,40.95c0,0,11.17-4.01,23.44,13.31c7.87,11.11,10.09,16.11,12.53,32.16c0,0,14.27-63.72-38.05-62.26
		L102.15,40.95z"/>
	<path class="st0" d="M119.03,71.96c-4.81,0.8-11.57,2.54-11.01,4.58c0.4,1.45,0.67,2.11,2.63,1.51c1.87-0.57,12.41-4.44,20.82-3.69
		c0.41,0.04,0.59-0.48,0.27-0.73C130.22,72.47,126.55,70.71,119.03,71.96z"/>
	<path class="st0" d="M79.65,72.39c4.84,0.59,11.67,2.02,11.2,4.09c-0.34,1.47-0.58,2.13-2.56,1.63
		c-1.89-0.48-12.59-3.89-20.96-2.76c-0.4,0.05-0.61-0.46-0.3-0.72C68.49,73.39,72.08,71.47,79.65,72.39z"/>
	<path class="st4" d="M109.77,84.76c0,0,1.72-2.68,5.63-3.51c3.94-0.83,7.33,1.09,7.33,1.09"/>
	<ellipse class="st0" cx="80.99" cy="86.1" rx="4.29" ry="5.55"/>
	<path class="st5" d="M77.17,81.35c0,0-2.94,0.71-3.74-1.45"/>
	<path class="st4" d="M86.86,84.06c0,0-1.97-2.5-5.94-2.94c-4-0.44-7.48,1.8-7.48,1.8"/>
</g>
</svg>
