<?xml version="1.0" encoding="utf-8"?>
<!-- Generator: Adobe Illustrator 24.1.0, SVG Export Plug-In . SVG Version: 6.00 Build 0)  -->
<svg version="1.1" id="레이어_1" xmlns="http://www.w3.org/2000/svg" xmlns:xlink="http://www.w3.org/1999/xlink" x="0px"
	 y="0px" width="200px" height="200px" viewBox="0 0 200 200" style="enable-background:new 0 0 200 200;" xml:space="preserve">
<style type="text/css">
	.st0{fill:#0C0C0C;}
	.st1{fill:#FFDD84;stroke:#0C0C0C;stroke-width:3;stroke-linecap:round;stroke-linejoin:round;stroke-miterlimit:10;}
	.st2{fill:#FFFFFF;stroke:#0C0C0C;stroke-width:3;stroke-miterlimit:10;}
	.st3{fill:none;stroke:#1D1D1B;stroke-width:2;stroke-linecap:round;stroke-miterlimit:10;}
	.st4{fill:none;stroke:#0C0C0C;stroke-width:2;stroke-linecap:round;stroke-miterlimit:10;}
	.st5{fill:none;stroke:#0C0C0C;stroke-width:2;stroke-linecap:round;stroke-linejoin:round;stroke-miterlimit:10;}
	.st6{fill:#FFEBB5;stroke:#0C0C0C;stroke-width:2;stroke-linecap:round;stroke-linejoin:round;stroke-miterlimit:10;}
</style>
<g>
	<path class="st0" d="M52.35,106.72c0,0-10.83-11.43-8.69-42.75c1.55-22.75,23.64-39.6,38.51-40.21c4.54-0.18,8.11-0.06,8.11-0.06
		s8.78-2.2,12.3-2.38c22.75-1.15,37.13,8.47,42.64,15.4c6.85,8.63,16.77,28.54,5.36,67.54L52.35,106.72z"/>
	<g>
		<path class="st1" d="M183.13,212.89c-3.57-15.44-6.04-31.65-20.23-42.07c-15.4-11.31-41.45-15.05-63-15.05
			c-20.58,0-43.86,4.72-59.11,13.31c-16.29,9.17-19.29,27.05-23.9,43.82"/>
	</g>
	<path class="st2" d="M82.17,139.66c2.16,1.41,2.26,28.04,17.56,28.04c15.84,0,18.1-28.04,18.1-28.04H82.17z"/>
	<ellipse class="st2" cx="59.65" cy="105.41" rx="9.53" ry="12.34"/>
	<ellipse class="st2" cx="142.41" cy="105.41" rx="9.53" ry="12.34"/>
	<g>
		<path class="st2" d="M130.79,64.17C119,48.81,108.16,41.69,102.7,40.06c-1.19-0.35-5.26,0.94-6.83,1.51
			c-22.55,8.16-34.62,20.01-38.94,54.14c-0.14,0.88-0.19,2.62-0.19,3.68c0.1,14.23,6.27,26.02,13.14,34.77
			c8.83,11.25,21.72,16.78,30.48,16.78s23.78-6.41,32.52-19.29c6.66-9.81,11.45-20.32,11.45-33.79c0-1.13-0.03-2.26-0.08-3.37
			c-0.01-0.32-0.14-1.48-0.21-1.79C142.02,82.97,137.95,73.51,130.79,64.17z"/>
	</g>
	<path class="st3" d="M132.88,78.95"/>
	<path class="st3" d="M80.38,78.71"/>
	<path class="st3" d="M81.63,78.67"/>
	<g>
		<path class="st0" d="M90.08,83.78c-0.24,0-0.49-0.03-0.73-0.09C89.23,83.66,76.2,80.52,69,83.46c-1.06,0.43-2.16-0.53-1.86-1.64
			c0.93-3.48,2.92-4.11,4.73-4.62c8.29-2.33,18.41,0.53,18.94,0.66c1.61,0.4,2.71,1.08,2.18,3.64C92.7,82.88,91.7,84.02,90.08,83.78
			z"/>
	</g>
	<g>
		<path class="st0" d="M111.09,83.78c0.24,0,0.49-0.03,0.73-0.09c0.12-0.03,13.14-3.17,20.34-0.22c1.06,0.43,2.16-0.53,1.86-1.64
			c-0.93-3.48-2.92-4.11-4.73-4.62c-8.29-2.33-18.41,0.53-18.94,0.66c-1.61,0.4-2.71,1.08-2.18,3.64
			C108.47,82.88,109.47,84.02,111.09,83.78z"/>
	</g>
	<path class="st4" d="M96.85,98.94c0,0-1.63,4.78-2.39,7.55s-2.79,7.64,3.33,8.88c0.94,0.19,4.62,0,4.62,0"/>
	<path class="st5" d="M112.46,124.66c0.35-0.13,0.66,0.28,0.42,0.57c-1.54,1.9-5.96,6.43-12.35,6.43c-6.48,0-10.82-4.1-12.06-6.13
		c-0.16-0.26-0.02-0.58,0.28-0.5c2.03,0.57,6.66,0.42,12,0.37C104.59,125.35,108.6,126.05,112.46,124.66z"/>
	<path class="st0" d="M86.33,94.94c0,2.75-2.11,2.3-4.7,2.3s-4.7,0.45-4.7-2.3s2.11-4.98,4.7-4.98S86.33,92.2,86.33,94.94z"/>
	<path class="st0" d="M122.42,94.94c0,2.75-2.13,2.32-4.76,2.32c-2.63,0-4.76,0.42-4.76-2.32c0-2.75,2.13-4.98,4.76-4.98
		C120.28,89.97,122.42,92.2,122.42,94.94z"/>
	<path class="st0" d="M58.4,73.24c0,0,21.84-2.38,31.15-18.25c0,0,5,8.39,7.64,13.2c0.42,0.76,1.77,0.48,1.71-0.37
		c-0.34-4.28-0.74-11.54,0.28-12.83c0,0,2.05,7.74,7.68,12.13c0.76,0.6,1.91-0.2,1.38-0.95c-1.93-2.74-4.34-6.95-4.6-11.24
		c0,0,7.37,10.16,16.31,13.43c0.76,0.28,1.52-0.38,1.17-1.02c-1.79-3.24-5.56-10.3-5.54-12.36c0,0,8.9,9.75,20.48,12.8
		c0.67,0.18,1.32-0.33,1.15-0.91c-1.74-5.67-10.47-28.45-38.02-28.45C67.71,38.44,58.4,73.24,58.4,73.24z"/>
	<path class="st1" d="M97.81,212.79c0,0-13.29-45.83-13.38-61.07c0,0-12.95,3.05-17.99,9.03l3.62,14.96l7.13,2l-6.24,4.54
		c0,0,3.77,7.51,8.98,17.07c3.26,5.97,7.49,13.46,7.49,13.46"/>
	<path class="st1" d="M102.53,212.79c0,0,13.29-45.83,13.38-61.07c0,0,12.95,3.05,17.99,9.03l-3.62,14.96l-7.13,2l6.24,4.54
		c0,0-3.77,7.51-8.98,17.07c-3.26,5.97-7.49,13.46-7.49,13.46"/>
	<path class="st6" d="M84.62,155.16c0,0,10.09,57.64,15.38,57.64s11.65-35.11,11.65-35.11l4.26-25.97c0,0-4.47,14.69-15.15,14.69
		c-10.1,0-14.43-11.29-14.43-11.29L84.62,155.16z"/>
</g>
</svg>
