<?xml version="1.0" encoding="utf-8"?>
<!-- Generator: Adobe Illustrator 24.1.0, SVG Export Plug-In . SVG Version: 6.00 Build 0)  -->
<svg version="1.1" id="레이어_1" xmlns="http://www.w3.org/2000/svg" xmlns:xlink="http://www.w3.org/1999/xlink" x="0px"
	 y="0px" width="200px" height="200px" viewBox="0 0 200 200" style="enable-background:new 0 0 200 200;" xml:space="preserve">
<style type="text/css">
	.st0{fill:#0C0C0C;}
	.st1{fill:#FFFFFF;stroke:#0C0C0C;stroke-width:3;stroke-miterlimit:10;}
	.st2{fill:none;stroke:#1D1D1B;stroke-width:2;stroke-linecap:round;stroke-miterlimit:10;}
	.st3{fill:none;stroke:#0C0C0C;stroke-width:2;stroke-linecap:round;stroke-miterlimit:10;}
	.st4{fill:#FFDD84;stroke:#0C0C0C;stroke-width:3;stroke-linecap:round;stroke-linejoin:round;stroke-miterlimit:10;}
	.st5{fill:#FFEBB5;stroke:#0C0C0C;stroke-width:3;stroke-miterlimit:10;}
</style>
<g>
	<g>
		<path class="st0" d="M125.88,107.46c-2.96,2.9,1.08,21.04,5.15,28.15c5.09,8.89,10.53,5.66,10.83,0.99c0,0,5.56,2.92,8.08-0.17
			c2.25-2.75-0.82-5.59-0.82-5.59s5.56,1.33,6.62-0.08c1.36-1.81,2.51-3.85-2.82-9.8C148.4,115.89,133.05,100.42,125.88,107.46z"/>
		<path class="st0" d="M53.09,99.69c0,0-10.11-15.34-6.51-34.85c3.6-19.51,10.9-42.17,48.89-43.8c31.98-1.37,45.33,19.24,49.6,32.38
			c4.82,14.86-2.12,42.9-2.12,42.9L53.09,99.69z"/>
		<g>
			<path class="st1" d="M174.9,204.56c-5.74-15.87-9.31-33.22-23-42.38c-14.74-9.87-32.58-14.74-52.01-14.74
				c-18.54,0-35.23,5.38-48.97,13.97c-14.68,9.17-19.8,26.49-25.83,43.16"/>
		</g>
		<path class="st1" d="M83.77,128.64c2.16,1.41-3.27,29.94,14.16,29.94c17.59,0,13.5-29.94,13.5-29.94H83.77z"/>
		<ellipse class="st1" cx="61" cy="98.36" rx="7.92" ry="10.25"/>
		<ellipse class="st1" cx="137.15" cy="97.18" rx="7.92" ry="10.25"/>
		<g>
			<path class="st1" d="M128.61,53.92c-9.72-14.71-23.42-18.24-28.5-19.68c-1.11-0.32-4.09-0.37-5.19-0.05
				c-7.36,2.13-30.35,4.88-36.65,50.21c-0.4,1.63-0.4,1.63-0.41,2.56c3.14,31.21,22.33,46.45,40.07,46.45
				c17.83,0,39.38-19.42,40.92-47.81c0.05-1.01,0-5.02,0-5.3C138.86,70.37,134.77,63.24,128.61,53.92z"/>
		</g>
		<path class="st2" d="M128.2,70.45"/>
		<path class="st0" d="M126.75,75.39c-0.94-1.33-2.69-2.85-6.26-3.52c-6.82-1.27-10.67-0.6-10.67-0.6c-1.03-0.06-1.38,2.46,0,2.4
			s5.05-0.36,8.19-0.08S126.75,75.39,126.75,75.39z"/>
		<path class="st0" d="M68.92,75.17c1.8-2.36,4.7-3.31,7.75-4.03c6.76-1.59,10.67-0.6,10.67-0.6c1.03-0.06,1.38,2.46,0,2.4
			s-5.05-0.36-8.19-0.08C76.01,73.14,68.92,75.17,68.92,75.17z"/>
		<path class="st2" d="M79.34,70.22"/>
		<path class="st2" d="M80.5,70.18"/>
		<path class="st3" d="M94.66,86.93c0,0-0.86,4.96-1.56,8.01s-3.26,8.33,2.44,9.7c0.87,0.21,2.39,0,2.39,0"/>
		<path class="st3" d="M88.98,114.08c0,0,2.64,2.2,7.56,2.19c5.7-0.02,9.48-2.19,9.48-2.19"/>
		<ellipse class="st0" cx="114.03" cy="85.55" rx="4.25" ry="5.49"/>
		<path class="st4" d="M49.85,204.56c0,0,1.99-24.17-1.97-41.17c-0.32-1.36,0.14-2.78,1.18-3.7c4.05-3.57,15.99-12.65,36.23-14.59
			c0,0,2.03,13.48,12.05,13.48c11.87,0,14.03-12.59,14.03-12.59s17.4,1.3,34.68,11.56c1.68,1,2.57,2.92,2.25,4.85
			c-1.52,9.16-5.61,35.73-3.23,42.17"/>
		<path class="st0" d="M95.82,35.31c-8.84,0-32.96,6.76-37.03,41.1l5.47,0.14c1.09,0.03,2.05-0.69,2.33-1.75
			c1.61-6.26,7.51-26.89,16.4-30.62c0.17-0.07,0.34,0.1,0.27,0.27c-0.91,2.25-4.9,13-5.38,29.5c-0.04,1.34,1.03,2.44,2.37,2.43
			c1.2-0.02,2.65-0.03,3.85-0.05c1.28-0.02,2.31-1.06,2.31-2.34c-0.02-6.6,0.51-25.4,6.83-30.37c0.07-0.05,0.15-0.06,0.23-0.02
			c0.8,0.44,5.13,4.07,5.43,31.29c0.01,1.28,1.06,2.32,2.34,2.32h3.52c1.35,0,2.41-1.12,2.34-2.47c-0.36-6.25-1.52-22.61-3.99-28.2
			c-0.09-0.2,0.17-0.38,0.33-0.22c2.68,2.58,10.91,11.72,15.29,30.01c0.25,1.06,1.19,1.82,2.28,1.82h1.13c1.5,0,2.61-1.38,2.29-2.84
			c-1.3-5.88-3.75-20.39-9.38-28.77c-0.14-0.21,0.14-0.44,0.31-0.25c3.57,3.91,10.69,13.38,15.5,30.68
			c0.26,0.95,1.27,1.73,2.25,1.73h4.22C137.31,78.7,136.53,35.31,95.82,35.31z"/>
		<path class="st3" d="M117.28,81.36c0,0,2.08,0.8,3.16-0.89"/>
		<path class="st3" d="M109.27,82.37c0,0,5.22-4.16,13,1.55"/>
		<ellipse class="st0" cx="80.01" cy="85.55" rx="4.25" ry="5.49"/>
		<path class="st3" d="M76.44,81.58c0,0-2.28,0.84-3.57-0.91"/>
		<path class="st3" d="M84.77,82.37c0,0-5.22-4.16-13,1.55"/>
	</g>
	<path class="st5" d="M51.64,186l9.49-12.26c0.53-0.69,1.56-0.71,2.12-0.04l10.3,12.29c0.43,0.51,0.42,1.25,0,1.75l-9.88,11.66
		c-0.54,0.64-1.53,0.64-2.08,0l-9.91-11.69C51.26,187.22,51.24,186.51,51.64,186z"/>
	<path class="st5" d="M122.04,186l9.49-12.26c0.53-0.69,1.56-0.71,2.12-0.04l10.3,12.29c0.43,0.51,0.42,1.25,0,1.75l-9.88,11.66
		c-0.54,0.64-1.53,0.64-2.08,0l-9.91-11.69C121.66,187.22,121.64,186.51,122.04,186z"/>
	<path class="st5" d="M75.46,186l9.49-12.26c0.53-0.69,1.56-0.71,2.12-0.04l10.3,12.29c0.43,0.51,0.42,1.25,0,1.75l-9.88,11.66
		c-0.54,0.64-1.53,0.64-2.08,0l-9.91-11.69C75.09,187.22,75.07,186.51,75.46,186z"/>
	<path class="st5" d="M98.79,186l9.49-12.26c0.53-0.69,1.56-0.71,2.12-0.04l10.3,12.29c0.43,0.51,0.42,1.25,0,1.75l-9.88,11.66
		c-0.54,0.64-1.53,0.64-2.08,0l-9.91-11.69C98.41,187.22,98.39,186.51,98.79,186z"/>
</g>
</svg>
