<?xml version="1.0" encoding="utf-8"?>
<!-- Generator: Adobe Illustrator 24.1.0, SVG Export Plug-In . SVG Version: 6.00 Build 0)  -->
<svg version="1.1" id="레이어_1" xmlns="http://www.w3.org/2000/svg" xmlns:xlink="http://www.w3.org/1999/xlink" x="0px"
	 y="0px" width="200px" height="200px" viewBox="0 0 200 200" style="enable-background:new 0 0 200 200;" xml:space="preserve">
<style type="text/css">
	.st0{fill:#0C0C0C;}
	.st1{fill:#FFEBB5;stroke:#0C0C0C;stroke-width:3;stroke-miterlimit:10;}
	.st2{fill:#FFFFFF;stroke:#0C0C0C;stroke-width:3;stroke-miterlimit:10;}
	.st3{fill:none;stroke:#1D1D1B;stroke-width:2;stroke-linecap:round;stroke-miterlimit:10;}
	.st4{fill:none;stroke:#0C0C0C;stroke-width:2;stroke-linecap:round;stroke-miterlimit:10;}
	.st5{fill:#FFDD84;stroke:#0C0C0C;stroke-width:3;stroke-linecap:round;stroke-linejoin:round;stroke-miterlimit:10;}
</style>
<g>
	<path class="st0" d="M135.71,149.01c10.17-0.94,24.95-13.34,19.16-35.83c-1.51-5.88-5.83-11.09-4.96-21.99
		c3.02-37.62-6.18-71.41-53.63-70.42c0,0-30.35,1.31-42.07,21.97c-9.05,15.94-8.35,35.13-6.81,53.4c0.74,8.84-4.13,18.67-4.93,26.13
		c-1.83,16.91,6.87,26.22,19.26,27.74c11.03,1.35,21.05-1.12,38.42-1.52C116.04,148.12,121.77,150.29,135.71,149.01z"/>
	<g>
		<path class="st1" d="M176.49,205.61c-5.74-15.87-10.07-33.22-23.76-42.38c-14.74-9.87-32.58-14.74-52.01-14.74
			c-18.54,0-35.23,5.38-48.97,13.97c-14.68,9.17-19.8,26.49-25.83,43.16"/>
	</g>
	<path class="st2" d="M80.59,129.69c2.16,1.41,12.68,48.36,18.16,48.36s17.5-48.36,17.5-48.36H80.59z"/>
	<ellipse class="st2" cx="61.83" cy="99.41" rx="7.92" ry="10.25"/>
	<ellipse class="st2" cx="137.97" cy="98.23" rx="7.92" ry="10.25"/>
	<g>
		<path class="st2" d="M124.36,59.85c-9.68-15.43-18.21-21.86-23.29-23.38c-1.11-0.33-1.72-0.23-2.81,0.14
			C76.4,44.07,63.41,74.26,59.39,87.58c-0.29,1.03-0.7,1.96-0.7,2.95c0.21,30.28,22.33,48.65,40.07,48.65
			c17.83,0,40.92-19.53,40.92-50.07c0-1.06-0.03-2.1-0.07-3.14c-0.01-0.3-0.13-0.58-0.34-0.79
			C133.9,79.54,130.41,69.51,124.36,59.85z"/>
	</g>
	<path class="st3" d="M129.02,71.49"/>
	<path class="st3" d="M80.16,71.27"/>
	<path class="st3" d="M81.32,71.23"/>
	<path class="st4" d="M96.25,93.08c0,0-1.11,8.8-1.81,11.38s-1.25,6.35,3.98,6.77"/>
	<path class="st4" d="M91.51,119.23c0,0,2.48,2.02,6.65,2.01c4.83-0.02,7.19-1.68,7.19-1.68"/>
	<line class="st4" x1="125.66" y1="93.08" x2="125.76" y2="93.23"/>
	<path class="st0" d="M96.69,38.45c0,0,5.06,33.54,21.65,37.03c0,0,5.95,1.69,1.63-7.24c-4.32-8.94-4.13-24.5-4.13-24.5
		S104.14,30.23,96.69,38.45z"/>
	<path class="st0" d="M100.14,35.08c0,0-28.98,45.21-41.45,54.47C58.69,89.54,62.77,33.58,100.14,35.08z"/>
	<path class="st5" d="M25.92,205.61c0,0,2.39-6.7,9.01-24.39s33.74-27.06,33.74-27.06s-1.75,12.81-2.5,22.97
		c-0.57,7.71-0.37,21.21,0.85,28.78"/>
	<path class="st5" d="M133.76,205.61c0.33-8.38,0.02-15.93,0-22.35c-0.07-19.07-4.05-30.1-4.05-30.1s31.25,7.65,37.77,27.43
		c5.91,17.95,9.01,25.01,9.01,25.01"/>
	<path class="st0" d="M127.35,75.11c0.2,0.29-0.14,0.64-0.44,0.45c-2.32-1.49-5.85-1.98-9.37-1.8c-4.99,0.26-7.42,1.74-7.42,1.74
		c-1.41,0.6-3.17-1.55-2.12-2.46c1.05-0.91,3.76-2.86,11.09-2.21C123.87,71.25,126.26,73.55,127.35,75.11z"/>
	<path class="st0" d="M71.87,75.11c-0.2,0.29,0.14,0.64,0.44,0.45c2.32-1.49,5.85-1.98,9.37-1.8c4.99,0.26,7.42,1.74,7.42,1.74
		c1.41,0.6,3.17-1.55,2.12-2.46c-1.05-0.91-3.76-2.86-11.09-2.21C75.36,71.25,72.97,73.55,71.87,75.11z"/>
	<ellipse class="st0" cx="81.58" cy="86.38" rx="3.7" ry="4.78"/>
	<path class="st4" d="M77.33,81.86c0,0-1.31,0-2.33-0.98"/>
	<path class="st4" d="M86,85.58c0,0-0.08-3.57-4.33-4.18s-6.07,2.54-6.07,2.54"/>
	<ellipse class="st0" cx="114.97" cy="86.38" rx="3.7" ry="4.78"/>
	<path class="st4" d="M119.22,81.86c0,0,1.31,0,2.33-0.98"/>
	<path class="st4" d="M110.55,85.58c0,0,0.08-3.57,4.33-4.18s6.07,2.54,6.07,2.54"/>
</g>
</svg>
