<?xml version="1.0" encoding="utf-8"?>
<!-- Generator: Adobe Illustrator 24.1.0, SVG Export Plug-In . SVG Version: 6.00 Build 0)  -->
<svg version="1.1" id="레이어_1" xmlns="http://www.w3.org/2000/svg" xmlns:xlink="http://www.w3.org/1999/xlink" x="0px"
	 y="0px" width="200px" height="200px" viewBox="0 0 200 200" style="enable-background:new 0 0 200 200;" xml:space="preserve">
<style type="text/css">
	.st0{fill:#0C0C0C;}
	.st1{fill:#FFDD84;}
	.st2{fill:#FFFFFF;stroke:#0C0C0C;stroke-width:3;stroke-miterlimit:10;}
	.st3{fill:#FFFFFF;stroke:#0C0C0C;stroke-width:2;stroke-miterlimit:10;}
	.st4{fill:none;stroke:#1D1D1B;stroke-width:2;stroke-linecap:round;stroke-miterlimit:10;}
	.st5{fill:none;stroke:#0C0C0C;stroke-width:2;stroke-linecap:round;stroke-miterlimit:10;}
	.st6{fill:#FFFFFF;stroke:#0C0C0C;stroke-width:2;stroke-linecap:round;stroke-miterlimit:10;}
</style>
<g>
	<path class="st0" d="M85.8,24.5c0,0-28.7-5.1-38.4,35.4c-7.1,29.4,4,44,0,60s-15.6,29.3-7,43.9c6,10.1,11.6,10.3,11.6,10.3h101.4
		c0,0,20.8-18.7,8.4-43.9c-11.1-22.5-9.3-38-8.6-58C153.8,56.2,139.5,13.3,85.8,24.5z"/>
	<g>
		<path class="st1" d="M166.8,193.8c-4-13.5-8.5-28.8-18.2-34.5c-13.5-7.9-34.9-11.9-54.4-10.2c-17,1.5-35.7,8.6-47.6,18.1
			c-10.8,8.6-14.7,23.6-15.7,36.6H170C168.9,200.7,167.9,197.3,166.8,193.8z"/>
		<path class="st0" d="M45.6,166.1c12.2-9.7,31-16.9,48.4-18.4c18.2-1.6,40.6,1.8,55.3,10.4c12.8,7.5,16.7,30.1,22.2,45.9h1.6
			c-1.2-3.4-2.3-7.1-3.4-11c-4.2-14-8.9-30-19.6-36.2c-14-8.2-36.1-12.3-56.2-10.6c-17.6,1.6-36.9,8.9-49.2,18.8
			c-11.7,9.3-15.8,25.2-16.9,39h1.5C30.4,189.9,34.5,174.9,45.6,166.1z"/>
		<path class="st0" d="M149.4,158c-14.7-8.6-37.1-12-55.3-10.4c-17.4,1.5-36.3,8.8-48.4,18.4c-11.1,8.8-15.2,23.8-16.3,37.8h1.5
			c1.1-13,4.9-28,15.7-36.6c11.9-9.5,30.6-16.6,47.6-18.1c19.5-1.7,40.9,2.3,54.4,10.2c9.7,5.6,14.2,21,18.2,34.5
			c1.1,3.6,2.1,7,3.1,10.1h1.6C166.1,188.1,162.2,165.5,149.4,158z"/>
	</g>
	<path class="st2" d="M80.8,132.9c2.2,1.4,12.1,37.4,17.6,37.4s18.1-37.4,18.1-37.4H80.8z"/>
	<path class="st3" d="M146.4,95.2c-1.5,5.9-5.2,13.3-9.9,13.3s-7.1-7.2-7.1-13.3s4-9.8,8.5-11C145.3,82.2,148,89.1,146.4,95.2z"/>
	<path class="st4" d="M131.4,72.2"/>
	<path class="st2" d="M98,32.1c-27.6,0-44.7,10.8-41.9,55.2c2.8,45.7,31.6,55.3,40.4,55.3c11.3,0,38.6-11.1,40.2-53.8
		C138.4,47.4,130.6,32.1,98,32.1z"/>
	<path class="st0" d="M117.6,73.4c-5.1,0.6-12.6,3.2-13.9,3.2s-2-2.1-0.7-2.9c0,0,15-7.4,23-0.3c0.2,0.2,0,0.6-0.3,0.5
		C124.1,73.5,121,73,117.6,73.4z"/>
	<path class="st0" d="M70.2,74.7c4.9,0.1,12.2,2,13.4,1.8s1.7-2.3,0.3-2.9c0,0-14.9-5.9-21.7,1.9c-0.2,0.2,0,0.6,0.3,0.5
		C64.1,75.4,66.9,74.6,70.2,74.7z"/>
	<path class="st5" d="M90.7,93.2c0,0-1.1,5.2-2.8,7.9c-1.5,2.4-2,7.3,3.7,8.6c1.7,0.4,5.5-0.5,5.5-0.5"/>
	<path class="st5" d="M86.5,119.2c0,0,3,2.3,8.7,2.3c6.5,0,9.3-2.3,9.3-2.3"/>
	<ellipse class="st0" cx="76" cy="87.3" rx="4.9" ry="6.3"/>
	<ellipse class="st0" cx="112.8" cy="87.3" rx="4.9" ry="6.3"/>
	<path class="st0" d="M99.1,39.2c0,0-25.3,0.4-28.4,23.5c-2.8,20.8-10.2,31.6-20.4,35.7c0,0-9.3-33.7,5.5-56.6
		C69.3,21,92,23.6,92,23.6L99.1,39.2z"/>
	<path class="st0" d="M85.8,23.5c0,0,15.2-5.2,32.9,1.4c15.2,5.6,39.1,18.5,33.8,57.4c0,0-9.6,4.1-14.6,1.9c0,0-1.7-7.7-11.2-23.3
		c-9.1-15.1-18.5-18.6-34.9-21.7C91.9,39.2,86.4,28.6,85.8,23.5z"/>
	<path class="st5" d="M106.9,86.4c0,0,0.7-4,5.3-4.8c4.3-0.7,7.8,1.7,9.4,3.2"/>
	<path class="st5" d="M69.7,86.4c0,0,0.7-4,5.3-4.8c4.3-0.7,7.8,1.7,9.4,3.2"/>
	<path class="st6" d="M73.4,83.8c0,0-2.3,1-3.8-1.8"/>
	<path class="st6" d="M119.3,83.1c0,0,1.9,0.9,3.2-1"/>
</g>
</svg>
