<?xml version="1.0" encoding="utf-8"?>
<!-- Generator: Adobe Illustrator 26.5.0, SVG Export Plug-In . SVG Version: 6.00 Build 0)  -->
<svg version="1.1" id="레이어_1" xmlns="http://www.w3.org/2000/svg" xmlns:xlink="http://www.w3.org/1999/xlink" x="0px"
	 y="0px" viewBox="0 0 200 200" style="enable-background:new 0 0 200 200;" xml:space="preserve">
<style type="text/css">
	.st0{fill:#0C0C0C;}
	.st1{fill:#FFDD84;}
	.st2{fill:#FFFFFF;stroke:#0C0C0C;stroke-width:3;stroke-miterlimit:10;}
	.st3{fill:none;stroke:#1D1D1B;stroke-width:2;stroke-linecap:round;stroke-miterlimit:10;}
	.st4{fill:none;stroke:#0C0C0C;stroke-width:2;stroke-linecap:round;stroke-miterlimit:10;}
	.st5{fill:none;stroke:#0C0C0C;stroke-width:2;stroke-miterlimit:10;}
	.st6{fill:#FFFFFF;stroke:#0C0C0C;stroke-width:2;stroke-linecap:round;stroke-miterlimit:10;}
</style>
<path class="st0" d="M67.2,37.7c0,0-29.6,22.7-24,61.6c1.3,9-9.4,11.3-5.4,31.6c1.8,9.5,4.3,8.3-1.4,26.4
	c-5.9,18.7,3.8,31.3,3.8,31.3l122.3-6.5c0,0-10.5-20.3-4.6-37.2c7.1-20.3-1.4-29.6-3.5-37.4c-4.7-18.3-1.2-17.3-2.7-30.4
	C150.3,64.2,67.2,37.7,67.2,37.7z"/>
<path class="st1" d="M154.3,169.6c-13.1-8.3-29.1-16.7-49-16.7c-7.1,0-14.1,0.8-21,2.4h-0.1c-0.2,0.1-0.4,0.1-0.6,0.2
	c-3,0.7-5.9,1.6-8.8,2.6c-13.2,4.5-36.2,14.4-41.6,30.8c-1.2,3.6-3,10.6-4.8,18.9h143.3C165.7,189,159.5,172.9,154.3,169.6z"/>
<path class="st0" d="M31.7,188.5c5.6-17,29-27.2,42.5-31.8c2.9-1,5.9-1.9,8.9-2.7c0.3-0.1,0.5-0.1,0.8-0.2l0,0
	c7-1.7,14.1-2.5,21.3-2.5c19.4,0,35.3,7.8,49.8,16.9c5.5,3.5,12,20,18.1,39.6h1.6c-6.6-21.4-12.9-37.1-18.8-40.8
	c-13.4-8.5-29.9-17.2-50.6-17.2c-7.2,0-14.5,0.8-21.5,2.5h-0.1c-0.3,0.1-0.5,0.1-0.8,0.2c-3.1,0.7-6.1,1.7-9.1,2.7
	c-13.7,4.6-37.7,15.1-43.5,32.7c-1.2,3.7-3.1,11.1-5,19.9h1.5C28.7,199.3,30.5,192.1,31.7,188.5z"/>
<path class="st0" d="M155.1,168.3c-14.5-9.2-30.4-16.9-49.8-16.9c-7.2,0-14.3,0.8-21.3,2.5l0,0c-0.3,0.1-0.5,0.1-0.8,0.2
	c-3,0.7-6,1.6-8.9,2.7c-13.5,4.6-36.9,14.7-42.5,31.8c-1.2,3.6-3,10.8-4.9,19.4h1.5c1.9-8.4,3.7-15.3,4.8-18.9
	c5.4-16.4,28.4-26.4,41.6-30.8c2.9-1,5.8-1.9,8.8-2.6c0.3-0.1,0.5-0.1,0.6-0.2h0.1c6.9-1.6,13.9-2.4,21-2.4c20,0,36,8.4,49,16.7
	c5.1,3.3,11.4,19.4,17.3,38.3h1.6C167.1,188.4,160.7,171.9,155.1,168.3z"/>
<path class="st2" d="M90.6,133.1c2.2,1.4-4.5,32.5,15.2,32.5s16.4-32.5,16.4-32.5H90.6z"/>
<ellipse class="st2" cx="63.6" cy="104.7" rx="8.5" ry="11"/>
<path class="st3" d="M135.9,76.4"/>
<path class="st2" d="M103,34.6c-27.9,0-45.5,16.5-40.7,60.7c0.8,7.7,1.2,15.5,3.9,21.1c12.8,25.8,37.5,32.4,44.7,31
	c14-2.7,34.9-18.7,36.4-52.7C149.1,53.2,135.9,34.6,103,34.6z"/>
<path class="st3" d="M83.4,76.1"/>
<path class="st3" d="M84.6,76.1"/>
<path class="st4" d="M114,94.1c0,0,0.9,4.8,1.7,7.6s3.7,6.9-2.2,8.8c-2.5,0.8-6.9-0.6-6.9-0.6"/>
<ellipse class="st0" cx="93.6" cy="92.7" rx="4.6" ry="5.9"/>
<ellipse class="st0" cx="129.6" cy="92.4" rx="4.6" ry="5.9"/>
<path class="st4" d="M97.4,118.7c3.1,0.4,6.1,0.5,9.2,0.3c2.1-0.1,4.4,1.3,6.6,1.2s3.1-1.9,4.9-1.6c5.8,0.8,7.6-1.1,7.5-0.2
	c-0.1,1.6-2.9,9.3-12.4,10C100.7,129.3,92.8,117.6,97.4,118.7z"/>
<path class="st0" d="M87.5,26.3c0,0,10.8,30.4,31.2,42.9c12.9,7.9,33.4,8.1,33.4,8.1s-0.2-34.6-19.8-46.5
	C112,18.4,87.5,26.3,87.5,26.3z"/>
<path class="st0" d="M95.9,26.1c0,0-23.6-8.1-41.9,20.1C42.5,63.9,39.5,77.8,43.1,97.8l14,4c8.8-8.3,16.8-17.5,23.9-27.3
	C94.3,55.7,95.9,26.1,95.9,26.1z"/>
<path class="st5" d="M78.7,87.1c0,0,14.9-8.1,26.7,1.1c0,0,6.5-2.6,11.3-0.9c0,0,10.7-10.1,27.8-2.1h2.2c0.8,0,1.4,0.6,1.4,1.3
	c0,0,0,0,0,0.1v0.8c0,0.7-0.6,1.3-1.3,1.4h-0.3c-0.8,0-1.5,0.7-1.5,1.5c-0.2,3.9-1.6,14.6-11.5,15.6c-12.5,1.3-15.5-5.9-16.7-18.7
	c0,0-4.5-2-11.3,0.9c0,0,2.4,19-10.1,19.9c-11.1,0.8-13.4-2.3-15.9-8.1c-0.8-2.4-1.3-4.9-1.5-7.4c-0.1-1-1-1.8-2-1.8h-1.3
	c-0.6,0-1.1-0.5-1.1-1.1v-1.3c0-0.6,0.5-1.1,1.1-1.1L78.7,87.1z"/>
<path class="st6" d="M131.4,88.6c0,0,2.8,0.2,4.2-1.2"/>
<path class="st6" d="M94.9,88.4c0,0,3.1,0.6,4.5-1.1"/>
<path class="st0" d="M131.6,73.3c0,0-11.4,2.9-14.6,4.4c-0.3,0.2-0.5,0.5-0.5,0.9l0.3,2c0.1,0.5,0.5,0.8,1,0.7c0.1,0,0.1,0,0.2,0
	c3.7-1.4,16.6-5.3,22.1-4.9c4,0.3,5,0.5,5,0.5C141.6,73.4,136.4,72,131.6,73.3z"/>
<path class="st0" d="M88.9,74.6c0,0,11.7,1.7,15,2.9c0.4,0.1,0.6,0.5,0.6,0.9l-0.1,2c0,0.5-0.4,0.9-0.9,0.8c-0.1,0-0.1,0-0.2,0
	c-3.8-1-17-3.7-22.4-2.8c-3.9,0.7-4.9,1-4.9,1C79.1,75.6,84,73.8,88.9,74.6z"/>
<path class="st4" d="M87.1,90.1c0,0,5.7-5.8,11.1-0.5"/>
<path class="st4" d="M123.2,90c0,0,4.9-5.5,10.9-0.5"/>
</svg>
