<svg id="레이어_1" data-name="레이어 1" xmlns="http://www.w3.org/2000/svg" width="200" height="200" viewBox="0 0 200 200"><defs><style>.cls-1{fill:#0c0c0c;}.cls-2{fill:#ffdd84;stroke-linejoin:round;}.cls-2,.cls-3,.cls-4,.cls-5,.cls-6{stroke:#0c0c0c;}.cls-2,.cls-5,.cls-6{stroke-linecap:round;}.cls-2,.cls-3{stroke-width:3px;}.cls-3,.cls-4,.cls-6{fill:#fff;}.cls-3,.cls-4,.cls-5,.cls-6{stroke-miterlimit:10;}.cls-4,.cls-5,.cls-6{stroke-width:2px;}.cls-5{fill:none;}</style></defs><path class="cls-1" d="M49.2,71.42c.68,20,2.43,35.52-8.64,58-12.42,25.18,8.36,43.83,8.36,43.83H150.35s5.66-.2,11.64-10.31c8.65-14.62-3-27.94-7-43.9s7.06-30.52,0-60c-9.71-40.51-38.39-35.37-38.39-35.37C63,12.52,48.67,55.47,49.2,71.42Z"/><path class="cls-2" d="M32.17,200.85s19.7,13.59,17.6,37.31-6.66,33.56-6.66,33.56l102.66,2s-4.76-10.09-3.38-26.26c1.24-14.46,26.57-33,27.16-37.27-.25-15.72.29-34.51-12.69-44.86-12.16-9.69-31-16.9-48.44-18.44-18.25-1.64-35.44,1.77-50.16,10.36-13.67,8-19.3,28.26-26.09,43.59"/><path class="cls-3" d="M86,132.12s12.63,37.4,18.1,37.4,15.4-36,17.56-37.4Z"/><path class="cls-4" d="M64.56,83.43a11,11,0,0,1,8.51,11c0,6.08-2.4,13.32-7.1,13.32s-8.41-7.43-9.91-13.32C54.48,88.33,57.22,81.5,64.56,83.43Z"/><path class="cls-3" d="M65.67,88.05c1.68,42.71,28.92,53.76,40.24,53.76,8.87,0,37.58-9.63,40.43-55.3,2.77-44.34-14.34-55.15-41.9-55.15C71.91,31.36,64,46.64,65.67,88.05Z"/><path class="cls-1" d="M76.84,73.12a.28.28,0,0,1-.36-.17.28.28,0,0,1,.1-.32c8-7.09,23,.34,23,.34a1.6,1.6,0,0,1,.41,2.21,1.57,1.57,0,0,1-1.12.68c-1.31,0-8.78-2.61-13.92-3.21A25.12,25.12,0,0,0,76.84,73.12Z"/><path class="cls-1" d="M139.84,75.14a.28.28,0,0,0,.36-.15.29.29,0,0,0-.06-.31c-6.66-7.81-21.66-1.87-21.66-1.87a1.6,1.6,0,0,0,.35,2.94c1.23.15,8.55-1.74,13.45-1.85A22.62,22.62,0,0,1,139.84,75.14Z"/><path class="cls-5" d="M105.29,108.34s3.82.89,5.52.52c5.75-1.25,5.28-6.14,3.74-8.57-1.72-2.7-2.8-7.87-2.8-7.87"/><path class="cls-5" d="M98,118.49s2.76,2.25,9.28,2.26c5.63,0,8.65-2.26,8.65-2.26"/><ellipse class="cls-1" cx="126.45" cy="86.52" rx="4.9" ry="6.33"/><ellipse class="cls-1" cx="89.69" cy="86.52" rx="4.9" ry="6.33"/><path class="cls-1" d="M110.38,22.76s22.74-2.65,36.24,18.18c14.84,22.9,5.54,56.64,5.54,56.64-10.21-4.1-17.54-14.92-20.37-35.69-3.14-23-28.45-23.49-28.45-23.49Z"/><path class="cls-1" d="M110.6,38.4c-16.35,3.1-25.81,6.65-34.88,21.72C66.31,75.77,64.57,83.43,64.57,83.43c-5,2.17-14.64-1.92-14.64-1.92-5.32-38.9,18.64-51.8,33.82-57.4a53.34,53.34,0,0,1,32.9-1.35C116.11,27.81,110.6,38.4,110.6,38.4Z"/><path class="cls-5" d="M80.85,84.06c1.69-1.5,5.15-3.87,9.45-3.19a6.26,6.26,0,0,1,5.29,4.76"/><path class="cls-5" d="M118,84.1c1.69-1.5,5.15-3.87,9.45-3.19a6.26,6.26,0,0,1,5.29,4.76"/><path class="cls-6" d="M132.82,81.35c-1.44,2.71-3.77,1.75-3.77,1.75"/><path class="cls-6" d="M80,81.35a2.56,2.56,0,0,0,3.21,1"/><path class="cls-2" d="M146.63,202.94c2.4,9.75,2.05,6.87,2.5,16.9a2.08,2.08,0,0,1-2,2.15H147l-34.55-1.13L114,250.6s40.21,16.79,54.74,9.55,12.22-61.9-5.07-86.9"/><path class="cls-2" d="M52.74,161.51C41.12,170,33.14,192.45,28,216.87c-6.35,30.36,11,49.29,35.59,45.8,13.26-1.88,68.24-16.31,69.46-25.15s-3-29.68-8.71-28.91S77.22,222,72.88,221.45c-3.88-.45-3-7.21-2-18.51"/></svg>