<?xml version="1.0" encoding="utf-8"?>
<!-- Generator: Adobe Illustrator 24.1.0, SVG Export Plug-In . SVG Version: 6.00 Build 0)  -->
<svg version="1.1" id="레이어_1" xmlns="http://www.w3.org/2000/svg" xmlns:xlink="http://www.w3.org/1999/xlink" x="0px"
	 y="0px" width="200px" height="200px" viewBox="0 0 200 200" style="enable-background:new 0 0 200 200;" xml:space="preserve">
<style type="text/css">
	.st0{fill:#FFDD84;stroke:#0C0C0C;stroke-width:3;stroke-linecap:round;stroke-linejoin:round;stroke-miterlimit:10;}
	.st1{fill:#FFFFFF;stroke:#0C0C0C;stroke-width:3;stroke-miterlimit:10;}
	.st2{fill:none;stroke:#1D1D1B;stroke-width:2;stroke-linecap:round;stroke-miterlimit:10;}
	.st3{fill:#0C0C0C;}
	.st4{fill:none;stroke:#0C0C0C;stroke-width:2;stroke-linecap:round;stroke-miterlimit:10;}
	.st5{fill:none;stroke:#0C0C0C;stroke-width:3;stroke-linecap:round;stroke-linejoin:round;stroke-miterlimit:10;}
</style>
<g>
	<g>
		<path class="st0" d="M177.92,201.76c-5.93-15.87-9.63-33.22-23.79-42.38c-15.25-9.87-33.7-14.74-53.8-14.74
			c-19.18,0-36.44,5.38-50.66,13.97c-15.18,9.17-20.49,26.49-26.72,43.16"/>
	</g>
	<path class="st1" d="M82.79,125.94c0.89,3.99-0.36,37.4,17.56,37.4s18.1-37.4,18.1-37.4S82.79,125.94,82.79,125.94z"/>
	<ellipse class="st1" cx="61.3" cy="97.82" rx="8.51" ry="11.01"/>
	<ellipse class="st1" cx="142" cy="95.64" rx="8.51" ry="11.01"/>
	<path class="st2" d="M133.49,67.83"/>
	<path class="st1" d="M100.62,27.78c-26.99,0-44.69,16.61-42.45,60.7c2.28,44.93,33.46,52.06,43.23,52.06s40.14-12.01,42.14-54.75
		C145.57,42.36,132.47,27.78,100.62,27.78z"/>
	<path class="st3" d="M131.92,74.6c-9.53-1.14-19.58,1.36-22.57,2.19c-0.47,0.13-0.94-0.19-0.99-0.68l-0.21-1.89
		c-0.04-0.4,0.21-0.76,0.6-0.85c2.88-0.68,14.15-3.32,17.28-3.39C129.62,69.92,131.92,74.6,131.92,74.6"/>
	<path class="st3" d="M69.8,75.14c9.52-1.21,19.59,1.22,22.59,2.03c0.47,0.13,0.94-0.2,0.99-0.68l0.19-1.89
		c0.04-0.4-0.21-0.76-0.6-0.85c-2.88-0.66-14.17-3.22-17.3-3.26C72.07,70.44,69.8,75.14,69.8,75.14"/>
	<path class="st4" d="M99.42,88.76c0,0-1.04,6.72-1.96,9.7c-1.08,3.53-3.98,8.88,2.62,9.64c0.96,0.11,2.57,0,2.57,0"/>
	<path class="st4" d="M92.07,118.01c0,0,2.16,2.08,8.46,2.08c7.22,0,9.08-2.08,9.08-2.08"/>
	<ellipse class="st3" cx="82.2" cy="85.82" rx="4.56" ry="5.9"/>
	<ellipse class="st3" cx="118.27" cy="85.82" rx="4.56" ry="5.9"/>
	<path class="st3" d="M99.73,23.88l1.24,19.08c0,0,11.32-5.99,19.96,4.21c7.83,9.23,7.87,33.69,27.71,40.03
		c0,0,4.88-12.39,1.55-34.49C147.55,35.1,126.29,15.8,99.73,23.88z"/>
	<path class="st3" d="M102.65,23.45l-1.68,19.51c0,0-8.76-5.34-17.28,3.26s-8.92,40.59-30.9,44.82c0,0-3.46-18.31,0-34.43
		C57.17,36.22,76.09,15.37,102.65,23.45z"/>
	<path class="st4" d="M112.51,83.34c0,0,2.5-3.37,7.57-2.68s6.84,2.68,6.84,2.68"/>
	<path class="st4" d="M88.31,83.34c0,0-2.5-3.37-7.57-2.68s-6.84,2.68-6.84,2.68"/>
	<path class="st5" d="M76.95,147.4c0,0,3.35,25.8,22.78,25.8s25.7-25.8,25.7-25.8"/>
	<path class="st3" d="M56.89,107.56c0,0,3.49,15.32,16.08,20.16c0,0-10.79-16.54-11.67-18.9L56.89,107.56z"/>
	<path class="st3" d="M144.6,107.56c0,0-6.4,16.81-16.93,20.16c0,0,11.55-17.37,12.44-19.73L144.6,107.56z"/>
</g>
</svg>
