<?xml version="1.0" encoding="utf-8"?>
<!-- Generator: Adobe Illustrator 24.1.0, SVG Export Plug-In . SVG Version: 6.00 Build 0)  -->
<svg version="1.1" id="레이어_1" xmlns="http://www.w3.org/2000/svg" xmlns:xlink="http://www.w3.org/1999/xlink" x="0px"
	 y="0px" width="200px" height="200px" viewBox="0 0 200 200" style="enable-background:new 0 0 200 200;" xml:space="preserve">
<style type="text/css">
	.st0{fill:#0C0C0C;}
	.st1{fill:#FFDD84;stroke:#0C0C0C;stroke-width:3;stroke-linecap:round;stroke-linejoin:round;stroke-miterlimit:10;}
	.st2{fill:#FFFFFF;stroke:#0C0C0C;stroke-width:3;stroke-miterlimit:10;}
	.st3{fill:none;stroke:#1D1D1B;stroke-width:2;stroke-linecap:round;stroke-miterlimit:10;}
	.st4{fill:none;stroke:#0C0C0C;stroke-width:2;stroke-linecap:round;stroke-miterlimit:10;}
</style>
<g>
	<path class="st0" d="M60.58,37.2c-7.34,8.68-23.26,23.52-19.6,68.92c1.35,16.78,16.19,39.28,12.22,48.27s-1.08,11.06,9.56,7.38
		s70.6,6.49,85.51-3.33c7.08-5.04-2.33-7.19,1.01-16.33s15.97-36.48,8.96-70.74c-6.29-30.74-32.12-52.68-61.41-49.25
		C74.69,24.73,67.92,28.52,60.58,37.2z"/>
	<path class="st0" d="M52.77,93.6c0,0-11.05-26.19,0.21-46.15s31.93-28.37,43.86-25.32c0,0,13.73-3.46,32.15,8.01
		C142.74,38.7,151.77,57.01,147,91.4L52.77,93.6z"/>
	<g>
		<path class="st1" d="M176.64,204.12c-5.74-15.87-9.31-33.22-23-42.38C138.9,151.88,121.06,147,101.63,147
			c-18.54,0-35.23,5.38-48.97,13.97c-14.68,9.17-19.8,26.49-25.83,43.16"/>
	</g>
	<path class="st2" d="M81.51,130.9c2.16,1.41,12.09,37.4,17.56,37.4c5.48,0,18.1-37.4,18.1-37.4H81.51z"/>
	<path class="st2" d="M68.08,101.16c1.23,5.96,2.8,12.42-2.68,12.8c-3.7,0.26-9.32,0.26-12.26-10.36
		c-2.03-7.35-1.96-15.01,5.44-13.01C63.12,91.83,66.85,95.21,68.08,101.16z"/>
	<path class="st2" d="M129.36,101.16c-1.23,5.96-2.8,12.42,2.68,12.8c3.7,0.26,9.32,0.26,12.26-10.36
		c2.03-7.35,1.96-15.01-5.44-13.01C134.32,91.83,130.59,95.21,129.36,101.16z"/>
	<path class="st3" d="M131.17,70.19"/>
	<path class="st2" d="M98.29,30.92c-26.35,0-39.72,10.84-38.46,56.88c1.2,43.77,29.28,54.32,39.23,54.32s37.26-12.14,38.87-54.26
		C139.49,47.02,129.38,30.92,98.29,30.92z"/>
	<path class="st3" d="M78.67,69.95"/>
	<path class="st3" d="M79.92,69.9"/>
	<path class="st0" d="M70.14,77.54c-0.36,0-0.53-0.43-0.28-0.69c1.83-1.9,3.38-2.93,5.96-2.98c7.68-0.16,13.11,0.44,15.04,0.89
		c0.39,0.09,0.71,0.79,0.72,1.26l0.02,1.07c0.01,0.51-0.3,1.18-0.72,1.14c-2.76-0.25-12.32-0.76-15.27-0.73
		C74.31,77.52,71.57,77.53,70.14,77.54z"/>
	<path class="st0" d="M127.69,77.54c0.36,0,0.53-0.43,0.28-0.69c-1.82-1.9-3.38-2.93-5.96-2.98c-7.68-0.16-13.11,0.43-15.04,0.88
		c-0.39,0.09-0.71,0.79-0.72,1.26l-0.02,1.07c-0.01,0.51,0.3,1.18,0.72,1.14c2.76-0.25,12.32-0.76,15.27-0.72
		C123.52,77.52,126.25,77.54,127.69,77.54z"/>
	<path class="st4" d="M102.93,111.83c-12.26,1.79-9.26-5.76-8.53-8.81c0.73-3.05,1.08-4.68,1.08-4.68"/>
	<path class="st4" d="M91.86,121.15c0,0,2.72,1.19,7.2,1.18c5.19-0.02,7.08-1.18,7.08-1.18"/>
	<ellipse class="st0" cx="82.73" cy="88.86" rx="4.34" ry="5.61"/>
	<path class="st4" d="M78.76,83.88c0,0-2.42,0.21-3.38-1.88"/>
	<path class="st4" d="M87.83,86.01c0,0-0.91-1.41-3.56-2.15c-4.91-1.37-9.58,2.29-9.58,2.29"/>
	<ellipse class="st0" cx="114.7" cy="88.86" rx="4.34" ry="5.61"/>
	<path class="st4" d="M118.67,83.88c0,0,2.42,0.21,3.38-1.88"/>
	<path class="st4" d="M109.6,86.01c0,0,0.91-1.41,3.56-2.15c4.91-1.37,9.58,2.29,9.58,2.29"/>
	<path class="st1" d="M87.73,147.7c0,0-12.2,1.78-15.94,4.19c-1.93,1.25,7.61,17.78,11.01,23.54c0.64,1.08,2.04,1.44,3.12,0.79
		l13.15-7.93C99.07,168.29,93.76,162.34,87.73,147.7z"/>
	<path class="st1" d="M111.53,147.13c0,0,12.07,1.67,15.89,3.01c2.16,0.76-7.58,18.58-11.16,24.99c-0.7,1.25-2.29,1.66-3.51,0.93
		l-12.87-7.76C99.89,168.29,105.5,161.78,111.53,147.13z"/>
	<path class="st0" d="M98.24,24.73c0,0,2.65,9.02,4.69,16.17c0,0-34.94,4.34-41.7,49.7C61.23,90.6,43.85,35.28,98.24,24.73z"/>
	<path class="st0" d="M98.24,26.51l3.37,14.78c0,0,32.81,15.73,37.81,44.85C139.42,86.15,152.45,31.28,98.24,26.51z"/>
</g>
</svg>
