<?xml version="1.0" encoding="utf-8"?>
<!-- Generator: Adobe Illustrator 24.1.0, SVG Export Plug-In . SVG Version: 6.00 Build 0)  -->
<svg version="1.1" id="레이어_1" xmlns="http://www.w3.org/2000/svg" xmlns:xlink="http://www.w3.org/1999/xlink" x="0px"
	 y="0px" width="200px" height="200px" viewBox="0 0 200 200" style="enable-background:new 0 0 200 200;" xml:space="preserve">
<style type="text/css">
	.st0{fill:#0C0C0C;}
	.st1{fill:#FFDD84;stroke:#0C0C0C;stroke-width:3;stroke-linecap:round;stroke-linejoin:round;stroke-miterlimit:10;}
	.st2{fill:#FFFFFF;stroke:#0C0C0C;stroke-width:3;stroke-linecap:round;stroke-linejoin:round;stroke-miterlimit:10;}
	.st3{fill:#FFFFFF;stroke:#0C0C0C;stroke-width:3;stroke-miterlimit:10;}
	.st4{fill:none;stroke:#1D1D1B;stroke-width:2;stroke-linecap:round;stroke-miterlimit:10;}
	.st5{fill:none;stroke:#0C0C0C;stroke-width:2;stroke-linecap:round;stroke-miterlimit:10;}
	.st6{fill:none;stroke:#0C0C0C;stroke-width:2;stroke-linecap:round;stroke-linejoin:round;stroke-miterlimit:10;}
</style>
<g>
	<path class="st0" d="M90.67,23.36c0,0,20.37-9.61,40.18,7.21c17.69,15.03,19.22,38.59,21.87,66.42
		c1.84,19.28,7.21,67.42,11.72,76.4s5.85,28.56,5.85,28.56H38.16c0,0,0.27-23.42,7.01-40.24c4.32-10.77,4.17-22.21,2.74-37.69
		c-2.48-26.87-1.1-41.63,0-50.62C50.16,54.96,55.6,20.72,90.67,23.36z"/>
	<g>
		<path class="st1" d="M173.85,204.25c-3.56-16.5-6.54-38.05-20.45-44.89c-15.34-7.55-34.08-12.23-53.14-12.23
			c-18.19,0-34.71,3.08-48.52,11.14c-13.59,7.94-18.97,29.32-24.88,45.99"/>
	</g>
	<path class="st2" d="M90.87,129.34c0,0,0.64,12.97-3.66,15.85s-18.53,5.38-23.66,7.3l1.56,13.7c0,0,19.44,2.87,34.86,5.48
		c0,0,18.15-3.97,35.27-4.67l4.34-14.49c0,0-13.87-4-23.82-5.39c-5.97-0.83-4.64-18.8-4.64-18.8S100.12,122.59,90.87,129.34z"/>
	<path class="st3" d="M100.03,28.28c-23.45,0-41.96,15.38-38.51,54.95c4.12,47.21,30.09,53.72,39.31,54.53
		c6.24,0.55,35.15-10.85,37.75-55.21C141.11,39.48,123.47,28.28,100.03,28.28z"/>
	<path class="st4" d="M130.85,71.7"/>
	<path class="st0" d="M130.92,73.38c-10.95-2.22-20.82-0.64-24.08,0.01c-0.61,0.12-1.21-0.25-1.29-0.82l-0.22-1.51
		c-0.08-0.53,0.32-1.02,0.91-1.1c3.49-0.48,14.78-1.82,20.2,0.29C129.2,71.34,130.92,73.38,130.92,73.38z"/>
	<path class="st0" d="M65.64,73.49c10.93-2.31,20.81-0.82,24.08-0.19c0.62,0.12,1.21-0.26,1.29-0.83l0.21-1.51
		c0.07-0.53-0.33-1.02-0.92-1.09c-3.49-0.45-14.8-1.69-20.2,0.46C67.34,71.43,65.64,73.49,65.64,73.49z"/>
	<path class="st4" d="M80.37,71.47"/>
	<path class="st4" d="M81.58,71.43"/>
	<path class="st5" d="M97.2,86.5c-0.49,2.61-1.77,6.98-3.83,10.5c-0.97,1.66-3.3,4.17-2.22,6.43c1.34,2.82,9.52,3.12,9.52,3.12"/>
	<ellipse class="st0" cx="114.41" cy="84.41" rx="4.39" ry="5.67"/>
	<path class="st5" d="M118.41,80.16c0,0,1.99,0.91,3.48-1.09"/>
	<path class="st0" d="M98.53,37.88c0,0-22.63-8.79-25.13,28.44c-2.53,37.61-19.73,22.48-21.12,42.27c0-5.54-0.44-14.86,0.91-27.38
		c1.22-11.33-2.41-35.96,14.71-49.02C80.95,22.27,94.34,27.33,98.53,37.88z"/>
	<path class="st0" d="M98.53,37.88c0,0,15.72-5.34,20.51,11.32s-0.26,21.12,14.95,40.37c7.26,9.19-1.65,30.04-1.65,30.04
		s18.79-17.68,16.08-31.94c-2.47-12.98-5.89-65.39-45.45-61.12C99.09,26.98,82.35,30.63,98.53,37.88z"/>
	<path class="st6" d="M90.87,116.97c0,0,0.83-0.16,2.15,0.58c0,0,5.39,3.63,10.87,0c0.91-0.6,2.11-0.74,2.11-0.74"/>
	<path class="st5" d="M109.15,82.28c0,0,2.05-3.16,5.02-3.2c2.38-0.04,3.44,0.54,6.28,2.48c0.95,0.65,1.89,0.61,1.89,0.61"/>
	<ellipse class="st0" cx="82.13" cy="84.41" rx="4.39" ry="5.67"/>
	<path class="st5" d="M78.9,80.37c0,0-2.54,1.24-3.53-0.96"/>
	<path class="st5" d="M87.21,81.95c0,0-2.35-3.77-6.54-2.6c-1.76,0.49-2.66,1.51-4.16,2.29c-1.02,0.53-2.35,0.65-2.35,0.65"/>
</g>
</svg>
