<?xml version="1.0" encoding="utf-8"?>
<!-- Generator: Adobe Illustrator 24.1.0, SVG Export Plug-In . SVG Version: 6.00 Build 0)  -->
<svg version="1.1" id="레이어_1" xmlns="http://www.w3.org/2000/svg" xmlns:xlink="http://www.w3.org/1999/xlink" x="0px"
	 y="0px" width="200px" height="200px" viewBox="0 0 200 200" style="enable-background:new 0 0 200 200;" xml:space="preserve">
<style type="text/css">
	.st0{fill:#0C0C0C;}
	.st1{fill:#FFDD84;}
	.st2{fill:#FFFFFF;stroke:#0C0C0C;stroke-width:3;stroke-miterlimit:10;}
	.st3{fill:none;stroke:#1D1D1B;stroke-width:2;stroke-linecap:round;stroke-miterlimit:10;}
	.st4{fill:none;stroke:#0C0C0C;stroke-width:2;stroke-linecap:round;stroke-miterlimit:10;}
	.st5{fill:#0C0C0C;stroke:#0C0C0C;stroke-width:3;stroke-miterlimit:10;}
	.st6{fill:#0C0C0C;stroke:#0C0C0C;stroke-width:3;stroke-linejoin:round;stroke-miterlimit:10;}
	.st7{fill:#FFFFFF;stroke:#0C0C0C;stroke-width:2;stroke-linecap:round;stroke-miterlimit:10;}
	.st8{fill:none;stroke:#0C0C0C;stroke-width:3;stroke-linecap:round;stroke-miterlimit:10;}
</style>
<g>
	<g>
		<path class="st0" d="M120.6,196.4c-41,0-66.6-3.8-72.1-10.8c-0.9-1.2-1.2-2.4-0.9-3.8c6-25.7,6.1-52.3,6-59.8
			c-0.6-44.6,1.8-59.5,2.6-63.1c3.2-0.2,13.4-0.8,26-0.8c38.2,0,63.6,4.9,71.7,13.8c2.2,2.4,3.1,5,2.8,8
			c-2.7,27.7,1.3,103.7,1.9,115.3C153.8,195.6,138.4,196.4,120.6,196.4L120.6,196.4z"/>
		<path class="st0" d="M82.1,59.7c37.7,0,62.8,4.7,70.6,13.3c1.9,2.1,2.7,4.3,2.4,6.9c-2.6,27.2,1,98.3,1.8,114.1
			c-6,0.3-20.2,0.9-36.4,0.9c-56.7,0-68.5-7.1-70.9-10.2c-0.7-0.8-0.8-1.6-0.6-2.5c6-25.9,6.1-52.6,6-60.2
			c-0.6-41.3,1.4-56.8,2.3-61.6C61.4,60.2,70.8,59.7,82.1,59.7 M82.1,56.7c-15.5,0-27.2,0.8-27.2,0.8S51.2,68.1,52,122
			c0.2,13.1-0.7,37.1-5.9,59.5c-3.2,13.7,40.3,16.4,74.5,16.4c21.7,0,39.6-1.1,39.6-1.1s-4.9-86.5-2-116.6
			C160.1,60.1,113.4,56.7,82.1,56.7L82.1,56.7z"/>
	</g>
	<g>
		<path class="st1" d="M174.7,202.7c-1.8-14.9-3.9-31.7-16.2-37.4c-16.6-7.6-31.9-10.9-51.1-10.9c-19.9,0-44.6,4.6-57.5,10.7
			c-14.2,6.7-19.3,24.1-22.4,42.3h147.9C175.1,205.9,174.9,204.3,174.7,202.7z"/>
		<path class="st0" d="M49.2,163.8c14-6.6,39.3-10.8,58.2-10.8c19.8,0,35.3,3.4,51.7,11c14.5,6.7,15.5,27.1,17.7,43.5h1.5
			c-0.2-1.7-0.4-3.4-0.7-5.1c-1.9-15.6-4.1-33.4-17.9-39.7c-17-7.8-32.6-11.1-52.4-11.1c-17.7,0-43.6,3.8-58.8,11
			c-15.6,7.3-20.9,25.8-24.2,45h1.5C28.8,190.3,33.8,171,49.2,163.8z"/>
		<path class="st0" d="M159.1,163.9c-16.4-7.5-31.9-11-51.7-11c-18.9,0-44.2,4.2-58.2,10.8c-15.4,7.2-20.4,26.6-23.3,43.7h1.5
			c3.1-18.2,8.2-35.6,22.4-42.3c12.9-6.1,37.7-10.7,57.5-10.7c19.3,0,34.6,3.2,51.1,10.9c12.3,5.7,14.4,22.5,16.2,37.4
			c0.2,1.6,0.4,3.2,0.6,4.8h1.5C174.6,191.1,173.7,170.6,159.1,163.9z"/>
	</g>
	<path class="st2" d="M91.9,133.1c0.1,1.7,0.8,7.6,0.8,17.6c0,0,8.2,29.1,16.5,27.4s12.8-45,12.8-45H91.9z"/>
	<path class="st2" d="M59.8,98c1.1,8.6,3.1,14.2,8.4,14.2s8.3-5.1,8.3-13.8s-4.5-16-9.4-16.3C60.5,81.5,58.1,85.2,59.8,98z"/>
	<path class="st2" d="M134.5,98.3c0,8.7,3,16.4,8.3,16.4s10.3-7.7,11-16.4c1.1-14.1-3.3-17.9-9.6-15.8
		C139.1,84.3,134.5,89.6,134.5,98.3z"/>
	<g>
		<path class="st2" d="M141.9,51.4c-5.4-7.8-12.8-16-37.7-16.5S70,54.5,69.9,93.1c0,0.7,0.1,7,0.6,11.6
			c1.9,16.9,10.4,25.2,15.9,30.6c5.6,5.6,17.1,12.4,24.2,12.2c12.7-0.3,23.1-13.2,26.7-18.1c4.9-6.7,8.7-16,9.8-28.9
			c0.3-3.2,0.9-10.5,0.9-10.8C148.2,78.3,148.4,60.8,141.9,51.4z"/>
	</g>
	<path class="st3" d="M137.5,76.1"/>
	<path class="st3" d="M87,75.9"/>
	<path class="st4" d="M116.2,87.1c0,0,0.5,12.5,1.9,16.7c1.1,3.3,3.5,8.4-3.3,9.6"/>
	<path class="st4" d="M101.6,122.3c0,0,3.5,3.8,10.9,3.4c6.8-0.3,9.3-3,9.3-3"/>
	<ellipse class="st0" cx="96.6" cy="89.3" rx="4.6" ry="5.9"/>
	<ellipse class="st0" cx="130.4" cy="89.3" rx="4.6" ry="5.9"/>
	<path class="st5" d="M109.6,38.8c0,0-12.7,1.4-26.2,19c-5.2,6.7-10.6,14.1-15.1,25c0,0-12.4-6.8-11.8,19.2
		c0.1,5.3-10.3-29.4,5.7-60c13.6-26.1,47.4-19.9,47.4-19.9S110.1,31.9,109.6,38.8z"/>
	<path class="st6" d="M111.3,22.1c0,0,15.9-3.8,31.6,12.9c22.4,23.9,12.5,64.5,12.5,69.9c0,0-0.5-23.2-6.2-23.2c0,0-5.3-8-12.4-25
		c-3.1-7.3-9.8-18-27.1-19.3C109.6,37.4,110.1,29.9,111.3,22.1z"/>
	<path class="st4" d="M91.9,84.2c0,0-1.6,0.5-2.7-2"/>
	<path class="st4" d="M131.5,84.1c0,0,2.4,0.6,3.3-1.4"/>
	<path class="st0" d="M85,77.2c0.5-0.4,3.6-2.1,8.4-2.2c6.5-0.2,11,1.4,11,1.4c1.2,1.1,0.6,2.8-0.3,2.9s-5.9-1.4-9.5-1.4
		S87,78,84.1,79.2C82.6,79.8,83.9,78.2,85,77.2z"/>
	<path class="st0" d="M139.4,77.2c-0.4-0.4-3.3-2.1-7.6-2.2c-5.9-0.2-10,1.4-10,1.4c-1.1,1.1-0.5,2.8,0.3,2.9s5.4-1.4,8.6-1.4
		c3.3,0,6.9,0.2,9.5,1.4C141.6,79.8,140.4,78.2,139.4,77.2z"/>
	<polyline class="st7" points="139.4,73.9 139.4,73.9 139.3,74.1 	"/>
	<path class="st8" d="M109.2,34.8c0,0,15.1,8.3,13.7,36.8"/>
	<path class="st8" d="M107.4,33.6c0,0,13.2,13.8,4.8,41.1"/>
	<path class="st8" d="M105.6,31.7c0,0,10.2,16.2-3.6,41.2"/>
	<path class="st4" d="M102.2,87.6c0,0-1.2-3-5.7-3.9c-3.6-0.7-8.1,2.1-8.1,2.1"/>
	<path class="st4" d="M124.7,87.6c0,0,1.1-2.9,5.3-3.6c3.9-0.6,6.8,1.3,6.8,1.3"/>
</g>
<polygon class="st0" points="67.9,207.5 94.6,207.5 92.2,140.4 66,142.1 "/>
</svg>
