<?xml version="1.0" encoding="utf-8"?>
<!-- Generator: Adobe Illustrator 24.1.0, SVG Export Plug-In . SVG Version: 6.00 Build 0)  -->
<svg version="1.1" id="레이어_1" xmlns="http://www.w3.org/2000/svg" xmlns:xlink="http://www.w3.org/1999/xlink" x="0px"
	 y="0px" width="200px" height="200px" viewBox="0 0 200 200" style="enable-background:new 0 0 200 200;" xml:space="preserve">
<style type="text/css">
	.st0{fill:#FFDD84;stroke:#0C0C0C;stroke-width:3;stroke-linecap:round;stroke-linejoin:round;stroke-miterlimit:10;}
	.st1{fill:#FFFFFF;stroke:#0C0C0C;stroke-width:3;stroke-miterlimit:10;}
	.st2{fill:none;stroke:#1D1D1B;stroke-width:2;stroke-linecap:round;stroke-miterlimit:10;}
	.st3{fill:none;stroke:#0C0C0C;stroke-width:3;stroke-linecap:round;stroke-miterlimit:10;}
	.st4{fill:none;stroke:#0C0C0C;stroke-width:2;stroke-linecap:round;stroke-miterlimit:10;}
	.st5{fill:#0C0C0C;}
	.st6{fill:none;stroke:#0C0C0C;stroke-width:3;stroke-linecap:round;stroke-linejoin:round;stroke-miterlimit:10;}
</style>
<g>
	<g>
		<path class="st0" d="M181.01,202.48c-6.18-15.87-10.03-33.22-24.79-42.38c-15.89-9.87-35.12-14.74-56.07-14.74
			c-19.99,0-37.98,5.38-52.8,13.97C31.53,168.5,26,185.82,19.51,202.49"/>
	</g>
	<path class="st1" d="M82.43,129.26c2.16,1.41,0.88,29.96,17.56,29.96s18.1-29.96,18.1-29.96L82.43,129.26L82.43,129.26z"/>
	<ellipse class="st1" cx="59.51" cy="101.27" rx="8.51" ry="11.01"/>
	<ellipse class="st1" cx="141.31" cy="100" rx="8.51" ry="11.01"/>
	<g>
		<path class="st1" d="M136.11,49.32C123.35,28.04,97.34,32.1,95.7,32.1c-25.07,0.04-40.5,15.58-38.39,55.52c0,0.75,0.01,3.05,0,4.1
			c0.22,32.53,23.61,48.72,42.37,48.72c18.85,0,43.27-17.43,43.27-50.24c0-1.13-0.03-2.26-0.08-3.37c-0.01-0.32,0.06-1.22,0.08-1.54
			C143.39,73.41,142.14,59.38,136.11,49.32z"/>
	</g>
	<path class="st2" d="M131.7,71.28"/>
	<path class="st3" d="M110.39,73.28c0,0,10.19-3.42,21.31-2.01"/>
	<path class="st2" d="M79.2,71.04"/>
	<path class="st2" d="M80.45,70.99"/>
	<path class="st3" d="M89.82,73.28c0,0-10.61-2.25-20.59,0"/>
	<path class="st4" d="M96.52,90.42c0,0-2.91,4.03-3.67,6.81s-1.51,8.39,4.61,9.63c0.94,0.19,3.81,0.08,3.81,0.08"/>
	<path class="st4" d="M106.21,119.02c0,0-2.2,2.34-7.4,2.35c-4.48,0.02-6.89-2.35-6.89-2.35"/>
	<path class="st5" d="M88.53,25.16c0,0-25.13-3.1-32.4,8.87S42.2,47.11,42.87,60.63s0.66,29.86,11.3,34.89l2.36,2.96
		c0,0,5.4-37.63,16.04-45.17c5.17-3.66,15.02-12.98,24.63-13.22c10.16-0.25,20.05,8.75,23.85,10.11
		c7.39,2.66,17.17,18.3,22.03,42.96c0,0,5.98-5.27,7.75-15.47s-0.03-22.17-1.01-25.49c-0.61-2.07-2.48-7.54-10.28-13.19
		c-4.1-2.97-5.27-9.58-11.1-12.53C114.47,19.43,97.85,18.95,88.53,25.16z"/>
	<path class="st5" d="M94.74,34.03c0,0-31.26,6.87-36.14,34.14c0,0-0.47,6.96,2.98,6.8s27.96,2.06,28.23-7.91
		c0.27-9.98,3.81-26.8,8.69-26.88c2.04-0.03,8.9,0.56,10.59,15.01s1.39,19.94,5.15,19.9c3.77-0.04,25.05,5.36,25.27,0
		C139.75,69.72,137.75,25.38,94.74,34.03z"/>
	<ellipse class="st5" cx="80.45" cy="85.27" rx="4.33" ry="5.6"/>
	<ellipse class="st5" cx="116.48" cy="85.27" rx="4.22" ry="5.45"/>
	<path class="st4" d="M111.45,82.89c0,0,1.54-2.25,5.7-2.25c4.5,0,6.94,2.93,6.94,2.93"/>
	<path class="st4" d="M85.84,82.89c0,0-1.58-2.32-6.07-2.37c-3.65-0.04-6.59,3.05-6.59,3.05"/>
	<path class="st6" d="M77.21,148.86c0,0,1.59,21.13,22.52,21.13s23.72-21.88,23.72-21.88"/>
</g>
</svg>
