<?xml version="1.0" encoding="utf-8"?>
<!-- Generator: Adobe Illustrator 24.1.0, SVG Export Plug-In . SVG Version: 6.00 Build 0)  -->
<svg version="1.1" id="레이어_1" xmlns="http://www.w3.org/2000/svg" xmlns:xlink="http://www.w3.org/1999/xlink" x="0px"
	 y="0px" width="200px" height="200px" viewBox="0 0 200 200" style="enable-background:new 0 0 200 200;" xml:space="preserve">
<style type="text/css">
	.st0{fill:#0C0C0C;stroke:#0C0C0C;stroke-width:3;stroke-miterlimit:10;}
	.st1{fill:#FFDD84;stroke:#0C0C0C;stroke-width:3;stroke-linecap:round;stroke-linejoin:round;stroke-miterlimit:10;}
	.st2{fill:#FFFFFF;stroke:#0C0C0C;stroke-width:3;stroke-miterlimit:10;}
	.st3{fill:none;stroke:#1D1D1B;stroke-width:2;stroke-linecap:round;stroke-miterlimit:10;}
	.st4{fill:none;stroke:#0C0C0C;stroke-width:2;stroke-linecap:round;stroke-miterlimit:10;}
	.st5{fill:#0C0C0C;}
</style>
<g>
	<path class="st0" d="M96.85,22.7c0,0-43.82,3.87-49.31,54.63c-3.12,28.91-9.14,53.66-3.99,69.12
		c4.01,12.04,11.15,17.84,14.25,19.23s14.35,3.88,40.79,3.88s47.2,2.24,50.54,0c12.64-8.48,8.83-27.54,8.65-30.76
		s-2.14-34.72-3.14-59.8C153.64,54.02,142.62,20.33,96.85,22.7z"/>
	<g>
		<path class="st1" d="M176.1,210.48c-5.74-15.87-9.31-33.22-23-42.38c-14.74-9.87-32.58-14.74-52.01-14.74
			c-18.54,0-35.23,5.38-48.97,13.97c-14.68,9.17-19.8,26.49-25.83,43.16"/>
	</g>
	<path class="st2" d="M82.17,134.56c2.16,1.41,12.68,48.36,18.16,48.36s17.5-48.36,17.5-48.36H82.17z"/>
	<ellipse class="st2" cx="63.04" cy="104.28" rx="7.92" ry="10.25"/>
	<ellipse class="st2" cx="139.19" cy="102.23" rx="7.92" ry="10.25"/>
	<g>
		<path class="st2" d="M121.52,64.15c-12.33-13.4-14.29-16.1-19.36-17.61c-1.11-0.33-2.44,0.82-6.2,2.31
			c-14.04,5.57-33.67,16.3-33.67,40.88c0,2.52,0.7,7.75,0.76,8.56c3.39,30.48,21.18,47.17,36.93,47.17
			c17.83,0,38.63-20.94,38.63-51.48c0-1.06-0.03-2.1-0.07-3.14c-0.01-0.3-0.2-0.52-0.34-0.79
			C134.03,81.65,130.24,73.63,121.52,64.15z"/>
	</g>
	<path class="st3" d="M130.24,76.37"/>
	<path class="st3" d="M81.38,76.14"/>
	<path class="st3" d="M82.54,76.1"/>
	<path class="st4" d="M96.67,98.06c0,0-0.81,3.64-1.51,6.22s-1.68,5.92,2.86,6.56c0.42,0.06,1.45,0,2.42-0.08"/>
	<path class="st4" d="M91.89,120.48c0,0,2.61,2.87,7.48,2.86c5.63-0.02,8.03-2.86,8.03-2.86"/>
	<ellipse class="st5" cx="82.54" cy="91.25" rx="4.25" ry="5.49"/>
	<ellipse class="st5" cx="116.07" cy="91.25" rx="4.06" ry="5.25"/>
	<path class="st5" d="M118.01,78.48c-4.01-0.15-7.82,0.43-8.61,1.03c-0.31,0.23-0.99,1.69-0.47,2.03c0.61,0.39,5.07-0.22,6.68-0.39
		c2.76-0.29,7.15-0.33,10.38,0c3.22,0.33,1.95-1.01,0.47-1.39C124.7,79.3,121.65,78.61,118.01,78.48z"/>
	<path class="st5" d="M81.74,78.48c4.01-0.16,7.82-0.01,8.61,0.6c0.31,0.24,0.99,1.73,0.47,2.07c-0.61,0.4-3.83,0.17-4.75,0.13
		c-1.57-0.06-9.08-0.41-12.31-0.08c-3.22,0.34-1.95-1.03-0.47-1.42C75.04,79.33,78.1,78.62,81.74,78.48z"/>
	<path class="st4" d="M111.05,89.86c0,0,0.97-2.62,5.38-3.3c3.71-0.57,6.27,1.6,6.27,1.6"/>
	<path class="st4" d="M87.77,89.86c0,0-0.97-2.62-5.38-3.3c-3.71-0.57-6.54,1.36-6.54,1.36"/>
	<path class="st4" d="M120.64,87.03c0,0,1.28,0.21,2.46-1.13"/>
	<path class="st4" d="M78.4,86.82c0,0-1.37,0.29-2.55-1.06"/>
	<path class="st5" d="M148.49,135.32l-1.41,0.52l0,0l-27.12,6.1c-0.02-0.07-0.04-0.12-0.05-0.14l-1.42,0.48l0,0l0,0l-1.42,0.48
		c0.06,0.17,5.61,17.12-1.15,26.12c-2.31,3.07-0.94,5.01-0.24,5.69c1.38,1.36,4.27,1.95,7.75,1.95c7.07,0,16.59-2.42,20.77-5.64
		C152.28,164.64,152.94,147.46,148.49,135.32z"/>
	<path class="st5" d="M72.34,165.56c-15.21-9.96-9.78-26.9-9.54-27.61l-1.42-0.48L59.95,137c-0.02,0.07-0.77,2.37-1.07,5.81
		l-7.46,15.94l0,0l-1.2,0.91c6.57,8.67,19.72,14.42,25.04,14.42c0.44,0,0.82-0.04,1.14-0.12c1.45-0.35,1.78-1.38,1.85-1.8
		C78.47,170.89,77.91,169.21,72.34,165.56z"/>
</g>
</svg>
