<?xml version="1.0" encoding="utf-8"?>
<!-- Generator: Adobe Illustrator 24.1.0, SVG Export Plug-In . SVG Version: 6.00 Build 0)  -->
<svg version="1.1" id="레이어_1" xmlns="http://www.w3.org/2000/svg" xmlns:xlink="http://www.w3.org/1999/xlink" x="0px"
	 y="0px" width="200px" height="200px" viewBox="0 0 200 200" style="enable-background:new 0 0 200 200;" xml:space="preserve">
<style type="text/css">
	.st0{fill:#0C0C0C;}
	.st1{fill:#FFDD84;stroke:#0C0C0C;stroke-width:3;stroke-linecap:round;stroke-linejoin:round;stroke-miterlimit:10;}
	.st2{fill:#FFFFFF;stroke:#0C0C0C;stroke-width:3;stroke-miterlimit:10;}
	.st3{fill:none;stroke:#1D1D1B;stroke-width:2;stroke-linecap:round;stroke-miterlimit:10;}
	.st4{fill:none;stroke:#0C0C0C;stroke-width:2;stroke-linecap:round;stroke-miterlimit:10;}
	.st5{fill:none;stroke:#0C0C0C;stroke-width:3;stroke-linecap:round;stroke-linejoin:round;stroke-miterlimit:10;}
	.st6{fill:none;stroke:#0C0C0C;stroke-width:3;stroke-miterlimit:10;}
	.st7{fill:#FFEBB5;stroke:#0C0C0C;stroke-width:3;stroke-miterlimit:10;}
</style>
<g>
	<path class="st0" d="M57.75,39.1c0,0-12.8,18.15-16.13,37.88c-3.33,19.73,6.19,35.1,6.98,40.86c0.78,5.76-5.37,10.25-5.62,24.04
		c-0.31,17.33,4.41,19.72,4.41,19.72l105.02-1.89c0,0,7.32,1.09,7.32-19.03c0-15.82-9.26-20.33-9.26-29.82
		c0-7.54,13.91-18.62-7.12-66.68C125.26,2.84,57.75,39.1,57.75,39.1z"/>
	<g>
		<path class="st1" d="M176.27,200.13c-2.44-16.66-8.12-39.97-26.19-46.98c-16.54-6.41-29.36-8.22-48.78-8.22
			c-18.54,0-27.79,4.39-43.27,9.18c-20.19,6.26-25.05,24.7-29.26,46.02"/>
	</g>
	<path class="st1" d="M89.01,163.01c0,0-4.02-4.04-12.71-1.08s-23.69,5.25-27.7-1.91c-4.57-8.15,3.5-12.44,8.41-14.21
		c1.52-0.55,2.29-1.95,1.82-3.28c-0.28-0.77-0.4-1.71-0.13-2.77c1.61-6.28,8.86-7.8,12.52-7.95c4.65-0.19,17.22-1.68,29.95-1.68
		c12.24,0,18.05,0.51,22.48,1.2c7.24,1.14,17.95,2.12,19.29,6.51c0.55,1.81,0.41,4.25-0.14,5.21c-0.55,0.95-0.08,2.09,1.09,2.46
		c3.9,1.23,10.35,4.35,9.49,11.45c-1.22,10.09-21.8,6.67-25.91,4.4c-5.38-2.97-11.37-1.12-12.64,1.64"/>
	<path class="st2" d="M82.6,126.9c2.16,1.41,12.09,36.05,17.56,36.05s18.1-36.05,18.1-36.05S82.6,126.9,82.6,126.9z"/>
	<ellipse class="st2" cx="61.11" cy="96.18" rx="8.51" ry="11.01"/>
	<ellipse class="st2" cx="139.82" cy="94.92" rx="8.51" ry="11.01"/>
	<path class="st3" d="M133.31,66.19"/>
	<path class="st2" d="M100.43,28.37c-25.46,0-44.48,15.89-40.03,58.31s32.31,50.01,40.77,50.01s38.19-9.62,39.74-50.65
		C142.42,46.26,130.47,28.37,100.43,28.37z"/>
	<path class="st0" d="M130.07,70.74c-10.45-2.26-17.08-0.18-18.83,0.49c-0.33,0.13-0.58,0.45-0.63,0.84c-0.1,0.72,0.07,1.4,0.25,1.9
		c0.18,0.49,0.63,0.77,1.09,0.66c1.81-0.41,6.67-1.48,9.13-1.65c3.54-0.25,8.64,0.15,10.36,0.3c0.29,0.03,0.51-0.26,0.4-0.53
		C131.58,72.05,131.01,70.94,130.07,70.74z"/>
	<path class="st0" d="M73.43,70.74c10.45-2.26,17.08-0.18,18.83,0.5c0.33,0.13,0.58,0.45,0.63,0.84c0.1,0.72-0.07,1.4-0.26,1.9
		c-0.18,0.49-0.63,0.77-1.09,0.66c-1.81-0.41-6.67-1.48-9.13-1.65c-3.54-0.25-8.64,0.15-10.36,0.3c-0.29,0.03-0.51-0.26-0.4-0.53
		C71.92,72.05,72.49,70.94,73.43,70.74z"/>
	<path class="st4" d="M98.84,87.75c0,0-1.13,4.14-1.9,6.91c-0.95,3.41-3.44,8.76,2.05,9.66c1.55,0.25,3.95,0.15,3.95,0.15"/>
	<path class="st4" d="M92.7,114.23c0,0,2.85,2.37,8.17,2.35c6.15-0.02,8.77-2.35,8.77-2.35"/>
	<ellipse class="st0" cx="117.52" cy="85.17" rx="4.56" ry="5.9"/>
	<path class="st0" d="M104.21,21.88c0,0-2.46,11.56-2.91,15.82c0,0,7.78-2.99,16.96,5.48c5.32,4.91,7.95,17.41,11.92,24.87
		c3.97,7.47,8.76,12.84,12.6,17.99l5.07,2.32C147.86,88.36,159.32,19.46,104.21,21.88z"/>
	<path class="st0" d="M104.21,21.88c0,0-17.83-5.59-36.78,7.56s-22.5,40.9-15.52,62.8c0,0,0.68-4.38,3.66-4.97
		c2.98-0.59,4.83-0.59,4.83-0.59s9.22-2.53,11.59-18.62c2.58-17.47,10.07-33.29,29.31-30.35L104.21,21.88z"/>
	<path class="st4" d="M122.09,80.35c0,0,1.66,0.49,2.72-1.22"/>
	<path class="st5" d="M66.01,145.6c0,0,23.17,1.84,31.79,17.02c0.82,1.45,3.32,0.94,4.38-0.34c9.28-11.3,21.05-18.94,33.89-17.35"/>
	<path class="st4" d="M112.34,82.78c0,0,1.28-2.15,4.75-2.67c3.61-0.54,6.07,0.35,7.81,1.62"/>
	<ellipse class="st0" cx="82.44" cy="85.17" rx="4.56" ry="5.9"/>
	<path class="st4" d="M77.87,80.35c0,0-1.66,0.49-2.72-1.22"/>
	<path class="st4" d="M87.62,82.78c0,0-1.28-2.15-4.75-2.67c-3.61-0.54-6.07,0.35-7.81,1.62"/>
	<line class="st6" x1="99.48" y1="163.06" x2="99.48" y2="200.66"/>
	<path class="st7" d="M102.98,177.92h-5.93c-0.69,0-1.24-0.58-1.2-1.27l0.68-11.01c0.04-0.63,0.56-1.13,1.2-1.13h4.12
		c0.62,0,1.13,0.47,1.19,1.08l1.12,11.01C104.24,177.31,103.69,177.92,102.98,177.92z"/>
</g>
</svg>
