<?xml version="1.0" encoding="utf-8"?>
<!-- Generator: Adobe Illustrator 24.1.0, SVG Export Plug-In . SVG Version: 6.00 Build 0)  -->
<svg version="1.1" id="레이어_1" xmlns="http://www.w3.org/2000/svg" xmlns:xlink="http://www.w3.org/1999/xlink" x="0px"
	 y="0px" width="200px" height="200px" viewBox="0 0 200 200" style="enable-background:new 0 0 200 200;" xml:space="preserve">
<style type="text/css">
	.st0{fill:#0C0C0C;}
	.st1{fill:#FFDD84;stroke:#0C0C0C;stroke-width:3;stroke-linecap:round;stroke-linejoin:round;stroke-miterlimit:10;}
	.st2{fill:#FFFFFF;stroke:#0C0C0C;stroke-width:3;stroke-miterlimit:10;}
	.st3{fill:none;stroke:#1D1D1B;stroke-width:2;stroke-linecap:round;stroke-miterlimit:10;}
	.st4{fill:none;stroke:#0C0C0C;stroke-width:2;stroke-linecap:round;stroke-miterlimit:10;}
</style>
<g>
	<path class="st0" d="M52.77,92.96c0,0-8.43-28.9,2.83-48.85S84.91,18.45,96.84,21.5c0,0,13.73-3.46,32.15,8.01
		c13.75,8.56,22.78,26.87,18.01,61.26L52.77,92.96z"/>
	<g>
		<path class="st1" d="M176.64,203.48c-5.74-15.87-9.31-33.22-23-42.38c-14.74-9.87-32.58-14.74-52.01-14.74
			c-18.54,0-35.23,5.38-48.97,13.97c-14.68,9.17-19.8,26.49-25.83,43.16"/>
	</g>
	<path class="st2" d="M81.51,130.26c2.16,1.41,12.09,37.4,17.56,37.4c5.48,0,18.1-37.4,18.1-37.4L81.51,130.26L81.51,130.26z"/>
	<ellipse class="st2" cx="58.97" cy="97.32" rx="8.51" ry="11.01"/>
	<ellipse class="st2" cx="140.78" cy="94.74" rx="8.51" ry="11.01"/>
	<path class="st3" d="M131.17,69.55"/>
	<path class="st2" d="M98.29,30.29c-26.35,0-46.03,16.31-41.43,59.86s36.2,51.34,42.2,51.34s39.53-9.87,41.13-51.99
		C141.75,48.65,129.38,30.29,98.29,30.29z"/>
	<path class="st0" d="M107.02,73.68c-0.09-0.41,0.12-0.83,0.49-0.97c1.79-0.69,7.21-2.59,14.24-3.34c2.85-0.3,4.93,0.43,7.48,2.12
		c1.61,1.06,2.13,2.43,2.13,2.43s-4.68-1.81-8.53-1.66c-2.87,0.11-12.02,2.58-14.67,3.23c-0.4,0.1-0.84-0.44-0.94-0.87L107.02,73.68
		z"/>
	<path class="st0" d="M91.7,73.56c0.07-0.41-0.15-0.83-0.52-0.95c-1.82-0.63-7.3-2.33-14.35-2.82c-2.86-0.2-4.91,0.61-7.39,2.39
		c-1.57,1.12-2.04,2.5-2.04,2.5s4.61-1.98,8.46-1.97c2.87,0.01,12.1,2.14,14.77,2.69c0.41,0.08,0.83-0.47,0.9-0.91L91.7,73.56z"/>
	<path class="st3" d="M78.67,69.31"/>
	<path class="st3" d="M79.92,69.26"/>
	<path class="st4" d="M95.73,91.75c0,0-0.36,2.1-1.09,5.15c-0.73,3.05-3.65,9.29,5.26,9.89"/>
	<path class="st4" d="M91.86,118.51c0,0,2.41,2.37,6.89,2.35c5.19-0.02,7.4-2.35,7.4-2.35"/>
	<ellipse class="st0" cx="79.51" cy="85.8" rx="4.08" ry="5.27"/>
	<ellipse class="st0" cx="116.69" cy="85.83" rx="4.08" ry="5.27"/>
	<path class="st4" d="M120.63,80.76c0,0,2.01,0.25,2.98-1.05"/>
	<path class="st4" d="M76.85,80.65c0,0-2.27,0.2-3.18-1.77"/>
	<path class="st0" d="M100.43,33.75c0,0-24.07,0.69-31.2,24.98c-3.09,10.55-4.89,27.98-13.55,37.52c-0.63,0.69-1.78,0.17-1.64-0.76
		c0.75-5.03,2.17-15.9,1.8-24.21c-0.5-11.18,4.47-43.39,38.8-44.14L100.43,33.75z"/>
	<path class="st0" d="M93.49,36.17c0,0,33.84,8.88,40.83,41.94c3.86,18.26,2.4,26.09,1.58,28.84c-0.32,1.06-0.35,1.78,0.34,0.93
		c0.52-0.64,1.02-1.72,1.5-3.48c3.05-11.05,7.09-65.81-38.11-71.16C87.49,31.8,93.49,36.17,93.49,36.17z"/>
	<path class="st0" d="M95.09,28.98l3.88,5.22c0,0,30.65,11.41,36.22,35.63c5.27,22.92-2.52,31.22,5.42,42
		c0.66,0.9,1.96,0.63,1.79-0.47c-0.85-5.46-1.19-13.23,2.66-28.76C150.23,61.7,138.01,23.75,95.09,28.98z"/>
	<path class="st0" d="M124.56,129.27c0,0-5.78,14.66,6.64,17.46c10.22,2.31,20.84-7.85,18.09-16.47
		c-1.89-5.92-9.16-13.63-14.51-13.67C134.77,116.59,129.45,128.02,124.56,129.27z"/>
	<path class="st0" d="M134.54,116.45c0,0,4-5.68,11.28-2.92c3.21,1.22-3.62-0.48-5.78,1.83c0,0,2.14-0.44,4.74,1.44
		c2.6,1.87-3.72-0.53-6.22,2.49C136.05,122.31,134.54,116.45,134.54,116.45z"/>
	<path class="st4" d="M111.83,83.35c0,0,0.71-1.09,3.9-2.16c5.46-1.83,7.88,1.45,7.88,1.45"/>
	<path class="st4" d="M83.82,82.64c0,0-0.96-1.25-3.49-1.75c-4.7-0.91-6.94,0.79-6.94,0.79"/>
	<path class="st1" d="M87.73,147.06c0,0-12.2,1.78-15.94,4.19c-1.93,1.25,7.61,17.78,11.01,23.54c0.64,1.08,2.04,1.44,3.12,0.79
		l13.15-7.93C99.07,167.66,93.76,161.71,87.73,147.06z"/>
	<path class="st1" d="M111.53,146.5c0,0,12.07,1.67,15.89,3.01c2.16,0.76-7.58,18.58-11.16,24.99c-0.7,1.25-2.29,1.66-3.51,0.93
		l-12.87-7.76C99.89,167.66,105.5,161.14,111.53,146.5z"/>
</g>
</svg>
