<?xml version="1.0" encoding="utf-8"?>
<!-- Generator: Adobe Illustrator 24.1.0, SVG Export Plug-In . SVG Version: 6.00 Build 0)  -->
<svg version="1.1" id="레이어_1" xmlns="http://www.w3.org/2000/svg" xmlns:xlink="http://www.w3.org/1999/xlink" x="0px"
	 y="0px" width="200px" height="200px" viewBox="0 0 200 200" style="enable-background:new 0 0 200 200;" xml:space="preserve">
<style type="text/css">
	.st0{fill:#FFFFFF;stroke:#1D1D1B;stroke-width:2;stroke-miterlimit:10;}
	.st1{fill:#0C0C0C;}
	.st2{fill:#FFDD84;stroke:#0C0C0C;stroke-width:3;stroke-linecap:round;stroke-linejoin:round;stroke-miterlimit:10;}
	.st3{fill:#FFFFFF;stroke:#0C0C0C;stroke-width:3;stroke-miterlimit:10;}
	.st4{fill:none;stroke:#1D1D1B;stroke-width:2;stroke-linecap:round;stroke-miterlimit:10;}
	.st5{fill:none;stroke:#0C0C0C;stroke-width:2;stroke-linecap:round;stroke-miterlimit:10;}
</style>
<g>
	<g>
		<path class="st0" d="M98.29,38.07c-2.75,7.42-19.11,49.2-39.82,53.62c0,0,0,0.01-0.01,0.01c-0.26,30.86,22.14,49.62,40.07,49.62
			c17.83,0,40.92-19.53,40.92-50.07c0-1.21-0.04-2.41-0.09-3.6c-5.44-5.63-11.92-14.24-15.23-25.65
			c-5.37-18.51-19.92-23.64-24.22-24.78C99.23,37.04,98.53,37.41,98.29,38.07z"/>
	</g>
	<path class="st1" d="M96.06,23.1c0,0-38.37-12.61-53.67,52.09c-9.89,41.81,1.59,80.16,1.79,86.68c0.21,7.15-5.9,17.02-2.79,18.83
		c3.1,1.81,31.43,8.26,57.87,8.26s55.89-7.04,59.69-8.76s0.56-13.34,0.38-17.53s4.09-52.49-0.26-80.67S141.87,12.9,96.06,23.1z"/>
	<g>
		<path class="st2" d="M175.5,207.76c-5.74-15.87-9.31-33.22-23-42.38c-14.74-9.87-32.58-14.74-52.01-14.74
			c-18.54,0-35.23,5.38-48.97,13.97c-14.68,9.17-19.8,26.49-25.83,43.16"/>
	</g>
	<path class="st3" d="M80.69,131.84c2.16,1.41,12.68,48.36,18.16,48.36s17.5-48.36,17.5-48.36H80.69z"/>
	<ellipse class="st3" cx="61.6" cy="101.56" rx="7.92" ry="10.25"/>
	<ellipse class="st3" cx="137.74" cy="100.38" rx="7.92" ry="10.25"/>
	<g>
		<path class="st3" d="M124.13,62c-5.08-17.49-18.34-23.04-23.42-24.55c-1.11-0.33-2.28,0.23-2.68,1.32
			c-3.35,8.87-19.03,30.7-37.62,52.7c-0.35,0.45-0.6,0.76-0.95,1.21c0.07,10.87,3.03,19.49,6.48,27.7
			c5.98,14.25,25.49,25.53,33.02,25.53c10.27,0,24.2-9.91,30.87-23.33c4.02-8.09,6.43-18.26,7.62-31.32c0.1-1.05-0.03-2.1-0.07-3.14
			c-0.01-0.3-0.13-0.58-0.34-0.79C131.67,81.69,127.38,73.19,124.13,62z"/>
	</g>
	<path class="st4" d="M128.79,73.64"/>
	<path class="st1" d="M127.16,77.57c-1.44-1.33-2.6-2.19-4.35-2.63c-8.54-2.17-16.05,0.06-17.82,1.19
		c-0.27,0.17-0.51,0.38-0.63,0.68c-0.16,0.39-0.23,0.79-0.27,1.14c-0.05,0.51,0.44,0.9,0.92,0.73c1.64-0.58,5.34-1.73,9.72-2.18
		C119.96,75.97,127.16,77.57,127.16,77.57z"/>
	<path class="st1" d="M67.47,77.57c1.44-1.33,2.6-2.19,4.35-2.63c8.54-2.17,16.05,0.06,17.82,1.19c0.27,0.17,0.51,0.38,0.63,0.68
		c0.16,0.39,0.23,0.79,0.27,1.14c0.05,0.51-0.44,0.9-0.92,0.73c-1.64-0.58-5.34-1.73-9.72-2.18C74.67,75.97,67.47,77.57,67.47,77.57
		z"/>
	<path class="st5" d="M94.26,94c0,0,0.15,5.63-0.56,8.22c-0.7,2.58-3.26,7.06,2.44,8.22c0.87,0.18,2.39,0,2.39,0"/>
	<path class="st5" d="M89.3,121.04c0,0,3.11,2.22,8.89,2.2c6.7-0.02,9.55-2.2,9.55-2.2"/>
	<ellipse class="st1" cx="79.35" cy="89.19" rx="4.25" ry="5.49"/>
	<ellipse class="st1" cx="115.63" cy="89.19" rx="4.25" ry="5.49"/>
	<path class="st5" d="M118.69,85.28c0,0,0.96,0.82,2.81-0.74"/>
	<path class="st5" d="M76.3,85.45c0,0-1.18,0.44-2.39-1.65"/>
	<path class="st5" d="M111.02,85.94c0,0,2.08-2.03,6.01-1.18c3.73,0.8,6.12,3,6.12,3"/>
	<path class="st5" d="M84.04,85.94c0,0-2.08-2.03-6.01-1.18c-3.73,0.8-6.12,3-6.12,3"/>
	<path class="st1" d="M54.42,148.65c0,0,3.84,25.15,18.13,30.64c9.22,3.55-2.09-5.83-2.96-12.21s5.11,8.92,8.61,6.93
		c3.49-2-5.51-11.42-5.26-25.62S52.42,129.6,54.42,148.65z"/>
	<path class="st1" d="M140.93,138.2c0,0-2.57,23.17-16.86,28.66c-9.22,3.55-0.49-3.6,1.06-8.5c1.1-3.47-5.83,8.61-7.98,5.2
		c-1.33-2.11,4.24-11.18,3.99-25.38S142.93,119.15,140.93,138.2z"/>
</g>
</svg>
