<?xml version="1.0" encoding="utf-8"?>
<!-- Generator: Adobe Illustrator 26.5.0, SVG Export Plug-In . SVG Version: 6.00 Build 0)  -->
<svg version="1.1" id="Layer_1" xmlns="http://www.w3.org/2000/svg" xmlns:xlink="http://www.w3.org/1999/xlink" x="0px" y="0px"
	 viewBox="0 0 200 200" style="enable-background:new 0 0 200 200;" xml:space="preserve">
<style type="text/css">
	.st0{fill:#FFFFFF;}
	.st1{fill:#0C0C0C;}
	.st2{fill:#FFDD84;}
	.st3{fill:none;stroke:#1D1D1B;stroke-width:2;stroke-linecap:round;stroke-miterlimit:10;}
	.st4{fill:#666666;}
	.st5{fill:#FFEBB5;}
</style>
<g>
	<g>
		<path class="st0" d="M155.4,329.7L55.2,331c0,0-5.1,15.4-3.7,29.9c0.2,2.5,0.6,5.3,1,8.3H157C157.7,352.3,157.7,335.2,155.4,329.7
			z"/>
	</g>
	<g>
		<rect x="54.4" y="90.8" class="st1" width="87.1" height="121.2"/>
	</g>
	<g>
		<path class="st1" d="M138.8,45.8c0,0,16.2,19.6,12,75.6c-1.8,23.3,2.1,40.1,4.6,53.7c2.5,13.6-7.5,40.7-22.9,44
			c-5.7,1.2,3.7-3.5,2.8-7.7c-1-4.2-2.6,2.8-7.9,4.2c-5.3,1.4,3.6-6.4,3.9-10.6c0.3-4.2-0.6,1.1-5.6-18.9c-5-20-6.8-42.2-6.8-42.2
			s17.9-13.3,20.1-43.1s-4.9-42.1-4.9-42.1L138.8,45.8z"/>
	</g>
	<g>
		<path class="st2" d="M178.1,238.7c-6.5-20.7-11.9-34.3-19-52.3c-7.7-19.4-25.6-20.6-54.1-23c-23.5-2-44.2,3.1-59.4,11.5
			c-15.2,8.4-8.5,44-4.2,66.5c1.7,7.2,17.1,13.6,18.1,28.2c1.5,21.9-6.8,37.2-8.6,46.9c-1.1,5.8,1,17.1,12.2,16
			c8.6-0.8,10.3,1.1,39.1,1.1s32.8-3.6,42.3-2.8c16.5,1.5,16.9-7.4,15.3-17c-1.6-9.6-1.6-24.8-1.6-24.8l29.4-2.4
			C187.4,286.8,183.3,255.1,178.1,238.7z"/>
	</g>
	<g>
		<path class="st1" d="M102.1,335.1c-15.8,0-23.5-0.6-28.6-0.9c-4.2-0.3-6.6-0.5-10.3-0.1c-4.2,0.4-7.8-0.8-10.3-3.5
			c-3.5-3.8-4.2-10-3.4-14.1c0.7-3.3,1.7-6.5,2.8-9.7c2.9-9,6.9-21.4,5.8-36.9c-0.6-8.4-6.2-13.9-11.1-18.8c-3.3-3.2-6.2-6-6.9-9.2
			c-4.5-23.6-11.2-59.2,4.9-68.1c17-9.4,38.3-13.6,60.2-11.7l1.5,0.1c27.6,2.3,45.9,3.9,53.7,23.8l0.3,0.7
			c6.9,17.4,12.3,31.2,18.7,51.7c5.1,16.3,9.3,48,9.4,48.3c0,0.4-0.1,0.8-0.3,1.1c-0.2,0.3-0.6,0.5-1,0.5l-28,2.3
			c0,3.9,0.3,15.4,1.6,23.2c0.9,5.4,1.3,11.4-2.2,15.2c-2.8,3-7.6,4.1-14.6,3.5c-3.9-0.4-6.8,0-11.2,0.7
			C127,333.9,118.7,335.1,102.1,335.1z M67.2,331c2,0,4,0.1,6.6,0.3c5,0.4,12.7,0.9,28.4,0.9c16.4,0,24.6-1.2,30.6-2
			c4.4-0.6,7.6-1.1,11.9-0.7c6,0.6,10.2-0.3,12.3-2.6c2.7-2.9,2.2-8.1,1.5-12.8c-1.6-9.6-1.6-24.4-1.6-25c0-0.7,0.6-1.3,1.3-1.4
			l27.9-2.3c-0.9-6.4-4.6-32.2-9.1-46.3l0,0c-6.4-20.4-11.8-34.1-18.7-51.5l-0.3-0.7c-7.2-18.3-23.8-19.7-51.4-22l-1.5-0.1
			c-21.3-1.8-42.1,2.2-58.6,11.4c-14.3,7.9-7.6,43.7-3.5,65.1c0.6,2.3,3.1,4.9,6.1,7.8c5,4.9,11.3,11.1,12,20.6
			c1.1,16-3,28.7-6,37.9c-1.1,3.1-2,6.2-2.7,9.4c-0.7,3.6,0,8.8,2.8,11.7c1.9,2.1,4.5,2.9,7.9,2.6C64.5,331.1,65.9,331,67.2,331z"/>
	</g>
	<g>
		<path class="st0" d="M82.7,139.4c1.3,0.8,4.2,12.5,7.7,23.2c2.9,9.2,11.3,22.6,17,21c5.7-1.6,3.7-17.6,4.1-19.8
			c2.3-11.8,4.6-24.4,4.6-24.4H82.7z"/>
	</g>
	<g>
		<path class="st1" d="M106.4,185.2c-6.8,0-14.7-13.7-17.4-22.1c-1.1-3.5-2.2-7.2-3.2-10.5c-1.5-5.2-3.3-11-4-12l-3.8-2.5h39.8
			l-0.3,1.7c0,0.1-2.3,12.7-4.6,24.4c0,1,0,1.9,0,2.9c0.1,6.2,0.4,16.4-5.1,18C107.3,185.1,106.9,185.2,106.4,185.2z M85,140.9
			c0.8,2,1.8,5.3,3.5,10.9c1,3.2,2.1,6.9,3.2,10.4c3.1,9.7,11.1,21.2,15.3,20.1c3.4-1,3.2-10.9,3.1-15.2c-0.1-1.2-0.1-2.4,0.1-3.5
			c1.8-9.2,3.5-18.9,4.2-22.7L85,140.9z"/>
	</g>
	<g>
		<ellipse class="st0" cx="56.6" cy="106" rx="9.3" ry="12"/>
	</g>
	<g>
		<path class="st1" d="M56.6,119.4c-5.9,0-10.7-6-10.7-13.4s4.8-13.4,10.7-13.4s10.7,6,10.7,13.4S62.5,119.4,56.6,119.4z M56.6,95.4
			c-4.3,0-7.9,4.7-7.9,10.6c0,5.8,3.5,10.6,7.9,10.6s7.8-4.7,7.8-10.6C64.4,100.2,60.9,95.4,56.6,95.4z"/>
	</g>
	<g>
		<path class="st0" d="M145.7,103.2c-1.6,6.4-5.3,13.8-10.4,13.8c-5.1,0-7-7.2-7-13.8c0-6.6,4.1-12,9.3-12
			C142.6,91.1,147.6,95,145.7,103.2z"/>
	</g>
	<g>
		<path class="st1" d="M135.2,118.3c-6.2,0-8.4-7.9-8.4-15.2c0-7.4,4.8-13.4,10.7-13.4c3.1-0.1,6,1.3,7.9,3.6
			c1.4,1.8,2.8,5,1.6,10.1l0,0C145.3,110.3,141.3,118.3,135.2,118.3z M137.5,92.5c-4.3,0-7.8,4.7-7.8,10.6c0,5.7,1.5,12.4,5.5,12.4
			s7.6-6.6,9.1-12.7l0,0c0.8-3.2,0.4-5.9-1-7.8C141.8,93.4,139.7,92.5,137.5,92.5z"/>
	</g>
	<g>
		<path class="st3" d="M135.2,73.4"/>
	</g>
	<g>
		<path class="st0" d="M99,28.6c-25.3,0-40.4,18.2-39.8,66.1c0.2,13.5,4.8,25.4,8.9,33.4c10.5,20.5,26,23.3,31.6,23.3
			c4.5,0,25-6.4,32.1-31.1c2.1-7.4,5.8-18.3,6.2-28.8C139.5,46.4,128.9,28.6,99,28.6z"/>
	</g>
	<g>
		<path class="st1" d="M99.8,152.8c-3.4,0-21.2-1.2-32.9-24.1c-4-7.8-8.8-20.1-9-34c-0.4-28.1,4.5-47,15-57.6
			c6.5-6.6,15.3-9.9,26.2-9.9c12.7,0,21.9,3.2,28.3,9.8c9.3,9.6,13,26.4,12.1,54.5c-0.3,9.2-3.2,18.9-5.3,26
			c-0.3,1.1-0.6,2.2-0.9,3.2C126.2,144.9,106,152.8,99.8,152.8z M99.1,30.1c-10.2,0-18.1,3-24.2,9.1c-9.8,9.9-14.6,28.6-14.2,55.5
			c0.2,13.4,4.8,25.2,8.7,32.8c11,21.4,27.2,22.5,30.4,22.5c3.4,0,23.7-5.5,30.7-30.1c0.3-1,0.6-2.1,0.9-3.2
			c2.1-6.9,4.9-16.4,5.2-25.3c0.9-26.9-2.7-43.5-11.3-52.4C119.5,33,110.9,30,99.1,30.1L99.1,30.1z"/>
	</g>
	<g>
		<path class="st1" d="M128.6,78.7c0.1,0,0.3,0,0.3-0.2c0-0.1,0-0.2-0.1-0.2c-2.1-1.9-4.7-3.1-7.5-3.4c-5.8-0.6-11.9,1.1-14.2,1.9
			c-0.6,0.2-1,0.8-0.8,1.4c0.1,0.4,0.2,0.8,0.3,1.3c0.2,0.7,0.9,1.1,1.5,0.9c0,0,0,0,0.1,0c4.1-1.4,8.4-2.2,12.7-2.5
			C124.8,77.7,127.3,78.3,128.6,78.7z"/>
	</g>
	<g>
		<path class="st1" d="M68.4,79.1c-0.1,0.1-0.3,0-0.3-0.1c0-0.1,0-0.2,0.1-0.3c2-1.9,4.6-3.2,7.4-3.6c5.8-0.8,11.9,0.7,14.3,1.4
			c0.6,0.2,1,0.8,0.9,1.4c-0.1,0.4-0.1,0.8-0.2,1.3c-0.1,0.7-0.8,1.1-1.5,0.9c0,0-0.1,0-0.1,0c-4.1-1.3-8.4-2-12.7-2.1
			C72.1,77.9,69.7,78.5,68.4,79.1z"/>
	</g>
	<g>
		<path class="st3" d="M78,73.1"/>
	</g>
	<g>
		<path class="st3" d="M79.4,73.1"/>
	</g>
	<g>
		<path class="st1" d="M98.4,115.4c-0.5,0-0.9,0-1.4-0.1c-2.2-0.4-3.6-1.3-4.4-2.6c-1.2-2.1-0.3-4.7,0.4-6.8c0.2-0.5,0.3-1,0.4-1.4
			c0.8-2.9,2.1-10.6,2.1-10.7c0.1-0.5,0.6-0.9,1.1-0.8c0,0,0,0,0,0c0.5,0.1,0.9,0.6,0.8,1.1c-0.1,0.3-1.3,7.8-2.2,10.9
			c-0.1,0.5-0.3,1-0.5,1.5c-0.6,1.8-1.3,3.9-0.5,5.2c0.5,0.8,1.5,1.4,3.1,1.7c0.8,0.1,1.7,0.1,2.5,0c0.5,0,1,0.3,1,0.9
			c0,0.5-0.3,0.9-0.8,1C99.5,115.4,99,115.4,98.4,115.4z"/>
	</g>
	<g>
		<path class="st1" d="M95.8,25.5c0,0,0.4,10.4,6.2,12.9c5.8,2.5,27.5,4.9,36,54.2c0,0,8-13.1,6.9-27.8
			C143.5,45.7,127.4,22.7,95.8,25.5z"/>
	</g>
	<g>
		<path class="st1" d="M86.1,41.3c0,0-8.2,3.1-9.8,18.8c-0.9,8.8-6.1,34.3-18.3,44.1c-9.2,7.3-8-23.7-8-23.7l30-42.2L86.1,41.3z"/>
	</g>
	<g>
		<path class="st0" d="M111.9,86.4c0,0-2.4,0.2-3.6-1.1"/>
	</g>
	<g>
		<path class="st1" d="M111.5,87.3c-0.9,0-2.8-0.2-3.9-1.5c-0.3-0.4-0.3-1,0.1-1.3c0.4-0.3,0.9-0.3,1.3,0.1c0.7,0.8,2.3,0.8,2.8,0.8
			c0.5,0,1,0.3,1,0.8v0c0,0.5-0.3,1-0.9,1C111.9,87.3,111.7,87.3,111.5,87.3z"/>
	</g>
	<g>
		<path class="st2" d="M62.5,205.1c0,0-10.3,33.4-6.2,37.7c4.5,4.7,26.3,1.4,38.6-0.1c3-0.4,5.9,1,6.5,4l4.7,20.5
			c0.5,2.6-1,5.1-3.4,5.9c-14.6,5-64.8,12.8-75.7,3.6c-12.3-10.5-9.5-41.4,0.8-83.2c2-8.3,10.3-20.7,34.4-24.8"/>
	</g>
	<g>
		<path class="st1" d="M48.6,282.4c-10.1,0-18.7-1.2-22.6-4.6c-11.7-9.9-11.6-36,0.3-84.6c1.5-6.2,8-21.2,35.5-25.9
			c0.8-0.2,1.5,0.3,1.7,1s-0.3,1.5-1,1.7c-0.1,0-0.1,0-0.2,0c-25.8,4.5-31.9,18.1-33.3,23.8c-7.2,29.4-15.2,69.9-1.2,81.8
			c4.4,3.7,17.3,4.9,35.4,3.2c16.1-1.5,32.1-4.7,38.9-7.1c1.8-0.6,2.9-2.5,2.5-4.4l-4.7-20.5c-0.5-2.4-2.8-3.2-5-2.9l-3.9,0.5
			c-17.1,2.1-31.6,3.5-35.9-0.8c-4.4-4.5,3.4-31.1,5.8-39.1c0.2-0.8,1-1.2,1.8-1c0.8,0.2,1.2,1,1,1.8l0,0c-4.8,15.7-8.7,34-6.5,36.3
			c3.6,3.7,22.3,1.4,33.5,0l3.9-0.5c4.1-0.5,7.4,1.6,8.1,5.1l4.7,20.5c0.7,3.3-1.2,6.5-4.3,7.6C93.6,277.8,68.2,282.4,48.6,282.4z"
			/>
	</g>
	<g>
		<path class="st1" d="M102,29.6c0,0-6.2-9.2-22-4.6c-13.3,3.8-25.8,19-35.5,56.6c-8.7,33.5-8,44.1-5.3,61.4c1.9,12-9.7,40-2.8,56.9
			c6.9,16.9,17.2,18,24.2,19.1s14-3.7,15.7-5.4c1.8-1.7-2.1-1.7-6.8-3.7c-4.7-2,4.8,1.4,6.8-0.8c2-2.2-4.1-2.5-5.7-7.3
			c-1.7-4.8,5.2-6.2,7.5-19.6s1.8-30.3-3.7-41.2s-9.4-12-13-35.3c-3.6-23.3,9.8-71.4,40.6-67.3V29.6z"/>
	</g>
	<g>
		<path class="st4" d="M131.1,242.3l4.9,6.6c0.2,0.3,0.2,0.8-0.2,1.1c-0.2,0.1-0.4,0.2-0.7,0.1l-7.9-2.2l-45.9-31.6
			c-1-0.7-1.3-2.1-0.6-3.1l0,0l1.3-1.9c0.7-1,2.1-1.3,3.1-0.6l0,0L131.1,242.3z"/>
	</g>
	<g>
		<path class="st1" d="M135.4,251.1c-0.2,0-0.3,0-0.5-0.1l-7.9-2.2c-0.1,0-0.2-0.1-0.3-0.1L80.9,217c-1.4-1-1.8-2.9-0.8-4.3l1.3-1.9
			c1-1.4,2.9-1.8,4.4-0.8l0,0l45.9,31.6c0.1,0.1,0.2,0.1,0.2,0.2l4.9,6.6c0.4,0.6,0.4,1.4,0,2C136.5,250.8,136,251.1,135.4,251.1z
			 M127.7,247l7.2,2l-4.5-6l-45.8-31.5c-0.6-0.4-1.4-0.3-1.8,0.3l0,0l-1.3,1.9c-0.2,0.3-0.3,0.6-0.2,0.9c0.1,0.3,0.2,0.6,0.5,0.8
			L127.7,247z"/>
	</g>
	<g>
		<path class="st0" d="M101.9,246.8c0,0,4.8-0.8,8-3.5c3.2-2.7,5.5-9.5,12.7-9.2c7.2,0.4,11.9,2.1,15.4,2.9c3.5,0.8,8,9.9,6.4,11.5
			s-5.6,0.4-7.8-1.5c-2.1-1.9-4.8-3.1-7.6-3.3c0,0,6.3,2,7.8,4c1.5,1.9,5.7,4.4,4,7.1c-1.7,2.7-5.3,0.2-7-1.1s-2.1-2.1-2.8-2.4
			s-3.9-1.5-3.9-1.5s3.7,2.2,4.6,3.2c0.9,0.9,7.4,5.1,5.1,7.7s-5.3,0.1-7.2-1.3c-1.9-1.4-3-1.9-3.6-2.3c-1.2-0.6-2.4-1.1-3.6-1.5
			c1.5,0.8,2.9,1.7,4.3,2.7c0.6,0.6,5.5,2.7,5.3,4.2c-0.1,1.5-0.7,5-4.5,3.3c-3.8-1.7-6.4-4.6-8-5.1c-1.6-0.5-4.3,1-5.6,1.8
			c-1.3,0.8-7.8,2.9-7.8,2.9L101.9,246.8z"/>
	</g>
	<g>
		<path class="st1" d="M129.3,267.6c-0.8,0-1.6-0.2-2.4-0.6c-2-0.9-3.9-2.1-5.6-3.5c-0.7-0.6-1.4-1.1-2.2-1.5
			c-0.7-0.2-2.7,0.5-4.4,1.6c-1.4,0.9-7,2.7-8.1,3.1c-0.4,0.1-0.8,0.1-1.1-0.1c-0.3-0.2-0.6-0.5-0.7-0.9l-4.2-18.6
			c-0.1-0.4,0-0.8,0.2-1.1c0.2-0.3,0.6-0.5,0.9-0.6c0,0,4.4-0.8,7.3-3.2c0.9-0.8,1.7-1.8,2.4-2.8c2.4-3.1,5.3-7.1,11.3-6.7
			c4.4,0.3,8.7,1,12.9,2.3c1,0.3,1.9,0.5,2.7,0.7c3.2,0.7,6.4,6,7.5,9.5c0.6,2.1,0.5,3.5-0.3,4.3c-1,1-2.5,1.4-3.9,1.1
			c1,1.4,1.6,3,0.5,4.8c-0.6,0.9-1.5,1.6-2.6,1.8c-0.5,0.1-0.9,0.1-1.4,0c0.3,0.5,0.5,1.1,0.6,1.8c0.1,0.9-0.2,1.8-0.8,2.5
			c-1.1,1.3-2.8,1.9-4.5,1.5c-0.1,1.1-0.5,3.2-2.2,4.2C130.6,267.5,130,267.6,129.3,267.6z M118.7,259.2c0.4,0,0.8,0,1.1,0.2
			c1.1,0.5,2.2,1.1,3.1,1.9c1.6,1.3,3.3,2.3,5.1,3.2c0.5,0.3,1.1,0.4,1.7,0.2c0.2-0.1,0.7-0.6,0.8-2.2c-0.4-0.6-2.5-1.8-3.3-2.2
			c-0.6-0.3-1.1-0.6-1.6-1c-1.3-0.9-2.6-1.7-4-2.5c-0.7-0.4-0.9-1.3-0.5-1.9c0.3-0.6,1-0.8,1.6-0.6c1.4,0.4,2.7,1,3.9,1.6
			c0.2,0.1,0.5,0.3,0.8,0.5c0.6,0.4,1.5,0.9,2.8,1.9l0.5,0.3c2.5,1.8,3.7,2.3,4.8,1.1c0.1-0.1,0.1-0.2,0.1-0.4
			c-0.1-1.3-3-3.6-4.1-4.5c-0.4-0.3-0.8-0.6-1.1-1c-1.4-1.1-2.8-2.1-4.3-2.9c-0.7-0.4-0.8-1.3-0.4-1.9c0.3-0.5,1-0.8,1.6-0.6
			c1.4,0.5,2.8,1,4.2,1.6c0.5,0.3,0.9,0.6,1.3,1c0.5,0.5,1.1,1,1.7,1.5c2.7,2,3.9,2,4.2,1.9c0.3,0,0.5-0.2,0.7-0.5
			c0.5-0.8-0.3-1.8-2.2-3.6c-0.6-0.6-1.2-1.2-1.7-1.8c-0.9-1.1-4.7-2.7-7.1-3.5c-0.7-0.3-1.1-1.1-0.8-1.8c0.2-0.6,0.8-1,1.4-0.9
			c3.2,0.2,6.1,1.5,8.5,3.7c1.8,1.6,4.9,2.3,5.8,1.6c0.1-0.5-0.3-2.5-1.7-4.9c-1.5-2.6-3.1-4-3.9-4.2c-0.8-0.2-1.8-0.5-2.9-0.7
			c-4-1.2-8.1-1.9-12.3-2.2c-4.5-0.2-6.7,2.7-8.9,5.6c-0.8,1.2-1.8,2.2-2.8,3.2c-2.1,1.7-4.6,2.9-7.2,3.5l3.6,15.7
			c2-0.6,4-1.4,5.9-2.3C114.2,260.6,116.6,259.2,118.7,259.2L118.7,259.2L118.7,259.2z"/>
	</g>
	<g>
		<path class="st5" d="M172.1,302.3L113,302c-5.2-0.6-8.9-5.4-8.2-10.5l0,0l10-79.7c0.6-5.2,5.4-8.8,10.5-8.2l59.2,0.3
			c5.2,0.6,8.8,5.4,8.2,10.5l-10,79.7C182,299.3,177.3,302.9,172.1,302.3z"/>
	</g>
	<g>
		<path class="st1" d="M173.3,303.8c-0.4,0-0.9,0-1.3-0.1l-59.2-0.3c-5.9-0.7-10.2-6.1-9.5-12.1c0,0,0,0,0-0.1l10-79.7
			c0.7-5.9,6.1-10.1,12-9.4l59.2,0.3c5.9,0.7,10.2,6.2,9.4,12.1l-10,79.7C183.4,299.7,178.8,303.8,173.3,303.8L173.3,303.8z
			 M113.1,300.6l59.2,0.3c4.4,0.6,8.4-2.6,9-7c0,0,0,0,0,0l10-79.7c0.5-4.4-2.5-8.4-6.9-9l-59.2-0.3c-4.4-0.6-8.4,2.6-9,7
			c0,0,0,0,0,0l-10,79.7C105.6,296.1,108.7,300.1,113.1,300.6L113.1,300.6z"/>
	</g>
	<g>
		<path class="st0" d="M187.4,258.4c0,0-0.5,6.1-1.2,6.2c-1.3,0.1-2.7,0-4-0.1c-2.5-0.3-6.2-3.8-8-1.4c-3.4,4.7,6.9,7.1,8.8,7.5
			c0.9,0.4-0.9,1-4.9,0.1c-2-0.4-5-2.3-6.3,0.2c-1.5,2.9,2.7,4.7,5.6,5.7c1.8,0.7,3.8,0.9,5.7,0.5c0,0-1.8,0.7-3.9,1.4
			c-1.8,0.6-7.8-2.3-8.3,1.9c-0.5,4,9.3,4.8,12.5,4.9c0,0-1.4,0.2-4.2,0.9c-1.9,0.5-6.7-2.1-7.6,1c-0.8,2.8,2.4,5,6,5.5
			c4.5,0.6,9.3-1.5,9.7-1.7c4.7-3,7.8-6.9,8.2-16.8C196,267.8,192.8,261.7,187.4,258.4z"/>
	</g>
	<g>
		<path class="st1" d="M179.1,293.8c-0.6,0-1.1,0-1.7-0.1c-2.7-0.3-5.1-1.6-6.2-3.2c-0.7-1-0.9-2.2-0.6-3.4c0.5-1.9,2-2.3,3.5-2.2
			c-1.3-0.4-2.5-1.1-3.4-2c-0.6-0.7-0.9-1.6-0.8-2.5c0.1-0.9,0.5-1.8,1.3-2.4c1.4-1.1,3.5-0.8,5.4-0.5c-3.4-1.2-5.3-2.5-6-4.1
			c-0.4-0.9-0.3-1.9,0.2-2.8c1.1-2.2,3.1-2,4.8-1.5c-1.6-0.9-2.5-1.9-2.9-2.9c-0.4-1.2-0.2-2.6,0.7-3.5c1.6-2.2,4.1-1,6.2,0
			c0.8,0.5,1.7,0.8,2.6,1c1.1,0.1,2.2,0.2,3.4,0.1c0.4-1.8,0.7-3.6,0.8-5.4c0-0.5,0.5-0.9,1-0.9c0.1,0,0.3,0,0.4,0.1
			c0.4,0.2,9.1,5.1,8.6,16.7c-0.5,10.4-3.8,14.6-8.6,17.6C185.1,293.1,182.1,293.8,179.1,293.8z M174,286.7c-0.8,0-1.3,0.2-1.5,0.9
			c-0.2,0.6-0.1,1.3,0.3,1.8c0.8,1.2,2.7,2.2,4.8,2.4c4.1,0.5,8.6-1.3,9.2-1.6c4.5-2.8,7.3-6.5,7.8-16.1c0.4-5.5-2-10.8-6.4-14.1
			c-0.6,5.3-1.3,5.4-1.9,5.5c-1.4,0.1-2.8,0.1-4.2-0.1c-1.1-0.2-2.2-0.6-3.2-1.2c-2.2-1.1-3.3-1.4-3.9-0.6c-0.5,0.5-0.6,1.1-0.4,1.7
			c0.3,0.9,1.9,2.6,8.5,4.2l0.2,0c0.1,0,0.1,0,0.2,0.1c0.6,0.2,0.9,0.8,0.7,1.4c-0.5,1.5-4.1,0.9-6.3,0.5c-0.6-0.1-1.1-0.3-1.6-0.5
			c-2.2-0.8-3.1-0.9-3.6,0.2c-0.2,0.4-0.3,0.8-0.1,1.2c0.2,0.6,1.3,1.9,5.2,3.2c1.7,0.6,3.5,0.8,5.3,0.4c0.5-0.1,1,0.2,1.1,0.7
			c0.1,0.4-0.1,0.9-0.6,1.1c-0.1,0-1.8,0.8-3.9,1.4c-1,0.2-2,0.1-3-0.1c-1.5-0.2-3.3-0.5-4.1,0.1c-0.3,0.3-0.5,0.7-0.5,1.1
			c0,0.4,0.1,0.8,0.3,1.1c1.2,1.5,5.4,2.5,11.3,2.8c0.5,0,0.9,0.5,0.9,1c0,0.4-0.4,0.8-0.8,0.9c0,0-1.4,0.2-4.2,0.9
			c-1,0.1-2.1,0.1-3.1-0.2C175.6,286.8,174.8,286.7,174,286.7L174,286.7L174,286.7z"/>
		<path class="st1" d="M179.1,294.2L179.1,294.2c-0.6,0-1.2,0-1.8-0.1c-2.8-0.4-5.3-1.7-6.4-3.4c-0.7-1.1-1-2.4-0.6-3.7
			c0.3-1.2,1.1-2,2.3-2.3c-0.8-0.4-1.5-0.9-2.2-1.6c-0.7-0.8-1-1.8-0.9-2.8c0.1-1,0.6-2,1.4-2.6c0.9-0.7,2-0.9,3.2-0.8
			c-2.1-1-3.3-2.1-3.8-3.4c-0.4-1-0.3-2.1,0.2-3.1c0.9-1.7,2.2-2,3.5-2c-0.8-0.7-1.4-1.4-1.6-2.2c-0.5-1.3-0.2-2.8,0.7-3.9
			c1.8-2.4,4.6-1.1,6.6-0.1c0.8,0.5,1.7,0.8,2.5,1c1,0.1,2,0.1,3,0.1c0.4-1.7,0.6-3.4,0.7-5.1c0-0.3,0.2-0.7,0.4-0.9
			c0.3-0.2,0.6-0.3,0.9-0.3c0.2,0,0.4,0.1,0.5,0.2c0.4,0.2,9.3,5.2,8.8,17c-0.5,10.6-3.9,14.8-8.8,17.9
			C185.1,293.5,182.2,294.1,179.1,294.2L179.1,294.2z M174,285.2c-1.7,0-2.6,0.6-3,2c-0.3,1.1-0.1,2.2,0.5,3.1
			c1.1,1.6,3.3,2.8,5.9,3.1c0.6,0.1,1.1,0.1,1.7,0.1c2.9,0,5.8-0.7,8.5-1.9c4.7-3,8-7.1,8.4-17.3c0.5-11.3-8.1-16.2-8.4-16.3
			c-0.1,0-0.1-0.1-0.2-0.1c-0.2,0-0.3,0-0.4,0.1c-0.1,0.1-0.2,0.2-0.2,0.4c-0.1,1.8-0.4,3.7-0.8,5.4l-0.1,0.3l-0.3,0
			c-1.1,0-2.3,0-3.4-0.1c-1-0.2-1.9-0.6-2.8-1c-2.4-1.2-4.4-1.9-5.7-0.1c-0.8,0.9-1,2.1-0.6,3.2c0.4,1,1.3,1.9,2.8,2.8l2.6,1.5
			l-2.9-0.8c-2.3-0.6-3.6-0.3-4.4,1.3c-0.4,0.8-0.5,1.7-0.2,2.5c0.6,1.5,2.5,2.8,5.8,3.9l-0.2,0.7c-1.8-0.3-3.9-0.6-5.2,0.4
			c-0.7,0.5-1.1,1.3-1.1,2.1c-0.1,0.8,0.1,1.6,0.7,2.2c0.9,0.9,2,1.6,3.3,1.9l2.8,0.8l-2.9-0.1C174.1,285.2,174.1,285.2,174,285.2z
			 M179.2,292.3c-0.5,0-1.1,0-1.6-0.1c-2.2-0.3-4.2-1.3-5.1-2.6c-0.4-0.6-0.6-1.4-0.4-2.1c0.2-0.8,0.9-1.1,1.5-1.1v0l0.4,0
			c0.8,0,1.7,0.2,2.5,0.3c1,0.3,2,0.3,3,0.2c2.7-0.7,4.1-0.9,4.2-0.9c0.3,0,0.5-0.3,0.5-0.5c0-0.2,0-0.3-0.1-0.4
			c-0.1-0.1-0.2-0.2-0.4-0.2c-6-0.3-10.2-1.4-11.5-2.9c-0.3-0.4-0.5-0.8-0.4-1.3c0-0.5,0.3-1,0.7-1.3c1-0.7,2.9-0.4,4.4-0.2
			c1,0.2,1.9,0.3,2.9,0.1c2.1-0.6,3.9-1.4,3.9-1.4c0.3-0.1,0.4-0.4,0.4-0.7c-0.1-0.3-0.4-0.5-0.7-0.5c-1.8,0.4-3.7,0.2-5.5-0.4
			c-3.9-1.3-5.1-2.6-5.4-3.4c-0.2-0.5-0.1-1.1,0.1-1.5c0.7-1.4,2.1-1,4.1-0.3c0.5,0.2,1.1,0.3,1.6,0.5c3.4,0.7,5.6,0.6,5.9-0.3
			c0.1-0.4-0.1-0.8-0.5-1l-0.3-0.1c-6.5-1.6-8.4-3.3-8.8-4.5c-0.2-0.8,0-1.6,0.5-2.1c0.8-1.1,2.1-0.5,4.3,0.5c1,0.6,2,0.9,3.1,1.1
			c1.4,0.1,2.8,0.2,4.1,0.1c0.4-0.1,1-0.1,1.5-5.2l0.1-0.6l0.5,0.4c4.5,3.4,6.9,8.8,6.6,14.4c-0.4,9.8-3.4,13.5-7.9,16.4
			C186.4,290.9,182.9,292.3,179.2,292.3z M174.1,287.1l-0.1,0c-0.8,0-1,0.2-1.1,0.6c-0.2,0.5-0.1,1.1,0.3,1.5c0.8,1.1,2.6,2,4.6,2.3
			c4,0.5,8.4-1.3,9-1.5c4.4-2.7,7.2-6.3,7.6-15.8c0.4-5.2-1.8-10.1-5.8-13.4c-0.5,4.6-1.2,5.1-2.1,5.2c-1.5,0.1-2.9,0.1-4.3-0.1
			c-1.2-0.2-2.3-0.6-3.4-1.2c-2.3-1.1-3-1.2-3.4-0.7c-0.4,0.4-0.5,0.9-0.4,1.4c0.2,0.6,1.5,2.4,8.3,4l0.2,0c0.1,0,0.2,0,0.2,0.1
			c0.7,0.2,1.1,1,0.9,1.8c-0.4,1.3-2.7,1.6-6.7,0.7c-0.6-0.1-1.1-0.3-1.7-0.5c-2.3-0.8-2.8-0.7-3.2,0c-0.2,0.3-0.2,0.6-0.1,0.9
			c0.2,0.5,1,1.6,5,3c1.6,0.6,3.4,0.8,5.1,0.4c0.3-0.1,0.7,0,1,0.2c0.3,0.2,0.5,0.5,0.6,0.8c0.1,0.6-0.2,1.2-0.8,1.5
			c-0.2,0.1-2,0.8-4,1.4c-1.1,0.2-2.2,0.1-3.2-0.1c-1.3-0.2-3.1-0.5-3.8,0c-0.2,0.2-0.4,0.5-0.4,0.9c0,0.3,0,0.6,0.2,0.8
			c1.2,1.4,5.4,2.4,11,2.7c0.4,0,0.7,0.2,0.9,0.4c0.2,0.3,0.3,0.6,0.3,0.9c0,0.6-0.5,1.1-1.1,1.2c0,0-1.4,0.2-4.1,0.9
			c-1.1,0.2-2.2,0.1-3.3-0.2C175.6,287.2,174.8,287.1,174.1,287.1z"/>
	</g>
	<g>
		<path class="st1" d="M98.7,130.6c-2.8-0.1-5.6-1.1-7.7-3c-0.4-0.4-0.4-1-0.1-1.3s1-0.4,1.3-0.1c1.8,1.5,4.1,2.4,6.4,2.5
			c2.5,0,5-0.9,6.9-2.7c0.4-0.4,1-0.4,1.3,0c0.4,0.4,0.4,0.9,0,1.3C104.7,129.4,101.8,130.6,98.7,130.6z"/>
	</g>
	<g>
		<path class="st1" d="M124.6,91.2c-0.2,0-0.3,0-0.5-0.1c-1-0.7-1.9-1.5-2.7-2.4c-1.2-1.4-2.2-2.5-5-2.7c-5.1-0.5-6.6,3.4-6.7,3.6
			c-0.2,0.5-0.7,0.7-1.2,0.6c-0.5-0.2-0.7-0.7-0.6-1.2l0,0c0.7-1.9,3.4-5.3,8.6-4.8c3.6,0.3,5,1.9,6.3,3.4c0.6,0.8,1.4,1.5,2.3,2
			c0.4,0.3,0.6,0.8,0.3,1.3C125.2,91,124.9,91.2,124.6,91.2L124.6,91.2z"/>
	</g>
	<g>
		<ellipse class="st1" cx="78.5" cy="90.8" rx="4.4" ry="5.6"/>
	</g>
	<g>
		<ellipse class="st1" cx="114.5" cy="90.8" rx="4.4" ry="5.6"/>
	</g>
	<g>
		<path class="st0" d="M76.3,85.9c0,0-2.5,0.5-3.7-1.4"/>
	</g>
	<g>
		<path class="st1" d="M75.6,86.9c-1.5,0.1-2.9-0.7-3.7-1.9c-0.3-0.4-0.1-1,0.3-1.3c0.4-0.3,1-0.1,1.3,0.3c0.8,1.3,2.6,1,2.7,1
			c0.5-0.1,1,0.3,1.1,0.8c0.1,0.5-0.2,0.9-0.7,1.1C76.2,86.9,75.9,86.9,75.6,86.9z"/>
	</g>
	<g>
		<path class="st1" d="M87.7,91.2c-0.2,0-0.4-0.1-0.6-0.2c-0.7-0.6-1.4-1.4-2-2.2c-1.1-1.5-2-2.6-5-2.9c-5.1-0.5-6.6,3.4-6.7,3.6
			c-0.2,0.5-0.7,0.7-1.2,0.5c-0.5-0.2-0.7-0.7-0.6-1.2l0,0c0.7-1.9,3.4-5.3,8.6-4.8c3.9,0.4,5.1,2,6.3,3.6c0.5,0.7,1,1.3,1.7,1.9
			c0.4,0.3,0.5,0.9,0.1,1.3C88.3,91,88,91.2,87.7,91.2L87.7,91.2z"/>
	</g>
	<g>
		<path class="st1" d="M53.5,368.3c-2.2-21.7,3-36.7,3.1-36.8c0.3-0.7,0-1.5-0.7-1.9s-1.5,0-1.9,0.7c0,0.1,0,0.1-0.1,0.2
			c-0.2,0.6-5.5,15.6-3.2,38l0.1,0.6h2.8C53.5,368.9,53.5,368.6,53.5,368.3z"/>
	</g>
	<g>
		<path class="st1" d="M156.8,330.5c-0.1-0.8-0.7-1.4-1.5-1.3c-0.8,0.1-1.4,0.7-1.3,1.5c0,0.2,1.1,14,0.7,38.5h2.8
			C158,344.6,156.9,330.7,156.8,330.5z"/>
	</g>
</g>
</svg>
