<?xml version="1.0" encoding="utf-8"?>
<!-- Generator: Adobe Illustrator 24.1.0, SVG Export Plug-In . SVG Version: 6.00 Build 0)  -->
<svg version="1.1" id="레이어_1" xmlns="http://www.w3.org/2000/svg" xmlns:xlink="http://www.w3.org/1999/xlink" x="0px"
	 y="0px" width="200px" height="200px" viewBox="0 0 200 200" style="enable-background:new 0 0 200 200;" xml:space="preserve">
<style type="text/css">
	.st0{fill:#0C0C0C;}
	.st1{fill:#FFDD84;stroke:#0C0C0C;stroke-width:3;stroke-linecap:round;stroke-linejoin:round;stroke-miterlimit:10;}
	.st2{fill:#FFFFFF;stroke:#0C0C0C;stroke-width:3;stroke-miterlimit:10;}
	.st3{fill:none;stroke:#1D1D1B;stroke-width:2;stroke-linecap:round;stroke-miterlimit:10;}
	.st4{fill:none;stroke:#0C0C0C;stroke-width:2;stroke-linecap:round;stroke-miterlimit:10;}
	.st5{fill:none;stroke:#0C0C0C;stroke-width:2;stroke-linecap:round;stroke-linejoin:round;stroke-miterlimit:10;}
	.st6{fill:#FFEBB5;stroke:#0C0C0C;stroke-width:3;stroke-miterlimit:10;}
</style>
<g>
	<path class="st0" d="M118.41,124.96c0,0,0.76,29.18,22,19.55c17.71-8.03,11.52-22.72,3.18-28.19c-7.84-5.14-18.82-2.99-18.82-2.99
		L118.41,124.96z"/>
	<path class="st0" d="M47.41,64.17c-2.89,26.99,6.48,71.77,50.36,73.71s54.72-47.8,54.36-68.26s-15.22-49.97-50.67-46.91
		C76.36,24.87,47.41,64.17,47.41,64.17z"/>
	<path class="st0" d="M99,27.17c0,0-41.18-1.37-46.32,37.25c-3.68,27.61,6.68,37.05,6.68,37.05l81.05-0.84c0,0,4.33-9.47,5.32-27.88
		C146.39,60.43,138.58,23.16,99,27.17z"/>
	<g>
		<path class="st1" d="M177.11,200.76c-5.88-16.28-9.54-34.07-23.58-43.46c-15.12-10.12-33.41-15.12-53.33-15.12
			c-19.02,0-36.13,5.52-50.22,14.32c-15.05,9.4-20.31,27.17-26.49,44.26"/>
	</g>
	<path class="st2" d="M85.1,121.82c0.25,3.01-3.75,38.35,14.18,38.35s16.4-38.35,16.4-38.35H85.1z"/>
	<ellipse class="st2" cx="60.94" cy="97.8" rx="8.26" ry="10.7"/>
	<ellipse class="st2" cx="138.49" cy="96.46" rx="8.26" ry="10.7"/>
	<path class="st3" d="M131.07,69.9"/>
	<path class="st2" d="M99.13,33.54c-24.67,0-43.1,15.32-38.79,56.22s33.89,48.22,39.51,48.22c5.62,0,37.01-9.27,38.51-48.83
		C139.82,50.79,128.24,33.54,99.13,33.54z"/>
	<path class="st4" d="M97.61,86.74c0,0-0.42,6.33-1.16,9.33c-0.74,3-4.06,9.55,2.54,9.55"/>
	<path class="st4" d="M92.19,117.46c0,0,2.34,2.3,6.69,2.29c5.04-0.02,7.19-2.29,7.19-2.29"/>
	<ellipse class="st0" cx="116.77" cy="85.43" rx="4.43" ry="5.73"/>
	<path class="st4" d="M125.41,81.54c0,0-1.26,0.88-3.07,0.49"/>
	<path class="st0" d="M99.13,30.99l5.14-8.29c0,0,18.74-0.16,29.62,11.59c16.47,17.8,9.98,54.03,9.98,54.03s-11.73-8.63-16.31-26.26
		c-8-30.77-25.86-22.39-25.86-22.39s-17.12-5.02-26.05,10.34S72.3,85.43,57.28,89.96C57.28,89.96,36.17,29.48,99.13,30.99z"/>
	<path class="st0" d="M104.28,22.7c0,0-23.2-6.12-39.4,8.29S44.35,60.91,48.5,91.16c0,0,19.05-17.21,20.7-30.73
		c1.65-13.51,12.97-29.39,31.77-22.91L104.28,22.7z"/>
	<path class="st0" d="M119.29,70.12c-6.01-0.07-11.02,0.18-11.08,1.07c-0.06,0.89-0.05,2.07,0.29,2.26
		c0.82,0.47,14.92-0.94,21.49,0.04c0.35,0.05,0.54-0.38,0.28-0.61C129.07,71.86,126.08,70.19,119.29,70.12z"/>
	<path class="st0" d="M81.21,70.12c6.01-0.05,11.11,0.16,11.08,1.11c-0.03,0.93,0.04,2.07-0.3,2.26
		c-0.82,0.46-14.92-0.99-21.49-0.03c-0.35,0.05-0.54-0.38-0.28-0.61C71.42,71.83,74.41,70.17,81.21,70.12z"/>
	<path class="st4" d="M111.07,82.64c0,0,2.67-2.21,7.34-1.89c4.18,0.28,6.22,3.37,6.22,3.37"/>
	<ellipse class="st0" cx="80.76" cy="85.43" rx="4.43" ry="5.73"/>
	<path class="st4" d="M72.12,81.25c0,0,0.93,0.97,2.82,0.97"/>
	<path class="st4" d="M86.47,82.64c0,0-2.67-2.27-7.34-1.89c-4.18,0.34-6.22,3.37-6.22,3.37"/>
	<line class="st5" x1="99.28" y1="160.17" x2="99.28" y2="200.76"/>
	<circle class="st6" cx="105.73" cy="191.76" r="2.89"/>
	<circle class="st6" cx="105.73" cy="175.4" r="2.89"/>
</g>
</svg>
