<?xml version="1.0" encoding="utf-8"?>
<!-- Generator: Adobe Illustrator 24.1.0, SVG Export Plug-In . SVG Version: 6.00 Build 0)  -->
<svg version="1.1" id="레이어_1" xmlns="http://www.w3.org/2000/svg" xmlns:xlink="http://www.w3.org/1999/xlink" x="0px"
	 y="0px" width="200px" height="200px" viewBox="0 0 200 200" style="enable-background:new 0 0 200 200;" xml:space="preserve">
<style type="text/css">
	.st0{fill:#0C0C0C;}
	.st1{fill:#FFDD84;stroke:#0C0C0C;stroke-width:3;stroke-linecap:round;stroke-linejoin:round;stroke-miterlimit:10;}
	.st2{fill:#FFFFFF;stroke:#0C0C0C;stroke-width:3;stroke-miterlimit:10;}
	.st3{fill:none;stroke:#1D1D1B;stroke-width:2;stroke-linecap:round;stroke-miterlimit:10;}
	.st4{fill:none;stroke:#0C0C0C;stroke-width:2;stroke-linecap:round;stroke-miterlimit:10;}
	.st5{fill:none;stroke:#0C0C0C;stroke-width:1.5;stroke-linecap:round;stroke-miterlimit:10;}
	.st6{fill:#FFEBB5;stroke:#0C0C0C;stroke-width:3;stroke-miterlimit:10;}
</style>
<g>
	<path class="st0" d="M190.07,207.31c0,0,0.36-4.09-3.79-10.98c-1.52-2.51-7.74-6.8-9.75-10.9c-4-8.16,0.24-16.2-4.57-25.1
		c-3.72-6.87-6.65-8.28-13.28-14.38c-13.26-12.19-4.08-27.72-2.78-38.97c3.44-29.58-0.39-95.79-59.25-84.52
		c0,0-14.29-6.28-32.51,9.39C43.6,49.51,39.52,86.5,43.72,109.31c3.31,17.94,12.19,26.28-3.14,40.88
		c-14.7,13.99-5.5,27.08-14.29,35.95c-8.8,8.88-8.5,21.18-8.5,21.18"/>
	<g>
		<path class="st1" d="M176.1,207.31c-5.74-15.87-9.31-33.22-23-42.38c-14.74-9.87-32.58-14.74-52.01-14.74
			c-18.54,0-35.23,5.38-48.97,13.97c-14.68,9.17-19.8,26.49-25.83,43.16"/>
	</g>
	<path class="st2" d="M80.97,131.38c2.16,1.41,12.68,48.36,18.16,48.36s17.5-48.36,17.5-48.36H80.97z"/>
	<ellipse class="st2" cx="61.2" cy="99.92" rx="7.92" ry="10.25"/>
	<ellipse class="st2" cx="137.31" cy="99.92" rx="7.92" ry="10.25"/>
	<g>
		<path class="st2" d="M120.71,69.02c-12.21-14.8-14.32-30.51-19.4-32.02c-1.11-0.33-1.75,0.63-2.68,1.32
			c-5.07,3.7-10.36,14.81-22.07,24.56c-9.09,7.56-15.45,12.94-16.74,26.8c-0.1,0.42-0.01,1.66,0,2.55
			c2.54,32.5,23.85,48.65,39.31,48.65c17.83,0,39.42-19.53,39.42-50.07c0-1.06-0.03-2.1-0.07-3.14c-0.01-0.3-0.13-0.58-0.34-0.79
			C132.77,81.23,128.12,78,120.71,69.02z"/>
	</g>
	<path class="st3" d="M129.4,73.19"/>
	<path class="st0" d="M70.97,76.63c1.01-0.81,2.32-1.71,3.62-1.98c8.15-1.72,15.63,0.27,15.63,0.27c0.72,0.22,0.73,1.38,0.65,2.17
		c-0.04,0.42-0.45,0.72-0.89,0.67c-1.76-0.19-6.16-0.59-9.28-0.67c-5.01-0.13-9.06,0.67-10.95,1.4c-0.3,0.12-0.56-0.21-0.36-0.45
		L70.97,76.63z"/>
	<path class="st0" d="M126.55,76.63c-1.01-0.81-2.17-1.51-3.47-1.77c-9.44-1.93-15.77,0.06-15.77,0.06
		c-0.72,0.22-0.73,1.38-0.65,2.17c0.04,0.42,0.45,0.72,0.89,0.67c1.76-0.19,6.16-0.59,9.28-0.67c5.01-0.13,9.06,0.67,10.95,1.4
		c0.3,0.12,0.56-0.21,0.36-0.45L126.55,76.63z"/>
	<path class="st3" d="M80.53,72.97"/>
	<path class="st3" d="M81.7,72.93"/>
	<path class="st4" d="M94.86,92.89c0,0,0.15,5.63-0.56,8.22s-3.24,6.98,2.44,8.22c1.75,0.38,4.46-0.23,4.46-0.23"/>
	<path class="st4" d="M92.48,119.92c0,0,2.24,2.2,6.41,2.19c4.83-0.02,6.89-2.19,6.89-2.19"/>
	<line class="st4" x1="99.13" y1="99.93" x2="99.13" y2="100.24"/>
	<line class="st5" x1="116.75" y1="105.4" x2="116.75" y2="105.71"/>
	<ellipse class="st0" cx="113.94" cy="88.08" rx="4.25" ry="5.49"/>
	<path class="st4" d="M118.57,83.95c0,0,1.08,0.65,2.65-1.19"/>
	<path class="st4" d="M108.28,86.03c0,0,1.88-3.22,5.66-3.22c4.4,0,7.28,3,7.28,3"/>
	<ellipse class="st0" cx="82.11" cy="88.08" rx="4.25" ry="5.49"/>
	<path class="st4" d="M77.48,83.95c0,0-1.08,0.65-2.65-1.19"/>
	<path class="st4" d="M87.77,86.03c0,0-1.88-3.22-5.66-3.22c-4.4,0-7.28,3-7.28,3"/>
	<circle class="st6" cx="99.01" cy="188.59" r="3.68"/>
	<circle class="st6" cx="99.01" cy="201.54" r="3.68"/>
</g>
</svg>
