<?xml version="1.0" encoding="utf-8"?>
<!-- Generator: Adobe Illustrator 24.1.0, SVG Export Plug-In . SVG Version: 6.00 Build 0)  -->
<svg version="1.1" id="레이어_1" xmlns="http://www.w3.org/2000/svg" xmlns:xlink="http://www.w3.org/1999/xlink" x="0px"
	 y="0px" width="200px" height="200px" viewBox="0 0 200 200" style="enable-background:new 0 0 200 200;" xml:space="preserve">
<style type="text/css">
	.st0{fill:#FFDD84;stroke:#0C0C0C;stroke-width:3;stroke-linecap:round;stroke-linejoin:round;stroke-miterlimit:10;}
	.st1{fill:#FFFFFF;stroke:#0C0C0C;stroke-width:3;stroke-miterlimit:10;}
	.st2{fill:none;stroke:#1D1D1B;stroke-width:2;stroke-linecap:round;stroke-miterlimit:10;}
	.st3{fill:#0C0C0C;}
	.st4{fill:none;stroke:#0C0C0C;stroke-width:2;stroke-linecap:round;stroke-miterlimit:10;}
	.st5{fill:none;stroke:#0C0C0C;stroke-miterlimit:10;}
	.st6{fill:#FFFFFF;stroke:#0C0C0C;stroke-miterlimit:10;}
	.st7{fill:#FFEBB5;stroke:#0C0C0C;stroke-width:3;stroke-miterlimit:10;}
</style>
<g>
	<g>
		<path class="st0" d="M186.26,204.52c-4.26-14.56-7.29-33.74-21.25-42.49c-13.52-8.48-43.16-14.63-62.59-14.63
			c-18.54,0-48.48,6.94-62.23,15.52c-14.68,9.17-17.01,24.94-23.03,41.6"/>
	</g>
	<path class="st1" d="M83.33,131.29c1.02,3.8,14.38,45.34,18.8,41.49c7.38-6.43,20.85-41.49,20.85-41.49H83.33z"/>
	<ellipse class="st1" cx="66.41" cy="92.37" rx="8.51" ry="11.01"/>
	<ellipse class="st1" cx="137.94" cy="91.12" rx="8.51" ry="11.01"/>
	<g>
		<path class="st1" d="M134.03,45.03c-10.96-15.27-23.09-15.33-29.57-15.74c-1.13-0.07-4.97-0.39-6.48-0.38
			c-23.11,0.23-35.08,16.3-32.47,56.2c0.01,0.75,0.05,2.62,0.06,3.68c1.85,20.41,4.81,32.26,10.82,40.98
			c5.2,7.56,18.47,11.01,27.12,10.94c9.78-0.08,23.11-2.9,28.5-16.26c3.8-9.41,7.03-19.3,7.64-37.81c0.04-1.13,0.55-5.33,0.56-5.65
			C140.41,69.12,140.69,54.32,134.03,45.03z"/>
	</g>
	<path class="st2" d="M135.06,68.05"/>
	<path class="st3" d="M132.61,71.84c-9.02-0.99-18.89,0.45-22.06,0.98c-0.55,0.09-1.04-0.33-1.04-0.89v-1.68
		c0-0.44,0.32-0.82,0.75-0.89c3.02-0.51,14.31-2.3,18.09-1.53c2.07,0.42,3.79,2.35,4.6,3.41C133.15,71.51,132.94,71.88,132.61,71.84
		z"/>
	<path class="st3" d="M73.01,71.84c9.02-0.99,18.89,0.45,22.06,0.98c0.55,0.09,1.04-0.33,1.04-0.89v-1.68
		c0-0.44-0.32-0.82-0.75-0.89c-3.02-0.51-14.31-2.3-18.09-1.53c-2.07,0.42-3.79,2.35-4.6,3.41C72.46,71.51,72.67,71.88,73.01,71.84z
		"/>
	<path class="st4" d="M99.24,85.97c0,0-2.03,7.95-2.74,10.74c-0.76,3.01-1.47,8.02,3.46,8.92c0.94,0.17,4.1,0.08,4.1,0.08"/>
	<path class="st4" d="M93.96,117.73c0,0,2.49,2.05,8.24,2.05c5.35,0,8.27-2.05,8.27-2.05"/>
	<ellipse class="st3" cx="83.81" cy="82.88" rx="4.56" ry="5.9"/>
	<path class="st3" d="M100.33,23.56c0,0-20.22-4.89-32.2,7.38c-8.45,8.66-12.95,23.23-10.71,35.39c2.41,13.1,9.13,5.05,19.05,3.19
		c9.96-1.87,17.66,0.19,16.99-6.46s-2.43-21.95,3.31-22.75c2.13-0.3,3.64,0.54,4.63,1.5c0.75,0.73,1.92,0.69,2.62-0.08
		c0.74-0.8,1.89-1.51,3.64-1.42c5.23,0.26,5.1,6.56,4.21,12.77s0.08,12.55,2.05,13.97c3.1,2.24,16.16-1.16,27.7,6.62
		c4.81,3.24,5.25-15.24,3.92-20.67C143.97,46.46,138.93,12.29,100.33,23.56z"/>
	<path class="st5" d="M71.91,79.98c0,0-0.44,1.37,0,4.57c0.68,5.02,4.38,9.12,11.86,9.12c9.18,0,11.82-5.28,12.01-9.29
		c0.11-2.28,0.1-4.4,0.1-4.4"/>
	<path class="st5" d="M131.35,79.98c0,0,0.44,1.37,0,4.57c-0.68,5.02-4.38,9.12-11.86,9.12c-9.18,0-11.82-5.28-12.01-9.29
		c-0.11-2.28-0.1-4.4-0.1-4.4"/>
	<path class="st3" d="M71.23,77.74c0,0-1.18,0-1.25,0s-0.21,0.03-0.33,0.15c-0.13,0.12-0.09,0.37-0.09,0.37v3.43
		c0,0.39,0.32,0.71,0.71,0.71h1.36c0.5,0,0.9-0.39,0.93-0.89c0.12-2.02,1.41-6.76,10.93-6.76c9.81,0,11.58,4.43,11.9,6.11
		c0.07,0.37,0.39,0.63,0.77,0.63h0.76c0.37,0,0.67-0.3,0.67-0.67v-2.75c0-0.37-0.3-0.67-0.67-0.67h-0.83c0,0-1.66-4.57-12.6-4.57
		C72.06,72.83,71.23,77.74,71.23,77.74z"/>
	<path class="st3" d="M131.49,77.74h1.8c0.34,0,0.61,0.27,0.61,0.61v3.43c0,0.34-0.27,0.61-0.61,0.61h-2c-0.3,0-0.55-0.22-0.57-0.52
		c-0.13-1.72-1.29-7.13-10.74-7.13c-9.58,0-11.49,4.22-11.87,5.99c-0.1,0.45-0.51,0.76-0.97,0.76h-0.64c-0.34,0-0.61-0.27-0.61-0.61
		v-2.86c0-0.34,0.27-0.61,0.61-0.61h0.89c0,0,1.14-4.57,12.6-4.57C129.84,72.83,131.49,77.74,131.49,77.74z"/>
	<path class="st6" d="M97.31,79.43h0.89c0,0,1.11-1,2.88-1c3.33,0,4.1,1,4.1,1h1.11"/>
	<line class="st5" x1="133.13" y1="78.47" x2="141.64" y2="78.47"/>
	<line class="st5" x1="62.16" y1="78.47" x2="70.66" y2="78.47"/>
	<path class="st3" d="M58.16,49.55c0,0-3.39,9.27,0,35.87l7.08-5.31l-1.17-32.02L58.16,49.55z"/>
	<path class="st3" d="M145.75,53.96c0,0,1.55,3.39-0.19,29.47l-4.95-3.58l-3.78-30.65L145.75,53.96z"/>
	<ellipse class="st3" cx="118.41" cy="82.88" rx="4.56" ry="5.9"/>
	<path class="st0" d="M84.33,145.78c0,0-11.12-0.8-15.73,6.38c-2,3.44,7.55,17.26,11.49,20.89s4.25-5.6,8.85-3.31
		c2.49,1.24,6.74,3.06,9.6,4.64c1.54,0.85,4.53-0.1,3.54-1.6c-2.5-3.78-5.32-8.4-7.62-12.56C89.66,151.53,89.42,145.02,84.33,145.78
		z"/>
	<path class="st0" d="M118.68,145.06c0,0,11.19,0.64,15.52,7.4c2.16,2.68-6.54,16.18-10.39,19.46s-4.01-5.28-8.48-3.26
		c-2.42,1.09-8.05,4.02-10.83,5.42c-1.5,0.76-3.06-0.17-2.11-1.56c3.22-4.72,6.04-10.24,8.71-14.91
		C115.45,150.01,116.42,145.93,118.68,145.06z"/>
	<circle class="st7" cx="102.1" cy="187.92" r="3.57"/>
	<circle class="st7" cx="102.1" cy="203.21" r="3.57"/>
</g>
</svg>
