<?xml version="1.0" encoding="utf-8"?>
<!-- Generator: Adobe Illustrator 24.1.0, SVG Export Plug-In . SVG Version: 6.00 Build 0)  -->
<svg version="1.1" id="레이어_1" xmlns="http://www.w3.org/2000/svg" xmlns:xlink="http://www.w3.org/1999/xlink" x="0px"
	 y="0px" width="200px" height="200px" viewBox="0 0 200 200" style="enable-background:new 0 0 200 200;" xml:space="preserve">
<style type="text/css">
	.st0{fill:#FFDD84;stroke:#0C0C0C;stroke-width:3;stroke-linecap:round;stroke-linejoin:round;stroke-miterlimit:10;}
	.st1{fill:#FFEBB5;stroke:#0C0C0C;stroke-width:3;stroke-miterlimit:10;}
	.st2{fill:#FFFFFF;stroke:#0C0C0C;stroke-width:3;stroke-miterlimit:10;}
	.st3{fill:none;stroke:#1D1D1B;stroke-width:2;stroke-linecap:round;stroke-miterlimit:10;}
	.st4{fill:none;stroke:#0C0C0C;stroke-width:2;stroke-linecap:round;stroke-miterlimit:10;}
	.st5{fill:#0C0C0C;}
</style>
<g>
	<g>
		<path class="st0" d="M174.9,199.76c-5.74-15.87-9.31-33.22-23-42.38c-14.74-9.87-32.58-14.74-52.01-14.74
			c-18.54,0-35.23,5.38-48.97,13.97c-14.68,9.17-19.8,26.49-25.83,43.16"/>
	</g>
	<path class="st1" d="M143.79,200.8c0,0-2.62-26.79,1.96-46.15c0.35-1.47-0.46-2.95-1.88-3.46c-5.84-2.08-20.87-6.87-35.09-6.87
		c-14.79,0-21.97,0.39-21.97,0.39s-26.25,3.9-35.3,9.6c-0.93,0.59-1.35,1.73-1.07,2.79c1.3,4.91,4.57,20.57,1.12,43.7"/>
	<path class="st2" d="M79.77,126.53c2.16,1.41,12.09,37.4,17.56,37.4s18.1-37.4,18.1-37.4S79.77,126.53,79.77,126.53z"/>
	<ellipse class="st2" cx="58.28" cy="95.82" rx="8.51" ry="11.01"/>
	<ellipse class="st2" cx="140.09" cy="94.55" rx="8.51" ry="11.01"/>
	<path class="st3" d="M129.16,67.15"/>
	<path class="st2" d="M97.6,28.42c-27.86,0-50.04,16.17-43.81,59.28c6.2,42.96,38.28,50.84,44.63,50.84
		c6.35,0,39.74-9.91,43.5-51.49C145.27,49.97,130.48,28.42,97.6,28.42z"/>
	<path class="st3" d="M76.66,66.91"/>
	<path class="st3" d="M77.91,66.86"/>
	<path class="st4" d="M94.24,91.73c0,0-0.71,3.74-1.46,6.52s-3.27,6.76,2.62,8.83c2.17,0.76,4.6,0.08,4.6,0.08"/>
	<path class="st4" d="M90.41,116.41c0,0,2.41,2.37,6.89,2.35c5.19-0.02,7.4-2.35,7.4-2.35"/>
	<ellipse class="st5" cx="77.88" cy="84.76" rx="4.56" ry="5.9"/>
	<ellipse class="st5" cx="115.33" cy="84.76" rx="4.56" ry="5.9"/>
	<path class="st4" d="M120.56,79.86c0,0,1.7,0.44,2.5-1"/>
	<path class="st5" d="M94.66,24.44c0,0,0.06,7.15,1.08,10.21c0,0-11.84,3.4-19.09,16.68c-9.27,16.98-5.17,26.72-26.88,37.7
		c0,0-7.96-25.84,2.29-44.47C65.76,19.67,86.87,22.14,94.66,24.44z"/>
	<path class="st5" d="M95.75,34.65c0,0,17.81,1.51,24.19,15.32c6.38,13.81,10.48,33.51,22.44,39.06c0,0,7.57-17.87,1.95-36.25
		s-28.1-39.57-49.67-28.34C94.66,24.44,92.35,30.31,95.75,34.65z"/>
	<path class="st5" d="M47.96,56.2c0,0-7.79,39.85-9.07,57.79s2.71,31.93,21.18,37.61c12.46,3.83,28.92-0.79,28.92-0.79
		s-6.85-14.2-4.33-15.3c3.32-1.45-10.33-5.44-17.98-18.36s-8.47-30.28-7.06-36.57C62.44,67.98,47.96,56.2,47.96,56.2z"/>
	<path class="st5" d="M145.4,56.98c0,0,12.47,58.54,12.21,69.55s-5.85,20.42-19.01,23.63s-31.32-0.85-31.32-0.85
		s-1.42,0.83,3.37-15.8c0,0,34.42-15.93,21.7-57.6L145.4,56.98z"/>
	<path class="st5" d="M93.64,33.23c0,0,4.2,23.24,19.97,36.44c0.83,0.69,1.98-0.35,1.34-1.23c-6.12-8.44-13.14-17.68-15.18-34.02
		C98.35,23.1,93.64,33.23,93.64,33.23z"/>
	<path class="st5" d="M99.1,33.62c0,0,4.27,19.47,19.69,33.08c4.57,4.03,10.98,4.45,10.16,3.75c-7.44-6.36-17.22-17.38-18.85-33.77
		C108.97,25.32,99.1,33.62,99.1,33.62z"/>
	<path class="st5" d="M107.8,32.52c0,0,4.2,23.24,19.97,36.44c0.83,0.69,1.98-0.35,1.34-1.23c-6.12-8.44-4.39-5.67-6.43-22.01
		C121.26,34.4,107.8,32.52,107.8,32.52z"/>
	<path class="st5" d="M117.4,68.37c-2.55,0.08-10.94,0.51-11.5,1.48c-0.38,0.64-0.14,2.19,0.43,2.64s9.79-0.57,12.5-0.67
		c4.59-0.17,10.77,0.39,12.32,0.67C132.7,72.77,126.05,68.09,117.4,68.37z"/>
	<path class="st5" d="M76.09,68.37c2.55,0.08,10.94,0.51,11.5,1.48c0.38,0.64,0.14,2.19-0.43,2.64s-9.79-0.57-12.5-0.67
		c-4.59-0.17-10.77,0.39-12.32,0.67C60.8,72.77,67.45,68.09,76.09,68.37z"/>
	<path class="st4" d="M109.3,82.5c0,0,0.87-2.84,5.09-3.64c5.51-1.05,9.78,3.64,9.78,3.64"/>
	<path class="st4" d="M73.92,79.41c0,0-2.44,1.06-3.17-0.89"/>
	<path class="st4" d="M84.11,82.5c0,0-1.06-2.59-5.25-3.51c-5.66-1.24-8.75,3.51-8.75,3.51"/>
</g>
</svg>
