<?xml version="1.0" encoding="utf-8"?>
<!-- Generator: Adobe Illustrator 24.1.0, SVG Export Plug-In . SVG Version: 6.00 Build 0)  -->
<svg version="1.1" id="레이어_1" xmlns="http://www.w3.org/2000/svg" xmlns:xlink="http://www.w3.org/1999/xlink" x="0px"
	 y="0px" width="200px" height="200px" viewBox="0 0 200 200" style="enable-background:new 0 0 200 200;" xml:space="preserve">
<style type="text/css">
	.st0{fill:#0C0C0C;}
	.st1{fill:#FFDD84;stroke:#0C0C0C;stroke-width:3;stroke-linecap:round;stroke-linejoin:round;stroke-miterlimit:10;}
	.st2{fill:#FFFFFF;stroke:#0C0C0C;stroke-width:3;stroke-miterlimit:10;}
	.st3{fill:#FFFFFF;stroke:#0C0C0C;stroke-width:2.9999;stroke-miterlimit:9.9998;}
	.st4{fill:#FFFFFF;stroke:#0C0C0C;stroke-width:2.9999;stroke-miterlimit:9.9996;}
	.st5{fill:none;stroke:#1D1D1B;stroke-width:2;stroke-linecap:round;stroke-miterlimit:10;}
	.st6{fill:none;stroke:#0C0C0C;stroke-width:2;stroke-linecap:round;stroke-miterlimit:10;}
	.st7{fill:none;stroke:#0C0C0C;stroke-width:3;stroke-linecap:round;stroke-miterlimit:10;}
</style>
<g>
	<path class="st0" d="M45.1,97.3c0,0-0.57,30.89-3.61,45.69s-0.02,24.02,2.64,29.67s1.08,7.39,28.13,8.56s74.6,0.21,83.91-6.25
		c5.22-3.62,6.76-16.8,4.1-26.99c-2.66-10.19-3.71-44.67-6.37-64.52C151.24,63.54,45.1,97.3,45.1,97.3z"/>
	<g>
		<path class="st1" d="M176.89,208.25c-5.74-15.87-9.31-33.22-23-42.38c-14.74-9.87-32.58-14.74-52.01-14.74
			c-18.54,0-35.23,5.38-48.97,13.97c-14.68,9.17-19.8,26.49-25.83,43.16"/>
	</g>
	<path class="st2" d="M85.17,134.75c0,2.67,1.72,32.76,14.2,32.76s14.64-32.76,14.64-32.76H85.17z"/>
	
		<ellipse transform="matrix(0.9461 -0.3238 0.3238 0.9461 -29.3372 25.4899)" class="st3" cx="61.93" cy="100.9" rx="8.51" ry="11.01"/>
	
		<ellipse transform="matrix(0.1015 -0.9948 0.9948 0.1015 24.9298 226.8912)" class="st4" cx="138.07" cy="99.64" rx="11.01" ry="8.51"/>
	<path class="st5" d="M132.47,74.32"/>
	<path class="st2" d="M99.81,37.6c-24.8,0-45.45,16.11-39,58.14c6.57,42.77,34.07,49.86,39.73,49.86c5.65,0,34.68-8.76,38.72-50.5
		C143.08,55.59,129.08,37.6,99.81,37.6z"/>
	<path class="st0" d="M133.42,79.14c-6.21-7.87-19.7-4.29-22.91-3.2c-0.59,0.2-0.97,0.76-0.95,1.39c0.01,0.24,0.03,0.48,0.06,0.72
		c0.09,0.81,0.86,1.37,1.66,1.21c2.34-0.48,6.77-1.15,10.43-1.45C126.75,77.41,133.42,79.14,133.42,79.14z"/>
	<path class="st0" d="M68.03,79.14c6.21-7.87,19.7-4.29,22.91-3.2c0.59,0.2,0.97,0.76,0.95,1.39c-0.01,0.24-0.03,0.48-0.06,0.72
		c-0.09,0.81-0.86,1.37-1.66,1.21c-2.34-0.48-6.77-1.15-10.43-1.45C74.7,77.41,68.03,79.14,68.03,79.14z"/>
	<path class="st5" d="M79.96,74.08"/>
	<path class="st5" d="M81.22,74.03"/>
	<path class="st6" d="M97.73,96.3c0,0-0.92,4.83-1.68,7.61c-0.76,2.77-3.5,7.58,2.62,8.83c0.94,0.19,3.81,0.04,3.81,0.04"/>
	<path class="st6" d="M93.49,125.47c0,0,2.24,2.08,6.4,2.07c4.82-0.02,6.87-2.07,6.87-2.07"/>
	<ellipse class="st0" cx="118.24" cy="90.31" rx="4.56" ry="5.9"/>
	<path class="st0" d="M96.65,32.42c0,0,1.54,2.49,2.69,11.8c0,0-16.66,2.67-30.57,19.79c-4.72,5.81-5.39,7.51-6.55,10.94
		c-1.08,3.18-2.61,4.88-2.61,14.81l-6.19,6.54l-8.32,1c0,0-0.17-14.5,3.99-33.46s22.12-39.29,35.75-40.38
		C94.98,22.66,96.65,32.42,96.65,32.42z"/>
	<path class="st0" d="M91.55,24.85c0,0,13.53-8.07,31.26,0s27.5,19.3,32.37,70.19l-15.8-6.41c0,0,2.2-42.81-40.04-44.41
		C99.34,44.22,97.34,28.32,91.55,24.85z"/>
	<path class="st6" d="M121.17,84.89c0,0,1.76,0.31,2.95-1.34"/>
	<path class="st6" d="M112.16,88.19c0,0,1.5-3.02,6.08-3.39c4.79-0.39,7.22,1.25,7.22,1.25"/>
	<ellipse class="st0" cx="81.24" cy="90.31" rx="4.56" ry="5.9"/>
	<path class="st6" d="M78.31,84.89c0,0-1.76,0.31-2.95-1.34"/>
	<path class="st6" d="M87.32,88.19c0,0-1.5-3.02-6.08-3.39c-4.79-0.39-7.22,1.25-7.22,1.25"/>
	<path class="st7" d="M77.13,155.3c0,0,3.27,22.78,22.46,22.78c18.65,0,22.28-23.81,22.28-23.81"/>
</g>
</svg>
