<?xml version="1.0" encoding="utf-8"?>
<!-- Generator: Adobe Illustrator 24.1.0, SVG Export Plug-In . SVG Version: 6.00 Build 0)  -->
<svg version="1.1" id="레이어_1" xmlns="http://www.w3.org/2000/svg" xmlns:xlink="http://www.w3.org/1999/xlink" x="0px"
	 y="0px" width="200px" height="200px" viewBox="0 0 200 200" style="enable-background:new 0 0 200 200;" xml:space="preserve">
<style type="text/css">
	.st0{fill:#0C0C0C;}
	.st1{fill:#FFDD84;stroke:#0C0C0C;stroke-width:3;stroke-linecap:round;stroke-linejoin:round;stroke-miterlimit:10;}
	.st2{fill:#FFFFFF;stroke:#0C0C0C;stroke-width:3;stroke-miterlimit:10;}
	.st3{fill:none;stroke:#1D1D1B;stroke-width:2;stroke-linecap:round;stroke-miterlimit:10;}
	.st4{fill:none;stroke:#0C0C0C;stroke-width:2;stroke-linecap:round;stroke-miterlimit:10;}
</style>
<g>
	<path class="st0" d="M97.38,21.62c0,0,24.97-6.63,41.4,19.76c13.08,21.02,10.64,33.55,14.41,45.19
		c7.76,23.94-1.38,38.12,1.88,50.14c2.76,10.17,10.96,33.82,4.1,41.9l-121.46-6.43c0,0,0.2-8.55,4.62-20.83
		c5.99-16.63-1.06-35.29-0.83-47.58c0.39-21.29,5.82-62.51,30.16-75.98C78.14,24.19,88.49,19.39,97.38,21.62z"/>
	<g>
		<path class="st1" d="M174.9,201.76c-5.74-15.87-9.31-33.22-23-42.38c-14.74-9.87-32.58-14.74-52.01-14.74
			c-18.54,0-35.23,5.38-48.97,13.97c-14.68,9.17-19.8,26.49-25.83,43.16"/>
	</g>
	<path class="st2" d="M82.1,128.53c0.46,0.34,1.47,6.83,1.14,11.41s-1.99,7.25-1.99,7.25s2.94,18.74,16.16,18.74
		s17.07-18.7,17.07-18.7s-2.14-4.71-2.14-7.95c0-3.24,0.84-10.75,0.84-10.75L82.1,128.53L82.1,128.53z"/>
	<path class="st2" d="M70.47,97.99c0,6.08-1.21,12.04-5.9,12.04c-4.7,0-8.37-6.05-9.59-12.01c-1.36-6.68,1.88-12.42,6.99-11.04
		C66.5,88.2,70.47,91.91,70.47,97.99z"/>
	<path class="st2" d="M123.7,97.99c0,6.08,1.21,12.04,5.9,12.04c4.7,0,8.37-6.05,9.59-12.01c1.36-6.68-1.88-12.42-6.99-11.04
		C127.67,88.2,123.7,91.91,123.7,97.99z"/>
	<path class="st3" d="M130.48,68.95"/>
	<path class="st2" d="M97.24,27c-24.83,0-41.61,16.62-37.35,60.25c4.59,47.07,32.42,51.67,38.08,51.67s35.77-9.53,36.95-52.33
		C136.04,46.13,126.54,27,97.24,27z"/>
	<path class="st3" d="M77.98,67.59"/>
	<path class="st3" d="M79.23,67.54"/>
	<path class="st0" d="M127.66,78.01c0.19,0.11,0.39-0.13,0.27-0.32c-1.87-2.79-3.16-3.73-5.69-4.28
		c-5.94-1.29-12.47-0.69-14.78-0.36c-0.47,0.07-0.85,0.45-0.87,0.94l-0.05,1.1c-0.03,0.55,0.39,1.06,0.92,1.01
		c3.94-0.41,10.81-0.52,13.71-0.03C124.01,76.56,126.47,77.3,127.66,78.01z"/>
	<path class="st0" d="M68.43,78.73c-0.2,0.11-0.41-0.13-0.27-0.32c2.04-2.77,3.49-4.49,6.1-4.95c6.98-1.22,12.52-0.53,14.93-0.18
		c0.49,0.07,0.87,0.45,0.88,0.95l0.02,1.1c0.01,0.55-0.44,1.06-0.99,1c-4.11-0.45-10.73-0.65-13.98,0.1
		C72.17,77.11,69.7,78.03,68.43,78.73z"/>
	<path class="st4" d="M95.33,90.82c0,0-0.6,5.54-1.36,8.31s-3.5,7.58,2.62,8.83c0.94,0.19,2.57,0,2.57,0"/>
	<path class="st4" d="M90.11,117.43c0,0,2.19,1.44,7.6,1.44c4.66,0,7.37-1.44,7.37-1.44"/>
	<path class="st0" d="M96.42,27.79c0,0,0.43,10.72,0.77,14.64c0,0-8.89-3.42-19.21,9.14c-7.58,9.22-9.09,20.11-13.91,27.74
		c-5.79,9.16-4.93,6.23-9.68,9.8c0,0-4.6-30.67,4.94-44.97S87.91,25.06,96.42,27.79z"/>
	<path class="st0" d="M97.19,42.43c0,0,9.77-5.68,21.25,12.69c7.06,11.3,10.02,31.68,26.23,37.36c0,0,11.54-62.6-50.01-65.43
		L97.19,42.43z"/>
	<path class="st4" d="M117.03,83.55c0,0,1.83,0.35,2.78-1.29"/>
	<path class="st4" d="M107.85,85.77c0,0,1.65-2.85,5.22-2.85c3.85,0,6.28,1.69,8.02,2.85"/>
	<ellipse class="st0" cx="82.08" cy="87.81" rx="3.84" ry="4.96"/>
	<ellipse class="st0" cx="113.41" cy="87.81" rx="3.84" ry="4.96"/>
	<path class="st4" d="M78.01,83.55c0,0-1.83,0.35-2.78-1.29"/>
	<path class="st4" d="M87.29,85.77c0,0-1.65-2.85-5.22-2.85c-3.85,0-6.22,1.69-7.97,2.85"/>
</g>
</svg>
