<?xml version="1.0" encoding="utf-8"?>
<!-- Generator: Adobe Illustrator 24.1.0, SVG Export Plug-In . SVG Version: 6.00 Build 0)  -->
<svg version="1.1" id="레이어_1" xmlns="http://www.w3.org/2000/svg" xmlns:xlink="http://www.w3.org/1999/xlink" x="0px"
	 y="0px" width="200px" height="200px" viewBox="0 0 200 200" style="enable-background:new 0 0 200 200;" xml:space="preserve">
<style type="text/css">
	.st0{fill:#0C0C0C;}
	.st1{fill:#FFDD84;stroke:#0C0C0C;stroke-width:3;stroke-linecap:round;stroke-linejoin:round;stroke-miterlimit:10;}
	.st2{fill:#FFFFFF;stroke:#0C0C0C;stroke-width:3;stroke-miterlimit:10;}
	.st3{fill:none;stroke:#1D1D1B;stroke-width:2;stroke-linecap:round;stroke-miterlimit:10;}
	.st4{fill:none;stroke:#0C0C0C;stroke-width:2;stroke-linecap:round;stroke-miterlimit:10;}
</style>
<g>
	<path class="st0" d="M101.81,22.29c0,0-22.54-4.73-38.09,12.62s-9.71,49.61-8.17,64.27c1.54,14.66-0.7,17.08-2.05,21.82
		s-6.05,18.78-2.54,37.91c0,0,17.98-12.18,35.09-14l-1.99-9.34L101.81,22.29z"/>
	<g>
		<path class="st1" d="M175.91,202c-5.83-16.13-9.46-33.77-23.38-43.08c-14.99-10.03-33.12-14.99-52.87-14.99
			c-18.85,0-35.81,5.47-49.78,14.2c-14.92,9.32-20.13,26.93-26.25,43.87"/>
	</g>
	<path class="st2" d="M79.21,127.56c2.2,1.43,12.29,38.02,17.85,38.02c5.57,0,18.4-38.02,18.4-38.02H79.21z"/>
	<ellipse class="st2" cx="135.5" cy="96.09" rx="8.65" ry="11.2"/>
	<path class="st3" d="M130.76,65.85"/>
	<path class="st2" d="M97.33,28.71c-24.03,0-44.49,13.89-39.69,58.78s34.23,52.28,40.5,52.28s38.23-10.43,38.38-53.88
		C136.66,43.92,128.4,28.71,97.33,28.71z"/>
	<path class="st3" d="M77.39,65.61"/>
	<path class="st3" d="M78.66,65.56"/>
	<path class="st4" d="M95.12,93.08c0,0-1.34,3.83-1.92,5.8c-0.83,2.8-3.23,7.86,2.66,8.97c0.96,0.18,2.61,0,2.61,0"/>
	<path class="st4" d="M90.8,117.02c0,0,2.45,2.41,7.01,2.39c5.28-0.02,7.52-2.39,7.52-2.39"/>
	<ellipse class="st0" cx="114.5" cy="84.24" rx="4.64" ry="5.99"/>
	<path class="st0" d="M101.81,22.29c0,0-6.28,13.52-6.58,14.7c0,0,19.11-4.29,23.91,12c4.53,15.38,17.38,36.89,17.38,36.89
		s2.38,0.17,4.78,1.91c0,0,3.63,4.37,2.18,11.38c-1.67,8.11-8.54,7.07-8.54,7.07s-7.35,23.78-22.08,28.65c0,0-8.2,17.03-3,28.18
		c5.19,11.16,6.04,12.34,4.18,20.79c-1.86,8.45-3.44,9.73-3.44,18.13h50.72c0,0,7.48-20.41-2.04-34.81
		c-9.56-14.46-7.55-27.44-4.85-35.04s7.44-23.89,5.24-36.7C157.47,82.63,145.76,17.33,101.81,22.29z"/>
	<path class="st0" d="M95.23,36.99c0,0-11.5-5.07-19.28,10.82c-5.89,12.04,3.26,23.68-12.79,41.07c-6.94,7.52-1.52,23.13-1.52,23.13
		s-14.2-15.87-12.68-29.55s5.38-19.22,6.25-26.51s11.04-37.38,46.59-33.66"/>
	<path class="st4" d="M120.28,81.63c0,0,1.77,0.93,3.18-0.43"/>
	<path class="st0" d="M120.97,71.08c-1.62-0.23-4.37-0.47-6.92-0.55c-2.56-0.09-5.05,0.02-6.25,0c-0.39-0.01-0.71,0.21-0.74,0.51
		l-0.1,1.27c-0.03,0.39,0.38,0.73,0.9,0.75c2.36,0.07,8.71,0.3,14.27,1.06c2.89,0.39,5.49,1.13,7.32,1.75
		c0.3,0.1,0.57-0.16,0.37-0.36c-0.69-0.67-1.86-1.7-3.37-2.63C124.93,71.92,123.7,71.46,120.97,71.08z"/>
	<path class="st0" d="M75.84,71.33c1.72-0.35,4.1-0.58,6.96-0.84c2.55-0.23,4.43-0.08,5.94,0.05c0.39,0.04,0.72,0.18,0.76,0.48
		l0.16,1.26c0.05,0.39-0.34,0.75-0.86,0.79c-2.36,0.17-8.44,0.41-13.96,1.41c-2.86,0.52-5.67,1.67-7.47,2.37
		c-0.3,0.12-0.58-0.14-0.39-0.35c0.66-0.7,1.77-1.78,3.23-2.78C71.69,72.71,73.26,71.85,75.84,71.33z"/>
	<path class="st4" d="M108.57,81.05c0,0,2.37-2.68,6.82-1.72s7.66,4.79,7.66,4.79"/>
	<ellipse class="st0" cx="80.63" cy="84.24" rx="4.64" ry="5.99"/>
	<path class="st4" d="M74.85,81.63c0,0-1.77,0.93-3.18-0.43"/>
	<path class="st4" d="M86.56,81.05c0,0-2.37-2.68-6.82-1.72s-7.66,4.79-7.66,4.79"/>
</g>
</svg>
