<?xml version="1.0" encoding="utf-8"?>
<!-- Generator: Adobe Illustrator 24.1.0, SVG Export Plug-In . SVG Version: 6.00 Build 0)  -->
<svg version="1.1" id="레이어_1" xmlns="http://www.w3.org/2000/svg" xmlns:xlink="http://www.w3.org/1999/xlink" x="0px"
	 y="0px" width="200px" height="200px" viewBox="0 0 200 200" style="enable-background:new 0 0 200 200;" xml:space="preserve">
<style type="text/css">
	.st0{fill:#1D1D1B;}
	.st1{fill:#FFDD84;stroke:#0C0C0C;stroke-width:3;stroke-linecap:round;stroke-linejoin:round;stroke-miterlimit:10;}
	.st2{fill:#FFFFFF;stroke:#0C0C0C;stroke-width:3;stroke-miterlimit:10;}
	.st3{fill:none;stroke:#1D1D1B;stroke-width:2;stroke-linecap:round;stroke-miterlimit:10;}
	.st4{fill:#0C0C0C;}
	.st5{fill:none;stroke:#0C0C0C;stroke-width:2;stroke-linecap:round;stroke-miterlimit:10;}
	.st6{fill:#FFFFFF;stroke:#0C0C0C;stroke-width:2;stroke-linecap:round;stroke-miterlimit:10;}
</style>
<g>
	<path class="st0" d="M56,39.2c0,0-13.91,15.45-13.91,54.02c0,15.69-2.49,26.94-5.82,30.43s-2.66,9.14,4.49,10.81
		s8.15,2.48,16.13,1.65s11.17,0.79,15.46,2.99c4.29,2.2,9.29,3.34,14.62,1.34s19.08-1.37,28.21-0.21s10.64-2.77,14.2-3.77
		c3.56-1,9.81,2.16,14.13-1.33c3.99-3.23,5.49-2.71,9.98-3.33c4.49-0.62,7.98-4.57,4.16-9.31c-0.87-1.08-2.33-4.32-3.94-8.15
		c-3.13-7.48-5.21-17.51-4.82-29.08C149.42,69.66,80.03,10.27,56,39.2z"/>
	<g>
		<path class="st1" d="M174.95,201.48c-5.74-15.87-9.31-33.22-23-42.38c-14.74-9.87-32.58-14.74-52.01-14.74
			c-18.54,0-35.23,5.38-48.97,13.97c-14.68,9.17-19.8,26.49-25.83,43.16"/>
	</g>
	<path class="st2" d="M82.88,122.78c2.16,1.41-2.23,37.4,15.56,37.4s14.1-37.4,14.1-37.4S82.88,122.78,82.88,122.78z"/>
	<ellipse class="st2" cx="60.49" cy="97.54" rx="8.51" ry="11.01"/>
	<ellipse class="st2" cx="135.63" cy="96.27" rx="8.51" ry="11.01"/>
	<path class="st3" d="M130.53,67.55"/>
	<path class="st2" d="M97.65,36.45c-25.1,0-43.85,15.21-39.47,55.83s34.48,47.89,40.2,47.89s37.66-9.21,39.19-48.5
		C139.05,53.58,127.27,36.45,97.65,36.45z"/>
	<path class="st3" d="M78.03,67.31"/>
	<path class="st4" d="M127.36,72.82c-9.97-3.55-21.04,0.05-21.04,0.05c-1.03,0.4-0.11,2.81,0.38,3.14s6.25-1.68,10.43-2
		c4.79-0.37,8.58-0.28,10.93,0.08c0.59,0.09,1.49,0.16,1.49,0.16S130.19,73.83,127.36,72.82z"/>
	<path class="st4" d="M69.43,72.32c9.97-3.55,20.53,0.56,20.53,0.56c1.03,0.4,0.11,2.81-0.38,3.14s-5.59-1.91-10.17-2.36
		c-4.64-0.46-6.61-0.6-9.93,0.12c-0.58,0.12-2.85,0.71-2.85,0.71S66.61,73.32,69.43,72.32z"/>
	<path class="st5" d="M95.46,91.59c0,0-0.27,5.22-0.97,7.81c-0.7,2.58-3.37,8.27,2.44,8.22c1.49-0.01,3.44-0.33,3.44-0.33"/>
	<path class="st5" d="M89.93,118.21c0,0,3.56,1.93,7.73,1.91c4.83-0.02,8.38-1.91,8.38-1.91"/>
	<ellipse class="st4" cx="113.14" cy="86.37" rx="4.07" ry="5.26"/>
	<path class="st6" d="M117.73,82.99c0,0,1.64,1.07,2.91-0.47"/>
	<path class="st0" d="M112.26,41.32c0,0-7.58-14.93-9.77-19.87c0,0-44.8-7.87-55.38,38.03c-4.28,18.59-1.23,31.83-1.23,31.83
		l9.41-2.49C55.3,88.82,61.34,44.11,112.26,41.32z"/>
	<path class="st0" d="M100.39,37.48c0,0-3.94-11.49-1.76-16.43c0,0,38.28-5.39,47.31,33.37c4.33,18.57,2.69,35.6,2.69,35.6
		l-8.12-2.95C140.52,87.07,138.35,49.5,100.39,37.48z"/>
	<path class="st5" d="M108.35,83.27c0,0,1.88-1.88,6.01-1.28c3.3,0.48,5.16,2,6.31,3.93"/>
	<ellipse class="st4" cx="80.47" cy="86.37" rx="4.07" ry="5.26"/>
	<path class="st6" d="M75.88,82.99c0,0-1.64,1.07-2.91-0.47"/>
	<path class="st5" d="M85.26,83.27c0,0-1.88-1.88-6.01-1.28c-3.3,0.48-5.16,2-6.31,3.93"/>
</g>
</svg>
