<?xml version="1.0" encoding="utf-8"?>
<!-- Generator: Adobe Illustrator 24.1.0, SVG Export Plug-In . SVG Version: 6.00 Build 0)  -->
<svg version="1.1" id="Layer_1" xmlns="http://www.w3.org/2000/svg" xmlns:xlink="http://www.w3.org/1999/xlink" x="0px" y="0px"
	 width="304px" height="486px" viewBox="0 0 304 486" style="enable-background:new 0 0 304 486;" xml:space="preserve">
<style type="text/css">
	.st0{fill:#FFFFFF;}
	.st1{fill:#0C0C0C;}
	.st2{fill:#FFDD84;}
	.st3{fill:none;stroke:#1D1D1B;stroke-width:2;stroke-linecap:round;stroke-miterlimit:10;}
	.st4{fill:#666666;}
	.st5{fill:#FFEBB5;}
</style>
<g>
	<g>
		<path class="st0" d="M220.88,436.94l-142.11,1.84c0,0-7.21,21.81-5.26,42.4c0.33,3.54,0.85,7.51,1.47,11.72h148.07
			C224.06,468.92,224.13,444.65,220.88,436.94z"/>
	</g>
	<g>
		<rect x="77.68" y="98.15" class="st1" width="123.47" height="171.87"/>
	</g>
	<g>
		<path class="st1" d="M197.28,34.42c0,0,22.94,27.82,17,107.2c-2.49,33,2.92,56.82,6.47,76.13s-10.63,57.69-32.52,62.43
			c-8.08,1.75,5.31-5,3.94-10.95s-3.74,3.94-11.23,5.91s5.13-9.07,5.52-15c0.39-5.93-0.8,1.58-7.89-26.79s-9.63-59.9-9.63-59.9
			s25.4-18.92,28.55-61.08s-6.92-59.71-6.92-59.71L197.28,34.42z"/>
	</g>
	<g>
		<path class="st2" d="M253,307.93c-9.23-29.38-16.89-48.7-26.94-74.17c-10.88-27.55-36.29-29.21-76.69-32.64
			c-33.25-2.82-62.71,4.46-84.2,16.37s-12,62.42-6,94.35c2.38,10.19,24.22,19.25,25.61,40c2.08,31-9.59,52.69-12.22,66.53
			C71,426.62,74,442.61,89.88,441.1c12.21-1.15,14.6,1.51,55.37,1.51s46.45-5.17,60-3.9c23.4,2.18,23.9-10.46,21.64-24.12
			s-2.26-35.11-2.26-35.11l41.62-3.44C266.25,376.04,260.34,331.21,253,307.93z"/>
	</g>
	<g>
		<path class="st1" d="M145.25,444.61c-22.39,0-33.29-0.81-40.51-1.34c-6-0.44-9.31-0.69-14.67-0.18c-6,0.57-11-1.17-14.56-5
			c-4.94-5.42-6-14.2-4.88-20.06c1.03-4.66,2.34-9.25,3.9-13.76c4.12-12.79,9.77-30.32,8.29-52.27
			c-0.82-11.96-8.75-19.74-15.76-26.61c-4.69-4.6-8.75-8.57-9.81-13.09c-6.32-33.47-15.86-83.9,7-96.55
			c24.07-13.35,54.37-19.24,85.33-16.62l2.17,0.18c39.18,3.32,65.07,5.51,76.2,33.72l0.42,1.06c9.75,24.7,17.45,44.2,26.58,73.24
			c7.29,23.18,13.25,68,13.31,68.45c0.07,0.54-0.09,1.09-0.43,1.51c-0.34,0.43-0.84,0.69-1.39,0.74l-39.76,3.29
			c0.06,5.46,0.39,21.9,2.22,32.94c1.26,7.65,1.88,16.18-3.09,21.52c-3.95,4.24-10.72,5.85-20.7,4.92c-5.54-0.52-9.65,0.07-15.88,1
			C180.6,442.91,168.81,444.61,145.25,444.61z M95.74,438.82c2.89,0,5.65,0.2,9.3,0.47c7.15,0.53,18,1.33,40.21,1.33
			c23.28,0,34.9-1.68,43.38-2.9c6.28-0.9,10.81-1.56,16.82-1c8.55,0.8,14.41-0.43,17.41-3.66c3.8-4.07,3.18-11.46,2.07-18.15
			c-2.25-13.67-2.28-34.55-2.28-35.43c0-1.04,0.79-1.91,1.83-2l39.52-3.25c-1.26-9.08-6.58-45.69-12.88-65.7l0,0
			c-9.09-28.91-16.76-48.35-26.48-73l-0.42-1.06c-10.22-25.91-33.79-27.91-72.83-31.21l-2.17-0.19
			c-30.18-2.56-59.67,3.17-83.06,16.13c-20.3,11.26-10.72,61.95-5,92.24c0.78,3.31,4.45,6.91,8.7,11.07c7.15,7,16.05,15.73,17,29.19
			c1.53,22.71-4.25,40.65-8.47,53.75c-1.51,4.35-2.77,8.79-3.78,13.28c-1,5.08,0.07,12.42,3.91,16.63
			c2.67,2.93,6.44,4.18,11.23,3.73C91.94,438.9,93.87,438.82,95.74,438.82z"/>
	</g>
	<g>
		<path class="st0" d="M117.67,167.16c1.79,1.17,6,17.79,10.92,32.9c4.18,13,16,32,24.1,29.73s5.26-25,5.86-28.08
			c3.22-16.7,6.48-34.55,6.48-34.55L117.67,167.16z"/>
	</g>
	<g>
		<path class="st1" d="M151.35,231.97c-9.7,0-20.83-19.41-24.66-31.3c-1.61-5-3.18-10.24-4.56-14.87
			c-2.19-7.32-4.67-15.6-5.71-17.07l-5.42-3.56h56.47l-0.43,2.35c0,0.18-3.3,18.05-6.48,34.56c-0.07,1.37-0.07,2.75,0,4.12
			c0.2,8.73,0.54,23.32-7.27,25.51C152.66,231.89,152.01,231.98,151.35,231.97z M121,169.16c1.1,2.78,2.55,7.49,5,15.5
			c1.38,4.6,2.94,9.82,4.54,14.78c4.45,13.82,15.74,30.09,21.66,28.43c4.83-1.35,4.5-15.52,4.36-21.58c-0.11-1.67-0.08-3.34,0.08-5
			c2.5-13,5-26.77,6-32.17L121,169.16z"/>
	</g>
	<g>
		<ellipse class="st0" cx="80.72" cy="119.75" rx="13.13" ry="17"/>
	</g>
	<g>
		<path class="st1" d="M80.72,138.75c-8.34,0-15.13-8.52-15.13-19s6.79-19,15.13-19s15.12,8.52,15.12,19S89.06,138.75,80.72,138.75z
			 M80.72,104.75c-6.14,0-11.14,6.73-11.14,15s5,15,11.14,15s11.13-6.73,11.13-15S86.86,104.75,80.72,104.75z"/>
	</g>
	<g>
		<path class="st0" d="M207,115.72c-2.2,9.12-7.55,19.5-14.8,19.5s-9.9-10.18-9.9-19.57s5.87-17,13.12-17S209.74,104.15,207,115.72z
			"/>
	</g>
	<g>
		<path class="st1" d="M192.15,137.22c-8.74,0-11.85-11.14-11.85-21.57s6.79-19,15.12-19c4.34-0.11,8.49,1.78,11.25,5.14
			c2,2.52,4,7.07,2.22,14.39l0,0C206.55,125.89,200.76,137.22,192.15,137.22z M195.42,100.65c-6.13,0-11.13,6.73-11.13,15
			c0,8.11,2.06,17.58,7.86,17.58s10.77-9.32,12.86-18l0,0c1.1-4.56,0.59-8.36-1.47-11C201.53,101.86,198.54,100.54,195.42,100.65z"
			/>
	</g>
	<g>
		<path class="st3" d="M192.15,73.47"/>
	</g>
	<g>
		<path class="st0" d="M140.88,10.04c-35.88,0-57.29,25.77-56.38,93.73c0.26,19.16,6.79,36.05,12.56,47.33
			c14.83,29,36.88,33,44.86,33c6.33,0,35.4-9.07,45.48-44.07c3-10.47,8.27-26,8.76-40.9C198.28,35.23,183.18,10.04,140.88,10.04z"/>
	</g>
	<g>
		<path class="st1" d="M141.92,186.12c-4.87,0-30-1.65-46.64-34.12c-5.68-11.1-12.51-28.48-12.77-48.21
			C82,63.92,88.93,37.22,103.77,22.18c9.23-9.35,21.71-14.09,37.11-14.09c17.95,0,31.12,4.55,40.12,13.95
			c13.18,13.62,18.46,37.43,17.14,77.22c-0.43,13.1-4.52,26.83-7.5,36.86c-0.47,1.59-0.92,3.1-1.33,4.52
			C179.43,174.91,150.71,186.12,141.92,186.12z M140.92,12.12c-14.49,0-25.7,4.22-34.27,12.9C92.75,39.04,86,65.53,86.5,103.74
			c0.25,19,6.84,35.72,12.33,46.45c15.55,30.4,38.63,31.94,43.09,31.94c4.86,0,33.55-7.86,43.57-42.64
			c0.41-1.42,0.86-2.94,1.34-4.55c2.92-9.82,6.92-23.27,7.34-35.85c1.26-38.1-3.83-61.71-16-74.32
			c-8.29-8.54-20.48-12.73-37.29-12.73L140.92,12.12z"/>
	</g>
	<g>
		<path class="st1" d="M182.79,81.09c0.18,0.06,0.37-0.04,0.43-0.22c0.04-0.13,0.01-0.26-0.09-0.35c-2.96-2.65-6.64-4.33-10.58-4.84
			c-8.27-0.83-16.87,1.57-20.2,2.65c-0.85,0.26-1.37,1.13-1.2,2c0.11,0.54,0.24,1.17,0.39,1.78c0.25,0.93,1.21,1.49,2.14,1.24
			c0.04-0.01,0.07-0.02,0.11-0.03c5.81-1.97,11.87-3.14,18-3.49C177.5,79.62,180.93,80.4,182.79,81.09z"/>
	</g>
	<g>
		<path class="st1" d="M97.52,81.57c-0.17,0.08-0.37,0-0.45-0.17c-0.06-0.14-0.03-0.31,0.09-0.4c2.88-2.73,6.52-4.53,10.44-5.16
			c8.23-1.08,16.9,1.06,20.27,2c0.87,0.24,1.41,1.11,1.25,2c-0.08,0.55-0.2,1.18-0.33,1.78c-0.21,0.94-1.14,1.53-2.08,1.31
			c-0.04-0.01-0.09-0.02-0.13-0.03c-5.86-1.79-11.94-2.77-18.07-2.93C102.77,79.94,99.37,80.82,97.52,81.57z"/>
	</g>
	<g>
		<path class="st3" d="M111.12,73.1"/>
	</g>
	<g>
		<path class="st3" d="M113.05,73.04"/>
	</g>
	<g>
		<path class="st1" d="M140,133.11c-0.67,0.01-1.34-0.04-2-0.16c-3.05-0.62-5.15-1.88-6.22-3.75c-1.71-3-0.46-6.63,0.54-9.58
			c0.24-0.69,0.46-1.35,0.62-2c1.14-4.17,3-15,3-15.14c0.12-0.72,0.79-1.21,1.51-1.09c0.01,0,0.01,0,0.02,0
			c0.72,0.13,1.21,0.81,1.09,1.54c-0.08,0.45-1.88,11.09-3.05,15.39c-0.18,0.64-0.42,1.36-0.67,2.11c-0.87,2.56-1.86,5.47-0.75,7.4
			c0.67,1.17,2.17,2,4.44,2.46c1.18,0.14,2.37,0.14,3.55,0c0.73-0.06,1.37,0.49,1.43,1.22c0.06,0.69-0.43,1.31-1.12,1.42
			C141.6,133.03,140.8,133.09,140,133.11z"/>
	</g>
	<g>
		<path class="st1" d="M136.33,5.63c0,0,0.5,14.69,8.77,18.24s39,7,51.06,76.86c0,0,11.39-18.64,9.85-39.41
			C204,34.22,181.11,1.69,136.33,5.63z"/>
	</g>
	<g>
		<path class="st1" d="M122.58,28.04c0,0-11.58,4.34-13.91,26.68c-1.3,12.47-8.66,48.66-26,62.55c-13,10.4-11.33-33.65-11.33-33.65
			l42.51-59.89L122.58,28.04z"/>
	</g>
	<g>
		<path class="st0" d="M159.15,91.89c0,0-3.45,0.31-5.11-1.58"/>
	</g>
	<g>
		<path class="st1" d="M158.55,93.24c-1.29,0-3.92-0.24-5.51-2.06c-0.46-0.57-0.37-1.41,0.21-1.87c0.54-0.43,1.32-0.38,1.79,0.12
			c1,1.13,3.27,1.2,4,1.14c0.73-0.07,1.37,0.46,1.44,1.19c0,0,0,0.01,0,0.01c0.06,0.73-0.48,1.38-1.21,1.45
			C159.17,93.22,158.91,93.24,158.55,93.24z"/>
	</g>
	<g>
		<path class="st2" d="M89.05,260.25c0,0-14.64,47.4-8.75,53.46c6.45,6.63,37.3,2,54.7-0.1c4.29-0.51,8.42,1.45,9.26,5.68l6.62,29.1
			c0.73,3.63-1.35,7.23-4.85,8.43c-20.74,7.09-91.9,18.2-107.4,5.07c-17.51-14.85-13.48-58.63,1.12-118
			c2.9-11.81,14.55-29.3,48.75-35.18"/>
	</g>
	<g>
		<path class="st1" d="M69.4,369.91c-14.36,0-26.47-1.77-32.06-6.5c-16.61-14.08-16.47-51.09,0.47-120c2.16-8.8,11.4-30,50.35-36.68
			c1.07-0.27,2.16,0.38,2.43,1.45c0.27,1.07-0.38,2.16-1.45,2.43c-0.1,0.02-0.2,0.04-0.3,0.05c-36.63,6.31-45.18,25.67-47.15,33.7
			c-10.27,41.73-21.62,99.17-1.77,116c6.19,5.24,24.51,6.91,50.26,4.58c22.89-2.07,45.52-6.71,55.2-10
			c2.56-0.88,4.07-3.52,3.54-6.17l-6.6-29c-0.68-3.38-4-4.5-7.08-4.14l-5.49,0.68c-24.28,3-44.86,5-50.88-1.17
			c-6.23-6.41,4.76-44.05,8.27-55.44c0.31-1.07,1.43-1.67,2.5-1.36s1.67,1.43,1.36,2.5l0,0c-6.87,22.25-12.35,48.26-9.22,51.47
			c5.12,5.28,31.67,2,47.53,0l5.51-0.68c5.75-0.69,10.46,2.3,11.45,7.27l6.6,29c0.94,4.62-1.69,9.22-6.14,10.77
			C133.23,363.31,97.13,369.91,69.4,369.91z"/>
	</g>
	<g>
		<path class="st1" d="M145.1,11.4c0,0-8.77-13-31.22-6.56C95,10.25,77.33,31.81,63.49,85.09C51.14,132.65,52.17,147.6,56,172.14
			c2.67,17.07-13.8,56.69-3.95,80.65s24.45,25.55,34.3,27.15s19.82-5.19,22.32-7.59s-3-2.39-9.71-5.19s6.81,2,9.71-1.19
			s-5.77-3.6-8.14-10.39c-2.37-6.79,7.38-8.8,10.59-27.76s2.56-42.91-5.2-58.48s-13.27-17-18.39-50s13.87-101.2,57.57-95.47V11.4z"
			/>
	</g>
	<g>
		<path class="st4" d="M186.39,313.04l6.94,9.31c0.35,0.48,0.25,1.16-0.23,1.51c-0.27,0.2-0.61,0.26-0.93,0.17L181,320.91
			l-65.13-44.82c-1.42-0.98-1.78-2.92-0.8-4.34c0,0,0,0,0,0l1.86-2.7c0.98-1.42,2.92-1.78,4.34-0.8c0,0,0,0,0,0L186.39,313.04z"/>
	</g>
	<g>
		<path class="st1" d="M192.48,325.44c-0.23,0-0.45-0.03-0.67-0.1l-11.18-3.15c-0.14-0.04-0.27-0.11-0.39-0.19l-65.12-44.81
			c-1.99-1.4-2.49-4.14-1.12-6.15l1.86-2.7c1.39-2.02,4.16-2.53,6.19-1.14c0,0,0,0,0,0l65.13,44.81c0.12,0.09,0.22,0.19,0.31,0.3
			l6.94,9.31c0.61,0.84,0.61,1.97,0,2.81C193.99,325.07,193.26,325.44,192.48,325.44z M181.57,319.69l10.26,2.89l-6.37-8.54
			l-64.95-44.69c-0.81-0.56-1.93-0.36-2.49,0.46c0,0,0,0,0,0l-1.85,2.69c-0.28,0.39-0.38,0.87-0.29,1.34
			c0.08,0.47,0.35,0.89,0.75,1.16L181.57,319.69z"/>
	</g>
	<g>
		<path class="st0" d="M145,319.36c0,0,6.78-1.13,11.32-5s7.74-13.54,18-13s16.86,3,21.84,4.15s11.34,14,9.12,16.24
			s-8,0.62-11.06-2.14c-2.97-2.73-6.76-4.38-10.78-4.7c0,0,8.92,2.9,11.06,5.66s8.09,6.23,5.74,10s-7.54,0.27-9.89-1.52
			s-3-2.91-4-3.46s-5.59-2.14-5.59-2.14s5.25,3.18,6.49,4.49s10.51,7.26,7.26,10.92s-7.51,0.18-10.24-1.82s-4.22-2.69-5.12-3.31
			c-1.65-0.81-3.36-1.5-5.11-2.08c2.09,1.18,4.12,2.47,6.08,3.87c0.83,0.83,7.74,3.81,7.54,6s-1,7.05-6.43,4.7s-9.06-6.5-11.34-7.19
			s-6.15,1.38-7.95,2.56s-11,4.1-11,4.1L145,319.36z"/>
	</g>
	<g>
		<path class="st1" d="M183.84,348.89c-1.18-0.03-2.33-0.3-3.4-0.79c-2.87-1.32-5.56-3-8-5c-0.95-0.81-1.99-1.51-3.1-2.07
			c-1-0.32-3.8,0.7-6.27,2.32c-1.93,1.26-9.89,3.83-11.47,4.33c-0.53,0.17-1.11,0.11-1.6-0.16c-0.48-0.28-0.83-0.75-0.95-1.29
			l-6-26.39c-0.12-0.53-0.01-1.09,0.29-1.55c0.3-0.46,0.78-0.77,1.32-0.86c0.07,0,6.3-1.1,10.35-4.57c1.25-1.2,2.38-2.52,3.37-3.94
			c3.37-4.45,7.56-10,16-9.53c6.19,0.38,12.33,1.45,18.28,3.2c1.4,0.37,2.72,0.73,3.89,1c4.59,1,9.1,8.45,10.58,13.43
			c0.88,2.92,0.73,4.93-0.45,6.15c-1.48,1.35-3.49,1.95-5.46,1.63c1.45,2,2.25,4.3,0.67,6.82c-0.79,1.32-2.11,2.23-3.62,2.51
			c-0.66,0.1-1.34,0.1-2,0c0.45,0.77,0.72,1.63,0.81,2.52c0.12,1.28-0.3,2.55-1.17,3.5c-1.5,1.9-3.99,2.72-6.33,2.1
			c-0.16,1.5-0.7,4.54-3.08,5.95C185.7,348.67,184.78,348.91,183.84,348.89z M168.84,336.95c0.54,0,1.08,0.07,1.6,0.22
			c1.6,0.66,3.07,1.58,4.36,2.73c2.2,1.81,4.61,3.33,7.19,4.53c0.73,0.45,1.63,0.57,2.45,0.32c0.34-0.2,0.93-0.87,1.18-3.13
			c-0.6-0.9-3.51-2.54-4.64-3.18c-0.82-0.4-1.6-0.9-2.3-1.48c-1.83-1.28-3.72-2.46-5.67-3.55c-0.94-0.58-1.23-1.81-0.65-2.75
			c0.48-0.78,1.43-1.13,2.3-0.86c1.93,0.61,3.81,1.38,5.6,2.32c0.29,0.2,0.65,0.42,1.1,0.69c0.92,0.57,2.18,1.34,4,2.63l0.67,0.48
			c3.49,2.49,5.31,3.31,6.86,1.56c0.13-0.13,0.2-0.32,0.18-0.51c-0.17-1.88-4.26-5.14-5.8-6.36c-0.56-0.42-1.09-0.88-1.6-1.36
			c-1.92-1.53-3.95-2.92-6.08-4.16c-0.93-0.6-1.2-1.84-0.6-2.76c0.49-0.76,1.42-1.09,2.28-0.83c2.02,0.66,4,1.43,5.94,2.3
			c0.66,0.41,1.26,0.91,1.79,1.47c0.77,0.76,1.59,1.47,2.45,2.13c3.76,2.88,5.57,2.83,6,2.75c0.41-0.07,0.76-0.34,0.95-0.71
			c0.73-1.15-0.44-2.57-3.16-5.11c-0.88-0.79-1.71-1.64-2.47-2.55c-1.21-1.57-6.63-3.87-10.1-5c-1.04-0.37-1.58-1.52-1.2-2.56
			c0.3-0.82,1.09-1.36,1.96-1.32c4.47,0.34,8.7,2.18,12,5.21c2.55,2.31,6.89,3.31,8.17,2.33c0.13-0.77-0.44-3.48-2.44-7
			c-2.13-3.74-4.38-5.73-5.56-6s-2.62-0.64-4.07-1c-5.68-1.67-11.54-2.7-17.45-3.07c-6.33-0.34-9.52,3.88-12.61,8
			c-1.17,1.66-2.51,3.18-4,4.56c-3.01,2.38-6.49,4.09-10.22,5l5.07,22.31c2.88-0.88,5.69-1.95,8.43-3.2
			c1.62-1.07,5.09-3.09,8.12-3.09H168.84z"/>
	</g>
	<g>
		<path class="st5" d="M244.56,398.04l-83.92-0.36c-7.34-0.91-12.55-7.6-11.64-14.94c0,0,0,0,0,0l14.16-113
			c0.92-7.34,7.61-12.54,14.95-11.62l83.92,0.36c7.34,0.92,12.54,7.61,11.62,14.95l-14.16,113
			C258.57,393.76,251.89,398.95,244.56,398.04z"/>
	</g>
	<g>
		<path class="st1" d="M246.26,400.15c-0.61,0-1.22-0.03-1.83-0.1l-84-0.38c-8.43-1.01-14.45-8.67-13.44-17.1
			c0-0.03,0.01-0.05,0.01-0.08l14.16-113c1.05-8.38,8.67-14.35,17.06-13.36l84,0.37c8.43,1.06,14.41,8.75,13.36,17.18l-14.16,113
			c-0.96,7.68-7.49,13.45-15.23,13.47L246.26,400.15z M160.78,395.7l84,0.37c6.24,0.78,11.94-3.64,12.72-9.88c0,0,0,0,0-0.01
			l14.16-113c0.77-6.2-3.59-11.87-9.78-12.71l-84-0.37c-6.24-0.78-11.94,3.64-12.72,9.88c0,0,0,0,0,0.01L151,383.04
			c-0.77,6.2,3.59,11.87,9.78,12.71V395.7z"/>
	</g>
	<g>
		<path class="st0" d="M266.12,335.82c0,0-0.75,8.68-1.72,8.81c-1.89,0.12-3.78,0.07-5.66-0.14c-3.55-0.37-8.78-5.35-11.28-1.94
			c-4.85,6.62,9.79,10,12.49,10.62c1.32,0.58-1.23,1.4-7,0.17c-2.88-0.61-7.1-3.32-8.93,0.27c-2.09,4.09,3.88,6.73,8,8.11
			c2.6,0.98,5.42,1.21,8.14,0.65c0,0-2.52,1.06-5.48,2c-2.58,0.8-11-3.22-11.76,2.67c-0.73,5.71,13.12,6.77,17.72,7
			c0,0-1.95,0.28-6,1.34c-2.74,0.71-9.57-2.93-10.79,1.45c-1.11,4,3.41,7.11,8.44,7.74c6.36,0.8,13.22-2.06,13.81-2.43
			c6.71-4.19,11-9.72,11.63-23.89C278.33,349.2,273.86,340.56,266.12,335.82z"/>
	</g>
	<g>
		<path class="st1" d="M254.48,386.04c-0.82,0-1.63-0.05-2.44-0.15c-3.82-0.48-7.17-2.24-8.75-4.6c-0.97-1.4-1.26-3.17-0.8-4.81
			c0.73-2.63,2.82-3.22,5-3.16c-1.85-0.51-3.53-1.51-4.87-2.89c-0.85-0.98-1.24-2.27-1.08-3.56c0.1-1.33,0.76-2.55,1.81-3.37
			c2-1.53,5-1.08,7.7-0.66c-4.79-1.68-7.57-3.61-8.49-5.87c-0.51-1.28-0.42-2.73,0.24-3.94c1.56-3.06,4.38-2.79,6.77-2.11
			c-2.21-1.24-3.58-2.63-4.14-4.17c-0.6-1.72-0.24-3.62,0.95-5c2.27-3.11,5.88-1.39,8.78,0c1.16,0.64,2.41,1.12,3.71,1.4
			c1.59,0.17,3.19,0.23,4.79,0.18c0.57-2.52,0.94-5.07,1.13-7.64c0.05-0.73,0.69-1.27,1.41-1.22c0.19,0.01,0.37,0.07,0.54,0.16
			c0.53,0.29,12.95,7.17,12.23,23.64c-0.66,14.77-5.37,20.66-12.26,25C262.87,385.03,258.71,385.98,254.48,386.04z M247.14,375.96
			c-1.2,0-1.84,0.35-2.08,1.23c-0.27,0.9-0.1,1.86,0.45,2.62c1.14,1.71,3.83,3.07,6.86,3.44c5.88,0.74,12.26-1.85,13-2.25
			c6.33-3.95,10.39-9.15,11-22.8c0.53-7.77-2.89-15.29-9.09-20c-0.8,7.54-1.78,7.68-2.65,7.8c-2,0.13-4.01,0.09-6-0.13
			c-1.6-0.31-3.14-0.86-4.57-1.65c-3.18-1.52-4.65-2-5.49-0.83c-0.64,0.65-0.87,1.61-0.59,2.48c0.45,1.26,2.64,3.71,12.09,6
			l0.24,0.06c0.08,0.02,0.15,0.04,0.22,0.08c0.84,0.27,1.31,1.16,1.06,2c-0.68,2.11-5.87,1.34-8.9,0.7
			c-0.78-0.19-1.55-0.42-2.3-0.69c-3.17-1.09-4.42-1.21-5.17,0.27c-0.31,0.53-0.36,1.16-0.14,1.73c0.35,0.88,1.78,2.63,7.36,4.51
			c2.37,0.91,4.96,1.12,7.45,0.6c0.72-0.15,1.42,0.32,1.57,1.04c0.13,0.62-0.2,1.25-0.79,1.49c-0.11,0.05-2.62,1.1-5.6,2
			c-1.42,0.24-2.88,0.19-4.28-0.16c-2.07-0.33-4.63-0.73-5.8,0.14c-0.46,0.4-0.74,0.98-0.76,1.59c-0.07,0.55,0.1,1.1,0.48,1.51
			c1.74,2.08,7.71,3.57,16,4c0.73,0.05,1.29,0.69,1.24,1.42c-0.04,0.62-0.5,1.12-1.12,1.22c0,0-1.95,0.29-5.89,1.31
			c-1.47,0.21-2.97,0.11-4.4-0.28c-1.12-0.25-2.26-0.41-3.4-0.47V375.96z"/>
		<path class="st1" d="M254.49,386.54L254.49,386.54c-0.84,0-1.68-0.05-2.5-0.15c-3.96-0.5-7.45-2.34-9.1-4.82
			c-1.05-1.53-1.37-3.43-0.87-5.22c0.49-1.77,1.61-2.88,3.33-3.31c-1.14-0.57-2.19-1.33-3.08-2.25c-0.96-1.11-1.4-2.54-1.22-3.97
			c0.11-1.44,0.84-2.8,2-3.7c1.26-0.97,2.86-1.21,4.48-1.17c-2.91-1.4-4.69-2.98-5.43-4.78c-0.57-1.43-0.47-3.02,0.26-4.37
			c1.21-2.37,3.12-2.9,4.93-2.8c-1.15-0.94-1.93-1.97-2.33-3.07c-0.66-1.89-0.26-3.99,1.04-5.5c2.5-3.42,6.47-1.52,9.37-0.12
			c1.15,0.64,2.35,1.09,3.6,1.36c1.38,0.14,2.83,0.21,4.28,0.18c0.51-2.36,0.86-4.77,1.04-7.19c0.04-0.49,0.26-0.93,0.63-1.25
			c0.37-0.32,0.85-0.47,1.32-0.44c0.26,0.02,0.51,0.09,0.74,0.22c0.54,0.29,13.22,7.43,12.49,24.1
			c-0.67,14.97-5.48,20.98-12.49,25.4C262.99,385.53,258.81,386.47,254.49,386.54L254.49,386.54z M247.21,373.82
			c-2.36,0-3.71,0.89-4.24,2.8c-0.42,1.51-0.16,3.11,0.73,4.39c1.5,2.25,4.72,3.93,8.4,4.39c0.78,0.1,1.58,0.15,2.37,0.15
			c4.18-0.07,8.23-0.98,12.03-2.72c6.69-4.22,11.32-10.03,11.97-24.57c0.7-16.06-11.45-22.9-11.97-23.18
			c-0.1-0.06-0.21-0.09-0.33-0.1c-0.23-0.02-0.43,0.05-0.6,0.2c-0.17,0.14-0.27,0.34-0.28,0.56c-0.19,2.59-0.57,5.19-1.14,7.71
			l-0.09,0.38l-0.39,0.01c-1.62,0.04-3.25-0.01-4.86-0.18c-1.4-0.3-2.69-0.79-3.9-1.46c-3.45-1.65-6.25-2.72-8.13-0.14
			c-1.09,1.27-1.42,3-0.88,4.54c0.52,1.42,1.83,2.73,3.91,3.9l3.71,2.08l-4.09-1.17c-3.21-0.91-5.06-0.36-6.19,1.86
			c-0.6,1.1-0.68,2.38-0.22,3.53c0.87,2.13,3.54,3.95,8.19,5.58l-0.24,0.97c-2.56-0.4-5.47-0.85-7.32,0.56
			c-0.93,0.73-1.52,1.83-1.62,3.01c-0.15,1.17,0.2,2.32,0.96,3.19c1.25,1.29,2.86,2.25,4.62,2.74l3.96,1.09l-4.11-0.11
			C247.39,373.82,247.3,373.82,247.21,373.82z M254.58,383.89c-0.76,0-1.52-0.04-2.27-0.14c-3.16-0.39-5.99-1.82-7.21-3.66
			c-0.63-0.86-0.82-2-0.51-3.04c0.32-1.17,1.24-1.49,2.06-1.57v-0.07l0.53,0.03c1.17,0.06,2.34,0.22,3.48,0.48
			c1.4,0.38,2.81,0.47,4.22,0.27c3.87-1,5.81-1.3,5.89-1.31c0.38-0.06,0.66-0.38,0.69-0.76c0.02-0.22-0.06-0.44-0.2-0.6
			s-0.35-0.27-0.57-0.28c-8.54-0.44-14.5-1.97-16.35-4.18c-0.46-0.5-0.68-1.2-0.59-1.9c0.02-0.7,0.36-1.41,0.93-1.9
			c1.38-1.02,4.05-0.6,6.21-0.26c1.38,0.34,2.75,0.4,4.12,0.16c2.94-0.89,5.46-1.95,5.48-1.96c0.38-0.16,0.58-0.55,0.5-0.94
			c-0.09-0.45-0.54-0.74-0.98-0.65c-2.59,0.53-5.26,0.32-7.73-0.62c-5.47-1.84-7.18-3.62-7.65-4.79c-0.28-0.72-0.21-1.51,0.17-2.17
			c0.99-1.96,2.92-1.47,5.76-0.49c0.74,0.27,1.5,0.49,2.25,0.68c4.79,1.01,7.9,0.88,8.31-0.37c0.17-0.58-0.15-1.18-0.74-1.37
			l-0.43-0.13c-9.21-2.23-11.85-4.67-12.44-6.32c-0.34-1.07-0.07-2.21,0.7-3c1.07-1.5,3.01-0.73,6.06,0.73
			c1.41,0.78,2.9,1.31,4.45,1.61c1.92,0.21,3.9,0.25,5.87,0.12c0.55-0.08,1.43-0.2,2.19-7.35l0.09-0.88l0.71,0.54
			c6.36,4.83,9.83,12.47,9.29,20.43c-0.62,13.86-4.76,19.15-11.23,23.19C264.8,381.88,259.81,383.89,254.58,383.89z M247.34,376.46
			l-0.2,0.01c-1.13,0-1.45,0.33-1.6,0.86c-0.22,0.75-0.08,1.57,0.37,2.19c1.08,1.62,3.63,2.89,6.52,3.24
			c5.7,0.72,11.96-1.79,12.7-2.19c6.17-3.85,10.14-8.95,10.74-22.38c0.5-7.34-2.55-14.39-8.19-19.03c-0.76,6.54-1.68,7.17-2.98,7.34
			c-2.06,0.14-4.11,0.09-6.12-0.13c-1.7-0.32-3.28-0.9-4.76-1.71c-3.23-1.54-4.28-1.76-4.84-0.98c-0.56,0.58-0.74,1.34-0.52,2.04
			c0.33,0.92,2.14,3.34,11.73,5.67l0.24,0.06c0.11,0.02,0.23,0.07,0.34,0.13c1.02,0.32,1.63,1.47,1.3,2.58
			c-0.61,1.9-3.8,2.25-9.48,1.05c-0.81-0.19-1.6-0.43-2.37-0.71c-3.31-1.14-4.04-0.99-4.55,0.03c-0.25,0.42-0.29,0.9-0.12,1.32
			c0.25,0.64,1.45,2.33,7.05,4.22c2.31,0.88,4.79,1.08,7.19,0.58c0.48-0.1,0.97,0,1.38,0.26c0.41,0.27,0.69,0.68,0.79,1.16
			c0.17,0.85-0.28,1.72-1.09,2.06c-0.25,0.11-2.79,1.15-5.65,2.02c-1.56,0.27-3.07,0.21-4.54-0.15c-1.82-0.29-4.37-0.69-5.38,0.06
			c-0.33,0.29-0.54,0.73-0.56,1.21c-0.06,0.45,0.07,0.85,0.35,1.15c1.64,1.96,7.63,3.42,15.66,3.84c0.5,0.03,0.94,0.25,1.26,0.62
			c0.32,0.37,0.48,0.84,0.45,1.33c-0.06,0.85-0.69,1.54-1.53,1.68c-0.03,0-1.98,0.3-5.85,1.3c-1.6,0.23-3.15,0.13-4.66-0.28
			C249.42,376.67,248.38,376.52,247.34,376.46z"/>
	</g>
	<g>
		<path class="st1" d="M140.41,154.56c-4.02-0.11-7.89-1.61-10.93-4.25c-0.55-0.5-0.59-1.35-0.1-1.9s1.35-0.59,1.9-0.1
			c2.56,2.17,5.77,3.41,9.12,3.54c3.61,0.01,7.09-1.34,9.75-3.78c0.51-0.52,1.36-0.53,1.88-0.02c0.51,0.5,0.53,1.32,0.05,1.85
			C148.95,152.91,144.76,154.58,140.41,154.56z"/>
	</g>
	<g>
		<path class="st1" d="M177.14,98.7c-0.24,0-0.48-0.07-0.69-0.19c-1.44-0.93-2.73-2.08-3.82-3.41c-1.76-2-3.15-3.51-7.16-3.89
			c-7.18-0.68-9.41,4.86-9.5,5.09c-0.26,0.69-1.03,1.03-1.71,0.78c-0.69-0.26-1.03-1.03-0.78-1.72l0,0c1-2.66,4.84-7.5,12.24-6.8
			c5.05,0.48,7.09,2.76,8.89,4.77c0.91,1.13,2,2.11,3.22,2.9c0.63,0.38,0.83,1.2,0.45,1.83C178.05,98.46,177.61,98.7,177.14,98.7
			L177.14,98.7z"/>
	</g>
	<g>
		<ellipse class="st1" cx="111.84" cy="98.15" rx="6.19" ry="8"/>
	</g>
	<g>
		<ellipse class="st1" cx="162.78" cy="98.15" rx="6.19" ry="8"/>
	</g>
	<g>
		<path class="st0" d="M108.7,91.27c0,0-3.5,0.75-5.19-2"/>
	</g>
	<g>
		<path class="st1" d="M107.62,92.69c-2.11,0.1-4.11-0.95-5.24-2.74c-0.38-0.63-0.19-1.45,0.44-1.83c0.63-0.38,1.45-0.19,1.83,0.44
			c1.16,1.91,3.67,1.43,3.78,1.41c0.72-0.12,1.41,0.37,1.53,1.09c0.11,0.68-0.31,1.34-0.98,1.51
			C108.53,92.65,108.08,92.69,107.62,92.69z"/>
	</g>
	<g>
		<path class="st1" d="M124.83,98.7c-0.32,0-0.62-0.11-0.86-0.32c-1.04-0.92-1.97-1.95-2.77-3.08c-1.57-2.06-2.8-3.68-7.12-4.09
			c-7.17-0.69-9.4,4.86-9.49,5.09c-0.26,0.69-1.03,1.03-1.71,0.77c-0.69-0.26-1.03-1.03-0.78-1.71l0,0c1-2.66,4.86-7.5,12.23-6.8
			c5.48,0.52,7.26,2.86,9,5.14c0.69,0.97,1.48,1.86,2.37,2.65c0.56,0.47,0.64,1.31,0.17,1.87c-0.25,0.3-0.63,0.48-1.03,0.48
			L124.83,98.7z"/>
	</g>
	<g>
		<path class="st1" d="M76.28,491.62c-3.13-30.83,4.29-52,4.36-52.16c0.45-1.01,0-2.19-1.01-2.64s-2.19,0-2.64,1.01
			c-0.04,0.09-0.07,0.18-0.1,0.28c-0.32,0.89-7.8,22.13-4.58,53.93l0.09,0.87h4C76.37,492.47,76.32,492.04,76.28,491.62z"/>
	</g>
	<g>
		<path class="st1" d="M222.87,438.04c-0.09-1.1-1.06-1.93-2.16-1.84c-1.1,0.09-1.93,1.06-1.84,2.17c0,0.28,1.6,19.87,1,54.53h4
			C224.48,458.04,222.89,438.32,222.87,438.04z"/>
	</g>
</g>
</svg>
