<svg width="20" height="20" viewBox="0 0 20 20" fill="none" xmlns="http://www.w3.org/2000/svg">
<g clip-path="url(#clip0_1155_136)">
<path d="M15 10L12.5 10L15.8334 13.3333L19.1667 10L16.6667 10C16.6667 6.31667 13.6834 3.33334 10 3.33334C8.69169 3.33334 7.47502 3.71667 6.45002 4.36667L7.66669 5.58334C8.35835 5.20834 9.15835 5 10 5C12.7584 5 15 7.24167 15 10ZM13.55 15.6333L12.3334 14.4167C11.6334 14.7833 10.8417 15 10 15C7.24169 15 5.00002 12.7583 5.00002 10L7.50002 10L4.16669 6.66667L0.833355 10L3.33335 10C3.33335 13.6833 6.31669 16.6667 10 16.6667C11.3084 16.6667 12.525 16.2833 13.55 15.6333Z" fill="#5B5B5B"/>
</g>
<defs>
<clipPath id="clip0_1155_136">
<rect width="20" height="20" fill="white" transform="translate(20) rotate(90)"/>
</clipPath>
</defs>
</svg>
