<svg width="335" height="108" viewBox="0 0 335 108" fill="none" xmlns="http://www.w3.org/2000/svg">
<path fill-rule="evenodd" clip-rule="evenodd" d="M268.757 0L216.857 76.5393C212.518 82.9388 214.188 91.6443 220.587 95.9837C226.987 100.323 235.692 98.653 240.032 92.2535L302.587 0H311.066L287.857 34.2271C283.518 40.6266 285.188 49.3322 291.587 53.6715C297.987 58.0109 306.692 56.3409 311.032 49.9414L334.465 15.3837C334.815 16.8656 335 18.4112 335 20V88C335 99.0457 326.046 108 315 108H52.231L55.4157 103.303C59.7551 96.9039 58.085 88.1983 51.6855 83.8589C45.2861 79.5195 36.5805 81.1896 32.2411 87.5891L18.4414 107.94C8.12412 107.145 0 98.5212 0 88V0H268.757Z" fill="#D7C4FF"/>
</svg>
