<?xml version="1.0" encoding="utf-8"?>
<!-- Generator: Adobe Illustrator 26.5.0, SVG Export Plug-In . SVG Version: 6.00 Build 0)  -->
<svg version="1.1" id="레이어_1" xmlns="http://www.w3.org/2000/svg" xmlns:xlink="http://www.w3.org/1999/xlink" x="0px"
	 y="0px" viewBox="0 0 346 249.6" style="enable-background:new 0 0 346 249.6;" xml:space="preserve">
<style type="text/css">
	.st0{fill-rule:evenodd;clip-rule:evenodd;fill:#FFDDDD;}
	.st1{fill:#FFFFFF;filter:url(#Adobe_OpacityMaskFilter);}
	.st2{mask:url(#path-2-inside-1_8279_204_00000054265101212799642760000012870878725903914399_);fill:#FF87B2;}
	.st3{fill:#FFFFFF;fill-opacity:0.7;}
	.st4{fill:#FFFFFF;filter:url(#Adobe_OpacityMaskFilter_00000122706281696965852660000017642605951967393471_);}
	.st5{mask:url(#path-4-inside-2_8279_204_00000013897677445523799200000010349385008356142217_);fill:#FF87B2;}
	.st6{fill:none;stroke:#FFD7E8;}
	.st7{fill:#EF075B;}
	.st8{fill:#FF5391;}
	.st9{fill:#FFE600;}
	.st10{fill:#00978E;}
	.st11{fill:#5B5B5B;}
</style>
<path class="st0" d="M27.9,43.8c-11,0.6-19.4,10.1-18.8,21.1l9.5,163.2c0.6,11,10.1,19.4,21.1,18.8l278.9-16.3
	c11-0.6,19.4-10.1,18.8-21.1L328,46.3c-0.6-11-10.1-19.4-21.1-18.8L27.9,43.8z M300.5,61.2c3.3,0.1,6.1-2.4,6.3-5.7
	c0.2-3.3-2.4-6.1-5.7-6.3s-6.1,2.4-6.3,5.7C294.6,58.2,297.2,61,300.5,61.2z"/>
<defs>
	<filter id="Adobe_OpacityMaskFilter" filterUnits="userSpaceOnUse" x="13.9" y="33.4" width="317.1" height="207.3">
		<feColorMatrix  type="matrix" values="1 0 0 0 0  0 1 0 0 0  0 0 1 0 0  0 0 0 1 0"/>
	</filter>
</defs>
<mask maskUnits="userSpaceOnUse" x="13.9" y="33.4" width="317.1" height="207.3" id="path-2-inside-1_8279_204_00000054265101212799642760000012870878725903914399_">
	<path class="st1" d="M15.9,71.2c-0.7-11,7.7-20.5,18.7-21.1l264-14.7c11-0.6,20.5,7.8,21.2,18.9l9.1,148.6
		c0.7,11-7.7,20.5-18.7,21.1l-264,14.7c-11,0.6-20.5-7.8-21.2-18.9L15.9,71.2z"/>
</mask>
<path class="st2" d="M46.2,238.7l-0.1-2L46.2,238.7z M329,202.9l2-0.1L329,202.9z M310.2,224l0.1,2L310.2,224z M298.7,35.5l-0.1-2
	L298.7,35.5z M319.9,54.3l-2,0.1L319.9,54.3z M34.7,50.1l0.1,2L34.7,50.1z M15.9,71.2l-2,0.1L15.9,71.2z M34.8,52.1l264-14.7l-0.2-4
	l-264,14.7L34.8,52.1z M317.9,54.4L327,203l4-0.2l-9.1-148.6L317.9,54.4z M310.1,222l-264,14.7l0.2,4l264-14.7L310.1,222z M27,219.7
	L17.9,71.1l-4,0.2L23,219.9L27,219.7z M46.1,236.7c-9.9,0.6-18.5-7.1-19.1-17l-4,0.2c0.7,12.1,11.2,21.4,23.3,20.7L46.1,236.7z
	 M327,203c0.6,9.9-6.9,18.4-16.9,19l0.2,4c12.1-0.7,21.4-11.1,20.6-23.2L327,203z M298.8,37.5c9.9-0.6,18.5,7.1,19.1,17l4-0.2
	c-0.7-12.1-11.2-21.4-23.3-20.7L298.8,37.5z M34.6,48.1c-12.1,0.7-21.4,11.1-20.6,23.2l4-0.2c-0.6-9.9,6.9-18.4,16.9-19L34.6,48.1z"
	/>
<path class="st3" d="M15.9,71.2c-0.7-11,7.7-20.5,18.7-21.1l264-14.7c11-0.6,20.5,7.8,21.2,18.9l9.1,148.6
	c0.7,11-7.7,20.5-18.7,21.1l-264,14.7c-11,0.6-20.5-7.8-21.2-18.9L15.9,71.2z"/>
<defs>
	
		<filter id="Adobe_OpacityMaskFilter_00000062875549605668481930000007481826091287278518_" filterUnits="userSpaceOnUse" x="13.9" y="33.4" width="317.1" height="207.3">
		<feColorMatrix  type="matrix" values="1 0 0 0 0  0 1 0 0 0  0 0 1 0 0  0 0 0 1 0"/>
	</filter>
</defs>
<mask maskUnits="userSpaceOnUse" x="13.9" y="33.4" width="317.1" height="207.3" id="path-4-inside-2_8279_204_00000013897677445523799200000010349385008356142217_">
	<path style="fill:#FFFFFF;filter:url(#Adobe_OpacityMaskFilter_00000062875549605668481930000007481826091287278518_);" d="
		M15.9,71.2c-0.7-11,7.7-20.5,18.7-21.1l264-14.7c11-0.6,20.5,7.8,21.2,18.9l9.1,148.6c0.7,11-7.7,20.5-18.7,21.1l-264,14.7
		c-11,0.6-20.5-7.8-21.2-18.9L15.9,71.2z"/>
</mask>
<path class="st5" d="M46.2,238.7l-0.1-2L46.2,238.7z M329,202.9l2-0.1L329,202.9z M310.2,224l0.1,2L310.2,224z M298.7,35.5l-0.1-2
	L298.7,35.5z M319.9,54.3l-2,0.1L319.9,54.3z M34.7,50.1l0.1,2L34.7,50.1z M15.9,71.2l-2,0.1L15.9,71.2z M34.8,52.1l264-14.7l-0.2-4
	l-264,14.7L34.8,52.1z M317.9,54.4L327,203l4-0.2l-9.1-148.6L317.9,54.4z M310.1,222l-264,14.7l0.2,4l264-14.7L310.1,222z M27,219.7
	L17.9,71.1l-4,0.2L23,219.9L27,219.7z M46.1,236.7c-9.9,0.6-18.5-7.1-19.1-17l-4,0.2c0.7,12.1,11.2,21.4,23.3,20.7L46.1,236.7z
	 M327,203c0.6,9.9-6.9,18.4-16.9,19l0.2,4c12.1-0.7,21.4-11.1,20.6-23.2L327,203z M298.8,37.5c9.9-0.6,18.5,7.1,19.1,17l4-0.2
	c-0.7-12.1-11.2-21.4-23.3-20.7L298.8,37.5z M34.6,48.1c-12.1,0.7-21.4,11.1-20.6,23.2l4-0.2c-0.6-9.9,6.9-18.4,16.9-19L34.6,48.1z"
	/>
<circle class="st6" cx="300.5" cy="55.5" r="6"/>
<path class="st7" d="M327.3,20.6l9.3,9.4l-30.2,24.3l-4.5-4.2L327.3,20.6z"/>
<path class="st7" d="M307.3,52.1c0,1.7-1.5,3-3.2,3c-1.7,0-3.1-1.4-3-3.1c0-1.7,1.5-3,3.2-3C306,49,307.3,50.4,307.3,52.1z"/>
<path class="st8" d="M312.8,0.3l12.4,3.4l-20,50.1l-6.1-1.2L312.8,0.3z"/>
<path class="st8" d="M305.3,53c0,1.7-1.5,3.1-3.2,3c-1.7,0-3.1-1.5-3-3.2c0-1.7,1.5-3.1,3.2-3C304,49.9,305.3,51.3,305.3,53z"/>
<path class="st9" d="M89,92.3h169l-9,10H80L89,92.3z"/>
<path class="st10" d="M95.9,85.8h1.4v7.8c-0.4,0-0.9,0.1-1.4,0.1V85.8z M99.6,85.8h1.2v-2.1h-8.4v2.1h1.1v7.9c-0.5,0-1,0-1.4,0
	l0.3,2.1c2.3,0,6-0.1,8.9-0.7l-0.2-1.9c-0.4,0.1-0.9,0.1-1.4,0.2V85.8z M102.1,88.3h-1.8v2.3h1.8v8.6h2.5V82h-2.5V88.3z M105.8,81.6
	V100h2.5V81.6H105.8z M115.7,93.6c-1.3,0-2.2-1.5-2.2-4.2c0-2.7,0.9-4.2,2.2-4.2c1.4,0,2.3,1.5,2.3,4.2
	C118,92.2,117.1,93.6,115.7,93.6z M123.5,81.6v6.6h-3.1c-0.4-3.3-2.2-5.3-4.7-5.3c-2.7,0-4.8,2.5-4.8,6.6c0,4.1,2,6.6,4.8,6.6
	c2.6,0,4.4-2.2,4.7-5.7h3.1v9.7h2.6V81.6H123.5z M141.9,95.1h2.6V81.6h-2.6V86H139v2.2h2.9V95.1z M139.3,90.2
	c-2.2,0.3-4.1,0.4-6.9,0.4v-2h5.7v-5.9h-8.3v2.1h5.7v1.8h-5.7v6.1h1.5c3.5,0,5.7-0.1,8.2-0.5L139.3,90.2z M134.9,97.6v-3.5h-2.6v5.6
	H145v-2.1H134.9z M162.8,81.6h-2.7v11.2h2.7V81.6z M158.6,89.4c-2.3,0.3-4.3,0.4-7.5,0.4v-1.4h5.7v-2h-5.7v-1.4h6.2v-2.1h-8.9v9.1
	h1.6c3.9,0,6.2-0.1,8.8-0.5L158.6,89.4z M156.6,98c-2.4,0-3.7-0.5-3.7-1.5c0-1,1.3-1.5,3.7-1.5c2.4,0,3.7,0.5,3.7,1.5
	C160.2,97.5,159,98,156.6,98z M156.6,93c-3.9,0-6.3,1.3-6.3,3.5c0,2.2,2.4,3.5,6.3,3.5s6.3-1.3,6.3-3.5
	C162.9,94.3,160.5,93,156.6,93z M175.3,96.7h10.4v-4.9h-13v2h10.4v1h-10.4v5h13.6v-2h-11V96.7z M185.3,88.7c0.3-1.9,0.3-3.4,0.3-4.8
	v-1.6h-12.7v2H183c0,0.3,0,0.7,0,1.1l-10.6,0.2l0.3,2l10.2-0.4c-0.1,0.5-0.1,1-0.2,1.5h-11.7v2.1h16.6v-2.1H185.3z M192.3,90.5h4.4
	v-7.1h-7v2.1h4.4v2.9h-4.4v7.5h1.3c2.2,0,4.2-0.1,6.6-0.4l-0.2-2.1c-1.8,0.3-3.4,0.4-5.1,0.4V90.5z M202.6,81.6v7h-1.7v-6.6h-2.5
	v17.2h2.5v-8.5h1.7v9.3h2.5V81.6H202.6z M223.8,90.3c-4.2-0.7-6.4-3.6-6.4-6.3v-1.3h-2.8V84c0,2.6-2.3,5.6-6.4,6.3l1.1,2.2
	c3.2-0.6,5.5-2.4,6.7-4.8c1.2,2.3,3.5,4.1,6.7,4.8L223.8,90.3z M207.7,95.6v2.1h16.7v-2.1H207.7z"/>
<path class="st11" d="M236.7,89.9c-2.3,0.4-4.3,0.5-7.3,0.6v-1.9h5.8v-5.8h-8.4v2.1h5.8v1.7h-5.8v6h1.6c3.7,0,6-0.1,8.6-0.6
	L236.7,89.9z M231.4,94.1h-2.6v5.6h12.5v-2.1h-9.8V94.1z M240.6,86.9v-5.3h-2.6v13.6h2.6V89h2.4v-2.2H240.6z M249.5,93.9H247
	c0-0.6,0.1-1.1,0.1-1.5c0.1-0.4,0.2-0.8,0.5-1.2c0.2-0.3,0.5-0.7,0.9-1c0.3-0.3,0.6-0.5,0.8-0.8c0.2-0.2,0.4-0.5,0.5-0.8
	c0.1-0.3,0.2-0.6,0.2-0.9c0-0.4-0.1-0.7-0.2-0.9c-0.1-0.3-0.3-0.4-0.5-0.6c-0.2-0.1-0.5-0.2-0.8-0.2c-0.3,0-0.5,0.1-0.8,0.2
	c-0.2,0.1-0.4,0.3-0.6,0.5c-0.1,0.2-0.2,0.6-0.2,1H244c0-0.9,0.2-1.6,0.6-2.2c0.4-0.6,0.9-1,1.6-1.3c0.7-0.3,1.4-0.4,2.2-0.4
	c0.9,0,1.7,0.1,2.3,0.4c0.7,0.3,1.1,0.7,1.5,1.3c0.3,0.6,0.5,1.3,0.5,2.1c0,0.6-0.1,1.1-0.3,1.5c-0.2,0.4-0.5,0.8-0.9,1.2
	c-0.4,0.4-0.8,0.8-1.2,1.2c-0.4,0.3-0.6,0.7-0.8,1C249.6,93,249.5,93.4,249.5,93.9z M246.7,96.9c0-0.4,0.1-0.8,0.4-1
	c0.3-0.3,0.7-0.4,1.2-0.4c0.5,0,0.9,0.1,1.1,0.4c0.3,0.3,0.4,0.6,0.4,1c0,0.4-0.1,0.7-0.4,1c-0.3,0.3-0.7,0.4-1.1,0.4
	c-0.5,0-0.9-0.1-1.2-0.4C246.9,97.7,246.7,97.3,246.7,96.9z"/>
<path d="M63.5,130.8H57v-1.6h6.4V130.8z M65.7,125.7h-2.2v1.8H57v-1.8h-2.2v6.9h10.9V125.7z M67.4,134.1H53.2v1.8h5.9v4.9h2.2v-4.9
	h6V134.1z M72.5,128h6.7v4.1h-6.7V128z M77,137.1v-3.2h4.4v-7.7H70.3v7.7h4.5v3.2h-5.9v1.8H83v-1.8H77z M94.7,127.6h-8.5v3.7h10.9
	v-1.5h-8.7V129h8.5v-3.7H86.2v1.5h8.5V127.6z M88.3,138.2H97v-3.7H86.1v1.5h8.7v0.8h-8.7v3.8h11.3v-1.5h-9.1V138.2z M84.5,132.1v1.6
	h14.2v-1.6H84.5z M109.4,127.5c1.2,0,2,0.5,2,1.5c0,1-0.8,1.5-2,1.5c-1.1,0-2-0.5-2-1.5C107.5,128.1,108.3,127.5,109.4,127.5z
	 M109.4,132.4c2.4,0,4.1-1.4,4.1-3.3c0-2-1.7-3.3-4.1-3.3s-4.1,1.4-4.1,3.3C105.3,131,107.1,132.4,109.4,132.4z M114.3,132.8
	c-3.3,0.5-7.2,0.5-9.9,0.5l0.3,1.8c1.1,0,2.4,0,3.7-0.1v5.2h2.2v-5.3c1.3-0.1,2.6-0.3,3.8-0.5L114.3,132.8z M115.2,125.1v15.6h2.2
	v-15.6H115.2z M129.2,126.7h-3.5v-1.7h-2.3v1.7H120v1.8h9.2L129.2,126.7z M122.9,132c0-0.8,0.7-1.3,1.7-1.3c1,0,1.7,0.5,1.7,1.3
	c0,0.9-0.7,1.3-1.7,1.3C123.6,133.4,122.9,132.9,122.9,132z M128.4,132c0-1.8-1.6-3-3.8-3s-3.8,1.2-3.8,3c0,1.8,1.6,3,3.8,3
	S128.4,133.8,128.4,132z M124.5,135.9h-2.2v4.5h10.7v-1.8h-8.4V135.9z M132.3,129.9v-4.8h-2.2v11.7h2.2v-5.1h2.1v-1.9H132.3z
	 M148.5,132.9h-3.2v-4.7h3.2V132.9z M143.1,132.9h-2v1.8h11.8v-1.8h-2.1v-4.7h2.1v-1.8H141v1.8h2.1V132.9z M139.9,137.1v1.8H154
	v-1.8H139.9z M158.4,132.5h5v-6.1h-7.2v1.8h5v2.5h-5v6.5h1.3c2.7,0,4.9-0.1,7.2-0.5l-0.2-1.8c-2,0.4-3.9,0.5-6.1,0.5V132.5z
	 M170,131h-2.2v-5.9h-2.2v15.7h2.2v-7.9h2.2V131z M181.9,125.1v15.7h2.2v-15.7H181.9z M175.7,126.2c-2.4,0-4.1,2.1-4.1,5.6
	c0,3.5,1.8,5.6,4.1,5.6c2.4,0,4.1-2.2,4.1-5.6C179.8,128.3,178.1,126.2,175.7,126.2z M175.7,128.2c1.2,0,2,1.2,2,3.6
	c0,2.3-0.8,3.6-2,3.6c-1.2,0-2-1.2-2-3.6C173.7,129.4,174.5,128.2,175.7,128.2z M199.8,125.1h-2.3v10.6h2.3V125.1z M193,131.8h-3.2
	v-2h3.2V131.8z M195.2,126H193v2.1h-3.2V126h-2.2v7.6h7.6V126z M195.6,134.9h-2.3v0.3c0,1.7-1.6,3.4-4.9,3.8l0.8,1.7
	c2.5-0.4,4.3-1.4,5.3-2.9c0.9,1.5,2.7,2.6,5.2,2.9l0.8-1.7c-3.3-0.5-4.9-2.1-4.9-3.8V134.9z M211.6,126.7h-3.5v-1.7h-2.3v1.7h-3.5
	v1.8h9.2L211.6,126.7z M205.3,132c0-0.8,0.7-1.3,1.7-1.3c1,0,1.7,0.5,1.7,1.3c0,0.9-0.7,1.3-1.7,1.3
	C206,133.4,205.3,132.9,205.3,132z M210.9,132c0-1.8-1.6-3-3.8-3s-3.8,1.2-3.8,3c0,1.8,1.6,3,3.8,3S210.9,133.8,210.9,132z
	 M206.9,135.9h-2.2v4.5h10.7v-1.8h-8.4V135.9z M214.7,129.9v-4.8h-2.2v11.7h2.2v-5.1h2.1v-1.9H214.7z M234.3,131.2
	c0.4-1.6,0.4-2.9,0.4-4.2v-1.3h-10.8v1.8h8.6c0,1-0.1,2.1-0.4,3.5L234.3,131.2z M229.3,139.1c-2.1,0-3.3-0.4-3.3-1.3
	c0-0.9,1.2-1.3,3.3-1.3c2.1,0,3.3,0.4,3.3,1.3C232.6,138.6,231.4,139.1,229.3,139.1z M229.3,134.8c-3.4,0-5.5,1.1-5.5,3
	c0,1.8,2.2,2.9,5.5,2.9c3.4,0,5.6-1.1,5.6-2.9C234.8,136,232.7,134.8,229.3,134.8z M229.8,132.1v-2.7h-2.2v2.7h-5.2v1.8h14.1v-1.8
	H229.8z M238.5,126.2v1.8h5.1c-0.4,2.2-2.3,4-5.8,5l0.9,1.8c4.7-1.3,7.3-4.3,7.3-8.5H238.5z M242.4,135.2h-2.2v5.3h10.6v-1.8h-8.4
	V135.2z M250.2,129.4v-4.4H248v11.2h2.2v-5h2.1v-1.8H250.2z M260.6,125.9c-3.3,0-5.8,1.8-5.8,4.5c0,2.7,2.5,4.5,5.8,4.5
	c3.3,0,5.8-1.8,5.8-4.5C266.5,127.7,263.9,125.9,260.6,125.9z M260.6,127.7c2.1,0,3.7,1,3.7,2.7c0,1.7-1.5,2.7-3.7,2.7
	c-2.1,0-3.6-1-3.6-2.7C257,128.7,258.5,127.7,260.6,127.7z M253.6,137v1.8h14.2V137H253.6z M277.4,137.2v-2.3h4.7v-1.8h-9.1v-1.8
	h8.7v-5.2h-11v1.8h8.8v1.7h-8.7v5.3h4.3v2.3h-6v1.8h14.2v-1.8H277.4z M287.3,137.3l0,1.6c0,0.6-0.2,1.2-0.5,1.9
	c-0.3,0.6-0.7,1.1-1.2,1.5l-1.2-0.6c0.1-0.3,0.3-0.5,0.4-0.8c0.1-0.3,0.2-0.5,0.3-0.8c0.1-0.3,0.1-0.7,0.1-1v-1.7H287.3z
	 M203.8,152.2h-3.5V151H198v1.3h-3.5v1.7h9.2V152.2z M197.5,156.9c0-0.7,0.7-1,1.7-1s1.7,0.3,1.7,1c0,0.6-0.7,1-1.7,1
	S197.5,157.5,197.5,156.9z M203,156.9c0-1.6-1.5-2.6-3.8-2.6c-2.3,0-3.8,1-3.8,2.6c0,1.6,1.5,2.6,3.8,2.6
	C201.5,159.4,203,158.4,203,156.9z M198.8,164.1h8.1v-4h-10.3v1.6h8.1v0.8h-8.1v4h10.8V165h-8.5V164.1z M206.9,154.4v-3.3h-2.2v8.5
	h2.2v-3.3h2.1v-1.8H206.9z M228.1,156.6c-3.6-0.5-5.4-2.5-5.4-4.4v-0.7h-2.4v0.7c0,1.8-1.8,3.9-5.4,4.4l0.8,1.8
	c2.7-0.4,4.7-1.7,5.7-3.4c1,1.7,3,3,5.7,3.4L228.1,156.6z M228.6,159.6h-14.1v1.8h5.9v5.3h2.2v-5.3h6V159.6z M247.3,151.1h-2.3v8.9
	h2.3V151.1z M238.8,153.7c1.2,0,2.1,0.7,2.1,1.9c0,1.2-0.9,1.9-2.1,1.9s-2.1-0.7-2.1-1.9C236.7,154.5,237.6,153.7,238.8,153.7z
	 M238.8,159.4c2.4,0,4.3-1.6,4.3-3.8c0-2.2-1.8-3.8-4.3-3.8c-2.4,0-4.2,1.6-4.2,3.8C234.5,157.8,236.4,159.4,238.8,159.4z
	 M245.7,160.6h-2.2v0.5c0,1.2-0.5,2.5-1.8,3.4c-1.2-0.9-1.7-2.2-1.7-3.4v-0.5h-2.2v0.5c0,1.5-0.9,3.1-2.9,3.8l1.1,1.6
	c1.4-0.5,2.4-1.4,2.9-2.6c0.5,1.2,1.4,2.2,2.8,2.7c1.4-0.6,2.3-1.6,2.8-2.8c0.5,1.2,1.5,2.1,3,2.6l1.1-1.6c-2.1-0.6-2.9-2.1-2.9-3.8
	V160.6z M262.6,155.3h-8.6v-3.7h-2.2v5.5h10.9V155.3z M253.8,161.7h-2.3v4.7h11.1v-1.8h-8.8V161.7z M250,158.7v1.8h14.2v-1.8H250z
	 M88.9,178v1.8h5c-0.3,2.1-2.2,3.8-5.7,4.6l0.9,1.8c4.6-1.2,7.3-4,7.3-8.2H88.9z M92.7,188.2h5.7v2.6h-5.7V188.2z M90.5,192.5h10.1
	v-6.1H90.5V192.5z M102.7,180.5h-2.1v-3.4h-2.2v8.7h2.2v-3.5h2.1V180.5z M112.5,180.9v1.8h2.3v3.7h2.2v-9.3h-2.2v3.8H112.5z
	 M113.4,184.2c-2.4-0.8-3.5-2.6-3.5-4.4h3V178h-8.4v1.8h3.1c-0.1,2-1.2,3.9-3.7,4.8l1.1,1.8c1.8-0.6,3.1-1.9,3.7-3.5
	c0.7,1.4,1.9,2.5,3.6,3L113.4,184.2z M111.8,191.1c-2.1,0-3.1-0.4-3.1-1.3s1.1-1.3,3.1-1.3c2,0,3.1,0.4,3.1,1.3
	S113.8,191.1,111.8,191.1z M111.8,186.7c-3.3,0-5.4,1.1-5.4,3c0,1.9,2,3,5.4,3c3.3,0,5.4-1.1,5.4-3
	C117.1,187.8,115.1,186.7,111.8,186.7z M137.5,182.6c-3.6-0.5-5.4-2.5-5.4-4.4v-0.7h-2.4v0.7c0,1.8-1.8,3.9-5.4,4.4l0.9,1.8
	c2.7-0.4,4.7-1.7,5.7-3.4c1,1.7,3,3,5.7,3.4L137.5,182.6z M138,185.6h-14.1v1.8h5.9v5.3h2.2v-5.3h6V185.6z M150.4,190.8h-5.9v-1.4
	h5.9V190.8z M150.4,187.7h-5.9v-1.5h-2.2v6.4h10.4v-6.4h-2.2V187.7z M143.8,183.3c-1.1,0-2-0.7-2-1.9s0.8-1.9,2-1.9
	c1.2,0,2,0.7,2,1.9S145,183.3,143.8,183.3z M150.3,177.1v3.5h-2.5c-0.4-1.7-2-2.8-4-2.8c-2.3,0-4.1,1.6-4.1,3.7
	c0,2.2,1.8,3.7,4.1,3.7c2,0,3.6-1.2,4-2.9h2.5v3.1h2.2v-8.4H150.3z M162.2,178.9c2.3,0,3.3,0.3,3.3,1c0,0.7-1.1,1-3.3,1
	c-2.3,0-3.3-0.3-3.3-1C158.9,179.3,159.9,178.9,162.2,178.9z M162.2,182.6c3.6,0,5.7-0.9,5.7-2.7c0-1.7-2.1-2.7-5.7-2.7
	c-3.6,0-5.7,1-5.7,2.7C156.5,181.7,158.6,182.6,162.2,182.6z M159,190h8.6v-4h-10.8v1.6h8.6v0.8h-8.6v4.1H168v-1.7h-9V190z
	 M155.1,183.4v1.8h14.1v-1.8H155.1z M180,180.5h2.3v-1.8h-7v1.8h2.5v0.8c0,2.7-0.8,5.5-3.1,6.9l1.3,1.6c1.4-0.9,2.3-2.4,2.9-4.2
	c0.5,1.6,1.4,3,2.8,3.8l1.3-1.6c-2.3-1.3-3-4-3-6.6V180.5z M183.1,182.4h-2v1.8h2v7.8h2.1v-14.7h-2.1V182.4z M186.3,177.1v15.7h2.1
	v-15.7H186.3z M202.7,183.2c0.4-1.6,0.4-2.9,0.4-4.2v-1.3h-10.8v1.8h8.6c0,1-0.1,2.1-0.4,3.5L202.7,183.2z M197.6,191.1
	c-2.1,0-3.3-0.4-3.3-1.3c0-0.9,1.2-1.3,3.3-1.3c2.1,0,3.3,0.4,3.3,1.3C201,190.6,199.8,191.1,197.6,191.1z M197.6,186.8
	c-3.4,0-5.5,1.1-5.5,3c0,1.8,2.2,2.9,5.5,2.9c3.4,0,5.6-1.1,5.6-2.9C203.2,188,201,186.8,197.6,186.8z M198.1,184.1v-2.7h-2.2v2.7
	h-5.2v1.8h14.1v-1.8H198.1z M215.5,178.5H212V177h-2.3v1.5h-3.5v1.8h9.2L215.5,178.5z M209.2,183.4c0-0.7,0.7-1.1,1.7-1.1
	c1,0,1.7,0.4,1.7,1.1s-0.7,1.1-1.7,1.1C209.9,184.5,209.2,184.1,209.2,183.4z M214.7,183.4c0-1.7-1.6-2.8-3.8-2.8s-3.8,1.1-3.8,2.8
	c0,1.6,1.6,2.8,3.8,2.8S214.7,185.1,214.7,183.4z M216.4,190.8h-5.7v-1.1h5.7V190.8z M216.4,188h-5.7v-1.2h-2.2v5.7h10.2v-5.7h-2.2
	V188z M220.7,180.8h-2.1v-3.8h-2.2v9.2h2.2v-3.6h2.1V180.8z M225,178.6h-2.2v10.3h1.4c2.4,0,5-0.2,7.6-0.7l-0.2-1.9
	c-2.3,0.5-4.5,0.6-6.6,0.7V178.6z M232.7,177.1v15.7h2.2v-15.7H232.7z M240.4,180.3h5.1v-1.8h-7.3V189h1.3c2.7,0,4.9-0.1,7.2-0.5
	l-0.2-1.9c-2,0.3-3.9,0.5-6.1,0.5V180.3z M252.1,182.9h-2.3v-5.8h-2.2v15.7h2.2v-8.1h2.3V182.9z M253.5,190.1c0-0.4,0.1-0.6,0.4-0.9
	c0.2-0.2,0.6-0.4,1-0.4c0.4,0,0.7,0.1,1,0.4c0.2,0.2,0.4,0.5,0.4,0.9c0,0.4-0.1,0.7-0.4,0.9c-0.2,0.2-0.6,0.4-1,0.4
	c-0.4,0-0.7-0.1-1-0.4C253.6,190.8,253.5,190.5,253.5,190.1z"/>
<path class="st7" d="M86.9,156.8h-6.4v-1.6h6.4V156.8z M89.1,151.7h-2.2v1.8h-6.4v-1.8h-2.2v6.9h10.9V151.7z M90.8,160.1H76.6v1.8
	h5.9v4.9h2.2v-4.9h6V160.1z M96,154h6.7v4.1H96V154z M100.5,163.1v-3.2h4.4v-7.7H93.8v7.7h4.5v3.2h-6v1.8h14.2v-1.8H100.5z
	 M114.6,162.8h8.4v3.9h2.2v-5.7h-10.7V162.8z M120.5,156.6c0.1-0.3,0.1-0.5,0.1-0.8c0-0.3,0-0.5-0.1-0.8h2.5v1.6H120.5z
	 M116.5,157.7c-1.1,0-2-0.7-2-2c0-1.2,0.8-2,2-2c1.2,0,2,0.7,2,2C118.5,157,117.6,157.7,116.5,157.7z M123,151.1v2.1h-3.4
	c-0.7-0.8-1.9-1.3-3.1-1.3c-2.3,0-4.1,1.6-4.1,3.9c0,2.3,1.8,3.9,4.1,3.9c1.3,0,2.4-0.5,3.1-1.3h3.4v2h2.2v-9.3H123z M128.3,155v4.8
	h1.3c3.1,0,5.1-0.1,7.3-0.5l-0.2-1.8c-2,0.4-3.7,0.5-6.2,0.5v-1.4h4.9V152h-7.1v1.8h4.9v1.2H128.3z M135,165c-2,0-3.1-0.4-3.1-1.3
	s1.1-1.3,3.1-1.3c2,0,3.1,0.4,3.1,1.3S137,165,135,165z M135,160.8c-3.3,0-5.3,1.1-5.3,3c0,1.9,2,3,5.3,3c3.3,0,5.3-1.1,5.3-3
	C140.3,161.9,138.2,160.8,135,160.8z M142.2,155v-1.8h-2.1v-2.1h-2.2v9.4h2.2v-2.2h2.1v-1.8h-2.1V155H142.2z M150.5,152.9
	c2.3,0,3.3,0.3,3.3,1c0,0.7-1.1,1-3.3,1c-2.3,0-3.3-0.3-3.3-1C147.2,153.3,148.2,152.9,150.5,152.9z M150.5,156.6
	c3.6,0,5.7-0.9,5.7-2.7c0-1.7-2.1-2.7-5.7-2.7c-3.6,0-5.7,1-5.7,2.7C144.8,155.7,146.9,156.6,150.5,156.6z M147.3,164h8.6v-4H145
	v1.6h8.6v0.8h-8.6v4.1h11.2v-1.7h-9V164z M143.4,157.4v1.8h14.1v-1.8H143.4z M163.9,152.1v1.8h4.9c-0.3,2.1-2.3,3.9-5.7,4.8l0.9,1.8
	c4.6-1.3,7.2-4.2,7.2-8.4H163.9z M170.5,165c-1.9,0-3-0.5-3-1.5c0-1,1.1-1.5,3-1.5c1.9,0,3,0.5,3,1.5
	C173.6,164.5,172.4,165,170.5,165z M170.5,160.3c-3.2,0-5.3,1.3-5.3,3.2c0,2,2.1,3.2,5.3,3.2s5.3-1.2,5.3-3.2
	C175.8,161.6,173.7,160.3,170.5,160.3z M175.6,154.7v-3.7h-2.2v9.1h2.2v-3.5h2.1v-1.9H175.6z M188.3,152.8h-3.5v-1.6h-2.2v1.6h-3.5
	v1.8h9.2V152.8z M182,158.1c0-0.8,0.7-1.3,1.7-1.3s1.7,0.4,1.7,1.3c0,0.8-0.7,1.3-1.7,1.3S182,158.9,182,158.1z M184.8,161
	c1.6-0.3,2.7-1.4,2.7-2.8c0-1.8-1.6-3-3.8-3s-3.8,1.2-3.8,3c0,1.4,1.1,2.5,2.7,2.8v1.3c-1.4,0-2.7,0-3.8,0l0.3,1.8
	c2.7,0,6.2,0,9.5-0.6l-0.2-1.6c-1.1,0.2-2.3,0.3-3.5,0.3V161z M193.3,157.5h-2v-6.4h-2.2v15.7h2.2v-7.4h2V157.5z"/>
</svg>
