<?xml version="1.0" encoding="utf-8"?>
<!-- Generator: Adobe Illustrator 26.5.0, SVG Export Plug-In . SVG Version: 6.00 Build 0)  -->
<svg version="1.1" id="레이어_1" xmlns="http://www.w3.org/2000/svg" xmlns:xlink="http://www.w3.org/1999/xlink" x="0px"
	 y="0px" viewBox="0 0 25.8 32" style="enable-background:new 0 0 25.8 32;" xml:space="preserve">
<style type="text/css">
	.st0{fill:#2275C1;}
</style>
<path class="st0" d="M2.4,13.3c-0.7,0.3-1.2,0.9-1.2,1.6c0,0.5,0.4,1.3,1.1,1.6c0.3,0.1,4.6,0.7,4.6,0.7s1.1,3.5,1.6,4.8
	c0.1,0.4,0.2,0.5,0.4,0.8c0.4,0.4,1.2,0.3,1.5,0c0.9-0.8,2.2-2.1,2.2-2.1l0.6,0.5c0,0,2.5,2,3.9,2.9c0.8,0.6,1.4,1.1,2.3,1.1
	c0.5,0,1.2-0.2,1.7-0.8c0.3-0.4,0.5-1,0.6-1.5c0.2-1.2,2.4-14.2,2.4-14.6C24.2,7.4,23.5,7,23,7c-0.3,0-0.6,0.1-1.2,0.3
	C17.2,8.6,2.7,13.1,2.4,13.3z M19.6,10.4c0,0-6.1,5.2-8.5,7.5c-0.8,0.8-0.8,2.1-0.8,2.1L9,16.1L19.6,10.4z"/>
</svg>
