<?xml version="1.0" encoding="utf-8"?>
<!-- Generator: Adobe Illustrator 26.5.0, SVG Export Plug-In . SVG Version: 6.00 Build 0)  -->
<svg version="1.1" id="레이어_1" xmlns="http://www.w3.org/2000/svg" xmlns:xlink="http://www.w3.org/1999/xlink" x="0px"
	 y="0px" viewBox="0 0 25.9 30" style="enable-background:new 0 0 25.9 30;" xml:space="preserve">
<style type="text/css">
	.st0{fill:#5C2AC6;}
</style>
<path class="st0" d="M19.5,15.2c0.1,0.6-0.2,1.3-0.9,1.5l-2.8,0.9l-1.1,0.4l-1.4,1.2l-1.6,1.5c-0.2,0.2-0.5,0.3-0.9,0.3
	c-0.3,0-0.6-0.1-0.9-0.3l-1.6-1.5L7,17.9l-1.1-0.4l-2.8-0.9c-0.6-0.2-1-0.8-0.8-1.5l0.9-4l-0.9-4C2.1,6.6,2.5,6,3.1,5.8L7,4.5l3-2.8
	c0.5-0.4,1.2-0.4,1.7,0l3,2.8l3.9,1.2c0.6,0.2,1,0.8,0.9,1.5l-0.9,4L19.5,15.2z"/>
<path class="st0" d="M15.9,18.9v7.4c0,0.5-0.3,0.9-0.7,1.1c-0.4,0.2-0.9,0.2-1.2-0.1l-3.1-2l-3.1,2c-0.4,0.3-0.9,0.3-1.3,0.1
	c-0.4-0.2-0.7-0.6-0.7-1.1v-7.4l0.5,0.2l2.8,2.6c1,0.9,2.4,0.9,3.4,0l2.8-2.6L15.9,18.9z"/>
</svg>
