<svg width="23" height="22" viewBox="0 0 23 22" fill="none" xmlns="http://www.w3.org/2000/svg">
<path d="M3.49691e-07 2C3.49691e-07 0.895431 0.895431 0 2 0H8C9.10457 0 10 0.895431 10 2C10 3.10457 9.10457 4 8 4H2C0.895431 4 3.49691e-07 3.10457 3.49691e-07 2Z" fill="white"/>
<path d="M2 0C3.10457 4.82823e-08 4 0.895431 4 2L4 8C4 9.10457 3.10457 10 2 10C0.89543 10 -4.82823e-08 9.10457 0 8L3.49691e-07 2C3.49691e-07 0.895431 0.895431 0 2 0Z" fill="white"/>
<path d="M23 20C23 21.1046 22.1046 22 21 22L15 22C13.8954 22 13 21.1046 13 20C13 18.8954 13.8954 18 15 18L21 18C22.1046 18 23 18.8954 23 20Z" fill="white"/>
<path d="M21 22C19.8954 22 19 21.1046 19 20L19 14C19 12.8954 19.8954 12 21 12C22.1046 12 23 12.8954 23 14L23 20C23 21.1046 22.1046 22 21 22Z" fill="white"/>
<path d="M21 2.62268e-07C22.1046 3.10551e-07 23 0.895431 23 2L23 8C23 9.10457 22.1046 10 21 10C19.8954 10 19 9.10457 19 8L19 2C19 0.895431 19.8954 2.13986e-07 21 2.62268e-07Z" fill="white"/>
<path d="M23 2C23 3.10457 22.1046 4 21 4L15 4C13.8954 4 13 3.10457 13 2C13 0.89543 13.8954 -4.46256e-07 15 -3.49691e-07L21 2.62268e-07C22.1046 3.10551e-07 23 0.895431 23 2Z" fill="white"/>
<path d="M2 22C0.895431 22 1.17422e-07 21.1046 2.62268e-07 20L1.04907e-06 14C1.19392e-06 12.8954 0.895432 12 2 12C3.10457 12 4 12.8954 4 14L4 20C4 21.1046 3.10457 22 2 22Z" fill="white"/>
<path d="M2.62268e-07 20C4.55397e-07 18.8954 0.895431 18 2 18L8 18C9.10457 18 10 18.8954 10 20C10 21.1046 9.10457 22 8 22L2 22C0.895431 22 1.17422e-07 21.1046 2.62268e-07 20Z" fill="white"/>
</svg>
