<svg width="59" height="70" viewBox="0 0 59 70" fill="none" xmlns="http://www.w3.org/2000/svg">
<path d="M0 9.54C0 6.23628 0 4.58442 0.632732 3.31813C1.21349 2.15585 2.15585 1.21349 3.31813 0.632732C4.58442 0 6.23628 0 9.54 0H49.46C52.7637 0 54.4156 0 55.6819 0.632732C56.8442 1.21349 57.7865 2.15585 58.3673 3.31813C59 4.58442 59 6.23628 59 9.54V62.1328C59 64.7964 59 66.1283 58.46 67.0592C57.9657 67.9113 57.1743 68.551 56.2376 68.8558C55.2142 69.1888 53.9119 68.9097 51.3074 68.3516L32.268 64.2717C31.7994 64.1713 31.5651 64.1211 31.3285 64.0992C31.1094 64.0789 30.889 64.0767 30.6696 64.0926C30.4326 64.1098 30.1973 64.1554 29.7268 64.2464L7.56854 68.5351C5.00007 69.0322 3.71584 69.2808 2.70913 68.9376C1.7874 68.6233 1.01199 67.9836 0.528295 67.1383C0 66.2152 0 64.9071 0 62.291V9.54Z" fill="#EF075B"/>
<path d="M15.3012 26.04V27.11H16.8212V26.04H15.3012ZM18.2912 22.63V31.89H19.5612V22.63H18.2912ZM16.4012 22.77V31.47H17.6512V22.77H16.4012ZM13.6812 23.28C12.4612 23.28 11.6812 24.55 11.6812 26.64C11.6812 28.74 12.4612 30.01 13.6812 30.01C14.9112 30.01 15.7012 28.74 15.7012 26.64C15.7012 24.55 14.9112 23.28 13.6812 23.28ZM13.6812 24.53C14.2012 24.53 14.4912 25.23 14.4912 26.64C14.4912 28.06 14.2012 28.75 13.6812 28.75C13.1812 28.75 12.8912 28.06 12.8912 26.64C12.8912 25.23 13.1812 24.53 13.6812 24.53ZM27.1504 22.63V31.92H28.4904V22.63H27.1504ZM21.3604 28.6V29.71H22.1604C24.1504 29.71 25.3204 29.67 26.5704 29.42L26.4504 28.33C25.2104 28.56 24.1104 28.6 22.1604 28.6H21.3604ZM21.3604 23.45V29.02H22.6804V24.52H25.8304V23.45H21.3604ZM34.8896 23.83V24.9H36.7296V23.83H34.8896ZM34.8896 25.62V26.68H36.7296V25.62H34.8896ZM32.1196 23.16V24.22C32.1196 25.57 31.4796 26.87 29.9496 27.41L30.6596 28.45C32.4096 27.8 33.1896 26.14 33.1896 24.22V23.16H32.1196ZM32.3996 23.16V24.22C32.3996 26.06 33.1596 27.69 34.7996 28.34L35.5296 27.31C34.0696 26.76 33.4696 25.49 33.4696 24.22V23.16H32.3996ZM36.4196 22.64V29.49H37.7496V22.64H36.4196ZM31.6196 30.67V31.73H37.9496V30.67H31.6196ZM31.6196 28.86V31.34H32.9596V28.86H31.6196ZM43.5088 29.85H44.5088V25.07H43.5488C43.4155 25.1967 43.2488 25.3233 43.0488 25.45C42.8555 25.5767 42.6488 25.69 42.4288 25.79V26.77C42.5955 26.6967 42.7755 26.61 42.9688 26.51C43.1688 26.4033 43.3488 26.28 43.5088 26.14V29.85ZM43.7988 31.55C43.2322 31.55 42.6988 31.4433 42.1988 31.23C41.6988 31.0167 41.2588 30.7233 40.8788 30.35C40.5055 29.97 40.2122 29.53 39.9988 29.03C39.7855 28.53 39.6788 27.9967 39.6788 27.43C39.6788 26.8633 39.7855 26.3333 39.9988 25.84C40.2122 25.34 40.5055 24.9 40.8788 24.52C41.2588 24.14 41.6988 23.8433 42.1988 23.63C42.6988 23.4167 43.2322 23.31 43.7988 23.31C44.3722 23.31 44.9055 23.4167 45.3988 23.63C45.8988 23.8433 46.3355 24.14 46.7088 24.52C47.0888 24.9 47.3855 25.34 47.5988 25.84C47.8122 26.3333 47.9188 26.8633 47.9188 27.43C47.9188 27.9967 47.8122 28.53 47.5988 29.03C47.3855 29.53 47.0888 29.97 46.7088 30.35C46.3355 30.7233 45.8988 31.0167 45.3988 31.23C44.9055 31.4433 44.3722 31.55 43.7988 31.55ZM10.7664 42.76V43.84H19.1464V42.76H10.7664ZM14.2864 40.98V43.32H15.6164V40.98H14.2864ZM14.2764 37.56V37.76C14.2764 38.82 13.2764 39.97 11.0264 40.24L11.5064 41.29C14.0464 40.96 15.4564 39.53 15.4564 37.76V37.56H14.2764ZM14.4564 37.56V37.76C14.4564 39.53 15.8564 40.96 18.3964 41.29L18.8764 40.24C16.6264 39.97 15.6264 38.82 15.6264 37.76V37.56H14.4564ZM11.4764 36.88V37.95H18.4264V36.88H11.4764ZM14.2864 35.75V37.32H15.6164V35.75H14.2864ZM20.1457 36.38V37.45H25.0857V36.38H20.1457ZM20.0457 41.22C21.5757 41.22 23.6757 41.18 25.4957 40.86L25.4057 39.89C23.6257 40.12 21.4757 40.14 19.9057 40.15L20.0457 41.22ZM20.8757 37.2V40.35H22.1557V37.2H20.8757ZM23.0857 37.2V40.35H24.3557V37.2H23.0857ZM25.9157 35.64V42.46H27.2457V35.64H25.9157ZM26.8657 38.24V39.34H28.4757V38.24H26.8657ZM21.2757 43.67V44.73H27.5757V43.67H21.2757ZM21.2757 41.82V43.95H22.6057V41.82H21.2757ZM37.6051 35.64V42.56H38.9351V35.64H37.6051ZM38.5551 38.46V39.55H40.1651V38.46H38.5551ZM31.6451 36.6V37.64H37.0951V36.6H31.6451ZM34.3751 37.97C33.0351 37.97 32.0951 38.7 32.0951 39.76C32.0951 40.82 33.0351 41.54 34.3751 41.54C35.7051 41.54 36.6451 40.82 36.6451 39.76C36.6451 38.7 35.7051 37.97 34.3751 37.97ZM34.3751 38.98C34.9651 38.98 35.3751 39.26 35.3751 39.76C35.3751 40.26 34.9651 40.53 34.3751 40.53C33.7851 40.53 33.3751 40.26 33.3751 39.76C33.3751 39.26 33.7851 38.98 34.3751 38.98ZM33.7051 35.62V37.11H35.0351V35.62H33.7051ZM32.9651 43.67V44.73H39.2651V43.67H32.9651ZM32.9651 42.04V44.13H34.2951V42.04H32.9651ZM45.8643 37.87V38.95H47.6243V37.87H45.8643ZM47.2643 35.63V41.13H48.5943V35.63H47.2643ZM45.4543 41.33C43.4943 41.33 42.2843 42 42.2843 43.12C42.2843 44.25 43.4943 44.9 45.4543 44.9C47.4143 44.9 48.6243 44.25 48.6243 43.12C48.6243 42 47.4143 41.33 45.4543 41.33ZM45.4543 42.34C46.6643 42.34 47.3043 42.59 47.3043 43.12C47.3043 43.64 46.6643 43.89 45.4543 43.89C44.2543 43.89 43.6143 43.64 43.6143 43.12C43.6143 42.59 44.2543 42.34 45.4543 42.34ZM42.9843 36.56V37.14C42.9843 38.33 42.3243 39.56 40.7943 40.08L41.4743 41.13C43.2443 40.53 44.0643 38.91 44.0643 37.14V36.56H42.9843ZM43.2643 36.56V37.14C43.2643 38.79 44.0543 40.33 45.7743 40.9L46.4243 39.85C44.9643 39.36 44.3343 38.23 44.3343 37.14V36.56H43.2643ZM41.1543 36.19V37.25H46.1343V36.19H41.1543ZM10.7464 53.44V54.49H19.1264V53.44H10.7464ZM11.6864 55.08V56.13H16.7764V57.89H18.1064V55.08H11.6864ZM11.7864 51.87V52.88H18.2364V51.87H11.7864ZM11.7864 48.84V52.38H13.1064V49.85H18.1664V48.84H11.7864ZM12.7364 50.36V51.33H17.9564V50.36H12.7364ZM24.4257 49.79V50.79H26.6657V49.79H24.4257ZM24.4257 51.48V52.48H26.6657V51.48H24.4257ZM26.3757 48.63V53.38H27.7057V48.63H26.3757ZM21.5857 53.74V54.76H26.3857V55.26H21.5957V57.39H22.9157V56.22H27.7057V53.74H21.5857ZM21.5957 56.76V57.79H27.9657V56.76H21.5957ZM20.3457 49.01V53.13H24.7257V49.01H23.4257V50.09H21.6657V49.01H20.3457ZM21.6657 51.09H23.4257V52.09H21.6657V51.09ZM38.3351 48.63V57.89H39.6051V48.63H38.3351ZM36.5551 48.78V57.48H37.7951V48.78H36.5551ZM35.5651 51.62V52.68H37.1151V51.62H35.5651ZM35.5051 53.79V54.84H37.0651V53.79H35.5051ZM31.6351 50.02V51.07H35.9951V50.02H31.6351ZM33.7951 51.5C32.6651 51.5 31.8251 52.41 31.8251 53.73C31.8251 55.04 32.6651 55.96 33.7951 55.96C34.9451 55.96 35.7751 55.04 35.7751 53.73C35.7751 52.41 34.9451 51.5 33.7951 51.5ZM33.7951 52.61C34.2851 52.61 34.6151 53.01 34.6151 53.73C34.6151 54.44 34.2851 54.84 33.7951 54.84C33.3151 54.84 32.9851 54.44 32.9851 53.73C32.9851 53.01 33.3151 52.61 33.7951 52.61ZM33.1651 48.85V50.67H34.4751V48.85H33.1651ZM41.1543 52.85V53.93H41.7943C43.1743 53.93 44.0743 53.9 45.1343 53.72L45.0143 52.66C43.9943 52.83 43.1343 52.85 41.7943 52.85H41.1543ZM41.1543 49.25V53.44H42.4343V50.31H44.8043V49.25H41.1543ZM42.0543 51.06V52.06H44.7043V51.06H42.0543ZM47.4743 48.63V54.28H48.7343V48.63H47.4743ZM46.3643 50.9V51.96H47.8343V50.9H46.3643ZM45.4943 48.8V54.22H46.7343V48.8H45.4943ZM42.3743 54.68V55.74H47.4143V57.89H48.7343V54.68H42.3743Z" fill="white"/>
<path d="M33.9457 12.5467C33.773 12.7141 33.6937 12.9561 33.733 13.1934L34.3257 16.4734C34.3757 16.7514 34.2583 17.0327 34.0257 17.1934C33.7977 17.3601 33.4943 17.3801 33.2457 17.2467L30.293 15.7067C30.1903 15.6521 30.0763 15.6227 29.9597 15.6194H29.779C29.7163 15.6287 29.655 15.6487 29.599 15.6794L26.6457 17.2267C26.4997 17.3001 26.3343 17.3261 26.1723 17.3001C25.7777 17.2254 25.5143 16.8494 25.579 16.4527L26.1723 13.1727C26.2117 12.9334 26.1323 12.6901 25.9597 12.5201L23.5523 10.1867C23.351 9.99141 23.281 9.69808 23.373 9.43341C23.4623 9.16941 23.6903 8.97675 23.9657 8.93341L27.279 8.45275C27.531 8.42675 27.7523 8.27341 27.8657 8.04675L29.3257 5.05341C29.3603 4.98675 29.405 4.92541 29.459 4.87341L29.519 4.82675C29.5503 4.79208 29.5863 4.76341 29.6263 4.74008L29.699 4.71341L29.8123 4.66675H30.093C30.3437 4.69275 30.5643 4.84275 30.6797 5.06675L32.159 8.04675C32.2657 8.26475 32.473 8.41608 32.7123 8.45275L36.0257 8.93341C36.3057 8.97341 36.5397 9.16675 36.6323 9.43341C36.7197 9.70075 36.6443 9.99408 36.439 10.1867L33.9457 12.5467Z" fill="#FAFF00"/>
</svg>
