<svg width="25" height="26" viewBox="0 0 25 26" fill="none" xmlns="http://www.w3.org/2000/svg">
<path fill-rule="evenodd" clip-rule="evenodd" d="M21.621 13.8285C21.6682 13.4348 21.6997 13.0253 21.6997 12.6C21.6997 12.1748 21.6682 11.7652 21.6052 11.3715L24.267 9.2925C24.5032 9.1035 24.5662 8.757 24.4245 8.48925L21.9045 4.1265C21.747 3.843 21.4162 3.7485 21.1327 3.843L17.9985 5.103C17.337 4.599 16.644 4.1895 15.8722 3.8745L15.3997 0.5355C15.3525 0.2205 15.0847 0 14.7697 0H9.72971C9.41471 0 9.16271 0.2205 9.11546 0.5355L8.64296 3.8745C7.87121 4.1895 7.16246 4.61475 6.51671 5.103L3.38246 3.843C3.09896 3.73275 2.76821 3.843 2.61071 4.1265L0.0907126 8.48925C-0.0667874 8.77275 -0.00378736 9.1035 0.248213 9.2925L2.90996 11.3715C2.84696 11.7652 2.79971 12.1905 2.79971 12.6C2.79971 13.0095 2.83121 13.4348 2.89421 13.8285L0.232463 15.9075C-0.00378738 16.0965 -0.0667874 16.443 0.0749626 16.7108L2.59496 21.0735C2.75246 21.357 3.08321 21.4515 3.36671 21.357L6.50096 20.097C7.16246 20.601 7.85546 21.0105 8.62721 21.3255L9.09971 24.6645C9.16271 24.9795 9.41471 25.2 9.72971 25.2H14.7697C15.0847 25.2 15.3525 24.9795 15.384 24.6645L15.8565 21.3255C16.6282 21.0105 17.337 20.5853 17.9827 20.097L21.117 21.357C21.4005 21.4672 21.7312 21.357 21.8887 21.0735L24.4087 16.7108C24.5662 16.4272 24.5032 16.0965 24.2512 15.9075L21.621 13.8285ZM12.2498 17.325C9.65102 17.325 7.52477 15.1987 7.52477 12.6C7.52477 10.0013 9.65102 7.875 12.2498 7.875C14.8485 7.875 16.9748 10.0013 16.9748 12.6C16.9748 15.1987 14.8485 17.325 12.2498 17.325Z" fill="#909090"/>
</svg>
