<svg width="42" height="45" viewBox="0 0 42 45" fill="none" xmlns="http://www.w3.org/2000/svg">
<circle cx="21" cy="24.6227" r="18.3774" fill="white" stroke="#A5A5A5" stroke-width="4"/>
<rect x="21" y="4.24536" width="20.3774" height="21.2264" fill="white"/>
<path d="M27.6119 4.95212L22.5995 1.19796C21.9402 0.704148 21 1.17461 21 1.99835V9.79546C21 10.6358 21.9737 11.1014 22.6278 10.5738L27.6402 6.53088C28.148 6.12135 28.134 5.34317 27.6119 4.95212Z" fill="#A5A5A5"/>
<path d="M41.3774 25.4717C41.3774 26.4095 40.6171 27.1698 39.6793 27.1698C38.7414 27.1698 37.9811 26.4095 37.9811 25.4717C37.9811 24.5338 38.7414 23.7736 39.6793 23.7736C40.6171 23.7736 41.3774 24.5338 41.3774 25.4717Z" fill="#A5A5A5"/>
<path d="M16.874 19.3141V30.0001H14.7646V21.7457L12.2305 22.5514V20.8888L16.647 19.3141H16.874ZM22.3306 25.1442L20.646 24.7413L21.2539 19.3361H27.2451V21.0426H22.9897L22.7261 23.4083C22.8677 23.3253 23.0825 23.2374 23.3706 23.1447C23.6587 23.047 23.981 22.9982 24.3374 22.9982C24.855 22.9982 25.314 23.0787 25.7144 23.2399C26.1147 23.401 26.4541 23.6354 26.7324 23.943C27.0156 24.2506 27.2305 24.6266 27.377 25.0709C27.5234 25.5153 27.5967 26.0182 27.5967 26.5797C27.5967 27.0533 27.5234 27.505 27.377 27.9347C27.2305 28.3595 27.0083 28.7404 26.7104 29.0773C26.4126 29.4093 26.0391 29.6705 25.5898 29.861C25.1406 30.0514 24.6084 30.1466 23.9932 30.1466C23.5342 30.1466 23.0898 30.0782 22.6602 29.9415C22.2354 29.8048 21.8521 29.6022 21.5103 29.3336C21.1733 29.0651 20.9023 28.7404 20.6973 28.3595C20.4971 27.9738 20.3921 27.5343 20.3823 27.0411H22.4771C22.5063 27.3439 22.5845 27.6051 22.7114 27.8248C22.8433 28.0397 23.0166 28.2057 23.2314 28.3229C23.4463 28.4401 23.6978 28.4987 23.9858 28.4987C24.2544 28.4987 24.4839 28.4474 24.6743 28.3448C24.8647 28.2423 25.0186 28.1007 25.1357 27.92C25.2529 27.7345 25.3384 27.5197 25.3921 27.2755C25.4507 27.0265 25.48 26.7579 25.48 26.4698C25.48 26.1818 25.4458 25.9205 25.3774 25.6862C25.3091 25.4518 25.2041 25.2491 25.0625 25.0782C24.9209 24.9073 24.7402 24.7755 24.5205 24.6827C24.3057 24.59 24.0542 24.5436 23.7661 24.5436C23.3755 24.5436 23.0728 24.6046 22.8579 24.7267C22.6479 24.8488 22.4722 24.9879 22.3306 25.1442Z" fill="#4B4B4B"/>
</svg>
