<svg width="40" height="45" viewBox="0 0 40 45" fill="none" xmlns="http://www.w3.org/2000/svg">
<circle cx="20" cy="24.5834" r="18" fill="white" stroke="#A5A5A5" stroke-width="4"/>
<rect y="4.58337" width="20" height="20.8333" fill="white"/>
<path d="M13.5296 7.23724L18.4005 10.8854C19.0598 11.3792 20 10.9088 20 10.085L20 2.50804C20 1.66767 19.0263 1.20208 18.3722 1.72968L13.5013 5.65848C12.9935 6.06802 13.0075 6.84619 13.5296 7.23724Z" fill="#A5A5A5"/>
<path d="M3.33333 25.4168C3.33333 26.3373 2.58714 27.0835 1.66667 27.0835C0.746192 27.0835 0 26.3373 0 25.4168C0 24.4963 0.746192 23.7501 1.66667 23.7501C2.58714 23.7501 3.33333 24.4963 3.33333 25.4168Z" fill="#A5A5A5"/>
<path d="M15.874 19.314V30H13.7646V21.7456L11.2305 22.5513V20.8887L15.647 19.314H15.874ZM21.3306 25.144L19.646 24.7412L20.2539 19.3359H26.2451V21.0425H21.9897L21.7261 23.4082C21.8677 23.3252 22.0825 23.2373 22.3706 23.1445C22.6587 23.0469 22.981 22.998 23.3374 22.998C23.855 22.998 24.314 23.0786 24.7144 23.2397C25.1147 23.4009 25.4541 23.6353 25.7324 23.9429C26.0156 24.2505 26.2305 24.6265 26.377 25.0708C26.5234 25.5151 26.5967 26.0181 26.5967 26.5796C26.5967 27.0532 26.5234 27.5049 26.377 27.9346C26.2305 28.3594 26.0083 28.7402 25.7104 29.0771C25.4126 29.4092 25.0391 29.6704 24.5898 29.8608C24.1406 30.0513 23.6084 30.1465 22.9932 30.1465C22.5342 30.1465 22.0898 30.0781 21.6602 29.9414C21.2354 29.8047 20.8521 29.6021 20.5103 29.3335C20.1733 29.0649 19.9023 28.7402 19.6973 28.3594C19.4971 27.9736 19.3921 27.5342 19.3823 27.041H21.4771C21.5063 27.3438 21.5845 27.605 21.7114 27.8247C21.8433 28.0396 22.0166 28.2056 22.2314 28.3228C22.4463 28.4399 22.6978 28.4985 22.9858 28.4985C23.2544 28.4985 23.4839 28.4473 23.6743 28.3447C23.8647 28.2422 24.0186 28.1006 24.1357 27.9199C24.2529 27.7344 24.3384 27.5195 24.3921 27.2754C24.4507 27.0264 24.48 26.7578 24.48 26.4697C24.48 26.1816 24.4458 25.9204 24.3774 25.686C24.3091 25.4517 24.2041 25.249 24.0625 25.0781C23.9209 24.9072 23.7402 24.7754 23.5205 24.6826C23.3057 24.5898 23.0542 24.5435 22.7661 24.5435C22.3755 24.5435 22.0728 24.6045 21.8579 24.7266C21.6479 24.8486 21.4722 24.9878 21.3306 25.144Z" fill="#4B4B4B"/>
</svg>
