<svg width="14" height="16" viewBox="0 0 14 16" fill="none" xmlns="http://www.w3.org/2000/svg">
<path d="M6.55 0.88981C2.965 1.12231 0.25 4.26481 0.25 7.85731V12.8748C0.25 14.1198 1.255 15.1248 2.5 15.1248H3.25C4.075 15.1248 4.75 14.4498 4.75 13.6248V10.6248C4.75 9.79981 4.075 9.12481 3.25 9.12481H1.75V7.84231C1.75 4.96231 3.97 2.45731 6.8425 2.37481C9.82 2.29231 12.25 4.66981 12.25 7.62481V9.12481H10.75C9.925 9.12481 9.25 9.79981 9.25 10.6248V13.6248C9.25 14.4498 9.925 15.1248 10.75 15.1248H11.5C12.745 15.1248 13.75 14.1198 13.75 12.8748V7.62481C13.75 3.74731 10.48 0.63481 6.55 0.88981Z" fill="#5B5B5B"/>
</svg>
