<svg width="20" height="20" viewBox="0 0 20 20" fill="none" xmlns="http://www.w3.org/2000/svg">
<path fill-rule="evenodd" clip-rule="evenodd" d="M10 20H10.0004H10.0007C13.2724 20 16.177 18.4289 18.0015 16L18.0011 15.9995C19.2563 14.3283 20 12.251 20 10C20 4.47715 15.5228 0 10 0C4.47715 0 0 4.47715 0 10C0 15.5228 4.47715 20 10 20ZM10.0007 12C12.5369 12 14.8525 12.9441 16.6153 14.5C17.4891 13.2179 18 11.6686 18 10C18 5.58172 14.4183 2 10 2C5.58172 2 2 5.58172 2 10C2 11.669 2.51107 13.2186 3.38524 14.5008C5.14819 12.9444 7.46417 12 10.0007 12ZM10 11.3333C11.8409 11.3333 13.3333 9.84095 13.3333 8C13.3333 6.15905 11.8409 4.66667 10 4.66667C8.15905 4.66667 6.66667 6.15905 6.66667 8C6.66667 9.84095 8.15905 11.3333 10 11.3333Z" fill="white"/>
</svg>
