<svg width="21" height="24" viewBox="0 0 21 24" fill="none" xmlns="http://www.w3.org/2000/svg">
<path d="M19.0156 15.5001C20.3956 15.5001 21.4181 16.8005 20.7865 18.0275C18.9608 21.5743 15.2637 24.0001 11 24.0001C4.92487 24.0001 0 19.0752 0 13.0001C0 6.92493 4.92487 2.00006 11 2.00006C12.8449 2.00006 14.5837 2.45425 16.1108 3.25691C17.1847 3.8214 17.2497 5.25039 16.3918 6.10829C15.6735 6.82653 14.5466 6.87841 13.6039 6.50038C12.799 6.17763 11.9202 6.00006 11 6.00006C7.13401 6.00006 4 9.13407 4 13.0001C4 16.8661 7.13401 20.0001 11 20.0001C13.4599 20.0001 15.6235 18.7312 16.8719 16.8122C17.3564 16.0675 18.1271 15.5001 19.0156 15.5001Z" fill="white"/>
<path d="M17.4539 0.939932C17.9842 0.224085 19.1153 0.50681 19.2465 1.38801L20.2161 7.90203C20.2974 8.44829 19.9204 8.95705 19.3742 9.03836L12.8602 10.0079C11.979 10.1391 11.3791 9.13939 11.9094 8.42355L17.4539 0.939932Z" fill="white"/>
</svg>
