<svg width="24" height="22" viewBox="0 0 24 22" fill="none" xmlns="http://www.w3.org/2000/svg">
<path fill-rule="evenodd" clip-rule="evenodd" d="M16.6667 2.80951C16.6667 0.286907 13.4885 -0.825457 11.9154 1.14655L8.76542 5.09522H3.33332C1.86056 5.09522 0.666656 6.28913 0.666656 7.76189V14.2381C0.666656 15.7108 1.86056 16.9047 3.33332 16.9047H8.76542L11.9154 20.8534C13.4885 22.8254 16.6667 21.7131 16.6667 19.1905V2.80951Z" fill="white"/>
<path d="M20.5588 6.45593C19.8901 6.14749 19.098 6.43951 18.7896 7.10817C18.4811 7.77684 18.7732 8.56895 19.4418 8.87739C19.7753 9.03123 20.0839 9.30301 20.311 9.68151C20.5386 10.0609 20.667 10.5201 20.667 11C20.667 11.4799 20.5386 11.9391 20.311 12.3185C20.0839 12.697 19.7753 12.9688 19.4418 13.1226C18.7732 13.431 18.4811 14.2231 18.7896 14.8918C19.098 15.5605 19.8901 15.8525 20.5588 15.5441C21.4093 15.1517 22.1127 14.4986 22.5976 13.6905C23.082 12.8832 23.3336 11.9473 23.3336 11C23.3336 10.0527 23.082 9.11677 22.5976 8.30952C22.1127 7.50136 21.4093 6.84825 20.5588 6.45593Z" fill="white"/>
</svg>
