<svg width="23" height="22" viewBox="0 0 23 22" fill="none" xmlns="http://www.w3.org/2000/svg">
<path d="M22.2122 11C22.2122 9.30253 21.642 7.74654 20.6863 6.50909C19.775 5.32891 18.1998 6.21432 18.1998 7.70544V14.2982C18.1998 15.7845 19.767 16.6708 20.679 15.4971C21.639 14.2615 22.2122 12.7019 22.2122 11ZM2.54547 6.12501C1.4409 6.12501 0.545471 7.02044 0.545471 8.12501V13.875C0.545471 14.9796 1.4409 15.875 2.54547 15.875H6.12952C6.66426 15.875 7.17673 16.0892 7.55249 16.4696L11.567 20.5343C12.8233 21.8063 14.9899 20.9167 14.9899 19.1289V2.87116C14.9899 1.08336 12.8233 0.193761 11.567 1.46576L7.55249 5.53041C7.17672 5.91087 6.66426 6.12501 6.12952 6.12501H2.54547Z" fill="white"/>
</svg>
