<svg width="28" height="22" viewBox="0 0 28 22" fill="none" xmlns="http://www.w3.org/2000/svg">
<path fill-rule="evenodd" clip-rule="evenodd" d="M11.9154 1.00898C13.4885 -0.96303 16.6667 0.149334 16.6667 2.67193V19.0529C16.6667 21.5755 13.4885 22.6878 11.9154 20.7158L8.76542 16.7672H3.33332C1.86056 16.7672 0.666656 15.5733 0.666656 14.1005V7.62431C0.666656 6.15155 1.86056 4.95765 3.33332 4.95765H8.76542L11.9154 1.00898Z" fill="white"/>
<path d="M19.7238 7.25295C20.2445 6.73225 21.0888 6.73225 21.6095 7.25295L23.3333 8.97681L25.0572 7.25295C25.5779 6.73225 26.4221 6.73225 26.9428 7.25295C27.4635 7.77365 27.4635 8.61787 26.9428 9.13857L25.2189 10.8624L26.9428 12.5863C27.4635 13.107 27.4635 13.9512 26.9428 14.4719C26.4221 14.9926 25.5779 14.9926 25.0572 14.4719L23.3333 12.748L21.6095 14.4719C21.0888 14.9926 20.2445 14.9926 19.7238 14.4719C19.2031 13.9512 19.2031 13.107 19.7238 12.5863L21.4477 10.8624L19.7238 9.13857C19.2031 8.61787 19.2031 7.77365 19.7238 7.25295Z" fill="white"/>
</svg>
