<svg width="23" height="26" viewBox="0 0 23 26" fill="none" xmlns="http://www.w3.org/2000/svg">
<path d="M22.2122 13C22.2122 11.3025 21.642 9.74654 20.6863 8.50909C19.775 7.32891 18.1998 8.21432 18.1998 9.70544V16.2982C18.1998 17.7845 19.767 18.6708 20.679 17.4971C21.639 16.2615 22.2122 14.7019 22.2122 13ZM2.54547 8.12501C1.4409 8.12501 0.545471 9.02044 0.545471 10.125V15.875C0.545471 16.9796 1.4409 17.875 2.54547 17.875H6.12952C6.66426 17.875 7.17673 18.0892 7.55249 18.4696L11.567 22.5343C12.8233 23.8063 14.9899 22.9167 14.9899 21.1289V4.87116C14.9899 3.08336 12.8233 2.19376 11.567 3.46576L7.55249 7.53041C7.17672 7.91087 6.66426 8.12501 6.12952 8.12501H2.54547Z" fill="white"/>
<rect width="28" height="3" rx="1.5" transform="matrix(-0.676538 -0.736408 -0.736408 0.676538 22.1523 21.6194)" fill="#8C8C8C"/>
</svg>
