<svg width="51" height="50" viewBox="0 0 51 50" fill="none" xmlns="http://www.w3.org/2000/svg">
<path d="M36.0408 0H14.6288C6.55287 0 0 6.45791 0 14.4168V35.5185C0 43.4774 6.55287 49.9353 14.6288 49.9353H36.0408C44.1168 49.9353 50.6697 43.4774 50.6697 35.5185V14.4168C50.6697 6.45791 44.1168 0 36.0408 0ZM45.9941 35.885C45.9941 41.1735 41.655 45.4497 36.2888 45.4497H14.3632C8.99692 45.4497 4.65785 41.1735 4.65785 35.885V14.2772C4.65785 8.98871 8.99692 4.71252 14.3632 4.71252H36.2888C41.655 4.71252 45.9941 8.98871 45.9941 14.2772V35.885Z" fill="white" fill-opacity="0.5"/>
<path d="M25.3259 12.1304C18.0646 12.1304 12.1848 17.925 12.1848 25.0811C12.1848 32.2371 18.0646 38.0318 25.3259 38.0318C32.5872 38.0318 38.4671 32.2371 38.4671 25.0811C38.4671 17.925 32.5872 12.1304 25.3259 12.1304ZM25.3259 33.4764C20.6149 33.4764 16.8072 29.7238 16.8072 25.0811C16.8072 20.4384 20.6149 16.6858 25.3259 16.6858C30.0369 16.6858 33.8447 20.4384 33.8447 25.0811C33.8447 29.7238 30.0369 33.4764 25.3259 33.4764Z" fill="white" fill-opacity="0.5"/>
<path d="M38.91 14.6616C40.6022 14.6616 41.974 13.3097 41.974 11.6421C41.974 9.97444 40.6022 8.62256 38.91 8.62256C37.2179 8.62256 35.8461 9.97444 35.8461 11.6421C35.8461 13.3097 37.2179 14.6616 38.91 14.6616Z" fill="white" fill-opacity="0.5"/>
</svg>
