<svg width="146" height="66" viewBox="0 0 146 66" fill="none" xmlns="http://www.w3.org/2000/svg">
<path d="M32.5027 48.4885C38.6603 48.4885 43.8734 44.2444 45.0629 38.3304H19.9424C21.1494 44.2444 26.345 48.4885 32.5027 48.4885Z" fill="#FFE000"/>
<path d="M60.9645 48.6973C68.1018 36.2954 66.3875 20.1887 55.7515 9.61316C43.0163 -3.0496 22.2866 -3.0496 9.5514 9.61316C-3.1838 22.2759 -3.1838 42.8877 9.5514 55.5505C20.2399 66.1781 36.5437 67.848 49.0515 60.6295C49.1915 60.7165 49.3139 60.8034 49.4539 60.8904C53.2674 63.0472 60.3173 65.4476 63.0812 62.7168C65.6178 60.1946 63.6935 53.8633 61.2619 49.2017C61.1744 49.0277 61.0695 48.8712 60.9645 48.6973ZM15.954 17.8927C17.371 17.8927 18.5255 19.0407 18.5255 20.4496C18.5255 23.4413 20.3623 25.8765 22.6015 25.8765C24.8581 25.8765 26.6774 23.4413 26.6774 20.4496C26.6774 19.0407 27.832 17.8927 29.249 17.8927C30.6659 17.8927 31.8205 19.0407 31.8205 20.4496C31.8205 26.2765 27.6746 31.0077 22.584 31.0077C17.4934 31.0077 13.3475 26.2765 13.3475 20.4496C13.3825 19.0407 14.537 17.8927 15.954 17.8927ZM32.5028 53.6023C23.1963 53.6023 15.4992 46.6796 14.607 37.4956C14.502 36.365 14.8694 35.2518 15.6216 34.4169C16.3388 33.6341 17.336 33.1993 18.3681 33.1993H46.6374C47.6695 33.1993 48.6842 33.6515 49.3839 34.4169C50.1361 35.2518 50.5035 36.365 50.3985 37.4956C49.5063 46.6796 41.8092 53.6023 32.5028 53.6023ZM49.3139 30.1032C47.897 30.1032 46.7424 28.9552 46.7424 27.5463C46.7424 24.5545 44.9056 22.1194 42.6664 22.1194C40.4273 22.1194 38.5905 24.5545 38.5905 27.5463C38.5905 28.9552 37.4359 30.1032 36.0189 30.1032C34.602 30.1032 33.4474 28.9552 33.4474 27.5463C33.4474 21.7193 37.5933 16.9882 42.6839 16.9882C47.7745 16.9882 51.9204 21.7193 51.9204 27.5463C51.9029 28.9552 50.7309 30.1032 49.3139 30.1032Z" fill="#FFE000"/>
<path d="M82.0092 10.45C82.3766 10.6414 82.4815 11.0414 82.2716 11.4067C82.0617 11.7894 81.7118 11.8589 81.3795 11.7024C80.7147 11.3719 80.015 11.2154 79.0878 11.2154C77.6359 11.2154 76.7437 11.9459 76.7437 12.8156V12.9721C76.7437 13.894 77.286 14.3115 79.2278 14.7463C81.9917 15.3203 82.9364 16.2422 82.9364 17.9294V18.1555C82.9364 20.1036 81.4844 21.3038 78.9129 21.3038C77.5834 21.3038 76.2889 20.9212 75.4317 20.3646C75.0293 20.121 74.9944 19.7036 75.2218 19.3383C75.4492 18.973 75.7991 18.8861 76.1664 19.1122C76.9711 19.5992 77.9158 19.8949 78.9829 19.8949C80.5398 19.8949 81.362 19.1818 81.362 18.2425V18.0686C81.362 17.0249 80.7497 16.5727 78.8079 16.1726C76.3413 15.6682 75.1693 14.9724 75.1693 13.0243V12.8156C75.1693 11.0936 76.6038 9.78906 79.0353 9.78906C80.2424 9.80646 81.257 10.0152 82.0092 10.45Z" fill="#5E5E5E"/>
<path d="M78.9304 21.495C77.6009 21.495 76.2539 21.1298 75.3267 20.521C75.0993 20.3818 74.9594 20.1905 74.9069 19.9644C74.8544 19.7208 74.9069 19.4599 75.0643 19.2164C75.3617 18.7468 75.834 18.6424 76.3064 18.9207C77.1285 19.4251 78.0382 19.6687 79.0178 19.6687C80.3473 19.6687 81.1695 19.1295 81.1695 18.2424V18.0684C81.1695 17.2509 80.8197 16.8161 78.7904 16.3812C76.3763 15.8942 74.9769 15.181 74.9769 13.0242V12.8155C74.9769 10.8847 76.6212 9.5802 79.0703 9.5802C80.2774 9.5802 81.327 9.80632 82.1142 10.2412C82.3416 10.3629 82.499 10.5369 82.569 10.763C82.639 10.9891 82.604 11.25 82.4815 11.4935C82.2366 11.9458 81.7818 12.1023 81.3095 11.8762C80.6622 11.5457 79.98 11.4066 79.1228 11.4066C77.8983 11.4066 76.9886 11.9806 76.9886 12.7807V12.9372C76.9886 13.6678 77.321 14.0678 79.2977 14.4853C82.0967 15.0767 83.1813 16.0159 83.1813 17.8771V18.1032C83.1813 20.2427 81.5894 21.495 78.9304 21.495ZM75.7991 19.1816C75.6591 19.1816 75.5192 19.2686 75.4142 19.4425C75.3267 19.5817 75.2917 19.7382 75.3092 19.86C75.3442 19.9818 75.4142 20.0687 75.5367 20.1557C76.3763 20.7123 77.6708 21.0602 78.8954 21.0602C81.3095 21.0602 82.7089 19.9991 82.7089 18.138V17.9119C82.7089 16.5378 82.1142 15.5637 79.1578 14.9375C77.391 14.5549 76.4988 14.1374 76.4988 12.9546V12.7981C76.4988 11.8936 77.3735 10.9891 79.0703 10.9891C80.015 10.9891 80.7497 11.1457 81.4494 11.4935C81.6244 11.5631 81.8868 11.6153 82.0617 11.2848C82.1317 11.1457 82.1492 11.0239 82.1142 10.9021C82.0792 10.7804 81.9917 10.6934 81.8868 10.6238C81.1695 10.2238 80.1899 10.015 79.0528 10.015C76.8661 10.015 75.3967 11.1457 75.3967 12.8155V13.0068C75.3967 14.6766 76.2714 15.4246 78.8604 15.9464C80.6622 16.329 81.5894 16.7639 81.5894 18.051V18.225C81.5894 19.3556 80.5748 20.0861 79.0003 20.0861C77.9507 20.0861 76.9536 19.8078 76.0615 19.2686C75.974 19.2164 75.8865 19.1816 75.7991 19.1816Z" fill="#5E5E5E"/>
<path d="M88.6216 11.1283L91.4205 17.4249L94.1495 11.1457C94.5343 10.1369 94.8492 9.94556 95.5315 9.94556H95.7589C96.5286 9.94556 96.791 10.2239 96.791 11.0588V20.5558C96.791 20.9907 96.4411 21.182 96.0563 21.182C95.6714 21.182 95.304 20.9907 95.304 20.5558V11.4762C95.0766 12.2242 94.9017 12.6938 94.6918 13.2156L92.2602 18.6599C92.0503 19.1643 91.8229 19.3035 91.403 19.3035C90.9132 19.3035 90.6858 19.1469 90.4759 18.6251L88.0793 13.1982C87.8518 12.6938 87.6769 12.2068 87.432 11.4588V20.5384C87.432 20.9733 87.0646 21.1646 86.6798 21.1646C86.2949 21.1646 85.9451 20.9733 85.9451 20.5384V11.0588C85.9451 10.2239 86.225 9.94556 86.9947 9.94556H87.2396C87.9393 9.94556 88.2017 10.1021 88.6216 11.1283Z" fill="#5E5E5E"/>
<path d="M96.0739 21.4081C95.4966 21.4081 95.0942 21.0776 95.0942 20.5732V12.8155C95.0243 12.9895 94.9718 13.1286 94.9018 13.2852L92.4702 18.7295C92.2428 19.2687 91.9454 19.4948 91.4206 19.4948C90.8258 19.4948 90.5285 19.2687 90.2836 18.6773L87.887 13.2678C87.817 13.0938 87.7295 12.9199 87.6595 12.7286V20.521C87.6595 21.0255 87.2747 21.3559 86.6799 21.3559C86.1026 21.3559 85.7178 21.0255 85.7178 20.521V11.0588C85.7178 10.1195 86.0851 9.73682 86.9948 9.73682H87.2397C88.0619 9.73682 88.3768 10.0151 88.8141 11.0588L91.4206 16.9031L93.9397 11.0761C94.342 10.0499 94.7094 9.73682 95.5316 9.73682H95.759C96.6512 9.73682 97.0185 10.1195 97.0185 11.0588V20.5558C97.036 21.0776 96.6512 21.4081 96.0739 21.4081ZM95.3217 11.2675C95.3392 11.2675 95.3391 11.2675 95.3566 11.2675C95.4616 11.2849 95.5491 11.3718 95.5491 11.4762V20.5558C95.5491 20.9211 95.9164 20.9559 96.0914 20.9559C96.2838 20.9559 96.6162 20.9037 96.6162 20.5558V11.0588C96.6162 10.2934 96.4062 10.1717 95.794 10.1717H95.5666C95.0068 10.1717 94.7619 10.2586 94.377 11.2327L91.648 17.5293C91.6131 17.5989 91.5256 17.6684 91.4556 17.6684C91.3681 17.6684 91.2982 17.6163 91.2632 17.5467L88.4642 11.2501C88.0444 10.2412 87.8345 10.1891 87.2922 10.1891H87.0473C86.3825 10.1891 86.2076 10.3804 86.2076 11.0761V20.5732C86.2076 20.9385 86.575 20.9733 86.7324 20.9733C86.8898 20.9733 87.2747 20.9385 87.2747 20.5732V11.4762C87.2747 11.3718 87.3447 11.2849 87.4671 11.2675C87.5721 11.2501 87.677 11.3197 87.712 11.424C87.9569 12.1894 88.1494 12.659 88.3418 13.146L90.7384 18.5729C90.9308 19.0252 91.0883 19.1121 91.4731 19.1121C91.7705 19.1121 91.9454 19.0426 92.1204 18.6077L94.5519 13.146C94.7619 12.6764 94.9193 12.2241 95.1642 11.4414C95.1292 11.3197 95.2167 11.2675 95.3217 11.2675Z" fill="#5E5E5E"/>
<path d="M105.24 10.6065L108.967 20.1731C109.141 20.6254 108.914 21.008 108.529 21.1298C108.109 21.2515 107.654 21.1994 107.48 20.6949L106.447 17.8945H102.092L101.024 20.7471C100.867 21.2168 100.447 21.2863 100.027 21.1472C99.6425 21.008 99.4326 20.6949 99.6075 20.2427L103.351 10.6239C103.561 10.0847 103.893 9.91072 104.296 9.91072C104.698 9.89332 105.03 10.0673 105.24 10.6065ZM103.561 13.8591L102.546 16.5726H105.958L104.943 13.8591C104.663 13.0764 104.436 12.4502 104.243 11.824C104.051 12.5024 103.858 13.059 103.561 13.8591Z" fill="#5E5E5E"/>
<path d="M100.377 21.4082C100.237 21.4082 100.097 21.3908 99.9398 21.3386C99.6774 21.2342 99.485 21.0777 99.3801 20.869C99.2926 20.6602 99.2926 20.4167 99.3801 20.1558L103.124 10.537C103.334 9.96299 103.718 9.68469 104.278 9.68469C104.838 9.68469 105.223 9.96299 105.45 10.537L109.176 20.1036C109.281 20.3819 109.281 20.6429 109.159 20.869C109.054 21.0951 108.844 21.2516 108.599 21.3386C107.952 21.5125 107.479 21.3212 107.27 20.7646L106.29 18.1033H102.231L101.217 20.8168C101.147 21.0429 100.989 21.2342 100.78 21.3212C100.657 21.3734 100.517 21.4082 100.377 21.4082ZM104.278 10.1195C104.016 10.1195 103.736 10.1891 103.543 10.6761L99.7999 20.295C99.7474 20.4515 99.7299 20.5733 99.7824 20.6776C99.8349 20.8168 99.9923 20.8864 100.097 20.9212C100.29 20.9907 100.465 20.9907 100.605 20.9212C100.71 20.869 100.762 20.782 100.815 20.6602L101.882 17.8076C101.917 17.7207 102.004 17.6685 102.092 17.6685H106.447C106.535 17.6685 106.622 17.7207 106.657 17.8076L107.689 20.6081C107.759 20.8168 107.934 21.0777 108.477 20.9212C108.617 20.8864 108.722 20.782 108.774 20.6776C108.826 20.5559 108.826 20.4167 108.774 20.2428L105.048 10.6761C104.873 10.2761 104.663 10.1195 104.278 10.1195ZM105.958 16.7814H102.546C102.476 16.7814 102.406 16.7466 102.371 16.6944C102.336 16.6423 102.319 16.5553 102.354 16.4857L103.369 13.7723C103.683 12.9374 103.858 12.3981 104.051 11.7546C104.086 11.6676 104.156 11.598 104.261 11.598C104.348 11.598 104.436 11.6676 104.471 11.7546C104.663 12.3634 104.873 12.9895 105.153 13.7723L106.167 16.4857C106.185 16.5553 106.185 16.6249 106.15 16.677C106.098 16.7466 106.028 16.7814 105.958 16.7814ZM102.861 16.3466H105.643L104.751 13.9288C104.558 13.407 104.401 12.9721 104.261 12.5547C104.121 12.9547 103.981 13.3896 103.771 13.9288L102.861 16.3466Z" fill="#5E5E5E"/>
<path d="M119.445 13.0937V13.3546C119.445 14.8331 118.693 15.7898 117.451 16.2246L119.533 20.1035C119.76 20.5209 119.603 20.9036 119.218 21.0949C118.815 21.2689 118.378 21.2341 118.186 20.8166L115.946 16.4855C115.789 16.5203 115.597 16.5203 115.422 16.5203H113.322V20.5383C113.322 20.9906 112.938 21.1993 112.518 21.1993C112.115 21.1993 111.73 20.9906 111.73 20.5383V11.1456C111.73 10.2759 112.028 9.98022 112.938 9.98022H115.736C118.063 9.98022 119.445 11.076 119.445 13.0937ZM115.422 15.1636C117.153 15.1636 117.888 14.52 117.888 13.3372V13.1285C117.888 11.9283 117.153 11.3196 115.579 11.3196H113.322V15.181H115.422V15.1636Z" fill="#5E5E5E"/>
<path d="M118.78 21.4081C118.43 21.4081 118.15 21.2342 117.993 20.9037L115.806 16.7118C115.666 16.7292 115.544 16.7292 115.404 16.7292H113.532V20.5384C113.532 21.0603 113.13 21.4081 112.518 21.4081C111.923 21.4081 111.503 21.0603 111.503 20.5384V11.1457C111.503 10.1543 111.905 9.77161 112.937 9.77161H115.736C118.185 9.77161 119.655 11.024 119.655 13.1112V13.3721C119.655 14.7811 118.973 15.8247 117.748 16.3465L119.707 20.0166C119.847 20.2775 119.865 20.521 119.795 20.7646C119.725 20.9907 119.55 21.182 119.305 21.3038C119.13 21.3733 118.938 21.4081 118.78 21.4081ZM115.946 16.2595C116.034 16.2595 116.104 16.3117 116.139 16.3813L118.378 20.7124C118.535 21.0603 118.885 21.0081 119.13 20.8863C119.253 20.8167 119.357 20.7298 119.392 20.608C119.427 20.4863 119.41 20.3471 119.34 20.2079L117.258 16.3291C117.223 16.2769 117.223 16.2074 117.241 16.1552C117.258 16.103 117.311 16.0508 117.363 16.0334C118.57 15.5986 119.218 14.6941 119.218 13.3721V13.0938C119.218 11.2501 117.941 10.1891 115.736 10.1891H112.937C112.15 10.1891 111.958 10.3804 111.958 11.1283V20.521C111.958 20.9211 112.395 20.9559 112.535 20.9559C112.71 20.9559 113.112 20.9211 113.112 20.521V16.503C113.112 16.3813 113.217 16.2943 113.322 16.2943H115.421C115.579 16.2943 115.771 16.2943 115.894 16.2595C115.911 16.2595 115.929 16.2595 115.946 16.2595ZM115.421 15.3898H113.322C113.2 15.3898 113.112 15.2855 113.112 15.1811V11.3023C113.112 11.1805 113.217 11.0935 113.322 11.0935H115.579C117.258 11.0935 118.115 11.7719 118.115 13.1286V13.3548C118.115 14.6941 117.206 15.3898 115.421 15.3898ZM113.55 14.955H115.421C117.433 14.955 117.678 14.0331 117.678 13.3374V13.1286C117.678 12.4503 117.468 11.5284 115.579 11.5284H113.55V14.955Z" fill="#5E5E5E"/>
<path d="M130.291 10.6414C130.291 11.0066 130.116 11.3197 129.731 11.3197H126.705V20.5211C126.705 20.9734 126.337 21.1821 125.918 21.1821C125.515 21.1821 125.13 20.9734 125.13 20.5211V11.3197H122.122C121.737 11.3197 121.562 11.0066 121.562 10.6414C121.562 10.2761 121.737 9.96301 122.122 9.96301H129.731C130.134 9.98041 130.291 10.2935 130.291 10.6414Z" fill="#5E5E5E"/>
<path d="M125.935 21.4081C125.34 21.4081 124.92 21.0603 124.92 20.5384V11.5458H122.139C121.667 11.5458 121.352 11.1805 121.352 10.6587C121.352 10.1195 121.667 9.77161 122.139 9.77161H129.749C130.203 9.77161 130.518 10.1369 130.518 10.6587C130.518 11.1979 130.203 11.5458 129.749 11.5458H126.95V20.5384C126.95 21.0603 126.547 21.4081 125.935 21.4081ZM122.139 10.1891C121.842 10.1891 121.789 10.4674 121.789 10.6413C121.789 10.8152 121.842 11.0935 122.139 11.0935H125.148C125.27 11.0935 125.358 11.1979 125.358 11.3023V20.5036C125.358 20.9037 125.795 20.9385 125.935 20.9385C126.145 20.9385 126.512 20.8863 126.512 20.5036V11.3197C126.512 11.1979 126.617 11.1109 126.722 11.1109H129.749C130.046 11.1109 130.081 10.7978 130.081 10.6587C130.081 10.5195 130.046 10.2065 129.749 10.2065H122.139V10.1891Z" fill="#5E5E5E"/>
<path d="M84.0733 34.2275V35.1145C84.0733 38.6455 82.359 40.2284 79.2451 40.2284H76.6736C75.7639 40.2284 75.4666 39.95 75.4666 39.063V30.2442C75.4666 29.3746 75.7639 29.0789 76.6736 29.0789H79.2451C82.4464 29.1136 84.0733 30.6965 84.0733 34.2275ZM79.0352 38.889C81.3968 38.889 82.4814 37.741 82.4814 35.0102V34.3666C82.4814 31.601 81.4843 30.453 79.0352 30.453H77.041V38.889H79.0352Z" fill="#5E5E5E"/>
<path d="M79.2453 40.4544H76.6737C75.6416 40.4544 75.2393 40.0717 75.2393 39.0803V30.2616C75.2393 29.2701 75.6416 28.8875 76.6737 28.8875H79.2453C82.639 28.8875 84.3008 30.6268 84.3008 34.2274V35.1145C84.3008 38.6628 82.5865 40.4544 79.2453 40.4544ZM76.6737 29.3223C75.869 29.3223 75.6766 29.5136 75.6766 30.2616V39.0803C75.6766 39.8282 75.869 40.0195 76.6737 40.0195H79.2453C82.3591 40.0195 83.8635 38.4193 83.8635 35.1145V34.2274C83.8635 30.8877 82.3941 29.3223 79.2453 29.3223H76.6737ZM79.0353 39.1151H77.0411C76.9186 39.1151 76.8312 39.0107 76.8312 38.9063V30.4703C76.8312 30.3485 76.9361 30.2616 77.0411 30.2616H79.0353C81.6069 30.2616 82.7089 31.4965 82.7089 34.4013V35.0449C82.7089 37.8453 81.5719 39.1151 79.0353 39.1151ZM77.251 38.6802H79.0353C81.292 38.6802 82.2716 37.5844 82.2716 35.0101V34.3665C82.2716 31.7053 81.362 30.679 79.0353 30.679H77.251V38.6802Z" fill="#5E5E5E"/>
<path d="M94.2893 29.7572C94.2893 30.1224 94.1144 30.4181 93.747 30.4181H88.7089V33.8795H93.4321C93.7995 33.8795 93.9744 34.1752 93.9744 34.5231C93.9744 34.8884 93.7995 35.1841 93.4321 35.1841H88.7089V38.9237H93.852C94.2368 38.9237 94.4118 39.2194 94.4118 39.5847C94.4118 39.95 94.2368 40.2457 93.852 40.2457H88.3416C87.4319 40.2457 87.1345 39.9674 87.1345 39.0803V30.2616C87.1345 29.3919 87.4319 29.0962 88.3416 29.0962H93.747C94.1144 29.1136 94.2893 29.4093 94.2893 29.7572Z" fill="#5E5E5E"/>
<path d="M93.8521 40.4544H88.3417C87.3096 40.4544 86.9072 40.0717 86.9072 39.0803V30.2616C86.9072 29.2701 87.3096 28.8875 88.3417 28.8875H93.7471C94.2195 28.8875 94.5169 29.2353 94.5169 29.7571C94.5169 30.2964 94.2195 30.6268 93.7471 30.6268H88.919V33.6534H93.4323C93.8871 33.6534 94.1845 34.0013 94.1845 34.5057C94.1845 35.0275 93.8871 35.3754 93.4323 35.3754H88.919V38.6802H93.8521C94.3069 38.6802 94.6218 39.0281 94.6218 39.5499C94.6218 40.0717 94.3069 40.4544 93.8521 40.4544ZM88.3417 29.3223C87.537 29.3223 87.3446 29.5136 87.3446 30.2616V39.0803C87.3446 39.8282 87.537 40.0195 88.3417 40.0195H93.8521C94.1495 40.0195 94.1845 39.7412 94.1845 39.5847C94.1845 39.4282 94.1495 39.1499 93.8521 39.1499H88.709C88.5866 39.1499 88.4991 39.0455 88.4991 38.9411V35.2014C88.4991 35.0797 88.6041 34.9927 88.709 34.9927H93.4323C93.7122 34.9927 93.7471 34.6796 93.7471 34.5579C93.7471 34.4361 93.7122 34.1404 93.4323 34.1404H88.709C88.5866 34.1404 88.4991 34.036 88.4991 33.9317V30.4181C88.4991 30.2964 88.6041 30.2094 88.709 30.2094H93.7471C94.0445 30.2094 94.0795 29.9311 94.0795 29.7745C94.0795 29.618 94.0445 29.3397 93.7471 29.3397H88.3417V29.3223Z" fill="#5E5E5E"/>
<path d="M104.016 29.5833C104.383 29.7746 104.488 30.1747 104.278 30.5399C104.068 30.9226 103.718 30.9922 103.386 30.8356C102.721 30.5051 102.022 30.3486 101.094 30.3486C99.6425 30.3486 98.7503 31.0791 98.7503 31.9488V32.1054C98.7503 33.0273 99.2926 33.4447 101.234 33.8796C103.998 34.4536 104.943 35.3754 104.943 37.0627V37.2888C104.943 39.2369 103.491 40.4371 100.919 40.4371C99.59 40.4371 98.2955 40.0544 97.4383 39.4978C97.0359 39.2543 97.0009 38.8368 97.2284 38.4716C97.4558 38.1063 97.8056 38.0193 98.173 38.2454C98.9777 38.7325 99.9223 39.0282 100.989 39.0282C102.546 39.0282 103.369 38.315 103.369 37.3757V37.2018C103.369 36.1582 102.756 35.7059 100.815 35.3059C98.3479 34.8014 97.1759 34.1057 97.1759 32.1576V31.9662C97.1759 30.2442 98.6103 28.9397 101.042 28.9397C102.266 28.9397 103.264 29.1484 104.016 29.5833Z" fill="#5E5E5E"/>
<path d="M100.937 40.6283C99.6075 40.6283 98.2605 40.263 97.3333 39.6542C97.1059 39.5151 96.966 39.3237 96.9135 39.0976C96.861 38.8541 96.9135 38.5932 97.0709 38.3497C97.3683 37.88 97.8406 37.7583 98.313 38.054C99.1351 38.5584 100.045 38.8019 101.024 38.8019C102.354 38.8019 103.176 38.2627 103.176 37.3756V37.2017C103.176 36.3842 102.826 35.9493 100.797 35.5145C98.3829 35.0274 96.9834 34.3143 96.9834 32.1574V31.9661C96.9834 30.0354 98.6278 28.7308 101.077 28.7308C102.284 28.7308 103.334 28.957 104.121 29.3918C104.348 29.5136 104.506 29.6875 104.576 29.9136C104.646 30.1397 104.611 30.4007 104.488 30.6442C104.243 31.0964 103.788 31.253 103.316 31.0268C102.669 30.6963 101.987 30.5572 101.129 30.5572C99.9049 30.5572 98.9952 31.1312 98.9952 31.9313V32.0879C98.9952 32.8184 99.3276 33.2185 101.304 33.6359C104.103 34.2273 105.188 35.1666 105.188 37.0277V37.2538C105.188 39.3759 103.596 40.6283 100.937 40.6283ZM97.8231 38.3149C97.6832 38.3149 97.5432 38.4018 97.4383 38.5758C97.3508 38.7149 97.3158 38.8715 97.3333 38.9932C97.3683 39.115 97.4383 39.202 97.5607 39.2889C98.4004 39.8455 99.6949 40.1934 100.919 40.1934C103.334 40.1934 104.733 39.1324 104.733 37.2712V37.0451C104.733 35.671 104.138 34.6969 101.182 34.0708C99.415 33.6881 98.5229 33.2706 98.5229 32.0879V31.9313C98.5229 31.0268 99.3975 30.1223 101.094 30.1223C102.039 30.1223 102.774 30.2789 103.474 30.6268C103.648 30.6963 103.911 30.7311 104.086 30.418C104.156 30.2789 104.173 30.1571 104.138 30.0354C104.103 29.9136 104.016 29.8267 103.911 29.7571C103.194 29.357 102.214 29.1483 101.077 29.1483C98.8902 29.1483 97.4208 30.2789 97.4208 31.9487V32.14C97.4208 33.8099 98.2955 34.5578 100.884 35.0796C102.686 35.4623 103.613 35.8971 103.613 37.1843V37.3582C103.613 38.4888 102.599 39.2194 101.024 39.2194C99.9748 39.2194 98.9777 38.9411 98.0855 38.4018C97.9806 38.3497 97.8931 38.3149 97.8231 38.3149Z" fill="#5E5E5E"/>
<path d="M109.561 29.6877V39.6544C109.561 40.1066 109.177 40.3154 108.757 40.3154C108.354 40.3154 107.969 40.1066 107.969 39.6544V29.6877C107.969 29.2355 108.354 29.0267 108.757 29.0267C109.194 29.0267 109.561 29.2355 109.561 29.6877Z" fill="#5E5E5E"/>
<path d="M108.757 40.5414C108.162 40.5414 107.742 40.1935 107.742 39.6717V29.705C107.742 29.1832 108.144 28.8353 108.757 28.8353C109.369 28.8353 109.771 29.1832 109.771 29.705V39.6717C109.789 40.1762 109.369 40.5414 108.757 40.5414ZM108.757 29.2528C108.617 29.2528 108.179 29.2876 108.179 29.6876V39.6543C108.179 40.0544 108.617 40.0892 108.757 40.0892C108.931 40.0892 109.334 40.0544 109.334 39.6543V29.6876C109.351 29.2876 108.931 29.2528 108.757 29.2528Z" fill="#5E5E5E"/>
<path d="M120.775 29.7747C121.142 30.0182 121.16 30.4356 120.932 30.7835C120.705 31.1314 120.337 31.201 120.022 31.0096C119.358 30.6096 118.605 30.3661 117.503 30.3661C115.212 30.3661 114.232 31.5314 114.232 34.4362V34.9233C114.232 37.8454 115.194 38.9934 117.591 38.9934C118.518 38.9934 119.235 38.8543 119.865 38.5412V35.4625H117.748C117.346 35.4625 117.189 35.1494 117.189 34.7841C117.189 34.4188 117.363 34.1231 117.748 34.1231H120.215C121.125 34.1231 121.422 34.4014 121.422 35.2885V38.5064C121.422 39.2022 121.212 39.5326 120.635 39.8109C119.865 40.1588 118.78 40.4023 117.538 40.4023C114.32 40.4023 112.658 38.7847 112.658 35.0276V34.2971C112.658 30.54 114.32 28.9224 117.538 28.9224C118.973 28.9398 120.005 29.2702 120.775 29.7747Z" fill="#5E5E5E"/>
<path d="M117.521 40.6283C114.092 40.6283 112.413 38.8019 112.413 35.0448V34.3143C112.413 30.5572 114.074 28.7308 117.521 28.7308C118.885 28.7308 119.987 29.0265 120.897 29.6179C121.334 29.931 121.422 30.4528 121.107 30.9225C120.809 31.3573 120.32 31.4791 119.9 31.2008C119.218 30.7833 118.483 30.592 117.503 30.592C115.299 30.592 114.442 31.6704 114.442 34.4534V34.9405C114.442 37.7583 115.299 38.8019 117.573 38.8019C118.413 38.8019 119.043 38.6801 119.62 38.4366V35.7232H117.713C117.241 35.7232 116.926 35.3579 116.926 34.8361C116.926 34.2969 117.241 33.9664 117.713 33.9664H120.18C121.229 33.9664 121.614 34.3491 121.614 35.3579V38.5758C121.614 39.3585 121.352 39.776 120.704 40.0717C119.812 40.4021 118.693 40.6283 117.521 40.6283ZM117.521 29.1483C114.337 29.1483 112.85 30.7833 112.85 34.2969V35.0274C112.85 38.541 114.337 40.176 117.521 40.176C118.623 40.176 119.707 39.9673 120.53 39.602C121.019 39.3759 121.194 39.115 121.194 38.5062V35.2883C121.194 34.523 121.002 34.3317 120.197 34.3317H117.731C117.433 34.3317 117.381 34.5752 117.381 34.7665C117.381 34.9405 117.433 35.2188 117.731 35.2188H119.847C119.97 35.2188 120.057 35.3231 120.057 35.4275V38.4888C120.057 38.5758 120.005 38.6454 119.935 38.6802C119.27 39.0106 118.535 39.1498 117.573 39.1498C115.037 39.1498 114.004 37.9148 114.004 34.8535V34.3665C114.004 31.3573 115.054 30.0702 117.503 30.0702C118.57 30.0702 119.375 30.2789 120.127 30.7485C120.355 30.8877 120.582 30.8355 120.739 30.592C120.914 30.3311 120.879 30.0702 120.634 29.8962C119.812 29.4092 118.78 29.1483 117.521 29.1483Z" fill="#5E5E5E"/>
<path d="M133.002 29.6529V39.1326C133.002 40.0023 132.705 40.2806 131.9 40.2806C131.323 40.2806 131.061 40.1414 130.466 39.0978L126.652 32.5403C126.407 32.0881 126.163 31.6184 126.005 31.0444V39.724C126.005 40.1588 125.638 40.3502 125.27 40.3502C124.903 40.3502 124.536 40.1588 124.536 39.724V30.2443C124.536 29.3746 124.833 29.0963 125.638 29.0963C126.233 29.0963 126.477 29.2529 127.072 30.2791L130.886 36.8366C131.148 37.2888 131.376 37.7585 131.55 38.3325V29.6529C131.55 29.2181 131.9 29.0267 132.268 29.0267C132.635 29.0267 133.002 29.2181 133.002 29.6529Z" fill="#5E5E5E"/>
<path d="M125.27 40.5414C124.693 40.5414 124.308 40.2109 124.308 39.7065V30.2268C124.308 29.2528 124.693 28.8701 125.62 28.8701C126.337 28.8701 126.617 29.0962 127.247 30.1747L131.061 36.7322C131.148 36.8887 131.235 37.0453 131.305 37.2018V29.6702C131.305 29.1658 131.69 28.8353 132.25 28.8353C132.827 28.8353 133.212 29.1658 133.212 29.6702V39.1499C133.212 40.124 132.827 40.5066 131.883 40.5066C131.166 40.5066 130.868 40.2631 130.256 39.2021L126.442 32.6446C126.355 32.488 126.285 32.3489 126.197 32.1923V39.7065C126.232 40.1935 125.848 40.5414 125.27 40.5414ZM125.638 29.2876C124.938 29.2876 124.763 29.4789 124.763 30.2094V39.6891C124.763 40.0544 125.13 40.0892 125.288 40.0892C125.445 40.0892 125.813 40.0544 125.813 39.6891V31.0096C125.813 30.9052 125.9 30.8008 126.005 30.8008C126.11 30.7834 126.215 30.853 126.25 30.9574C126.39 31.4792 126.6 31.914 126.88 32.4185L130.693 38.976C131.288 40.0022 131.48 40.0544 131.935 40.0544C132.635 40.0544 132.827 39.8631 132.827 39.1325V29.6528C132.827 29.2702 132.425 29.2528 132.303 29.2528C132.11 29.2528 131.795 29.305 131.795 29.6528V38.3324C131.795 38.4368 131.708 38.5411 131.603 38.5411C131.498 38.5585 131.393 38.4889 131.358 38.3846C131.201 37.8628 131.008 37.4105 130.711 36.9235L126.897 30.366C126.285 29.3398 126.11 29.2876 125.638 29.2876Z" fill="#5E5E5E"/>
<path d="M77.0584 48.821V53.6739L82.1315 48.3688C82.3939 48.0731 82.8662 48.1252 83.1286 48.4036C83.4085 48.6645 83.4785 49.0819 83.1986 49.3776L79.4725 53.2043L83.5834 58.2311C83.8983 58.6138 83.8108 59.0138 83.461 59.2747C83.1461 59.5356 82.6913 59.553 82.4114 59.1878L78.4404 54.2131L77.0934 55.5872V58.8051C77.0934 59.2573 76.7085 59.4661 76.2887 59.4661C75.8863 59.4661 75.5015 59.2573 75.5015 58.8051V48.8384C75.5015 48.3862 75.8863 48.1774 76.2887 48.1774C76.6735 48.16 77.0584 48.3688 77.0584 48.821Z" fill="#5E5E5E"/>
<path d="M82.9188 59.6747C82.8838 59.6747 82.8488 59.6747 82.8138 59.6747C82.5689 59.6399 82.3415 59.5181 82.1841 59.3094L78.3705 54.5261L77.2509 55.6567V58.7876C77.2509 59.3094 76.8486 59.6573 76.2363 59.6573C75.6415 59.6573 75.2217 59.3094 75.2217 58.7876V48.8209C75.2217 48.299 75.624 47.9512 76.2363 47.9512C76.8486 47.9512 77.2509 48.299 77.2509 48.8209V53.1346L81.9391 48.2295C82.0966 48.0555 82.324 47.9512 82.5689 47.9512C82.8313 47.9512 83.0937 48.0729 83.2512 48.2643C83.636 48.6295 83.6535 49.1514 83.3036 49.534L79.7 53.2215L83.6885 58.0918C83.8634 58.3005 83.9509 58.5441 83.9334 58.7876C83.8984 59.0311 83.7585 59.2746 83.531 59.4485C83.3736 59.5877 83.1462 59.6747 82.9188 59.6747ZM78.4055 53.9695C78.4755 53.9695 78.5454 54.0043 78.5804 54.0564L82.5514 59.0311C82.6389 59.1528 82.7613 59.2224 82.8838 59.2398C83.0237 59.2572 83.1637 59.205 83.3036 59.1007C83.4436 58.9963 83.531 58.8571 83.5485 58.7354C83.566 58.6136 83.5136 58.4919 83.4086 58.3527L79.2976 53.3259C79.2277 53.2389 79.2277 53.1172 79.3151 53.0302L83.0412 49.2035C83.2512 48.9774 83.1637 48.7165 82.9888 48.5426C82.8838 48.4208 82.7438 48.3686 82.6214 48.3686C82.5339 48.3686 82.4115 48.386 82.324 48.5078L77.2509 53.8129C77.1809 53.8825 77.0935 53.8999 77.006 53.8651C76.9185 53.8303 76.8661 53.7433 76.8661 53.6564V48.8035C76.8661 48.4034 76.4637 48.3686 76.2888 48.3686C76.1488 48.3686 75.7115 48.4034 75.7115 48.8035V58.7702C75.7115 59.1702 76.1488 59.205 76.2888 59.205C76.4637 59.205 76.8661 59.1702 76.8661 58.7702V55.5523C76.8661 55.5001 76.8836 55.4479 76.936 55.3958L78.283 54.0216C78.3005 54.0042 78.353 53.9695 78.4055 53.9695Z" fill="#5E5E5E"/>
<path d="M94.4119 49.221L91.0532 54.9088V58.7876C91.0532 59.2398 90.6858 59.4486 90.266 59.4486C89.8636 59.4486 89.4788 59.2398 89.4788 58.7876V54.9088L86.12 49.2384C85.8926 48.8383 86.0326 48.473 86.4174 48.2643C86.7848 48.0556 87.2221 48.1251 87.4495 48.5426L90.301 53.4651L93.0649 48.56C93.3098 48.1425 93.6947 48.0556 94.097 48.2469C94.4644 48.4208 94.6743 48.7687 94.4119 49.221Z" fill="#5E5E5E"/>
<path d="M90.266 59.6747C89.6712 59.6747 89.2513 59.3269 89.2513 58.805V54.9784L85.9276 49.3601C85.7877 49.134 85.7527 48.8905 85.8051 48.647C85.8751 48.4209 86.0501 48.2121 86.3125 48.073C86.5574 47.9338 86.8198 47.8991 87.0647 47.9686C87.3096 48.0382 87.502 48.1948 87.642 48.4383L90.301 53.0129L92.8725 48.4383C93.1524 47.9338 93.6597 47.7773 94.1845 48.0382C94.4469 48.16 94.6393 48.3513 94.7093 48.5774C94.7618 48.734 94.7793 48.9949 94.5868 49.308L91.2631 54.9436V58.7702C91.2631 59.3269 90.8782 59.6747 90.266 59.6747ZM86.8198 48.3687C86.7148 48.3687 86.6098 48.4035 86.5224 48.4557C86.3649 48.5426 86.26 48.647 86.225 48.7688C86.19 48.8731 86.225 48.9949 86.295 49.134L89.6537 54.8044C89.6712 54.8392 89.6887 54.874 89.6887 54.9088V58.7876C89.6887 59.1877 90.126 59.2225 90.266 59.2225C90.4759 59.2225 90.8432 59.1703 90.8432 58.7876V54.9088C90.8432 54.874 90.8607 54.8392 90.8782 54.8044L94.237 49.1166C94.3244 48.9775 94.3419 48.8383 94.3069 48.734C94.272 48.6296 94.167 48.5252 94.0096 48.4557C93.7821 48.3513 93.4848 48.2991 93.2748 48.6818L90.5109 53.5869C90.4759 53.6564 90.4059 53.6912 90.3184 53.6912C90.2485 53.6912 90.161 53.6564 90.126 53.5869L87.2746 48.6644C87.1871 48.5252 87.0822 48.4383 86.9597 48.4035C86.9072 48.3861 86.8722 48.3687 86.8198 48.3687Z" fill="#5E5E5E"/>
<path d="M105.975 53.4304V54.1609C105.975 57.8136 104.313 59.5356 101.305 59.5356C98.2957 59.5356 96.6338 57.8136 96.6338 54.1609V53.4304C96.6338 49.7777 98.2957 48.0557 101.305 48.0557C104.313 48.0557 105.975 49.7951 105.975 53.4304ZM98.2082 53.5695V54.0566C98.2082 56.9613 99.2228 58.1093 101.287 58.1093C103.351 58.1093 104.366 56.9439 104.366 54.0566V53.5695C104.366 50.6647 103.351 49.4994 101.287 49.4994C99.2228 49.4994 98.2082 50.6647 98.2082 53.5695Z" fill="#5E5E5E"/>
<path d="M101.304 59.7617C98.1031 59.7617 96.4062 57.831 96.4062 54.1782V53.4477C96.4062 49.795 98.1031 47.8643 101.304 47.8643C104.506 47.8643 106.203 49.795 106.203 53.4477V54.1782C106.203 57.831 104.506 59.7617 101.304 59.7617ZM101.304 48.2817C98.348 48.2817 96.8436 50.0211 96.8436 53.4303V54.1609C96.8436 57.5875 98.348 59.3094 101.304 59.3094C104.261 59.3094 105.765 57.5701 105.765 54.1609V53.4303C105.765 50.0211 104.261 48.2817 101.304 48.2817ZM101.304 58.318C99.0478 58.318 97.9981 56.9613 97.9981 54.0391V53.5521C97.9981 50.6299 99.0478 49.2558 101.304 49.2558C103.561 49.2558 104.611 50.6125 104.611 53.5521V54.0391C104.611 56.9613 103.561 58.318 101.304 58.318ZM101.304 49.708C99.2927 49.708 98.4355 50.856 98.4355 53.5695V54.0565C98.4355 56.7525 99.2927 57.9005 101.304 57.9005C103.316 57.9005 104.173 56.7525 104.173 54.0565V53.5695C104.173 50.856 103.316 49.708 101.304 49.708Z" fill="#5E5E5E"/>
<path d="M116.454 48.9078L118.763 57.1177L121.037 48.7165C121.142 48.2642 121.527 48.1077 121.929 48.1946C122.366 48.2642 122.576 48.6121 122.454 49.0643L119.725 58.718C119.567 59.2572 119.165 59.4659 118.745 59.4659C118.343 59.4659 117.941 59.2398 117.783 58.7006L115.474 50.2819L113.095 58.718C112.937 59.2572 112.518 59.4659 112.115 59.4659C111.713 59.4659 111.293 59.2398 111.136 58.7006L108.442 49.1513C108.319 48.6469 108.547 48.3164 108.984 48.212C109.404 48.1251 109.824 48.1946 109.946 48.7165L112.185 57.1525L114.494 48.9252C114.634 48.386 115.037 48.1772 115.474 48.1772C115.876 48.1598 116.296 48.3686 116.454 48.9078Z" fill="#5E5E5E"/>
<path d="M118.745 59.6747C118.308 59.6747 117.766 59.4312 117.573 58.7528L115.457 51.0821L113.287 58.7702C113.095 59.4486 112.553 59.6747 112.098 59.6747C111.521 59.6747 111.083 59.3268 110.908 58.7528L108.214 49.2036C108.057 48.5948 108.337 48.1426 108.914 47.986C109.561 47.8469 109.999 48.0904 110.139 48.647L112.168 56.3177L114.267 48.8731C114.407 48.2991 114.862 47.9686 115.457 47.9686C116.034 47.9686 116.471 48.3165 116.629 48.8731L118.728 56.3177L120.792 48.6818C120.914 48.16 121.369 47.8816 121.947 48.0034C122.209 48.0556 122.419 48.1773 122.541 48.3861C122.664 48.5948 122.699 48.8557 122.611 49.134L119.882 58.7876C119.76 59.3268 119.323 59.6747 118.745 59.6747ZM115.474 50.0385C115.579 50.0385 115.666 50.1081 115.684 50.195L117.993 58.6137C118.151 59.1529 118.57 59.2225 118.745 59.2225C118.92 59.2225 119.358 59.1703 119.515 58.6311L122.244 48.9949C122.296 48.8383 122.279 48.6992 122.209 48.5948C122.139 48.473 121.999 48.4209 121.894 48.4035C121.719 48.3687 121.352 48.3339 121.247 48.7513L118.973 57.17C118.955 57.257 118.868 57.3265 118.763 57.3265C118.658 57.3265 118.57 57.257 118.553 57.17L116.244 48.9601C116.086 48.4383 115.701 48.3687 115.492 48.3687C115.212 48.3687 114.862 48.473 114.722 48.9601L112.413 57.1874C112.395 57.2744 112.308 57.3439 112.203 57.3439C112.098 57.3439 112.01 57.2744 111.993 57.1874L109.754 48.7513C109.701 48.5252 109.561 48.2817 109.054 48.4035C108.704 48.4904 108.582 48.7166 108.669 49.0818L111.363 58.6311C111.521 59.1529 111.905 59.2399 112.133 59.2399C112.273 59.2399 112.745 59.2051 112.902 58.6485L115.282 50.2124C115.282 50.1081 115.369 50.0385 115.474 50.0385Z" fill="#5E5E5E"/>
<path d="M134.244 53.4304V54.1609C134.244 57.8136 132.582 59.5356 129.573 59.5356C126.564 59.5356 124.903 57.8136 124.903 54.1609V53.4304C124.903 49.7777 126.564 48.0557 129.573 48.0557C132.582 48.0557 134.244 49.7951 134.244 53.4304ZM126.494 53.5695V54.0566C126.494 56.9613 127.509 58.1093 129.573 58.1093C131.638 58.1093 132.652 56.9439 132.652 54.0566V53.5695C132.652 50.6647 131.638 49.4994 129.573 49.4994C127.509 49.4994 126.494 50.6647 126.494 53.5695Z" fill="#5E5E5E"/>
<path d="M129.573 59.7617C126.372 59.7617 124.675 57.831 124.675 54.1782V53.4477C124.675 49.795 126.372 47.8643 129.573 47.8643C132.775 47.8643 134.472 49.795 134.472 53.4477V54.1782C134.472 57.831 132.775 59.7617 129.573 59.7617ZM129.573 48.2817C126.617 48.2817 125.113 50.0211 125.113 53.4303V54.1609C125.113 57.5875 126.617 59.3094 129.573 59.3094C132.53 59.3094 134.034 57.5701 134.034 54.1609V53.4303C134.034 50.0211 132.53 48.2817 129.573 48.2817ZM129.573 58.318C127.317 58.318 126.267 56.9613 126.267 54.0391V53.5521C126.267 50.6299 127.317 49.2558 129.573 49.2558C131.83 49.2558 132.88 50.6125 132.88 53.5521V54.0391C132.88 56.9613 131.83 58.318 129.573 58.318ZM129.573 49.708C127.562 49.708 126.705 50.856 126.705 53.5695V54.0565C126.705 56.7525 127.562 57.9005 129.573 57.9005C131.585 57.9005 132.442 56.7525 132.442 54.0565V53.5695C132.442 50.856 131.585 49.708 129.573 49.708Z" fill="#5E5E5E"/>
<path d="M145.79 48.7861V58.2658C145.79 59.1355 145.493 59.4138 144.688 59.4138C144.111 59.4138 143.848 59.2746 143.254 58.231L139.44 51.6735C139.195 51.2212 138.95 50.7516 138.793 50.1776V58.8572C138.793 59.292 138.425 59.4833 138.058 59.4833C137.691 59.4833 137.323 59.292 137.323 58.8572V49.3775C137.323 48.5078 137.621 48.2295 138.425 48.2295C139.02 48.2295 139.265 48.386 139.86 49.4123L143.673 55.9698C143.936 56.422 144.163 56.8917 144.338 57.4657V48.7861C144.338 48.3512 144.688 48.1599 145.055 48.1599C145.423 48.1599 145.79 48.3512 145.79 48.7861Z" fill="#5E5E5E"/>
<path d="M138.058 59.6747C137.481 59.6747 137.096 59.3442 137.096 58.8398V49.3601C137.096 48.3861 137.481 48.0034 138.408 48.0034C139.125 48.0034 139.405 48.2295 140.035 49.308L143.848 55.8655C143.936 56.022 144.023 56.1785 144.093 56.3351V48.8035C144.093 48.2991 144.478 47.9686 145.038 47.9686C145.615 47.9686 146 48.2991 146 48.8035V58.2832C146 59.2573 145.615 59.6399 144.688 59.6399C143.971 59.6399 143.673 59.3964 143.061 58.3354L139.248 51.7779C139.16 51.6213 139.09 51.4822 139.003 51.3256V58.8398C139.02 59.3268 138.635 59.6747 138.058 59.6747ZM138.425 48.4209C137.726 48.4209 137.551 48.6122 137.551 49.3427V58.8224C137.551 59.1877 137.918 59.2225 138.076 59.2225C138.233 59.2225 138.6 59.1877 138.6 58.8224V50.1429C138.6 50.0385 138.688 49.9341 138.793 49.9341C138.898 49.9167 139.003 49.9863 139.038 50.0907C139.178 50.6125 139.388 51.0473 139.667 51.5518L143.446 58.1093C144.041 59.1355 144.233 59.1877 144.688 59.1877C145.388 59.1877 145.563 58.9964 145.563 58.2658V48.7861C145.563 48.4209 145.195 48.3861 145.038 48.3861C144.846 48.3861 144.531 48.4383 144.531 48.7861V57.4657C144.531 57.5701 144.443 57.6744 144.338 57.6744C144.233 57.6918 144.128 57.6222 144.093 57.5179C143.936 56.9961 143.743 56.5438 143.446 56.0568L139.632 49.4993C139.073 48.473 138.898 48.4209 138.425 48.4209Z" fill="#5E5E5E"/>
</svg>
