<svg width="387" height="352" viewBox="0 0 387 352" fill="none" xmlns="http://www.w3.org/2000/svg">
<path fill-rule="evenodd" clip-rule="evenodd" d="M331.462 69.6657C334.683 75.1723 332.844 81.3675 331.136 87.2835C328.963 93.5101 326.217 99.4545 322.796 105.286C324.997 106.962 326.649 108.721 326.078 111.811C325.453 115.2 323.549 118.537 322.081 121.636C320.334 125.323 318.644 129.092 316.459 132.511C315.273 134.624 314.042 136.713 312.775 138.78C323.34 146.749 334.01 154.791 344.465 162.695C352.02 168.407 359.657 174.055 366.837 180.242C377.01 189.007 386.837 200.726 386.061 215.298C385.665 222.74 381.926 229.221 377.849 235.51C373.432 242.357 368.629 249.136 363.787 255.787C363.624 255.891 363.552 256.125 363.386 256.355C362.749 257.293 362.015 258.424 361.351 259.476C353.921 269.106 346.64 278.722 339.237 288.504C330.38 300.21 321.566 311.828 312.549 323.535C304.938 333.413 296.887 346.108 284.446 349.978C266.805 355.315 250.151 344.021 236.823 334.287C231.075 330.089 225.502 325.654 219.679 321.554C209.998 314.326 200.329 307.083 190.662 299.839C179.218 291.264 167.779 282.686 156.338 274.107C145.18 265.741 134.022 257.375 122.859 249.014C114.074 242.435 105.288 235.857 96.5418 229.341C92.7324 226.502 89.0077 223.648 85.2004 220.918C85.0478 220.883 85.0349 220.622 84.7811 220.641C84.4333 220.22 83.9093 220.031 83.4897 219.705C83.4893 219.704 83.4887 219.704 83.488 219.703C83.4874 219.703 83.487 219.702 83.4866 219.702C83.0955 219.398 82.7031 219.094 82.3105 218.792C69.097 208.613 55.6325 198.757 42.2888 188.75C37.2585 184.978 32.2499 181.166 27.2671 177.332C17.0231 169.214 6.1045 160.306 1.99613 147.25C0.224758 141.623 -0.0805956 135.643 1.63909 129.857C3.22587 124.61 6.09062 119.855 9.09384 115.367C11.7102 111.457 14.5507 107.691 17.2811 103.861C27.0381 90.3892 36.9122 77.002 46.7993 63.6259C53.8048 54.1485 60.7256 44.5904 67.9224 35.2564C67.9827 35.1781 68.0467 35.1105 68.1761 34.9696C71.4535 30.4641 74.9044 25.958 78.4886 21.5576C82.2494 17.2744 85.7052 12.6499 89.8501 8.7452C96.3935 2.68664 104.373 -0.18255 112.906 0.105885C122.014 0.544841 130.363 4.42 138.073 9.20324C152.133 17.8724 165.139 28.4947 178.803 38.0458C179.973 36.5567 181.016 34.963 182.638 33.9104C184.757 32.2048 186.947 32.794 189.343 33.4382C192.596 25.9425 197.6 19.0554 202.812 12.6773C207.158 7.56728 213.905 4.84997 220.352 5.61867C226.466 6.34752 232.316 9.0751 237.706 11.6999C244.767 14.6702 251.7 17.8717 258.409 21.4212C271.78 28.0819 284.942 35.4112 297.56 43.164C304.047 47.1567 310.537 51.2114 316.706 55.6814C321.984 59.5058 328.096 63.9109 331.462 69.6657ZM312.678 134.382C314.873 130.704 316.909 126.827 318.832 122.905C320.535 119.43 322.774 115.619 323.641 111.84C324.222 109.672 322.837 108.207 321.147 106.88C320.79 106.821 320.455 106.574 320.259 106.232C318.94 105.33 317.511 104.579 316.486 103.946C314.701 102.843 312.859 101.76 310.934 100.909C309.59 100.314 308.392 99.8901 307.457 101.147C306.045 102.376 305.268 104.342 304.346 105.97C304.229 106.865 304.069 107.759 303.949 108.725C302.293 114.898 298.419 120.193 293.98 124.768C292.998 125.78 291.988 126.8 290.954 127.813C291.005 127.92 290.923 127.927 290.896 127.982C290.607 128.597 290.234 129.299 289.848 129.914C288.824 131.773 287.781 133.626 286.827 135.522C286.682 135.811 286.672 135.919 286.408 136.4C286.394 136.435 286.407 136.537 286.532 136.702C286.339 136.657 286.323 136.762 286.319 136.796C286.305 136.915 286.401 137.162 286.285 137.17C286.266 138.34 286.963 139.144 287.962 139.806C291.134 141.326 294 143.323 297.124 144.922C299.852 146.318 303.364 146.979 305.898 144.623C307.486 143.147 308.598 141 309.947 139.183C310.812 137.511 311.767 135.94 312.678 134.382ZM156.393 24.8648C149.864 20.1163 143.329 15.3037 136.593 11.1595C128.894 6.38327 120.499 2.603 111.372 2.48038C107.545 2.54118 103.351 3.12413 99.7377 4.83939C95.3101 6.74398 91.8012 9.87275 88.5351 13.4255C81.5107 21.0551 75.2407 29.4591 69.1026 37.7259C69.012 37.8512 68.9109 37.9434 68.8057 38.0197C68.7868 38.0446 68.7674 38.0695 68.7485 38.0944C60.9281 48.432 53.2537 58.8824 45.6874 69.4103C36.1128 82.101 26.6741 94.8969 17.3728 107.791C14.9269 111.181 12.4104 114.547 10.26 117.944C6.35174 124.048 2.83607 130.502 2.85546 137.706C2.87188 143.817 5.02553 149.752 8.27115 154.818C14.0428 164.263 23.2324 171.179 31.9146 177.838C37.8691 182.404 43.9587 186.941 49.8956 191.381C61.5993 200.135 73.4912 208.69 84.9664 217.746C84.9671 217.746 84.968 217.746 84.9689 217.747C85.4961 218.117 86.0167 218.497 86.5371 218.876C92.1915 223.001 97.5872 227.056 103.095 231.167C112.521 238.205 121.937 245.257 131.351 252.311C142.643 260.771 153.99 269.281 165.22 277.701C176.301 286.009 187.381 294.317 198.466 302.62C207.422 309.329 216.483 315.9 225.351 322.725C230.218 326.356 234.808 329.844 239.621 333.286C247.993 339.272 256.884 345.521 267.193 347.948C272.392 349.135 277.563 349.297 282.698 347.986C288.896 346.404 293.847 342.297 298.144 337.622C304.959 330.206 310.855 321.863 316.966 313.873C326.099 301.931 335.261 289.841 344.235 277.948C349.601 270.837 355.163 263.59 360.432 256.679C360.272 256.317 360.343 256.047 360.547 255.784C366.424 248.197 372.022 240.363 377.127 232.237C381.633 225.066 384.75 217.529 383.285 209.076C380.407 192.312 365.343 181.695 352.905 171.968C339.088 161.611 325.3 151.214 311.473 140.871C311.103 141.455 310.734 142.04 310.409 142.552C308.585 145.346 306.645 147.895 303.322 148.479C300.782 148.957 298.252 148.105 295.974 147.07C292.879 145.451 290.023 143.477 286.954 142.101C286.798 141.994 286.769 141.972 286.736 141.952C286.676 141.924 286.616 141.896 286.557 141.855C285.095 140.857 283.95 139.397 283.896 137.532C283.844 135.757 284.769 134.2 285.635 132.674C283.373 134.572 281.009 136.317 278.55 137.76C277.198 138.554 276.498 136.455 277.661 135.534C280.919 133.621 283.749 130.996 286.577 128.497C289.262 126.125 292.037 123.496 294.263 120.98C298.302 116.367 301.493 110.986 302.077 104.822C302.627 99.0181 301.202 92.9301 299.178 87.6076C295.12 76.9327 287.123 68.1564 278.11 61.3821C281.492 69.7201 280.626 79.2554 275.895 87.4631C274.086 90.6011 271.846 93.5266 269.305 95.9657C269.327 96.0314 269.404 96.0207 269.423 96.0978C270.707 97.2995 272.202 98.6102 273.323 99.6383C274.333 100.427 275.441 101.199 275.092 102.533C274.752 103.836 273.184 105.065 272.312 106.049C271.267 107.21 270.026 108.632 268.882 109.923C266.642 112.448 264.384 114.965 261.928 117.282C260.43 118.696 257.446 120.484 256.464 122.661C259.084 121.515 261.676 120.683 264.327 120.06C265.769 119.614 266.186 122.119 264.552 122.406C260.891 123.363 257.321 124.902 253.948 126.58C252.132 127.51 250.367 128.487 248.702 129.624C247.285 130.592 245.567 131.769 244.735 133.317C243.59 135.445 244.9 136.79 246.38 138.114C247.655 139.255 248.973 140.347 250.267 141.468C253.934 144.647 257.718 147.67 261.268 151.003C262.314 149.643 263.36 148.282 264.407 146.921C265.498 145.502 266.52 143.925 267.829 142.693C268.798 141.782 270.088 141.187 271.353 141.324C272.27 141.454 272.814 142.038 273.369 141.007C273.72 140.354 273.769 139.531 273.809 138.813C273.896 137.247 276.279 137.515 276.359 139.19C276.219 140.576 275.778 142.113 274.808 143.247C274.296 143.627 273.706 143.992 273.118 144.133C272.202 144.214 271.421 143.594 270.617 143.723C268.997 143.984 267.557 146.724 266.66 147.891C265.229 149.752 263.799 151.612 262.368 153.472C262.096 153.827 261.793 154.157 261.172 153.95C260.072 155.404 258.69 156.521 257.054 157.336C256.672 157.526 256.193 157.439 255.869 157.201C255.567 156.982 255.049 156.594 254.641 156.29C254.773 156.411 254.675 156.768 254.629 156.924C253.199 159.737 252.133 162.563 250.694 165.189C250.711 165.198 250.727 165.205 250.743 165.215C251.337 165.574 251.977 165.876 252.516 166.314C253.118 166.68 253.655 167.228 254.078 167.796C254.771 168.627 254.767 169.388 254.452 170.238C254.265 170.744 253.949 171.146 253.578 171.513C253.546 171.699 253.467 171.889 253.313 172.075C244.54 182.671 237.078 194.335 228.571 205.142C226.758 207.671 224.589 210.018 222.767 212.537C221.49 214.303 219.979 216.693 217.66 217.117C215.835 217.452 213.808 215.651 212.431 214.674C210.987 213.667 209.531 212.68 208.07 211.699C208.043 211.919 207.963 212.141 207.83 212.31C207.267 213.03 206.703 213.751 206.14 214.471C206.113 214.505 206.082 214.532 206.052 214.563C207.156 215.345 208.258 216.129 209.417 216.95C210.804 217.926 212.625 218.864 213.316 220.56C214.434 223.099 212.443 225.174 211.237 227.192C209.17 230.257 207.288 233.456 205.352 236.612C203.354 239.869 201.351 243.123 199.369 246.39C197.486 249.494 195.709 252.761 193.562 255.694C192.249 257.489 190.345 258.919 188.018 258.42C186.599 258.116 185.458 257.276 184.26 256.423C174.425 249.433 164.637 242.374 154.827 235.347C145.741 228.841 136.521 222.19 127.467 215.484C124.44 213.577 121.548 211.493 118.656 209.409C116.704 208.003 114.235 206.492 114.155 203.76C114.078 201.159 116.307 198.929 117.839 197.052C120.075 194.314 122.437 191.675 124.725 188.803C129.308 183.622 133.787 178.164 138.115 172.605C139.485 170.847 141.288 169.362 143.576 170.063C145.025 170.508 146.389 171.501 147.78 172.656C147.981 172.561 147.943 172.321 148.091 172.252C148.452 171.844 148.76 171.387 149.065 170.937C149.367 170.491 149.662 170.022 150.027 169.623C149.279 169.115 148.528 168.613 147.776 168.111C147.669 168.069 147.563 168.016 147.459 167.934C147.344 167.842 147.227 167.752 147.227 167.752C147.074 167.64 147.039 167.615 147.002 167.591C147.087 167.378 146.913 167.52 146.871 167.483C145.328 166.326 143.81 165.271 144.092 162.833C144.133 160.643 145.643 158.825 146.977 156.984C148.938 154.277 150.796 151.51 152.99 148.975C156.833 143.777 160.361 138.345 164.177 132.865C167.761 127.69 171.625 122.395 175.197 116.97C175.128 116.612 175.145 116.523 175.255 116.391C175.386 116.231 175.493 116.057 175.596 115.878C175.881 115.377 176.366 114.83 176.684 114.559C177.01 114.273 177.126 114.309 177.366 114.235C177.478 113.503 177.66 112.775 177.916 112.053C178.044 111.822 178.014 111.837 178.074 111.748C177.954 110.551 178.285 109.258 178.439 108.083C178.712 106.002 179.357 104.077 179.612 101.895C180.109 99.7911 180.487 97.5942 181.172 95.2868C181.487 93.7172 182.677 91.3962 182.153 89.665C181.785 88.3472 180.947 87.3195 182.158 85.9145C182.495 85.5445 183.145 85.4304 183.59 85.0066C183.758 84.9083 183.806 84.8221 183.853 84.7966C183.878 84.8632 183.683 84.7657 183.561 84.5765C183.402 84.3308 183.025 84.1098 182.946 83.9521C181.937 82.6924 181.846 81.2426 182.436 79.8001C178.703 78.1526 174.92 76.8329 171.267 75.1088C168.727 73.9901 166.192 72.2193 165.047 69.6028C163.976 66.9763 164.688 64.5538 165.923 62.1837C167.24 58.5856 168.875 55.1749 170.643 51.8351C172.405 48.5057 174.298 45.2412 176.316 42.0577C176.763 41.3681 177.096 40.7923 177.499 40.1268C170.379 35.1587 163.414 29.9707 156.393 24.8648ZM200.617 76.1319C200.528 76.8012 199.91 77.2553 199.264 77.2127C196.878 77.0546 194.486 76.8995 192.093 77.2376C190.08 77.3923 187.924 78.1803 186.053 79.0172C185.921 79.1483 185.863 79.1766 185.804 79.1983C185.793 79.2037 185.782 79.2087 185.771 79.2141C185.668 79.3577 185.532 79.4877 185.356 79.5912C184.65 80.0063 184.293 80.9653 184.489 81.7394C184.69 82.529 185.463 82.8344 185.82 83.3154C186.443 84.0654 186.646 85.0189 186.127 85.9162C185.646 86.7462 184.128 87.0214 184.03 87.8779C183.988 88.2405 184.588 89.182 184.703 89.5745C184.726 90.2722 184.674 90.9296 184.671 91.4092C183.955 94.9875 182.945 98.5185 182.062 101.818C181.839 103.386 181.297 105.293 181.01 107.042C180.877 107.851 180.798 108.662 180.688 109.473C180.686 109.902 180.449 110.453 180.404 110.95C185.984 112.175 191.564 113.4 197.239 114.696C198.512 114.924 199.88 115.225 201.247 115.525C201.838 115.655 202.799 116.063 203.302 115.664C203.694 115.351 203.961 113.69 204.142 113.149C204.249 112.508 204.381 111.758 204.477 111.007C204.801 109.255 204.696 107.813 204.526 106.227C204.185 103.038 203.105 100.035 201.362 97.3962C200.519 96.1209 202.445 94.608 203.294 95.8915C204.046 97.0304 204.716 98.2011 205.224 99.486C207.133 93.9286 208.765 88.2856 210.078 82.5695C210.447 80.965 210.677 79.2941 211.249 77.5591C211.494 76.458 212.132 75.9525 213.33 75.5722C215.961 74.7372 218.663 74.2787 221.392 74.1584C221.385 71.1405 221.57 67.8799 222.457 64.7815C224.914 56.1999 231.402 48.1419 239.73 44.7445C234.252 43.1739 228.493 42.5958 222.744 43.1339C216.146 43.7513 209.185 45.6315 203.853 49.9397C199.489 53.4974 196.988 58.9194 194.456 63.9682C192.542 67.8299 190.87 71.721 188.511 75.565C189.732 75.0557 190.691 74.996 191.8 74.8398C194.392 74.4744 197.001 74.6281 199.586 74.7994C200.354 74.9322 200.702 75.4981 200.617 76.1319ZM177.401 117.832C177.383 117.733 177.371 117.635 177.358 117.536C177.333 117.575 177.306 117.612 177.28 117.65C177.249 117.745 177.207 117.841 177.149 117.936C171.12 127.812 164.165 137.318 157.366 146.68C155.031 149.914 152.539 153.131 150.241 156.444C149.533 157.465 148.953 158.571 148.074 159.463C147.293 160.53 146.287 161.869 146.486 163.182C146.568 164.414 147.54 164.989 148.442 165.613C148.456 165.622 148.469 165.626 148.483 165.635C159.837 173.156 170.67 181.407 181.524 189.621C186.905 193.693 192.295 197.755 197.765 201.706C203.053 205.526 208.566 208.988 213.912 212.718C214.708 213.283 215.668 214.182 216.636 214.421C218.13 214.791 218.983 213.672 219.931 212.434C220.71 211.418 221.489 210.281 222.421 209.151C224.789 206.292 227.049 203.288 229.389 200.335C236.931 190.819 243.374 180.436 251.088 171.045C251.171 170.918 251.198 170.717 251.322 170.554C251.334 170.537 251.349 170.527 251.361 170.511C251.566 170.209 251.715 170.053 251.906 169.832C252.029 169.76 252.161 169.694 252.209 169.565C252.213 169.56 252.215 169.548 252.218 169.535C252.201 169.493 252.293 169.323 252.208 169.427C252.206 169.419 252.205 169.41 252.203 169.402C252.191 169.38 252.174 169.35 252.159 169.32C252.118 169.269 252.263 169.354 252.037 169.166C252.027 169.155 251.999 169.122 251.978 169.097C251.984 169.104 251.99 169.111 251.999 169.122C252.12 169.266 251.951 169.086 251.919 169.058C251.922 169.056 251.83 168.983 251.785 168.946C251.663 168.846 251.539 168.748 251.414 168.65C251.185 168.472 250.953 168.298 250.717 168.129C250.298 167.828 249.867 167.546 249.427 167.276C249.143 167.696 248.844 168.109 248.525 168.511C247.203 170.177 245.689 171.88 244.109 173.286C243.385 173.816 242.741 174.213 241.974 174.383C241.943 174.46 241.905 174.536 241.857 174.612C239.728 177.957 237.387 181.168 235.068 184.371C232.643 188.165 230.006 191.859 227.293 195.486C224.878 198.761 222.404 201.971 220.049 205.295C218.365 207.673 216.626 209.185 213.864 207.512C210.705 205.598 207.783 203.153 204.798 200.979C202.21 199.094 199.626 197.204 197.15 195.388C186.778 187.772 176.533 180.203 166.208 172.743C166.089 172.657 166.003 172.56 165.931 172.458C162.763 170.132 159.591 167.811 156.43 165.476C155.08 164.193 153.191 163.042 153.688 160.895C154.194 158.713 156.605 156.71 157.879 154.927C161.417 150.037 164.684 145.235 168.263 140.509C169.733 138.568 171.201 136.599 172.768 134.533C172.89 133.578 173.144 132.521 173.422 131.495C174.555 127.301 177.223 123.604 179.069 119.966C179.268 119.582 179.583 119.374 179.918 119.297C179.322 119.127 178.727 118.956 178.133 118.782C177.717 118.66 177.473 118.234 177.401 117.832ZM252.226 169.525C252.229 169.526 252.223 169.496 252.454 169.441C252.213 169.493 252.214 169.521 252.226 169.525ZM252.176 169.341C252.185 169.353 252.193 169.363 252.199 169.371C252.199 169.371 252.2 169.372 252.2 169.373C252.217 169.393 252.219 169.393 252.176 169.341ZM222.775 151.062C222.978 150.87 223.235 150.643 223.495 150.436C224.433 149.691 225.425 149.029 226.451 148.427C218.138 142.371 209.825 136.315 201.511 130.259C202.154 132.28 202.835 134.499 202.915 136.477C202.963 136.869 202.999 137.262 203.028 137.656C203.29 137.618 203.571 137.664 203.843 137.842C210.276 142.065 216.573 146.488 222.772 151.046C222.775 151.049 222.772 151.059 222.775 151.062ZM226.517 151.201C225.86 151.633 223.629 152.979 223.718 153.919C223.795 154.351 224.581 153.934 224.896 153.801C225.499 153.549 226.088 153.291 226.712 153.097C229.053 152.369 231.484 152.335 233.77 153.114C234.119 153.233 234.405 153.513 234.428 153.714C234.683 154.088 234.788 154.529 234.383 155.079C233.484 156.441 232.098 157.238 230.706 158.022C229.46 158.94 228.304 159.627 226.642 160.587C225.463 161.634 224 162.512 222.635 163.419C221.31 164.3 219.936 165.204 218.954 166.479C218.628 166.752 218.337 167.092 218.294 167.577C218.089 167.549 218.184 167.491 218.026 167.769C218.212 167.731 218.397 167.691 218.582 167.645C218.921 167.561 219.257 167.463 219.589 167.351C221.224 166.799 222.849 165.775 224.206 165.023C227.174 163.2 230.27 161.639 233.261 159.864C234.128 159.35 235.04 159.972 235.204 160.69C235.377 161.041 235.377 161.476 235.055 161.892C232.936 164.635 230.619 167.268 227.962 169.498C226.738 170.525 225.435 171.433 224.221 172.501C223.864 172.848 223.538 173.227 223.217 173.607C223.095 173.747 222.467 174.33 222.374 174.6C222.733 174.59 223.037 174.718 223.307 174.708C224.754 174.655 226.272 173.982 227.585 173.393C229.056 172.885 230.216 172.066 231.52 171.288C234.201 169.262 236.432 166.894 238.152 164.038C238.967 162.686 240.853 164.136 240.047 165.473C238.38 168.283 235.823 171.031 232.996 173.03C231.111 174.363 229.048 175.475 226.886 176.259C227.008 176.406 227.102 176.587 227.144 176.817C227.42 177.947 230.066 177.037 230.717 176.787C232.233 176.204 233.743 175.414 235.115 174.529C236.646 173.541 237.629 172.289 238.626 170.782C239.689 169.175 240.751 167.569 241.814 165.962C242.866 164.778 244.576 166.087 243.709 167.397C242.657 168.987 241.644 170.62 240.748 172.043C240.954 172.206 241.337 172.155 241.735 171.998C242.503 171.621 243.179 170.851 243.777 170.24C245.069 168.919 246.333 167.559 247.402 166.047C249.534 163.031 250.684 159.464 252.315 156.183C252.585 155.641 253.081 155.438 253.549 155.471C249.703 152.571 246.057 149.407 242.359 146.454C242.08 146.221 241.866 146.032 241.65 145.844C241.627 145.849 241.608 145.858 241.584 145.863C236.516 146.923 231.123 148.3 226.517 151.201ZM197.145 141.67C196.726 139.923 196.149 138.459 194.844 137.095C194.945 137.8 194.994 138.737 195.175 139.581C195.268 140.761 195.325 142.001 195.396 143.198C195.442 143.193 195.517 143.144 195.548 143.161C197.439 144.741 199.435 146.18 201.432 147.617C202.735 145.672 204.035 143.723 205.327 141.77C204.585 141.273 203.874 140.735 203.178 140.347C203.067 141.468 202.859 142.705 202.075 143.658C201.328 144.567 200.202 145.131 199.03 144.594C197.846 144.075 197.427 142.849 197.145 141.67ZM203.36 149.003C205.291 150.39 207.223 151.775 209.158 153.155C210.494 151.161 211.825 149.164 213.228 147.058C211.21 145.788 209.257 144.435 207.293 143.099C205.988 145.072 204.676 147.039 203.36 149.003ZM211.13 154.56C212.937 155.845 214.783 157.156 216.631 158.464C217.947 156.499 219.26 154.531 220.565 152.558C218.749 151.202 216.922 149.861 215.082 148.54C213.759 150.541 212.479 152.47 211.13 154.56ZM224.412 156.468C223.267 156.667 222.131 156.222 221.608 155.275C220.719 156.888 219.586 158.317 218.696 159.668C219.392 160.415 220.213 160.997 221.037 161.577C221.049 161.585 221.057 161.595 221.069 161.604C221.212 161.509 221.356 161.414 221.499 161.319C222.949 160.618 223.951 159.532 225.208 158.683C226.478 157.825 227.705 156.958 229.1 156.15C229.739 155.839 230.438 155.459 231.075 155C230.37 154.999 229.432 154.95 228.604 155.097C227.14 155.357 225.86 156.215 224.412 156.468ZM197.74 157.321C199.695 158.677 201.705 160.176 203.623 161.552C205.092 159.216 206.481 157.371 207.791 155.191C205.974 153.654 203.923 152.426 201.993 151.04C200.595 153.119 199.165 155.232 197.74 157.321ZM200.065 149.653C198.65 148.64 197.024 147.327 195.405 146.293C195.41 147.032 195.419 147.771 195.456 148.512C195.626 149.918 195.58 151.181 195.444 152.512C195.353 153.401 195.18 154.362 194.848 155.243C195.169 155.474 195.491 155.704 195.812 155.935C197.237 153.846 198.653 151.751 200.065 149.653ZM205.615 162.987C207.301 164.189 209.142 165.505 210.984 166.822C212.501 164.61 213.843 162.611 215.264 160.5C213.416 159.191 211.57 157.881 209.725 156.568C208.472 158.795 206.89 160.774 205.615 162.987ZM212.916 168.204C215.048 169.726 217.182 171.245 219.317 172.763C220.206 171.51 221.085 170.25 221.987 168.939C221.636 169.129 221.314 169.268 220.987 169.393C219.827 169.835 218.227 170.478 216.995 170.205C215.651 169.907 215.274 168.551 215.633 167.32C216.014 166.015 217.003 164.913 217.986 163.953C218.281 163.677 218.617 163.389 218.962 163.113C218.375 162.699 217.789 162.284 217.203 161.87C215.858 163.882 214.352 166.098 212.916 168.204ZM224.918 168.845C225.506 168.402 226.096 167.961 226.657 167.484C227.692 166.607 228.664 165.661 229.593 164.674C228.58 165.146 227.32 165.959 226.191 166.619C226.265 166.893 226.119 167.049 225.976 167.266C225.713 167.68 225.273 168.32 224.918 168.845ZM229.08 179.679C230.49 180.675 231.898 181.673 233.384 182.725C233.656 182.156 234.002 181.645 234.352 181.134C235.888 178.886 237.565 176.737 239.096 174.487C239.023 174.475 238.956 174.455 239.018 174.529C237.701 175.736 236.236 176.675 234.678 177.528C233.567 178.373 231.126 179.344 229.08 179.679ZM188.636 150.758C188.629 149.799 188.458 149.096 188.389 148.263C188.386 146.907 188.089 145.385 187.897 143.954C187.552 145.8 187.326 147.662 187.28 149.529C187.276 149.672 187.273 149.813 187.406 149.776C187.455 149.976 187.643 150.04 187.826 150.173C188.096 150.368 188.366 150.562 188.636 150.758ZM190.85 157.248C190.102 156.556 189.792 155.304 189.359 154.305C189.179 154.175 188.999 154.045 188.874 153.957C187.574 155.786 186.295 157.628 185.072 159.344C186.86 160.803 188.73 162.155 190.6 163.506C191.88 161.66 193.155 159.811 194.424 157.959C194.105 157.729 193.785 157.5 193.466 157.27C192.675 157.856 191.789 158.096 190.85 157.248ZM180.487 155.414C180.315 155.451 180.016 155.617 179.783 155.668C180.877 156.465 181.973 157.259 183.229 158.175C183.241 158.146 183.258 158.119 183.268 158.088C182.102 157.529 181.429 156.376 180.818 155.17C180.725 155.262 180.619 155.346 180.487 155.414ZM174.355 147.472C174.23 146.542 174.162 145.63 174.179 144.723C172.864 143.76 171.733 142.934 170.236 141.831C169.105 143.289 167.985 144.758 166.891 146.246C169.785 148.372 172.684 150.492 175.584 152.609C175.03 151.101 174.73 149.325 174.355 147.472ZM192.528 164.895C194.537 166.18 196.384 167.677 198.315 169.065C199.642 167.157 200.872 165.366 202.143 163.511C200.211 162.125 198.282 160.735 196.352 159.346C195.083 161.199 193.808 163.048 192.528 164.895ZM200.244 170.452C202.082 171.772 203.923 173.089 205.763 174.406C207.046 172.556 208.324 170.703 209.674 168.742C207.754 167.53 205.913 166.214 204.073 164.895C202.802 166.751 201.525 168.603 200.244 170.452ZM207.695 175.789C209.764 177.267 211.838 178.74 213.91 180.215C215.309 178.324 216.579 176.586 217.895 174.757C215.772 173.248 213.648 171.74 211.528 170.227C210.256 172.084 208.978 173.938 207.695 175.789ZM215.846 181.594C217.775 182.933 219.673 184.312 221.589 185.669C222.988 183.906 224.155 181.966 225.41 180.09C223.549 178.773 221.689 177.454 219.831 176.134C218.516 177.964 217.185 179.782 215.846 181.594ZM223.528 187.041C225.157 187.961 226.557 189.183 228.073 190.251C228.115 190.192 228.3 189.948 228.201 190.076C229.476 188.3 230.706 186.501 231.931 184.696C230.426 183.588 228.875 182.54 227.349 181.461C226.094 183.336 224.989 185.324 223.528 187.041ZM171.905 160.386C171.695 160.696 171.485 161.007 171.265 161.31C173.4 162.675 175.35 164.285 177.395 165.77C178.816 163.866 180.233 161.96 181.632 160.039C179.497 158.489 177.364 156.936 175.231 155.382C174.129 157.054 173.029 158.728 171.905 160.386ZM173.312 153.984C170.69 152.071 168.071 150.156 165.64 148.375C164.417 149.681 163.391 151.134 162.393 152.601C162.057 153.096 161.741 153.608 161.484 154.165C164.016 156.021 166.679 157.968 169.343 159.911C169.573 159.597 169.791 159.274 170.01 158.951C171.125 157.305 172.217 155.644 173.312 153.984ZM179.319 167.166C181.248 168.564 183.174 169.967 185.106 171.362C186.475 169.421 187.841 167.477 189.199 165.528C187.451 164.027 185.437 162.799 183.556 161.434C182.157 163.355 180.741 165.262 179.319 167.166ZM187.034 172.751C188.962 174.143 190.891 175.535 192.89 176.884C194.283 174.86 195.697 172.852 196.963 171.125C194.983 169.7 193.055 168.308 191.126 166.917C189.769 168.866 188.403 170.81 187.034 172.751ZM194.849 178.38C196.591 179.627 198.431 180.943 200.271 182.259C201.641 180.318 203.024 178.35 204.428 176.34C202.523 175.109 200.683 173.792 198.961 172.561C197.487 174.422 196.122 176.366 194.849 178.38ZM202.204 183.641C204.196 185.064 206.193 186.482 208.329 187.715C209.679 185.902 211.159 183.924 212.448 182.187C210.533 180.831 208.344 179.271 206.296 177.807C204.938 179.756 203.573 181.7 202.204 183.641ZM210.124 189.28C212.204 190.763 214.057 192.073 216.025 193.466C217.418 191.542 218.805 189.614 220.178 187.676C218.246 186.307 216.315 184.938 214.385 183.566C212.968 185.473 211.545 187.376 210.124 189.28ZM217.966 194.838C219.433 195.875 220.899 196.912 222.508 197.762C223.767 196.028 225.209 194.139 226.625 192.23C225.121 191.171 223.62 190.109 222.118 189.047C220.796 191.024 219.359 192.913 217.966 194.838ZM165.457 169.003C166.503 169.583 167.335 170.444 168.289 171.145C168.398 171.225 168.479 171.316 168.642 171.285C169.563 172.144 170.576 172.881 171.673 173.679C173.022 171.642 174.472 169.686 175.928 167.736C173.86 166.235 171.794 164.73 169.728 163.226C168.228 165.113 166.833 167.085 165.457 169.003ZM167.805 161.826C165.197 159.924 162.53 157.973 159.898 156.041C159.131 157.054 158.494 157.875 157.592 159.072C156.687 160.274 155.54 161.409 156.867 162.74C157.661 163.536 158.748 164.134 159.655 164.801C160.941 165.746 162.227 166.69 163.512 167.635C164.98 165.596 166.309 163.711 167.805 161.826ZM173.601 175.078C175.491 176.449 177.466 177.889 179.439 179.33C180.862 177.347 182.278 175.357 183.69 173.365C181.741 171.958 179.798 170.543 177.852 169.132C176.435 171.031 174.947 173.038 173.601 175.078ZM181.357 180.734C182.701 181.717 184.047 182.698 185.389 183.685C185.964 184.107 186.538 184.529 187.112 184.952C188.55 182.948 189.98 180.938 191.406 178.925C189.475 177.537 187.546 176.146 185.704 174.639C184.203 176.751 182.784 178.745 181.357 180.734ZM189.027 186.36C190.849 187.7 192.672 189.04 194.552 190.305C195.955 188.346 197.54 186.13 198.855 184.262C197.015 182.946 195.175 181.629 193.337 180.31C191.906 182.331 190.47 184.348 189.027 186.36ZM196.476 191.837C198.337 193.203 200.267 194.615 202.197 196.028C203.692 193.964 205.307 191.992 206.723 189.869C204.744 188.461 202.764 187.055 200.788 185.644C199.334 187.696 197.876 189.744 196.476 191.837ZM204.114 197.433C206.084 198.873 208.143 200.194 210.029 201.744C211.545 199.641 213.066 197.546 214.586 195.452C212.609 194.052 210.634 192.651 208.66 191.248C207.224 193.369 205.615 195.36 204.114 197.433ZM211.953 203.139C212.615 203.622 213.133 203.997 213.723 204.424C214.64 205.086 215.325 205.897 216.47 205.515C217.421 205.197 217.813 204.341 218.377 203.544C219.228 202.343 220.079 201.141 220.931 199.94C220.929 199.937 220.928 199.934 220.927 199.932C219.459 198.897 217.993 197.86 216.659 196.65C215.002 198.926 213.535 201.074 211.953 203.139ZM171.777 139.92C172.147 140.191 172.576 140.456 173.022 140.698C172.663 140.269 172.454 139.724 172.487 139.225C172.258 139.463 172.02 139.694 171.777 139.92ZM181.29 120.83C179.752 123.792 177.817 126.583 176.564 129.654C177.076 129.016 177.597 128.373 178.111 127.756C179.105 126.564 181.024 127.968 180.006 129.191C178.274 131.38 176.726 133.603 174.971 135.668C174.95 135.794 174.928 135.92 174.907 136.047C174.779 136.814 174.607 137.612 174.645 138.389C174.674 138.989 174.892 139.459 175.211 139.882C175.897 138.005 176.589 136.234 177.266 134.413C177.872 132.859 180.036 133.805 179.488 135.276C178.962 137.272 178.097 139.011 177.402 140.878C176.77 142.578 176.436 144.111 176.602 145.908C176.839 147.628 177.078 149.322 177.573 151.063C177.828 151.776 178.527 153.738 179.597 153.188C179.762 153.104 180.047 153.16 180.066 153.053C180.136 152.999 179.99 152.785 180.084 152.494C178.511 147.268 178.797 141.412 181.021 136.155C181.636 134.7 183.855 135.569 183.373 136.845C182.168 139.557 181.584 142.23 181.468 144.96C181.487 147.309 181.622 149.528 182.193 151.697C182.495 152.845 182.841 154.141 183.55 155.098C183.682 155.277 184.055 155.521 184.097 155.667C184.12 155.625 184.147 155.573 184.168 155.503C184.212 155.357 184.247 155.207 184.285 155.06C184.366 154.745 184.485 154.375 184.514 154.113C185.255 151.553 184.808 148.684 185.156 145.981C185.506 143.268 186.152 140.594 186.917 137.959C187.093 137.351 187.556 137.135 188.019 137.185C188.676 136.949 189.501 137.203 189.649 138.138C189.92 141.373 190.504 144.605 190.776 147.894C190.886 149.225 190.999 150.56 191.251 151.867C191.312 152.184 191.387 152.495 191.611 152.617C191.914 153.125 192.359 153.445 192.803 153.766C192.806 153.755 192.81 153.743 192.813 153.732C192.958 153.161 193.037 152.571 193.085 151.988C193.176 150.859 193.112 149.732 193.054 148.607C192.926 146.098 193.115 143.55 192.858 141.054C192.628 138.82 192.129 136.643 192.965 134.271C193.089 133.703 193.788 133.592 194.349 133.779C194.452 133.704 194.667 133.761 194.876 133.901C197.222 135.468 198.718 137.943 199.451 140.605C199.555 141.167 199.548 141.954 199.901 142.261C200.327 142.611 199.954 142.381 200.097 142.298C200.283 142.192 200.406 141.907 200.482 141.721C200.935 140.616 200.732 139.123 200.642 137.978C200.379 132.75 198.251 127.849 196.098 123.079C195.684 123.237 195.232 123.104 194.865 123.026C190.261 122.041 185.693 120.91 181.201 119.598C181.435 119.93 181.541 120.346 181.29 120.83ZM190.76 119.516C192.66 120.066 194.632 120.502 196.611 120.912C197.56 121.109 198.511 121.3 199.464 121.484C200.082 121.603 200.953 121.911 201.686 121.94C201.986 121.258 202.055 120.26 202.142 119.652C202.209 119.185 202.255 118.717 202.288 118.248C202.078 118.2 201.87 118.147 201.665 118.101C199.138 117.529 196.603 116.989 194.072 116.434C189.381 115.405 184.691 114.375 180.001 113.346C179.936 113.953 179.701 114.647 179.663 115.301C179.666 115.372 179.663 115.442 179.705 115.551C179.641 115.905 179.645 116.298 179.685 116.694C183.328 117.753 186.997 118.732 190.76 119.516ZM239.095 47.595C231.151 51.6172 224.743 60.7796 224.116 69.7977C223.075 79.2489 226.731 88.0396 232.871 94.9515C233.785 96.2326 231.848 97.7317 230.936 96.4602C226.011 91.1172 222.509 84.0078 221.593 76.5587C220.397 76.6121 219.206 76.7207 218.018 76.9145C216.991 76.9353 214.971 77.2302 214.088 77.7211C212.988 78.5143 212.977 80.5239 212.722 81.6712C212.403 83.1093 212.063 84.5437 211.706 85.9738C210.273 91.7039 208.547 97.3597 206.575 102.878C206.507 103.013 206.47 103.089 206.531 103.023C207.114 106.051 207.242 109.091 206.735 112.102C206.469 113.677 206.089 116.549 204.703 117.793C204.653 119.03 204.511 120.258 204.233 121.476C203.993 122.528 203.793 123.819 202.662 124.257C201.573 124.679 200.057 124.088 198.966 123.865C199.514 125.033 200.026 126.218 200.498 127.421C200.872 127.173 201.361 127.115 201.817 127.447C210.734 133.942 219.65 140.438 228.567 146.934C228.808 147.113 228.803 147.022 228.815 147.181C232.163 145.601 235.793 144.587 239.376 143.843C239.217 143.701 239.057 143.561 238.899 143.419C238.171 142.765 236.889 141.971 236.765 140.884C236.634 139.738 237.734 138.711 238.467 137.91C239.364 136.946 240.372 136.034 241.46 135.208C241.598 135.104 241.737 135.039 241.876 134.998C241.931 132.396 243.999 130.171 246.053 128.596C248.397 126.799 251.02 125.225 253.767 123.885C253.892 122.062 254.828 120.586 256.155 119.252C257.917 117.481 259.984 115.901 261.698 114.21C263.669 112.245 265.512 110.152 267.39 108.093C268.25 107.061 269.142 106.054 270.034 105.046C270.544 104.471 271.054 103.895 271.564 103.319C271.925 103.029 272.432 102.443 272.656 102.121C272.06 101.489 271.076 100.889 270.396 100.302C269.57 99.5634 268.744 98.8247 267.918 98.0861C267.741 97.9272 267.724 97.6233 267.572 97.5538C261.742 102.483 254.513 105.095 246.798 103.279C245.188 102.798 246.133 100.536 247.602 100.92C260.4 104.268 271.982 92.5746 276.208 81.259C279.995 71.1162 276.918 59.6769 269.076 52.7609C261.398 45.9886 249.008 42.9102 239.095 47.595ZM240.754 141.798C242.504 143.362 244.278 144.897 246.076 146.404C249.647 149.175 253.106 152.102 256.743 154.792C257.811 154.105 258.57 153.443 259.278 152.518C255.71 149.425 252.242 146.201 248.573 143.24C247.461 142.277 246.329 141.336 245.292 140.411C244.301 139.534 243.11 138.623 242.46 137.454C241.577 138.155 240.923 139.042 239.995 139.759C239.828 139.946 239.666 140.137 239.508 140.332C239.228 140.549 239.07 140.826 239.63 140.759C239.651 141.042 240.402 141.483 240.754 141.798ZM206.451 210.387C202.962 208.284 199.579 206.043 196.284 203.662C190.814 199.711 185.424 195.649 180.043 191.577C170.792 184.577 161.555 177.55 151.999 170.97C151.55 171.434 151.21 172.007 150.848 172.537C150.454 173.116 150.039 173.694 149.519 174.168C149.886 174.485 150.247 174.789 150.599 175.064C150.837 175.221 151.068 175.389 151.302 175.552C160.757 182.171 170.112 188.936 179.507 195.639C187.717 201.496 195.914 207.371 204.139 213.207C204.17 213.147 204.204 213.088 204.244 213.036C204.808 212.316 205.371 211.596 205.935 210.875C206.05 210.729 206.187 210.618 206.451 210.387ZM145.696 174.345C144.95 173.762 144.048 172.796 143.238 172.596C140.768 171.771 138.777 175.65 137.455 177.242C133.822 181.617 130.186 185.989 126.62 190.238C124.687 192.558 122.82 194.752 121.169 197.112C119.696 198.523 116.821 201.043 116.615 203.181C116.447 205.662 120.315 207.582 121.996 208.793C124.269 210.43 126.541 212.068 128.814 213.705C129.151 213.945 129.488 214.186 129.862 214.454C139.687 221.471 149.555 228.509 159.386 235.596C168.27 241.96 177.12 248.384 186.146 254.76C186.77 255.192 187.53 255.802 188.404 256.021C190.176 256.464 191.341 254.778 192.195 253.489C194.161 250.522 196 247.383 198.004 244.377C201.646 238.082 205.428 231.87 209.279 225.71C210.13 224.393 211.861 222.676 210.958 221.19C210.445 220.521 209.694 220.132 209.16 219.76C208.853 219.547 208.546 219.333 208.24 219.118C206.886 218.165 205.565 217.169 204.188 216.245C193.382 208.563 182.595 200.853 171.801 193.154C164.261 187.776 156.85 182.124 149.118 177.021C147.977 176.129 146.836 175.237 145.696 174.345ZM191.823 36.9109C190.27 36.3609 188.686 35.7813 187.08 35.3946C185.089 34.8394 183.705 35.6878 182.408 37.2899C180.041 40.2157 178.079 43.6084 176.156 46.8365C174.136 50.2501 172.156 53.9224 170.398 57.5869C169.61 59.2308 168.878 60.8546 168.13 62.5616C167.504 64.0133 166.849 65.6937 166.868 67.1963C167.188 70.3549 170.598 72.2857 173.224 73.3211C176.702 74.8892 180.339 76.1165 183.768 77.9634C183.877 77.7834 184.131 77.5331 184.223 77.5279C184.321 77.3782 184.45 77.2481 184.603 77.1435C191.385 67.9344 193.68 54.7854 203.006 47.5839C203.012 47.5434 203.113 47.372 203.021 47.4636C203.698 45.3784 204.01 42.8251 201.999 41.4027C199.24 39.4589 195.159 38.0931 191.823 36.9109ZM307.826 52.579C302.116 48.836 296.325 45.2163 290.463 41.7141C278.38 34.495 265.982 27.7976 253.435 21.4758C247.196 18.5854 240.932 15.7712 234.65 13.032C229.565 10.8144 224.281 8.19572 218.785 7.95229C215.612 7.76224 212.732 8.49679 210.04 9.88912C206.931 11.4974 204.873 13.8813 202.853 16.6894C198.511 22.1737 194.429 27.7794 191.632 34.1595C194.4 35.1947 197.175 36.2999 199.965 37.4412C202.052 38.5668 205.472 39.9431 205.794 42.5444C206.059 43.3765 205.909 44.6377 205.761 45.7324C216.954 39.0582 231.836 39.2349 243.474 43.3782C243.575 43.4141 243.661 43.4601 243.927 43.653C243.785 43.5022 243.829 43.4903 243.874 43.4812C255.448 41.142 268.294 46.2504 275.001 55.7126C275.305 56.1403 275.59 56.5754 275.866 57.0141C276.15 56.9268 276.433 57.167 276.682 57.3398C283.231 61.8287 289.411 67.5636 294.224 73.857C298.097 78.8409 301.065 84.6068 302.759 90.7579C303.788 93.8505 304.364 97.4179 304.537 100.837C304.925 100.217 305.341 99.6212 305.948 99.1789C307.678 96.9876 310.62 98.0165 312.679 99.0408C315.523 100.456 318.263 102.085 320.87 103.897C324.497 97.6766 327.393 91.093 329.475 84.1185C330.407 80.809 331.512 77.0333 330.528 73.5718C329.572 70.2122 326.986 67.5991 324.547 65.2796C319.461 60.4413 313.682 56.4184 307.826 52.579ZM271.587 73.2404C271.695 75.6156 271.13 78.1297 269.492 79.9709C269.05 80.4678 268.449 80.7205 267.804 80.2318C267.321 79.8666 267.156 79.0315 267.596 78.5362C270.48 75.2941 268.853 70.7622 267.663 67.3901C267.207 66.0078 269.259 64.9009 269.801 66.3508C270.624 68.5554 271.526 70.8776 271.587 73.2404ZM266.243 70.1015C266.235 70.7605 265.473 71.2438 264.89 71.1823C264.191 71.1088 263.882 70.4625 263.895 69.8029C263.904 66.3474 261.275 63.4556 259.03 61.3733C258.476 60.8463 258.284 60.1898 258.727 59.6049C259.09 59.1249 259.958 58.8916 260.511 59.417C263.394 62.2935 266.3 65.5773 266.243 70.1015ZM244.639 101.685C243.851 104.216 242.68 108.121 239.388 107.915C238.894 107.884 238.372 107.405 238.453 106.764C238.327 106.02 238.317 105.144 238.306 104.308C238.237 103.906 238.211 103.519 238.165 103.202C238.104 103.125 238.201 102.889 238.048 102.973C237.756 103.063 237.499 103.175 237.169 103.229C236.67 103.366 236.167 103.484 235.661 103.583C234.62 103.786 233.569 103.903 232.515 103.945C231.897 103.925 231.261 103.639 231.174 102.93C231.101 102.334 231.572 101.572 232.221 101.547C233.33 101.503 234.435 101.376 235.527 101.154C235.985 101.061 236.442 100.956 236.892 100.828C237.455 100.668 238.063 100.351 238.654 100.414C239.948 100.552 240.422 102.13 240.582 103.232C240.663 103.787 240.693 104.354 240.709 104.922C240.76 104.857 240.927 104.639 240.858 104.724C240.993 104.53 241.096 104.33 241.212 104.094C241.69 103.057 242.071 101.935 242.418 100.822C242.616 100.189 243.431 99.9016 243.991 100.12C244.628 100.368 244.836 101.056 244.639 101.685ZM238.452 102.854C238.444 102.852 238.827 102.724 238.44 102.849C238.444 102.851 238.448 102.853 238.452 102.854ZM237.894 102.634C237.952 102.364 237.938 102.364 237.988 102.713C238.048 102.756 237.887 102.631 237.894 102.634ZM135.445 68.2018C135.491 68.2387 135.537 68.2734 135.669 68.2023C136.764 69.3276 137.245 71.0794 137.746 72.5639C138.275 74.1357 138.659 75.7885 138.741 77.4626C138.9 80.6578 137.984 83.8577 136.353 86.6436C133.551 91.429 127.513 93.1258 122.382 91.9762C116.478 90.7024 112.714 85.4332 111.539 79.6968C110.955 76.8443 111.363 74.1889 112.719 71.4782C112.846 71.2646 112.987 71.0599 113.127 70.8546C112.114 69.8153 111.344 68.5795 111.093 66.9789C110.612 65.8081 110.521 64.3907 110.812 63.0088C111.034 61.9565 111.481 61.1634 112.475 60.677C113.149 60.3478 113.902 60.1058 114.63 59.9641C115.529 59.9423 116.126 59.8316 116.948 60.1266C117.662 60.2886 118.264 60.8918 118.813 61.5202C119.959 62.7243 120.697 63.8835 121.49 65.1733C123.299 64.7366 125.184 64.6334 127.007 64.8265C129.865 65.1291 133.282 66.0493 135.355 68.0935C135.39 68.1279 135.545 68.2641 135.445 68.2018ZM115.425 62.2682C114.715 62.3529 114.157 62.5505 113.53 62.8117C113.368 62.8008 113.263 62.9846 113.212 63.2398C113.111 63.6124 113.071 63.9812 113.047 64.3399C113.01 64.8937 113.066 65.5218 113.32 66.2479C113.238 66.3328 113.317 66.6016 113.416 66.8741C113.531 67.1903 113.667 67.5011 113.826 67.7965C113.847 67.8276 113.96 68.0204 113.955 68.0133C114.181 67.985 114.147 68.3046 114.251 68.4444C114.355 68.5848 114.464 68.7209 114.578 68.8528C114.591 68.8668 114.639 68.9186 114.775 69.037C115.885 67.7855 117.299 66.8136 118.801 66.1056C118.906 66.0564 119.014 66.0171 119.12 65.9706C118.394 64.8409 117.588 63.7396 116.668 62.7855C116.263 62.3645 115.881 62.2511 115.425 62.2682ZM126.099 67.1894C123.477 67.0075 120.772 67.5557 118.487 68.9845C116.62 70.1513 115.122 71.6506 114.151 73.9007C113.202 76.2548 113.662 78.9019 114.433 81.1922C116.088 85.6254 119.648 89.2724 124.496 89.827C126.73 89.9999 129.096 89.6086 131.119 88.5304C133.235 87.4036 134.487 85.5244 135.333 83.3226C136.288 80.9716 136.565 78.6833 136.271 76.3309C135.87 74.1855 135.164 71.5119 133.817 69.9849C131.796 68.1179 128.697 67.3698 126.099 67.1894ZM131.102 74.4146C130.735 74.8997 129.877 75.1217 129.414 74.6755C128.079 73.3894 126.537 72.5408 124.738 72.4703C124.164 72.2556 123.198 72.5846 122.502 72.8772C121.704 73.1288 120.832 73.7714 119.89 74.0295C119.255 74.2033 118.732 73.4601 118.621 73.0692C118.464 72.3154 118.966 71.8044 119.668 71.686C120.408 71.4095 121.342 70.7944 122.241 70.534C123.141 70.1374 124.156 70.0027 125.196 70.0636C127.361 70.1905 129.365 71.2457 130.895 72.7193C131.359 73.1666 131.607 73.7469 131.102 74.4146ZM118.184 75.88C118.179 75.9535 118.199 75.9951 118.218 76.0361C118.294 76.2312 118.319 76.4337 118.434 76.4579C118.265 76.7466 118.238 76.8485 118.303 77.0205C118.125 77.1579 117.994 77.3314 117.91 77.5405C117.727 77.5244 117.636 77.578 117.545 77.6319C117.399 77.7008 117.248 77.7307 117.203 77.5764C116.936 77.7386 116.784 77.7157 116.638 77.6526C116.548 77.5093 116.378 77.4727 116.409 77.5068C116.125 77.2827 116.037 77.1551 115.983 77.0014C115.963 76.96 116.127 77.0568 115.925 76.8769C115.848 76.6823 115.823 76.4796 115.85 76.2689C115.909 76.1254 115.937 76.0891 115.932 75.9629C116.017 75.7554 116.149 75.5819 116.325 75.4429C116.448 75.4133 116.507 75.3354 116.598 75.2816C116.743 75.2126 116.894 75.1828 117.05 75.1919C117.299 75.0521 117.358 75.1976 117.549 75.2951C117.661 75.3153 117.792 75.4049 117.895 75.5292C118.017 75.6307 118.105 75.7583 118.184 75.88ZM103.417 123.346C103.933 122.859 104.378 122.968 104.8 123.527C108.683 128.953 112.439 134.618 116.193 140.221C117.073 141.438 117.836 142.842 118.709 144.041C119.132 144.989 119.421 145.802 119 146.775C118.613 147.668 117.723 148.256 116.976 148.812C115.554 149.869 114.106 150.891 112.65 151.9C109.921 153.791 107.142 155.609 104.319 157.352C102.011 158.776 99.5048 160.718 96.8866 161.465C94.483 162.15 93.1195 160.818 92.0867 158.731C90.2851 156.107 88.8709 153.103 87.4775 150.264C87.5393 150.071 87.4569 150.137 87.5058 150.032C87.5276 149.986 87.3887 150.151 87.3837 150.141C87.3671 150.106 87.3539 150.071 87.3417 150.034C87.3373 150.021 87.3332 150.008 87.3297 149.995C87.3191 149.958 87.3108 149.92 87.3053 149.882C87.3037 149.869 87.3032 149.856 87.3018 149.843C87.2979 149.803 87.4036 149.619 87.2972 149.721C86.7265 149.795 86.1551 149.864 85.5838 149.925C84.4356 150.164 83.0191 150.125 82.2016 148.961C80.8659 147.791 80.4331 145.512 79.8199 143.851C79.0821 141.853 78.3556 139.85 77.7329 137.72C76.1669 133.71 74.7434 129.559 73.3847 125.361C73.1724 124.82 73.5026 124.344 74.1152 124.279C74.0057 123.808 74.0135 123.547 74.0653 123.425C74.2893 122.897 74.7264 122.535 75.1895 122.222C76.9845 120.927 79.2056 120.53 81.097 119.915C85.3035 118.548 89.7373 117.387 93.9123 116.62C97.0901 115.928 99.7729 115.456 101.483 118.736C102.239 120.187 102.858 121.748 103.417 123.346ZM93.0193 156.861C93.6202 157.895 94.3185 159.634 95.6846 159.711C96.6594 159.765 97.7235 159.06 98.5486 158.588C103.288 155.904 107.859 152.933 112.32 149.807C113.499 148.982 114.673 148.148 115.829 147.289C116.177 147.029 116.977 146.609 117.131 146.203C117.57 145.371 116.691 144.745 116.437 144.299C114.973 142.02 113.52 139.849 112.071 137.664C109.577 133.905 107.034 130.181 104.574 126.577C104.973 127.704 105.299 129.165 105.84 130.341C107.068 134.151 108.718 137.923 109.207 141.875C109.351 143.032 109.363 143.992 108.252 144.675C106.908 145.622 104.742 145.883 103.147 146.351C99.3943 147.453 95.5919 148.354 91.7532 149.03C90.9119 149.178 90.0678 149.316 89.2223 149.445C90.3715 151.98 91.6238 154.461 93.0193 156.861ZM96.1289 118.112C94.664 118.397 93.2047 118.74 91.7474 119.068C88.5215 119.794 85.3565 120.508 82.1425 121.589C80.5825 122.088 79.0374 122.638 77.5697 123.186C76.7476 123.569 76.2037 123.819 75.8911 124.461C75.8137 124.62 75.8203 124.97 75.8512 125.225C75.7233 125.329 75.6096 125.466 75.5118 125.604C77.7761 132.51 80.2681 139.303 82.7889 146.25C83.6559 148.509 86.1191 147.936 88.2209 147.75C89.7563 147.576 91.1255 147.248 92.5425 146.927C95.8087 146.434 98.8038 145.608 101.886 144.727C103.338 144.313 105.479 144.021 106.75 143.203C107.439 142.759 107.381 142.719 107.247 141.842C107.11 140.94 106.913 140.051 106.672 139.174C105.865 136.232 104.733 133.381 103.876 130.635C102.589 127.34 101.524 124.135 100.331 120.988C99.55 118.927 98.4828 117.653 96.1289 118.112ZM229.984 262.185C230.182 261.925 230.107 262.015 230.169 261.93C230.008 261.84 229.845 261.755 229.687 261.662C226.049 259.528 225.356 256.38 226.965 252.42C230.354 244.082 234.448 235.954 238.207 227.774C238.258 227.665 238.319 227.574 238.385 227.491C238.405 227.396 238.615 227.434 238.503 227.211C241.624 220.657 244.823 214.161 247.934 207.591C249.329 204.715 250.762 200.438 253.687 198.806C256.649 197.153 260.053 198.982 262.803 200.092C267.401 201.948 271.993 203.819 276.588 205.685C279.23 199.013 282.284 192.288 284.794 185.777C285.717 183.715 286.453 181.238 287.912 179.436C289.98 176.926 293.504 178.85 295.836 179.624C299.739 180.921 304.144 182.009 307.76 183.967C310.728 185.573 310.576 188.973 309.887 191.72C307.415 200.14 304.359 208.086 300.682 215.994C299.716 218.092 298.722 220.182 297.669 222.239C297.017 223.514 296.354 224.81 295.135 225.642C293.833 226.562 292.531 226.382 291.124 225.988C289.591 225.56 288.084 225.051 286.615 224.476C284.808 228.476 283.034 232.451 281.47 236.574C284.266 235.75 287.254 235.109 290.245 234.493C293.375 233.849 296.56 233.311 299.608 232.455C301.063 231.985 302.542 231.664 304.097 231.636C304.152 231.638 304.198 231.646 304.253 231.648C304.047 231.664 304.134 231.64 304.239 231.655C304.77 231.731 305.339 231.539 305.92 231.463C306.406 231.501 306.931 231.533 307.447 231.631C308.512 231.835 309.65 232.088 310.498 232.756C310.739 232.942 310.552 233.494 310.272 233.621C309.17 234.121 308.059 234.625 306.939 235.081C306.261 235.357 305.532 235.553 304.817 235.68C304.688 235.703 304.612 235.689 304.512 235.605C296.392 237.23 287.714 238.945 279.363 240.866C278.586 242.675 277.899 244.552 277.055 246.305C274.287 251.981 271.468 257.633 268.598 263.26C267.183 266.036 265.978 269.084 264.149 271.546C262.059 274.355 259.514 274.81 257.046 274.438C256.623 274.752 256.339 275.175 256.028 275.58C255.609 276.126 254.874 276.208 254.34 275.841C253.937 275.315 253.742 274.655 254.132 274.145C254.257 273.983 254.375 273.816 254.493 273.649C253.066 273.134 251.662 272.455 250.355 271.814C250.141 272.141 249.919 272.464 249.68 272.775C249.261 273.321 248.526 273.403 247.992 273.036C247.492 272.638 247.394 271.85 247.785 271.34C247.929 271.152 248.067 270.959 248.202 270.765C246.912 270.139 245.621 269.513 244.331 268.887C244.169 269.124 244.003 269.357 243.881 269.516C243.409 270.131 242.674 270.213 242.232 269.916C241.613 269.484 241.542 268.66 241.985 268.081C242.012 268.047 242.124 267.889 242.162 267.835C240.829 267.189 239.497 266.542 238.165 265.896C238.055 266.068 237.996 266.547 237.661 266.684C237.287 267.085 236.466 267.28 236.073 266.727C235.495 266.62 235.334 265.727 235.724 265.218C235.818 265.096 235.906 264.969 235.996 264.844C235.661 264.494 235.118 264.418 234.68 264.206C233.885 263.82 233.21 263.274 232.291 263.048C232.157 263.24 232.023 263.433 231.879 263.62C231.572 264.018 230.726 264.247 230.413 263.968C229.664 263.518 229.593 262.695 229.984 262.185ZM306.115 234.419C306.016 234.563 306.149 234.537 306.229 234.638C306.24 234.644 306.254 234.652 306.261 234.656C306.175 234.527 306.233 234.5 306.417 234.311C306.418 234.427 306.545 234.38 306.671 234.328C307.734 234.104 308.424 233.577 309.295 233.185C308.643 232.797 307.921 232.528 307.164 232.404C306.67 232.324 306.27 232.375 305.74 232.233C305.537 232.348 305.413 232.364 305.373 232.272C305.657 232.937 305.752 233.779 305.665 234.51C305.662 234.563 305.646 234.611 305.634 234.661C305.757 234.628 305.88 234.593 306.115 234.419ZM303.595 234.312C303.424 234.207 303.371 234.192 303.478 234.018C303.323 234.216 303.302 234.238 303.282 234.259C303.679 234.161 303.728 234.136 303.595 234.312ZM275.896 216.597C275.89 216.581 275.914 216.592 275.939 216.602C276.059 216.635 276.18 216.683 276.299 216.763C279.44 218.874 282.904 220.478 286.436 221.839C288.235 222.519 290.147 223.344 292.048 223.72C293.227 223.954 294.004 223.633 294.66 222.773C295.283 221.954 295.69 220.899 296.144 219.981C297.937 216.354 299.621 212.675 301.175 208.944C302.534 205.809 303.722 202.577 304.853 199.344C305.936 196.242 307.478 192.781 307.852 189.519C308.104 188.675 307.973 187.459 307.347 186.685C306.81 186.022 305.674 185.723 304.896 185.429C303.247 184.804 301.589 184.202 299.926 183.613C298.26 183.023 296.589 182.449 294.911 181.892C293.934 181.567 290.876 180.043 290.108 180.741C289.4 181.054 288.883 182.312 288.585 182.943C288.129 183.908 287.716 184.893 287.317 185.881C286.455 188.019 285.624 190.167 284.744 192.298C282.529 197.66 280.178 202.968 278.089 208.378C277.403 210.174 276.778 211.991 276.223 213.828C276.002 214.559 275.83 215.093 275.778 215.952C275.852 215.878 275.778 216.118 275.776 216.126C275.779 216.182 275.781 216.237 275.787 216.291C275.794 216.364 275.807 216.436 275.816 216.508C275.818 216.518 275.818 216.522 275.819 216.53C275.822 216.533 275.827 216.539 275.834 216.554C275.834 216.554 275.834 216.555 275.834 216.556C275.854 216.563 275.951 216.633 275.896 216.597ZM275.807 216.558C275.807 216.558 275.807 216.557 275.807 216.557C275.804 216.556 275.799 216.554 275.796 216.552C275.783 216.548 275.759 216.542 275.72 216.535C275.75 216.54 275.778 216.551 275.807 216.558ZM274.834 245.441C275.379 244.137 275.936 242.837 276.491 241.536C273.698 242.202 270.911 242.901 268.135 243.652C267.809 243.74 267.732 243.671 267.338 243.568C266.792 243.69 266.257 243.857 265.714 243.993C265.457 244.012 265.184 244.042 264.851 243.924C264.715 243.8 264.654 243.626 264.586 243.459C264.648 243.399 264.462 243.152 264.399 242.998C264.278 242.699 264.14 242.402 264.034 242.096C263.924 241.779 263.949 241.43 264.393 241.031C264.661 240.931 265.212 240.806 265.681 240.674C266.06 240.567 266.444 240.475 266.827 240.386C267.058 240.115 267.059 240.197 267.264 240.079C270.911 239.024 274.643 238.031 278.393 237.122C280.46 232.477 282.353 228.133 284.504 223.757C281.133 222.318 277.985 220.818 275.029 218.856C273.244 218.08 273.219 215.859 273.667 214.133C274.21 212.046 275.075 210.097 275.698 207.967C273.778 207.198 271.829 206.343 269.848 205.593C267.244 204.536 264.641 203.48 262.038 202.424C261.185 202.078 260.331 201.732 259.472 201.401C256.648 200.313 254.582 200.166 252.769 203.198C251.184 205.849 249.985 208.801 248.644 211.574C245.989 217.065 243.345 222.562 240.706 228.061C240.654 228.168 240.591 228.259 240.524 228.341C240.505 228.437 240.476 228.535 240.429 228.638C237.523 234.961 234.415 241.253 231.659 247.687C243.153 252.62 254.424 258.21 265.392 264.361C268.634 258.102 271.746 251.772 274.834 245.441ZM264.806 241.823C264.817 241.857 264.826 241.892 264.833 241.908C265 241.797 264.891 242.052 264.92 242.123C265.024 242.379 265.128 242.635 265.232 242.891C265.305 242.905 265.29 243.035 265.319 243.106C265.335 243.146 265.362 243.196 265.381 243.245C265.404 243.242 265.427 243.24 265.44 243.236C265.647 243.189 265.853 243.133 266.058 243.078C266.321 243.006 266.584 242.934 266.939 242.934C266.725 242.497 266.668 242.111 266.537 241.746C266.609 241.702 266.464 241.453 266.467 241.294C266.253 241.346 266.04 241.4 265.828 241.459C265.483 241.555 265.304 241.797 264.806 241.823ZM264.768 241.749C264.77 241.744 264.77 241.741 264.769 241.741C264.784 241.738 264.715 241.709 264.768 241.749ZM231.46 259.81C231.477 259.741 231.616 259.52 231.596 259.495C231.822 258.984 232.019 258.461 232.185 257.929C232.347 257.647 232.253 257.701 232.308 257.602C232.405 257.407 232.305 257.522 232.31 257.503C232.326 257.44 232.342 257.378 232.357 257.315C232.421 257.045 232.477 256.772 232.527 256.499C232.758 255.91 233.206 255.377 233.88 255.418C234.505 255.456 235.025 256.122 234.988 256.809C234.647 258.202 234.18 259.609 233.534 260.933C233.559 260.946 233.584 260.958 233.608 260.97C234.813 261.568 236.027 262.148 237.238 262.732C237.27 262.663 237.305 262.597 237.336 262.527C237.563 262.017 237.76 261.494 237.925 260.962C238.064 260.712 237.994 260.733 238.028 260.619C238.118 260.476 238.045 260.555 238.051 260.536C238.067 260.473 238.214 260.511 238.097 260.348C238.162 260.078 238.387 259.934 238.267 259.532C238.515 258.694 239.125 258.545 239.62 258.451C240.246 258.489 240.766 259.155 240.651 259.784C240.401 261.162 239.966 262.5 239.37 263.765C240.719 264.419 242.068 265.073 243.416 265.727C243.458 265.638 243.504 265.551 243.544 265.46C243.771 264.95 244.109 264.24 244.18 263.833C244.169 263.781 244.202 263.666 244.236 263.552C244.246 263.515 244.253 263.488 244.259 263.469C244.275 263.406 244.343 263.274 244.305 263.281C244.37 263.01 244.426 262.738 244.475 262.465C244.784 261.934 245.284 261.171 245.828 261.384C246.454 261.422 247.099 261.922 246.859 262.716C246.668 264.035 246.16 265.477 245.548 266.762C246.833 267.385 248.118 268.008 249.404 268.631C249.627 268.127 249.822 267.61 249.986 267.085C250.021 266.971 250.054 266.856 250.21 266.709C250.098 266.704 250.106 266.678 250.111 266.658C250.127 266.596 250.142 266.533 250.192 266.425C250.222 266.2 250.278 265.928 250.327 265.654C250.619 265.111 251.006 264.532 251.68 264.573C252.306 264.611 252.826 265.278 252.851 266.012C252.476 267.203 252.141 268.513 251.536 269.665C252.617 270.186 253.789 270.764 254.822 271.126C255.111 271.237 255.418 271.356 255.798 271.519C255.791 271.506 255.787 271.495 255.78 271.482C255.971 270.945 256.168 270.422 256.333 269.89C256.478 269.859 256.402 269.661 256.436 269.547C256.446 269.509 256.454 269.482 256.459 269.463C256.475 269.401 256.49 269.338 256.637 269.102C256.659 268.888 256.648 268.702 256.675 268.459C256.797 267.787 257.354 267.337 258.028 267.379C258.654 267.417 259.174 268.083 259.059 268.711C258.848 269.876 258.504 271.012 258.126 271.993C259.068 272.245 260.085 272.152 260.95 271.534C262.246 270.61 262.683 269.52 263.258 268.437C263.597 267.798 263.933 267.157 264.269 266.516C253.359 260.381 242.12 254.838 230.611 249.879C230.125 251.011 229.648 252.145 229.186 253.284C228.262 255.565 228.106 257.572 230.257 259.144C230.569 259.369 230.987 259.626 231.46 259.81ZM281.041 216.174C281.677 215.333 282.94 216.291 282.305 217.13C281.669 217.971 280.406 217.013 281.041 216.174ZM283.292 217.034C283.575 216.66 284.315 216.592 284.418 216.86C284.445 216.877 284.565 216.947 284.595 216.965C284.608 216.972 284.619 216.978 284.624 216.98C284.679 217.009 284.734 217.039 284.789 217.067C285.01 217.181 285.416 217.428 285.508 217.436C286 217.658 286.547 217.906 287.095 218.151C288.042 218.574 288.997 218.983 289.949 219.397C290.343 219.568 290.553 220.019 290.46 220.337C290.219 220.837 289.726 221.08 289.333 220.909C288.357 220.484 287.378 220.065 286.458 219.669C285.404 219.182 284.363 218.749 283.431 218.164C283.066 217.936 283.043 217.364 283.292 217.034Z" fill="#55523F" stroke="black" stroke-width="0.147985"/>
</svg>
