<svg width="409" height="380" viewBox="0 0 409 380" fill="none" xmlns="http://www.w3.org/2000/svg">
<path fill-rule="evenodd" clip-rule="evenodd" d="M121.44 313.731C121.02 314.32 120.25 314.433 119.519 313.957C119.035 313.81 119.004 312.842 119.396 312.292C119.732 311.821 119.923 311.511 120.254 310.946C120.394 310.726 120.454 310.618 120.513 310.509C120.521 310.495 120.524 310.489 120.53 310.478C120.557 310.426 120.557 310.355 120.517 310.257C120.729 310.081 120.843 309.838 120.885 309.687C121.168 309.101 121.36 308.6 121.528 308.091C121.619 307.816 121.702 307.539 121.778 307.26C121.779 307.186 121.84 307.021 121.872 306.901C121.89 306.827 121.899 306.787 121.901 306.781C121.913 306.728 121.925 306.675 121.936 306.622C122.086 305.916 122.572 305.416 123.32 305.435C123.948 305.451 124.592 306.138 124.418 306.775C123.92 309.288 122.931 311.642 121.44 313.731ZM125.578 296.805C125.316 296.299 125.293 295.565 125.878 295.074C126.367 294.664 127.294 294.647 127.655 295.222C130.568 299.907 130.647 306.382 127.214 311.094C126.235 312.438 124.112 310.943 125.17 309.655C127.87 305.949 128.053 300.657 125.578 296.805ZM158.623 114.734C151.801 116.456 144.804 118.057 137.667 119.855C137.713 119.678 137.618 119.699 137.524 119.721C137.405 119.897 137.471 119.81 137.435 119.854C127.296 132.085 117.267 144.609 107.24 156.703C103.987 160.697 100.708 164.674 97.3482 168.886C96.4961 169.901 95.4399 170.976 93.7786 170.561C92.7692 170.309 91.8442 169.724 91.2012 168.895C89.7386 167.678 88.2875 166.447 86.5834 165.155C82.0447 161.201 77.2582 157.18 72.472 153.158C68.2646 149.623 62.8397 145.895 60.0142 141.021C58.8878 139.078 59.7401 137.533 61.0087 135.952C62.3846 134.237 63.7721 132.531 65.1572 130.823C72.8398 121.349 80.5323 111.882 88.2475 102.434C87.2318 97.0488 85.9605 91.7001 85.7379 86.2832C85.6304 83.0473 85.8234 80.8229 89.0813 79.8445C97.5174 77.5103 106.174 75.849 114.687 73.8749C123.776 71.7674 132.864 69.6556 141.956 67.5674C141.958 67.695 142.164 67.539 142.259 67.545C145.307 66.9695 148.535 66.131 151.683 65.4736C153.603 65.0727 155.467 64.7587 156.712 66.5907C158.409 69.0881 159.035 72.5792 159.825 75.5673C160.737 79.3618 161.426 83.2215 162.188 87.0531C162.968 90.9771 163.748 94.9012 164.529 98.8254C164.722 100.74 165.336 102.885 165.74 104.915C166.082 106.633 166.641 108.441 166.705 110.206C166.844 114.083 161.545 114.23 158.623 114.734ZM79.7403 116.039C75.5771 120.842 71.6535 125.999 67.747 130.797C66.2906 132.593 64.8338 134.388 63.3822 136.187C62.6816 137.055 61.1846 138.424 61.5717 139.62C61.9278 140.909 63.6518 142.364 64.5735 143.342C65.5689 144.398 66.6173 145.403 67.6945 146.374C69.637 148.126 71.6594 149.787 73.6613 151.469C78.0314 155.141 82.4015 158.812 86.6902 162.6C87.8228 163.395 89.1774 164.713 90.5175 165.632C91.3475 166.34 92.1881 167.331 93.4084 168.047C95.0232 169.024 95.9559 167.408 96.8368 166.323C99.6417 162.65 102.621 159.227 105.605 155.552C115.253 143.896 124.8 132.153 134.38 120.44C126.731 122.039 119.547 123.844 111.942 125.371C111.634 125.609 111.147 125.722 110.661 125.835C112.903 127.412 115.18 128.94 117.395 130.557C118.261 131.19 117.27 132.598 116.295 132.119C113.776 130.046 111.062 128.253 108.289 126.542C105.75 126.97 103.078 127.587 100.367 128.18C100.2 128.255 99.8443 128.221 99.7409 128.38C102.779 130.691 105.397 133.175 108.696 135.519C109.571 136.141 108.579 137.548 107.705 136.927C104.21 134.443 101.105 131.455 97.6205 128.958C96.5018 129.217 95.3738 129.351 94.5458 128.996C92.8383 128.515 92.5915 126.57 92.3982 124.912C90.0775 122.988 87.384 121.589 84.992 119.767C84.1297 118.945 85.0849 117.512 86.0405 118.277C87.9059 119.799 90.0001 120.998 91.9672 122.376C91.6411 120.627 91.315 118.878 90.9888 117.129C90.2355 113.087 89.4817 109.045 88.7284 105.003C85.4407 108.683 82.7345 112.359 79.7403 116.039ZM163.996 106.871C163.85 105.837 163.635 104.754 163.42 103.672C163.016 101.642 162.612 99.6122 162.209 97.5827C160.399 89.1882 159.406 80.6859 156.936 72.6314C156.279 71.0389 155.75 67.1856 153.363 67.108C152.889 67.194 152.214 67.4365 151.634 67.5592C148.157 68.1363 145.034 69.0036 141.737 69.7411C141.637 69.7635 141.523 69.7519 141.457 69.7641C137.943 70.5721 134.43 71.3853 130.833 72.3179C120.309 74.7913 109.936 77.054 99.4484 79.496C96.1343 80.4173 93.0537 80.9238 89.8805 81.7366C87.1242 82.4424 87.8105 85.9586 87.9735 88.1902C88.3702 92.994 89.4178 97.6326 90.2916 102.298C90.3561 102.429 90.2999 102.515 90.3718 102.725C91.1472 106.883 91.9222 111.041 92.6973 115.199C93.0825 117.265 93.4168 119.295 93.8528 121.397C94.0454 122.429 94.1247 123.623 94.4307 124.495C94.5579 125.905 94.6227 127.019 96.3814 127.062C97.9853 127.021 99.8592 126.252 101.421 125.89C104.882 125.088 108.344 124.288 111.806 123.488C120.162 121.629 128.506 119.7 136.854 117.793C137.067 117.745 137.279 117.696 137.492 117.647C144.885 115.958 152.244 114.313 159.671 112.577C161.24 112.218 164.314 112.194 164.655 109.964C164.786 109.104 164.233 107.763 163.996 106.871ZM148.298 100.188C147.034 100.629 145.755 100.999 144.453 101.289C144.175 101.352 143.928 101.145 143.875 100.882C142.966 96.397 142.145 91.8911 141.382 87.3732C141.338 87.2883 141.324 87.1927 141.335 87.0953C140.938 84.7417 140.553 82.3856 140.189 80.0258C139.802 80.1011 139.414 80.1812 139.003 80.2933C139.258 82.498 139.706 84.6365 140.048 86.8273C140.393 89.0343 140.415 91.3023 141.04 93.4501C141.123 93.7362 140.855 93.9731 140.619 94.0475C139.282 94.6243 138.064 94.5721 136.826 94.8417C136.707 95.0147 136.451 94.8052 136.403 94.5437C135.586 90.1335 134.825 85.7074 134.333 81.2368C133.577 81.4017 132.822 81.569 132.068 81.7382C132.474 84.8309 132.698 88.2553 133.318 90.9597C134.049 94.6643 134.164 97.8436 135.035 100.994C135.091 101.205 134.949 101.441 134.714 101.514C133.676 101.832 132.664 102.018 131.606 102.241C131.295 102.307 130.998 102.142 130.943 101.863C130.263 98.3998 129.619 94.9278 129.025 91.4451C128.711 89.6088 128.412 87.7699 128.032 85.8585C127.866 85.1986 127.856 84.1153 127.727 83.2077C127.707 83.0676 127.66 82.9071 127.635 82.7499C117.537 85.0489 107.563 87.5815 97.384 89.2314C96.4158 89.3883 96.1775 87.8822 97.1476 87.725C110.755 85.6923 124.336 81.6826 137.985 78.9074C141.259 78.2417 144.547 77.6463 147.847 77.1647C149.492 77.0688 152.237 75.9518 153.028 78.0086C154.05 81.331 154.288 85.1774 154.893 88.6161C155.562 92.4241 156.232 96.2321 156.901 100.04C157.006 100.962 155.573 101.292 155.403 100.325C154.782 96.7894 154.16 93.2537 153.538 89.7177C153.251 88.0857 152.965 86.4539 152.547 85.0069C152.407 83.2837 152.348 81.3854 151.817 79.9261C151.32 78.7459 151.225 78.4944 149.931 78.4132C149.236 78.3699 148.401 78.623 147.715 78.725C146.786 78.863 145.859 79.0128 144.933 79.1675C145.425 81.1369 145.784 83.1387 146.075 85.1534C146.075 85.1536 146.075 85.154 146.075 85.1542C146.265 86.4729 146.368 87.7551 146.575 89.1212C146.973 92.6823 147.652 96.1927 148.594 99.6307C148.648 99.8289 148.395 100.255 148.298 100.188ZM135.329 81.0233C135.801 85.3272 136.526 89.5894 137.308 93.8361C138.184 93.6375 138.937 93.3556 139.907 93.1831C139.418 91.1818 139.371 89.0738 139.049 87.0179C138.622 84.7699 138.284 82.6619 138.03 80.4582C137.128 80.642 136.228 80.8303 135.329 81.0233ZM141.187 79.8323C141.304 80.5911 141.431 81.3484 141.552 82.1065C142.059 81.2285 142.587 80.3624 143.093 79.4834C142.457 79.5966 141.822 79.7123 141.187 79.8323ZM144.044 79.8213C143.31 81.1168 142.476 82.4242 141.806 83.6871C141.875 84.3637 141.915 84.8847 142.109 85.577C142.875 84.213 143.587 82.9829 144.413 81.4882C144.263 80.981 144.175 80.3747 144.044 79.8213ZM144.557 82.9275C143.824 84.5529 143.087 85.7357 142.376 87.1511C142.499 87.878 142.626 88.6044 142.613 89.5282C143.513 87.9502 144.298 86.582 144.926 85.3656C144.939 84.4707 144.826 83.7475 144.557 82.9275ZM145.576 89.3114C145.484 88.4888 145.384 87.667 145.276 86.8461C144.455 88.2996 143.756 89.5388 143.026 90.9011C143.169 91.7096 143.32 92.5165 143.468 93.324C144.175 92.024 144.892 90.7292 145.591 89.4245C145.587 89.3868 145.581 89.3492 145.576 89.3114ZM145.811 91.0974C145.124 92.3581 144.428 93.6144 143.751 94.8802C143.899 95.6749 144.058 96.467 144.21 97.2607C144.873 96.0202 145.537 94.7796 146.2 93.5389C146.058 92.7278 145.925 91.9145 145.811 91.0974ZM144.555 98.7212C144.541 98.7468 144.524 98.7685 144.505 98.7897C144.595 99.2479 144.678 99.7074 144.771 100.165C145.686 99.9468 146.591 99.6909 147.487 99.3922C147.108 97.9735 146.71 96.6379 146.49 95.1008C145.788 96.2676 145.2 97.5145 144.555 98.7212ZM114.189 91.255C113.625 91.4415 113.519 91.1367 113.457 90.7395C113.405 90.4081 113.653 89.9685 114.017 89.9431C115.525 89.8383 117.028 89.659 118.522 89.4001C119.27 89.2703 120.014 89.1154 120.757 88.9536C121.467 88.7986 122.153 88.7211 122.858 88.8874C123.212 88.9708 123.37 89.4314 123.252 89.7527C123.114 90.1262 122.735 90.2605 122.363 90.2061C121.805 90.0412 121.158 90.2521 120.398 90.2432C119.894 90.5276 119.085 90.8224 118.499 90.7789C117.082 91.0168 115.657 91.1828 114.189 91.255ZM123.102 93.314C123.94 93.0598 124.143 94.4013 123.313 94.6529C119.745 95.735 115.925 95.8084 112.152 96.349C108.362 97.0311 104.658 97.9491 100.867 98.8035C99.8786 98.9014 99.8057 97.656 100.657 97.4643C104.448 96.6099 108.241 95.7548 111.991 95.2032C115.715 94.4694 119.535 94.3958 123.102 93.314ZM105.896 101.472C112.126 100.782 118.186 99.811 124.505 98.6445C125.165 98.3394 125.572 99.8176 124.715 99.9837C118.544 101.178 112.247 102.058 106.029 102.757C105.245 102.906 105.03 101.568 105.896 101.472ZM125.163 104.681C117.076 106.482 108.945 108.047 100.783 109.375C99.9223 109.515 99.7102 108.176 100.572 108.036C108.735 106.708 116.865 105.143 124.953 103.341C125.702 103.076 126.015 104.491 125.163 104.681ZM108.008 112.56C114.386 110.847 120.825 109.404 127.246 108.192C128.166 108.08 128.377 109.419 127.517 109.574C121.035 110.743 114.597 112.186 108.218 113.899C107.372 114.126 107.167 112.786 108.008 112.56ZM105.892 143.626C106.775 144.238 105.782 145.644 104.901 145.033C96.366 139.114 88.0504 132.907 79.9476 126.407C79.1133 125.737 79.9971 124.476 80.9388 124.999C89.0416 131.499 97.3571 137.706 105.892 143.626ZM100.986 149.771C101.972 150.426 100.977 151.832 99.8772 151.346C91.12 145.322 82.6019 138.766 74.2672 132.021C73.594 131.132 74.5805 129.72 75.3987 130.413C83.5929 137.358 92.0009 144.071 100.986 149.771ZM94.2916 158.046C85.8985 151.134 77.7775 143.879 68.9365 137.536C68.0641 136.91 69.0561 135.502 69.9276 136.128C78.7687 142.471 86.788 149.87 95.2269 156.717C96.1073 157.317 95.12 158.728 94.2916 158.046ZM258.357 167.378C258.157 168.49 258.057 169.599 258.026 170.734C257.998 171.742 256.763 172.194 256.025 171.701C241.139 161.764 225.925 152.183 211.563 141.495C210.803 141.042 210.854 139.646 211.67 139.468C212.997 138.827 214.202 138.435 215.372 138.189C212.458 136.078 209.485 134.051 206.512 132.024C206.419 131.988 206.326 131.941 206.233 131.877C205.589 131.427 204.886 130.933 204.3 130.515C204.207 130.452 204.114 130.388 204.021 130.325C203.993 130.306 203.974 130.285 203.949 130.265C198.054 126.045 192.385 121.383 189.193 114.64C186.153 108.407 185.442 101.542 184.793 94.7828C184.608 92.8612 184.08 89.9475 185.837 88.6986C185.837 88.697 185.838 88.6953 185.838 88.6936C186.036 88.1552 186.38 87.6517 186.67 87.1576C187.219 86.2216 187.718 85.2075 188.304 84.2919C189.782 82.6185 191.928 81.9872 193.984 82.5975C194.232 82.6711 194.431 82.8322 194.57 83.0379C194.614 83.0595 194.657 83.0755 194.611 83.0401C210.015 92.7837 225.097 102.611 240.216 112.802C259.314 125.672 278.181 138.894 296.7 152.586C301.685 156.273 306.646 159.994 311.565 163.77C312.771 164.727 314.003 165.648 315.217 166.593C315.71 166.977 316.379 167.388 316.693 167.932C317.285 168.962 316.739 169.906 316.185 170.863C315.181 172.595 313.95 174.132 312.602 175.602C312.427 176.546 311.707 177.401 310.153 178.013C306.067 179.623 301.305 180.489 297.012 181.186C292.606 181.901 288.106 182.113 283.755 181.243C274.233 179.339 266.273 172.776 258.471 167.456C258.433 167.43 258.285 167.327 258.357 167.378ZM217.815 139.732C217.583 140.108 217.38 140.233 216.985 140.325C216.325 140.478 215.589 140.776 215.032 140.844C228.218 150.515 242.067 159.322 255.572 168.295C255.708 167.651 255.938 166.702 256.128 165.858C243.357 157.149 230.509 148.55 217.815 139.732ZM205.341 98.2887C208.477 100.459 211.732 102.448 214.936 104.514C220.313 107.981 225.636 111.53 230.917 115.14C231.019 115.176 231.122 115.223 231.224 115.293C240.098 121.392 248.892 127.421 257.654 133.458C267.228 140.057 276.815 146.655 286.324 153.361C290.152 156.06 293.752 158.797 297.358 161.252C301.711 164.221 306.265 167.148 309.963 170.622C310.76 171.326 311.359 172.007 311.814 172.718C312.48 171.871 313.032 171.04 313.649 170.224C313.903 169.879 314.428 169.229 314.393 169.31C314.405 169.129 314.01 168.937 313.917 168.851C313.433 168.398 312.85 168.02 312.157 167.496C310.541 166.233 308.749 164.86 306.952 163.494C293.357 153.158 279.329 143.022 265.533 133.342C241.828 116.709 217.693 100.69 193.125 85.152C193.101 85.1438 193.015 85.0616 192.939 84.9755C192.626 84.8518 192.523 84.8983 192.168 84.96C192.305 84.8933 192.278 84.8954 192.126 84.9117C191.842 84.7845 191.949 84.9354 191.861 84.9521C191.672 85.1622 191.49 85.0524 191.5 85.0417C191.345 85.1004 191.074 85.0878 191.049 85.2511C190.914 85.3288 190.839 85.4206 190.995 85.2818C190.924 85.3329 190.855 85.3865 190.788 85.4431C190.346 85.5938 190.133 85.9058 190.022 86.3274C189.655 86.9507 189.281 87.603 188.937 88.2076C191.198 88.6789 193.598 90.4599 195.133 91.5534C198.732 93.5461 202 95.9753 205.341 98.2887ZM263.04 167.446C270.655 172.639 278.446 178.671 288.076 179.219C292.555 179.474 297.047 178.727 301.437 177.711C303.517 177.35 305.785 176.624 307.948 176.03C309.35 175.645 310.431 174.695 309.328 173.517C308.399 172.556 307.432 171.922 306.477 170.96C301.104 166.476 294.96 162.727 289.2 158.574C285.91 156.203 282.583 153.883 279.257 151.561C264 140.913 248.562 130.522 233.314 119.862C233.213 119.826 233.063 119.782 232.987 119.741C226.765 115.39 220.46 111.158 214.083 107.035C208.611 103.497 203.234 99.8704 197.849 96.2048C196.396 95.2151 194.895 94.2929 193.41 93.3551C192.643 92.9006 191.733 92.6555 190.892 91.9202C190.436 91.7147 189.319 90.8682 188.597 90.8682C188.441 90.8179 188.243 90.7379 188.13 90.718C187.784 91.2126 187.33 91.8617 187.093 92.2015C187.02 92.4569 187.166 92.9888 187.015 93.13C187.256 93.9564 187.249 94.763 187.197 95.2244C187.533 96.7695 187.687 98.1751 187.87 99.5764C188.646 105.529 189.945 111.568 193.212 116.606C196.34 121.427 200.915 124.961 205.549 128.241C224.662 141.274 243.876 154.378 263.04 167.446ZM231.005 268.138C228.051 268.97 225.126 269.969 222.152 270.714C219.561 271.214 217.479 271.748 216.39 269.018C214.795 265.018 213.663 260.567 212.641 256.366C211.633 252.22 214.776 250.406 218.197 249.061C226.19 245.919 234.762 243.033 243.215 241.737C244.604 241.607 246.332 241.515 247.409 242.64C248.427 243.705 248.755 245.548 249.174 246.931C250.156 250.696 251.223 254.874 251.252 258.883C252.439 262.595 245.093 264.063 242.914 264.74C238.968 265.965 234.978 267.019 231.005 268.138ZM248.912 259.469C248.854 259.266 248.847 259.083 248.877 258.919C248.675 255.525 248.028 252.183 247.121 248.933C246.712 247.468 246.327 244.5 244.643 244.165C243.771 243.993 242.432 244.486 241.557 244.674C240.658 244.867 239.76 245.067 238.864 245.276C232.297 246.806 225.827 248.786 219.517 251.249C217.932 251.868 214.902 252.613 214.901 254.787C214.9 256.216 215.682 257.919 216.064 259.272C216.607 261.195 217.177 263.111 217.772 265.017C218.036 265.863 218.363 268.343 219.209 268.669C219.915 268.925 221.466 268.282 222.175 268.095C223.065 267.862 223.946 267.597 224.826 267.326C227.268 266.575 229.723 265.871 232.066 265.353C234.118 264.652 249.286 260.775 248.912 259.469ZM244.213 255.837C244.852 254.929 246.214 255.89 245.576 256.796C244.937 257.703 243.575 256.743 244.213 255.837ZM243.16 253.499C243.139 253.183 243.085 252.871 243.031 252.56C242.786 251.135 242.462 249.727 242.156 248.317C242.056 247.855 242.43 247.421 242.857 247.321C243.32 247.212 243.727 247.567 243.82 247.999C243.887 248.308 243.955 248.616 244.023 248.925C244.193 249.707 244.361 250.489 244.515 251.274C244.639 251.901 244.682 252.469 244.825 253.181C244.856 253.656 244.604 254.064 244.124 254.177C243.705 254.276 243.19 253.944 243.16 253.499ZM279.971 303.172C277.848 312.333 268.041 317.651 259.584 317.863C248.949 318.293 239.841 310.756 234.799 302.008C232.403 297.852 231.343 293.29 232.442 288.443C233.455 283.971 235.983 279.865 239.403 276.804C242.975 273.606 247.315 272.074 252.115 271.507C256.743 271.133 262.381 271.313 266.542 273.377C266.441 273.295 266.64 273.437 266.687 273.468C266.738 273.488 266.789 273.504 266.659 273.403C277.295 279.07 282.591 291.379 279.971 303.172ZM265.534 275.743C261.498 273.79 255.759 273.578 251.305 274.14C246.582 274.736 242.29 276.936 239.13 280.642C236.527 283.696 234.771 287.536 234.525 291.53C234.234 296.256 236.539 300.488 239.225 304.099C244.557 311.266 253.093 316.685 262.42 315.005C266.272 314.311 270.05 312.636 273.035 309.988C276.434 306.897 277.789 303.083 278.043 298.56C278.529 288.824 273.896 280.26 265.534 275.743ZM270.313 291.448C271.545 294.161 271.875 297.406 271.096 300.261C270.269 305.262 265.275 308.197 260.659 308.468C255.129 308.791 250.354 305.037 247.662 300.513C246.335 298.282 245.68 295.831 246.092 293.089C246.255 293.133 246.275 293.073 246.275 293.032C245.064 292.375 243.983 291.49 243.124 290.284C242.456 289.248 241.893 287.976 241.63 286.566C241.62 285.657 241.874 284.931 242.657 284.183C243.127 283.749 243.655 283.365 244.213 283.059C244.664 282.616 245.492 282.546 246.173 282.539C246.959 282.53 247.648 282.876 248.307 283.252C249.509 283.936 250.648 284.727 251.727 285.592C253.212 284.696 254.883 284.103 256.553 283.805C259.042 283.362 262.089 283.284 264.363 284.413C264.417 284.439 264.461 284.473 264.508 284.504C264.56 284.523 264.611 284.539 264.661 284.566C265.854 285.449 267.038 286.54 267.964 287.696C268.883 288.843 269.702 290.101 270.313 291.448ZM247.011 285.474C246.89 285.403 246.768 285.332 246.644 285.265C246.626 285.26 246.278 285.053 246.428 285.171C246.36 285.145 246.29 285.123 246.22 285.103C246.021 284.981 246.102 285.095 245.92 285.267C245.992 285.1 245.641 284.978 245.792 285.126C245.738 285.138 245.547 285.34 245.639 285.178C245.454 285.266 245.271 285.353 245.088 285.448C245.087 285.448 245.087 285.448 245.086 285.449C245.045 285.479 245.001 285.507 244.959 285.538C244.809 285.689 244.655 285.577 244.697 285.736C244.556 285.848 244.321 286.039 244.229 286.127C244.23 286.145 244.193 286.215 244.178 286.242C244.12 286.289 244.305 286.621 244.359 286.847C244.358 286.842 244.397 286.992 244.409 287.043C244.417 287.068 244.425 287.092 244.426 287.096C244.463 287.206 244.5 287.316 244.542 287.424C244.624 287.641 244.678 287.909 244.819 288.062C244.887 288.201 244.961 288.336 245.036 288.47C245.051 288.495 245.06 288.512 245.067 288.525C245.074 288.534 245.086 288.55 245.065 288.554C245.24 288.776 245.373 288.965 245.517 289.145C245.686 289.355 245.868 289.552 246.055 289.744C246.076 289.766 246.09 289.781 246.1 289.791C246.111 289.8 246.124 289.811 246.146 289.829C246.233 289.905 246.32 289.979 246.41 290.051C246.54 290.331 246.756 290.491 247.004 290.604C246.925 290.412 247.129 290.551 247.161 290.57C247.697 289.436 248.616 288.19 249.617 287.215C248.783 286.585 247.915 286.002 247.011 285.474ZM263.244 286.881C261.334 285.843 258.745 285.947 256.606 286.381C254.4 286.829 252.243 287.883 250.737 289.641C249.462 291.129 248.607 293.008 248.428 295.133C248.479 297.172 249.689 299.176 250.971 300.832C253.566 304.185 257.604 306.635 262.013 305.739C263.886 305.358 265.749 304.468 267.12 303.074C268.551 301.618 268.96 299.801 268.921 297.77C269.078 295.598 268.569 293.472 267.495 291.548C266.388 289.722 265.073 287.761 263.244 286.881ZM262.885 291.134C262.688 291.748 261.849 292.212 261.257 291.931C260.881 291.752 260.497 291.591 260.101 291.461C259.885 291.389 259.666 291.326 259.398 291.239C259.256 291.147 259.306 291.242 259.253 291.23C259.193 291.22 259.109 291.206 259.094 291.204C258.679 291.14 258.263 291.119 257.687 291.014C257.824 291.123 257.815 291.123 257.803 291.123C257.798 291.123 257.798 291.124 257.791 291.125C257.705 291.136 257.619 291.141 257.394 291.35C257.343 291.177 257.073 291.327 256.968 291.253C256.866 291.276 256.764 291.301 256.663 291.33C256.635 291.338 256.609 291.346 256.587 291.352C256.419 291.414 256.174 291.424 256.088 291.554C255.913 291.635 255.704 291.698 255.577 291.823C255.57 291.828 255.567 291.829 255.561 291.833C255.557 291.836 255.555 291.838 255.548 291.843C255.48 291.898 255.405 291.945 255.336 291.999C255.181 292.119 254.952 292.191 254.893 292.386C254.822 292.455 254.754 292.527 254.684 292.599C254.668 292.615 254.661 292.623 254.65 292.634C254.642 292.643 254.627 292.659 254.594 292.696C254.248 293.074 253.909 293.455 253.481 293.739C252.879 294.139 252.105 294.279 251.524 293.464C251.29 293.126 251.343 292.163 251.905 291.79C252.12 291.648 252.313 291.486 252.451 291.369C252.567 291.234 252.635 291.161 252.703 291.09C252.604 291.198 252.607 291.195 252.712 291.08C252.79 290.995 252.73 291.106 252.946 290.825C253.145 290.644 253.564 290.184 253.93 289.924C254.736 289.352 255.619 288.957 256.574 288.742C258.296 288.199 260.449 288.704 262.147 289.511C262.782 289.814 263.116 290.412 262.885 291.134ZM252.679 295.76C252.74 296.041 252.904 296.128 252.892 296.416C252.943 296.457 252.946 296.566 252.949 296.675C252.925 296.904 252.847 297.115 252.713 297.306C252.635 297.391 252.557 297.476 252.479 297.561C252.351 297.676 252.205 297.753 252.043 297.791C251.89 297.856 251.451 297.913 251.565 297.862C251.393 297.856 251.237 297.809 251.097 297.719C250.847 297.785 250.756 297.626 250.509 297.277C250.673 297.384 250.643 297.354 250.613 297.324C250.475 297.152 250.388 296.956 250.354 296.735C250.35 296.626 250.323 296.5 250.344 296.409C250.367 296.179 250.446 295.969 250.58 295.778C250.658 295.693 250.736 295.608 250.791 295.555C250.942 295.408 251.087 295.331 251.249 295.292C251.402 295.228 251.562 295.205 251.728 295.222C251.899 295.228 252.055 295.275 252.196 295.364C252.354 295.429 252.485 295.53 252.59 295.67C252.62 295.7 252.65 295.73 252.679 295.76ZM155.699 291.375C156.458 291.229 157.064 291.912 156.946 292.575C156.83 293.223 156.726 293.903 156.636 294.62C156.629 294.916 156.554 295.323 156.659 295.485C156.656 295.636 156.655 295.787 156.656 295.938C156.657 295.996 156.655 296.058 156.657 296.118C156.658 296.131 156.659 296.142 156.66 296.165C156.589 297.351 156.897 298.697 157.213 299.924C157.389 300.61 156.779 301.272 156.161 301.418C155.448 301.586 154.739 301.243 154.716 300.4C154.052 297.82 153.955 295.056 154.43 292.399C154.557 291.69 155.086 291.193 155.699 291.375ZM127.109 285.835C126.526 285.348 126.216 284.505 125.858 283.845C125.036 282.329 124.214 280.812 123.392 279.296C122.62 277.872 124.791 276.678 125.707 278.199C126.478 279.62 127.249 281.042 127.911 282.618C128.216 282.825 128.5 283.211 128.636 283.601C128.699 283.685 128.742 283.748 128.769 283.794C128.915 283.797 129.061 283.8 129.207 283.799C129.885 283.807 130.561 283.829 131.234 283.882C134.171 284.114 137.005 284.866 139.529 286.359C140.917 287.179 139.419 289.284 138.043 288.471C135.345 286.869 132.304 286.4 129.204 286.409C128.459 286.34 127.736 286.359 127.109 285.835ZM33.0465 317.16C32.0599 313.68 33.5035 310.355 35.2147 307.35C40.5031 296.992 46.2357 286.856 51.8686 276.67C51.8362 276.65 51.8037 276.636 51.7714 276.613C49.5148 274.954 47.1885 273.401 44.7692 271.988C42.9031 271.091 41.087 270.04 39.6945 268.49C37.0531 265.549 38.3381 261.188 39.9251 257.905C41.4663 254.52 43.4105 251.516 45.2593 248.099C47.2051 244.454 48.7087 240.621 50.6922 236.994C52.2083 234.223 53.9037 230.133 57.3224 229.349C60.9101 228.526 64.8493 231.719 67.7233 233.351C68.9502 234.047 71.0115 234.935 72.3345 236.19C73.2101 233.883 74.3191 231.723 75.349 229.632C76.1088 228.156 76.8266 226.788 77.5687 225.434C77.83 224.956 78.1581 224.255 78.5952 223.75C65.8584 214.758 53.225 205.607 40.8847 196.082C32.5711 189.764 24.2845 183.371 16.3953 176.521C9.73282 170.737 3.99311 164.937 1.27904 156.107C-2.35315 144.289 3.83018 133.691 10.5871 124.103C13.9859 119.281 17.2267 114.347 20.8381 109.674C32.6149 93.1369 44.3103 76.3229 56.4905 59.6585C63.7206 49.5155 71.1906 39.4933 78.1861 29.1828C78.2163 29.1259 78.1099 28.9746 78.1952 28.9495C78.4524 28.7776 78.6185 28.5402 78.7855 28.3045C78.7797 28.2152 78.7973 28.1421 78.7059 28.0318C78.7118 27.9754 78.9245 28.1079 78.9342 28.0941C82.6245 22.88 86.1942 17.4958 90.2981 12.606C94.0361 8.15256 98.4587 4.20376 104.012 2.38296C119.277 -2.62232 134.323 6.81219 146.661 14.222C158.79 21.6478 170.545 29.7164 182.261 37.7862C182.611 38.0161 182.958 38.2502 183.304 38.4852C194.463 46.0562 205.356 53.8447 216.472 61.6549C235.775 75.2169 255.059 88.8055 274.341 102.398C293.943 116.216 313.539 130.042 333.136 143.869C344.941 152.374 356.844 160.61 369.01 169.175C380.249 177.087 391.778 185.055 400.163 196.178C405.652 203.46 410.248 212.556 408.229 222.287C407.329 227.113 404.904 231.648 402.174 235.885C399.036 240.757 395.593 245.446 392.275 250.196C392.095 250.439 391.921 250.687 391.745 250.933C385.152 260.171 378.7 269.514 372.193 278.813C362.155 293.159 351.983 307.411 342.082 321.854C336.013 330.526 330.043 339.281 323.838 347.856C320.746 352.128 317.45 356.436 313.425 359.864C308.328 364.207 302.232 366.3 295.692 366.179C280.748 365.902 266.903 357.258 255.217 348.947C246.645 342.852 238.014 336.86 229.517 330.654C221.851 325.315 214.046 320.087 206.674 314.334C206.466 314.745 206.324 315.059 206.163 315.411C204.451 319.147 202.885 323.006 200.975 326.648C199.224 329.988 197.104 333.389 194.751 336.335C192.83 338.739 190.663 342.572 187.611 343.597C184.586 344.612 181.258 342.854 179.002 341.5C175.831 339.881 172.717 338.159 169.651 336.353C169.54 336.541 169.43 336.728 169.32 336.915C164.194 345.601 159.148 354.339 153.911 362.959C150.04 369.331 145.64 376.259 138.256 378.731C131.135 381.116 123.917 377.878 117.809 374.922C116.374 374.221 117.257 371.799 118.699 372.503C126.002 376.309 134.554 379.586 142.161 373.786C147.13 370.068 150.077 364.261 153.203 359.267C155.729 355.067 158.111 351.021 160.496 346.977C162.977 342.769 165.349 338.666 167.914 334.333C167.978 334.139 168.087 333.955 168.23 333.797C170.311 330.267 172.408 326.746 174.55 323.254C175.421 321.835 177.459 323.284 176.594 324.693C174.557 327.989 172.816 330.976 170.957 334.135C174.354 336.144 177.623 337.928 181.344 339.814C182.691 340.483 184.304 341.413 185.873 341.344C187.995 341.182 189.363 339.032 190.637 337.456C193.144 334.355 195.279 331.199 197.384 327.817C199.533 324.363 201.059 320.56 202.75 316.87C203.312 315.643 204.255 314.068 204.874 312.354C204.983 312.049 205.149 311.666 205.414 311.395C206.148 309.425 206.399 307.457 205.053 306.073C202.613 303 198.46 300.895 195.114 298.979C193.754 298.2 191.308 296.126 189.871 297.783C189.328 298.409 188.926 299.406 188.543 300.279C188.531 300.312 188.452 300.435 188.499 300.379C188.299 300.753 188.288 300.849 188.182 301.056C187.662 302.072 187.141 303.087 186.528 304.232C184.667 307.91 182.714 311.717 180.682 315.637C180.01 316.988 177.639 316.172 178.394 314.699C180.738 310.13 183.082 305.561 185.426 300.992C185.616 300.619 185.804 300.216 185.995 299.8C184.478 298.662 182.961 297.523 181.426 296.412C180.998 297.797 180.47 299.18 179.79 300.506C178.33 303.352 176.455 305.944 174.627 308.561C172.726 311.282 171.188 314.261 168.467 316.245C158.667 323.449 145.411 323.29 135.051 318.77C134.196 320.288 133.262 321.798 132.169 323.275C125.412 332.404 115.29 339.522 103.721 337.995C102.429 337.825 101.167 337.56 99.9385 337.211C99.9314 337.244 99.7429 337.147 99.8168 337.239C99.8897 337.411 99.8532 337.508 99.8174 337.605C103.544 340.234 106.32 343.948 107.407 348.501C107.688 349.682 106.263 350.257 105.415 349.794C104.201 349.133 102.816 348.788 101.23 348.703C100.745 348.485 100.038 348.415 99.33 348.355C98.6547 348.298 97.7311 348.213 97.257 348.1C96.4454 347.931 96.0061 347.112 95.5096 346.239C94.575 347.606 93.2452 348.65 91.6832 349.239C89.104 350.212 86.5048 349.833 84.2413 348.4C82.9897 347.607 81.9021 346.547 80.9026 345.458C79.9115 344.378 78.9721 343.166 78.4433 341.771C77.5561 339.432 77.758 336.817 78.9478 334.59C78.7189 334.549 78.489 334.514 78.1994 334.428C77.2226 334.274 75.6346 334.38 75.0037 333.388C74.335 332.62 74.1628 331.288 73.8655 330.323C73.5728 329.913 73.5107 329.176 73.3353 328.602C73.1647 328.042 72.7939 327.378 73.2177 326.929C73.6663 325.765 75.0322 325.778 76.0551 325.711C78.0456 325.541 80.1002 325.75 82.0763 326.221C83.41 326.539 84.6905 327.025 85.9106 327.612C83.8997 324.777 82.368 321.574 81.5156 318.066C79.4242 309.457 80.4492 299.997 85.1278 292.381C82.3147 290.373 79.8548 287.836 77.486 285.339C75.0339 282.755 72.3565 280.16 70.2207 277.296C68.3173 274.743 67.2296 271.129 66.8757 267.874C66.6447 264.357 67.8753 261.094 69.8148 258.124C70.6719 256.697 72.7089 258.147 71.859 259.563C70.0032 262.403 69.0181 265.408 69.633 268.771C70.1558 271.878 71.0647 274.782 73.233 276.894C77.3105 281.518 81.4717 286.643 86.5742 290.247C87.3431 289.213 88.1066 288.33 89.1057 287.28C93.1288 283.178 98.5147 279.321 104.025 277.806C109.671 276.254 115.381 276.072 120.67 278.251C122.318 278.622 121.424 281.039 119.912 280.484C114.283 278.399 107.904 278.807 102.246 281.033C99.3829 282.159 96.8494 284.197 94.4111 286.026C91.9593 287.875 89.7715 289.958 87.8808 292.657C82.3404 300.57 81.5216 311.97 84.9107 320.985C88.6831 330.183 98.5041 336.243 108.523 335.616C118.715 334.98 127.278 326.988 132.4 318.439C137.345 310.186 137.943 300.897 133.443 292.601C132.671 291.176 134.99 290.086 135.758 291.503C140.142 299.586 139.683 308.329 136.201 316.461C141.315 318.569 147.054 319.681 152.634 319.287C157.708 318.928 163.803 316.986 167.811 313.611C169.299 312.357 170.247 310.52 171.332 308.928C172.265 307.56 173.23 306.213 174.172 304.851C175.657 302.362 177.408 300.049 178.427 297.461C181.038 291.087 181.074 284.108 185.164 278.434C186.136 277.084 188.18 278.524 187.208 279.873C184.279 283.937 183.456 288.825 182.153 293.698C182.732 293.684 183.095 294.018 183.215 294.486C184.527 295.47 185.74 296.595 187.079 297.389C188.157 295.653 189.489 294.222 191.752 294.594C193.249 294.84 194.596 295.734 195.888 296.462C197.672 297.468 199.434 298.514 201.032 299.563C203.672 301.31 207.437 303.41 208.4 306.541C208.835 308.501 208.498 310.166 207.78 311.923C208.928 312.816 210.087 313.693 211.088 314.437C219.733 320.81 228.441 326.75 237.08 332.775C246.174 339.114 255.193 346.24 264.712 352.232C271.319 356.391 278.172 359.835 285.92 362.06C292.376 363.851 299.663 364.601 306.063 361.682C313.381 358.477 318.552 351.021 323.067 344.623C330.304 334.366 337.493 324.054 344.599 313.819C354.503 299.742 364.365 285.636 374.143 271.666C379.55 263.942 384.719 256.21 390.231 248.757C393.41 244.206 396.686 239.706 399.412 235.111C402.753 230.448 405.523 225.388 406.137 219.862C406.656 215.015 405.146 210.378 403.268 206.001C398.59 196.276 390.435 188.508 382.121 181.925C376.207 177.397 370.1 173.105 364.009 168.811C350.249 159.112 336.744 149.576 323.112 139.958C303.267 125.955 283.42 111.956 263.474 98.0965C245.162 85.0538 226.767 72.0339 208.41 59.1493C199.569 52.9438 190.829 46.5221 181.804 40.579C181.591 40.4588 181.615 40.4943 181.521 40.4275C181.127 40.148 181 40.0599 180.741 39.8751C180.718 39.8607 180.696 39.8455 180.674 39.831C180.662 39.8236 180.655 39.8143 180.644 39.8065C175.345 36.0403 169.994 32.3476 164.592 28.7321C158.016 24.4298 151.462 20.0951 144.719 16.061C138.536 12.6141 132.681 8.93564 126.544 6.47482C119.274 3.60509 110.382 2.19913 102.893 5.49952C97.7907 7.74795 93.8491 12.0086 90.5051 16.336C87.0657 20.7907 83.8838 25.4574 80.4861 30.2315C80.5004 30.2125 80.3829 30.3833 80.2638 30.553C71.8216 42.5811 63.2326 54.5079 54.7024 66.4733C43.2612 82.5213 31.8471 98.5154 20.4059 114.527C17.54 118.62 14.7442 122.484 11.9614 126.495C8.39809 131.365 4.97724 136.811 3.30433 142.496C1.17073 150.67 4.11308 158.876 8.73678 165.32C12.7471 170.908 18.8069 175.3 24.0549 179.601C32.5477 186.56 41.2908 193.212 50.0864 199.779C64.2674 210.367 78.5525 220.908 93.2434 230.785C93.3148 230.705 93.3877 230.626 93.4591 230.546C101.062 222.007 108.162 213.315 115.14 203.979C116.417 201.669 118.336 199.825 119.699 197.572C120.086 196.933 120.47 196.525 120.784 196.411C120.87 195.915 121.042 195.54 121.33 195.24C122.201 194.334 123.045 193.24 124.029 192.465C124.448 192.134 124.864 192.022 125.274 192.048C125.287 192.037 125.295 192.026 125.309 192.015C127.221 190.546 129.156 189.109 131.109 187.697C129.731 186.872 128.234 186.209 126.979 185.216C125.547 184.405 123.999 183.832 122.695 182.816C120.301 180.539 119.436 177.456 120.521 174.25C121.254 172.084 122.48 170.12 123.477 168.069C124.502 165.958 125.185 163.635 126.264 161.6C127.838 157.743 129.369 153.852 131.46 150.23C132.867 147.795 134.884 143.812 138.106 143.413C139.96 143.253 141.991 144.066 143.74 144.539C145.764 145.088 147.77 145.695 149.758 146.352C157.823 149.017 165.573 152.503 173.168 156.252C188.832 163.985 204.226 172.297 219.563 180.644C223.456 182.762 227.34 184.894 231.218 187.039C234.166 188.67 237.601 190.055 238.54 193.766C238.98 195.652 238.758 197.637 238.306 199.578C240.916 200.074 243.572 200.55 245.917 201.803C248.502 203.186 251.121 205.313 252.693 207.827C255.779 212.967 253.029 218.931 253.137 224.286C253.123 230.372 255.356 236.642 260.572 240.221C265.051 243.292 271.34 243.785 276.119 240.782C273 237.361 270.423 233.315 268.056 229.518C267.939 229.403 267.841 229.252 267.642 229.242C266.609 225.763 264.661 222.089 266.597 218.614C268.213 215.713 271.421 214.141 274.594 214.144C277.74 214.147 280.675 215.6 283.285 217.172C286.421 219.062 289.27 221.425 291.75 224.124C294.22 226.812 296.351 229.931 297.971 233.21C299.36 236.096 299.71 239.169 298.196 242.177C295.022 248.427 287.724 249.297 282.419 246.095C280.677 245.032 279.169 244.096 277.795 242.744C273.506 245.543 268.088 246.068 263.217 244.399C257.746 242.478 253.946 238.154 252.02 232.91C251.027 230.267 250.636 227.317 250.62 224.43C250.602 221.171 251.472 218.005 251.709 214.791C251.954 210.876 250.245 208.16 247.189 206.048C244.346 203.54 241.197 202.79 237.625 202.053C237.475 202.544 237.322 203.027 237.173 203.501C235.864 207.516 234.288 211.487 232.316 215.362C230.519 218.955 228.377 222.479 225.913 225.787C224.063 228.272 222.049 232.078 218.834 232.874C217.058 233.285 215.436 232.692 213.835 232.105C211.928 231.406 210.012 230.691 208.182 229.838C204.621 228.293 201.156 226.546 197.78 224.64C197.519 229.781 197.254 234.708 196.754 239.733C196.749 239.792 196.733 239.843 196.722 239.898C197.27 240.236 197.747 240.665 197.825 241.308C197.894 241.881 197.72 242.516 197.641 243.085C197.464 243.708 197.391 244.535 197.359 245.129C197.34 245.264 197.3 245.383 197.253 245.494C197.334 245.529 197.415 245.565 197.497 245.599C198.117 245.863 198.388 246.687 198.235 247.222C197.08 250.025 196.016 252.927 195.026 255.816C194.56 257.175 194.215 258.528 194.042 259.948C193.893 261.171 193.792 262.406 193.344 263.549C192.962 264.917 191.939 266.011 191.769 267.417C191.627 268.597 191.865 269.782 191.683 270.961C191.4 272.794 190.198 274.668 188.242 274.88C186.628 275.054 186.224 272.545 187.848 272.369C189.882 272.149 189.113 268.549 189.254 267.241C189.37 266.163 189.779 265.263 190.294 264.315C190.785 263.359 191.242 262.168 191.399 260.894C191.979 256.216 193.758 251.907 195.442 247.516C191.244 245.715 187.08 243.836 182.957 241.873C182.888 241.841 182.829 241.801 182.771 241.761C182.538 241.922 182.471 241.804 182.294 241.776C181.835 241.701 179.208 240.976 178.907 241.317C178.796 241.391 178.553 243.334 178.419 243.647C177.783 245.363 176.659 246.955 175.578 248.518C175.121 249.178 174.702 249.851 174.309 250.534C176.94 249.838 179.681 249.606 182.362 249.84C183.064 249.901 183.532 250.502 183.357 251.397C183.455 251.885 182.767 252.447 182.109 252.39C181.301 252.271 180.648 252.296 179.915 252.304C179.726 252.306 179.538 252.31 179.197 252.258C179.256 252.32 179.162 252.325 179.068 252.329C179.052 252.33 179.04 252.33 179.028 252.331C178.679 252.353 178.33 252.384 177.982 252.423C176.537 252.586 175.107 252.892 173.711 253.329C173.6 253.389 173.388 253.264 173.451 253.37C173.434 253.38 173.421 253.394 173.403 253.403C173.27 253.505 173.12 253.569 172.953 253.594C172.883 253.611 172.814 253.615 172.746 253.616C171.705 255.955 170.906 258.394 170.185 260.899C168.892 265.39 167.587 269.783 165.601 274.041C163.749 278.364 161.526 282.502 159.407 286.672C158.576 288.261 156.291 287.322 157.041 285.846C157.902 284.152 158.694 282.598 159.594 280.717C143.146 269.592 126.703 258.283 110.566 246.553C108.875 249.054 107.021 251.545 105.159 253.815C105.298 253.866 105.726 254.299 105.761 254.68C105.939 256.639 106.12 258.644 105.838 260.616C105.525 262.807 104.556 264.654 103.37 266.508C102.992 267.098 102.139 267.22 101.605 266.845C101.034 266.443 100.95 265.657 101.326 265.069C102.292 263.557 103.113 262.068 103.345 260.275C103.53 258.84 103.456 257.409 103.337 255.983C103.066 256.295 102.796 256.607 102.522 256.916C102.439 257.107 102.322 257.288 102.173 257.435C100.762 258.832 99.2709 260.342 97.8248 261.788C97.4251 262.135 96.58 261.951 96.0312 261.388C95.6859 260.945 95.884 260.151 96.362 259.678C97.5098 258.542 98.5213 257.6 99.8053 256.27C99.8422 256.215 99.8779 256.16 99.9269 256.106C105.314 250.178 110.167 243.251 114.019 235.99C114.156 235.732 114.333 235.569 114.525 235.476C114.622 235.136 114.964 234.942 115.38 234.852C116.273 234.701 117.172 234.345 117.962 233.826C118.81 233.357 119.144 233.078 118.867 232.187C118.618 231.386 118.061 230.778 117.996 229.9C115.475 230.065 112.955 230.076 110.444 229.888C109.74 229.835 109.274 229.219 109.312 228.525C109.35 227.837 110.038 227.289 110.577 227.507C111.951 227.432 113.209 227.482 114.47 227.485C115.1 227.486 115.652 227.587 116.362 227.454C116.677 227.443 116.992 227.429 117.308 227.412C117.378 227.408 117.347 227.333 117.433 227.522C117.504 227.444 117.551 227.398 117.576 227.397C117.733 227.386 117.891 227.375 118.048 227.364C118.47 227.333 118.847 227.442 119.116 227.688C119.149 227.667 119.178 227.644 119.211 227.624C120.467 226.892 121.512 227.548 122.168 225.87C123.504 222.455 125.866 219.716 128.045 216.785C130.109 214.012 132.241 211.141 134.338 208.319C132.457 206.419 130.613 204.737 128.574 203.142C127.437 202.327 126.336 201.457 125.086 200.801C124.426 200.17 123.009 198.943 121.921 198.588C121.61 199.033 121.368 199.62 121.092 200.016C120.687 200.602 120.241 201.158 119.798 201.716C118.915 202.83 118.051 203.933 117.338 205.162C117.299 205.247 117.248 205.333 117.184 205.418C117.118 205.538 117.042 205.631 116.869 205.845C110.175 214.765 103.025 223.539 95.5032 231.985C91.8107 236.131 88.0353 240.202 84.1776 244.192C80.7086 247.78 77.3506 251.152 74.6682 255.66C73.8172 257.099 71.8565 255.54 72.624 254.221C75.2091 249.878 78.3796 246.585 81.7289 243.144C85.0495 239.731 88.1897 236.419 91.5001 232.721C90.8258 232.342 90.1156 232.014 89.4147 231.297C86.6579 229.402 83.7364 227.363 80.821 225.315C80.6732 225.513 80.3536 225.761 80.2497 225.755C80.2309 225.78 80.1668 225.87 80.186 225.838C80.1134 225.967 80.0415 226.096 79.9698 226.225C79.7852 226.551 79.636 226.829 79.4706 227.132C79.1962 227.637 78.9243 228.143 78.6582 228.652C78.1098 229.7 77.4447 230.662 77.0631 231.82C75.988 234.037 74.9853 236.286 74.0477 238.562C73.9355 238.834 73.6513 238.947 73.5726 239.162C73.4669 240.764 72.613 242.516 72.0193 243.889C70.2619 247.952 68.154 251.981 65.8127 255.749C64.1292 259.056 62.351 262.319 60.5901 265.585C55.1199 275.728 49.5715 285.83 44.0864 295.966C42.0093 299.806 39.9211 303.641 37.9184 307.52C36.6603 309.956 34.9496 312.679 35.2831 315.472C35.7706 319.556 39.7606 322.643 43.1603 324.52C43.1113 324.752 43.2813 324.682 43.3836 324.724C66.8127 340.333 90.5058 355.545 114.468 370.32C115.868 371.127 114.372 373.233 113.007 372.395C89.1493 357.737 65.5525 342.655 42.3246 327.025C42.3224 327.024 42.3201 327.023 42.318 327.022C38.5559 324.769 34.2249 321.762 33.0465 317.16ZM98.3368 345.709C98.6195 345.692 98.9258 345.753 99.2077 345.775C100.886 345.907 102.538 346.113 104.121 346.563C102.934 343.711 100.917 341.218 98.2567 339.628C97.7247 340.077 96.9375 340.287 96.3933 340.534C96.6112 341.611 96.9084 342.66 97.1714 343.882C97.5515 344.281 97.8141 344.875 98.1157 345.444C98.1564 345.532 98.205 345.616 98.2554 345.698C98.1945 345.825 98.2626 345.758 98.3368 345.709ZM81.384 335.358C78.6898 339.501 82.1505 343.875 85.4656 346.115C87.0798 347.206 88.9315 347.743 90.8973 346.84C92.4356 346.198 93.7585 345.003 94.4622 343.453C94.1895 342.506 93.9762 341.527 93.7332 340.599C93.7849 340.445 93.7851 340.386 93.7822 340.325C92.9716 340.046 92.0192 339.48 91.4858 339.168C90.4926 338.554 89.5382 337.883 88.6185 337.165C88.4067 337.088 88.2267 336.955 88.0599 336.785C87.5563 336.273 86.998 335.838 86.549 335.248C86.3436 335.383 86.0859 335.459 85.7786 335.437C84.3624 335.337 82.952 335.188 81.5483 334.998C81.375 335.022 81.4623 335.238 81.384 335.358ZM80.8558 328.564C79.8025 328.313 78.8382 328.246 77.818 328.215C77.3259 328.2 76.8297 328.2 76.2321 328.378C76.2008 328.238 76.0324 328.238 75.8575 328.243C75.9306 328.451 75.9661 328.715 76.0675 328.856C76.244 329.43 76.4206 330.004 76.4836 330.497C76.6831 330.855 76.8152 331.15 76.8624 331.438C76.8976 331.51 76.7683 331.452 76.9287 331.591C77.0257 331.616 77.1227 331.64 77.2208 331.66C77.6298 331.683 78.3289 331.888 78.8853 331.99C81.1184 332.4 83.3748 332.682 85.6444 332.855C85.5435 332.938 85.6775 332.683 85.7039 332.598C85.8073 332.262 85.9847 331.943 86.1381 331.627C86.3004 331.293 86.2964 330.993 86.6546 330.638C84.767 329.836 82.8728 328.989 80.8558 328.564ZM89.2214 331.281C89.0941 331.436 88.9414 331.657 88.8042 331.887C88.7669 331.95 88.7307 332.013 88.6949 332.077C88.6867 332.092 88.6754 332.109 88.664 332.125C88.4047 332.09 88.5548 332.349 88.5043 332.453C88.3855 332.697 88.2598 332.944 88.1566 333.196C88.3153 333.366 88.4717 333.538 88.6349 333.705C88.8112 333.943 89.3618 334.444 89.7252 334.814C89.6774 334.753 89.8981 334.892 89.9733 334.951C90.808 335.61 91.6718 336.229 92.5676 336.802C93.3799 337.32 93.9583 337.709 94.8248 337.973C94.9633 338.23 95.0457 338.047 95.1198 337.937C95.4226 338.083 95.5341 338.088 95.4652 338.042C95.6342 338.066 95.6729 338.089 95.6811 338.09C95.6988 338.086 95.7125 338.083 95.7387 338.078C95.8167 338.064 95.8948 338.053 95.9727 338.037C95.9889 338.033 96.1443 337.983 96.1812 337.975C96.3247 337.916 96.4644 337.851 96.6026 337.778C96.5538 337.865 96.5993 337.81 96.6177 337.789C96.5097 337.943 96.6056 337.807 96.6378 337.762C96.6516 337.694 96.6358 337.604 96.5192 337.433C96.7127 337.372 97.1034 336.942 97.4408 336.787C97.385 336.821 97.5223 336.588 97.5523 336.485C97.5589 336.461 97.5722 336.441 97.4901 336.547C94.4843 335.215 91.6677 333.445 89.2214 331.281ZM289.865 245.361C292.612 244.988 295.099 243.234 296.103 240.709C297.411 237.608 295.902 234.77 294.62 232.367C293.202 229.903 291.491 227.617 289.558 225.549C286.024 221.766 280.803 217.383 275.435 216.758C272.931 216.466 270.161 217.4 268.821 219.755C267.368 222.309 269.226 225.532 270.081 227.94C273.448 233.334 276.907 238.679 282.126 242.741C284.333 244.465 286.958 245.755 289.865 245.361ZM126.468 195.564C126.078 195.485 125.541 195.068 125.264 194.775C125.162 194.869 125.045 194.962 124.991 195.018C124.49 195.54 123.988 196.062 123.486 196.584C123.718 196.708 123.958 196.846 124.21 196.998C128.293 199.459 132.033 202.429 135.426 205.773C135.964 205.053 136.502 204.334 136.967 203.718C137.057 203.593 137.134 203.481 137.218 203.362C137.205 203.351 137.195 203.344 137.181 203.331C136.796 202.978 136.403 202.633 136.006 202.294C134.548 201.051 133.016 199.896 131.449 198.795C129.829 197.658 128.171 196.579 126.468 195.564ZM127.797 193.272C129.632 194.434 131.349 195.771 133.084 197.077C134.81 198.01 136.367 199.194 137.839 200.475C137.782 200.567 137.862 200.457 137.876 200.449C139.285 199.476 140.594 198.209 141.759 196.891C143 195.489 144.288 194.139 145.67 192.876C148.527 190.266 151.655 187.99 154.773 185.719C154.785 185.71 154.798 185.706 154.738 185.799C155.242 185.363 155.704 185.276 156.139 185.522C159.257 187.343 162.667 187.932 166.222 187.931C166.584 187.931 166.96 187.943 167.321 187.901C167.175 187.678 167.066 187.42 166.872 187.218C166.639 186.976 166.366 186.778 166.087 186.593C164.599 185.601 162.816 184.987 161.188 184.255C160.923 184.136 160.706 183.946 160.561 183.716C160.236 183.649 159.947 183.433 159.795 183.007C159.482 182.13 160.13 181.052 160.531 180.218C161.164 178.869 161.923 177.572 162.803 176.367C163.399 175.237 164.512 174.289 165.744 173.716C166.799 173.238 167.927 173.166 169.053 173.156C170.456 173.143 171.85 173.08 173.249 172.913C173.604 172.722 176.181 172.576 175.71 171.708C175.271 170.866 173.343 170.929 172.519 170.842C171.502 170.758 170.509 170.67 169.36 170.894C167.35 170.759 165.147 171.592 163.52 172.734C162.201 173.729 160.618 171.785 161.824 170.956C164.338 168.98 167.072 168.183 169.972 168.128C171.127 168.179 172.326 168.232 173.48 168.374C173.609 168.39 173.738 168.406 173.868 168.422C173.811 168.376 173.755 168.329 173.702 168.269C171.835 166.165 168.868 166.114 166.256 166.68C164.895 166.975 163.548 167.407 162.237 167.958C162.021 168.03 161.791 168.13 161.569 168.248C161.491 168.289 161.414 168.333 161.338 168.378C161.317 168.391 161.294 168.406 161.273 168.422C160.823 168.742 160.382 169.074 159.932 169.394C159.337 169.779 158.611 169.808 158.156 169.246C157.755 168.751 157.73 167.933 158.357 167.445C159.343 166.743 160.265 166.01 161.394 165.565C162.737 165.146 164.349 164.5 165.87 164.175C165.083 163.456 163.994 163.164 162.822 163.181C161.655 163.439 160.499 164.126 159.266 164.574C158.323 164.987 157.308 165.346 156.414 165.923C156.123 166.111 155.376 166.671 155.175 166.968C154.671 167.534 154.34 168.046 154.009 168.615C153.468 169.089 152.758 169.314 152.244 168.952C151.656 168.538 151.615 167.78 151.965 167.177C152.804 165.732 153.794 164.438 155.339 163.653C156.108 163.175 156.931 162.833 157.762 162.502C157.144 162.287 156.506 162.114 155.839 162.189C154.97 162.286 154.224 162.848 153.555 163.39C152.867 163.946 152.009 164.67 151.574 165.245C150.979 166.042 150.599 167 150.264 167.925C149.924 168.862 149.525 169.926 149.371 170.807C149.21 171.526 149.168 172.311 149.054 172.99C148.895 173.781 148.826 174.463 148.794 175.272C148.769 175.907 148.509 176.73 148.762 177.324C148.938 177.734 148.886 178.112 148.711 178.417C148.651 178.781 148.453 179.133 148.065 179.371C141.085 183.654 134.327 188.301 127.797 193.272ZM180.298 209.083C178.927 207.873 177.643 206.547 176.593 205.038C176.283 204.592 175.943 204.116 175.683 203.609C167.703 199.566 159.802 195.751 152.013 191.537C151.834 191.44 151.702 191.321 151.61 191.19C150.308 192.198 149.03 193.236 147.798 194.331C147.705 194.261 147.84 194.347 147.862 194.359C160.009 201.088 172.686 207.863 184.69 215.303C184.774 214.31 184.67 213.19 184.922 212.322C183.261 211.427 181.713 210.331 180.298 209.083ZM176.65 200.002C178.435 199.238 180.418 200.056 181.937 200.941C183.169 201.659 184.204 202.38 185.406 203.449C186.041 202.574 186.415 201.755 186.9 201.069C187.586 199.759 188.521 198.072 188.358 196.56C188.222 195.293 187.262 194.179 186.647 193.127C185.876 191.808 184.989 190.353 184.611 188.938C184.198 187.616 184.056 186.039 185.166 184.963C186.102 183.791 187.846 183.878 189.081 184.579C189.492 184.812 189.861 185.119 190.204 185.463C190.19 185.366 190.185 185.266 190.196 185.159C190.259 184.515 190.909 183.863 191.58 183.972C194.423 184.438 196.505 186.241 197.878 188.608C198.134 188.371 198.469 188.229 198.721 188.41C200.761 188.573 202.36 189.613 203.186 191.214C203.97 192.412 204.164 193.632 204.348 194.856C204.728 194.366 205.387 194.119 206.001 194.592C206.332 194.847 206.634 195.113 206.744 195.273C207.484 194.08 207.992 192.741 208.449 191.39C208.724 190.576 209.07 189.721 209.194 188.871C209.482 186.904 208.155 186.155 206.753 185.271C203.074 182.952 199.056 181.039 195.194 179.04C189.62 176.155 183.889 173.577 178.179 170.967C178.454 171.775 178.41 172.69 177.911 173.465C177.1 174.726 175.468 175.172 174.095 175.366C172.575 175.581 171.033 175.677 169.505 175.7C168.237 175.72 166.997 175.657 165.954 176.552C164.872 177.481 164.044 178.878 163.363 180.119C163.031 180.722 162.725 181.358 162.461 182.004C164.211 182.769 166.083 183.462 167.654 184.535C168.798 185.313 170.475 187.214 169.585 189.073C168.737 190.726 166.372 190.498 164.848 190.458C161.649 190.325 158.343 189.808 155.633 188.19C155.008 188.646 154.365 189.13 153.761 189.565C160.986 193.463 168.371 197.061 175.593 200.912C175.938 200.434 176.256 200.17 176.65 200.002ZM177.787 202.083C177.823 202.018 177.745 201.977 177.787 202.083V202.083ZM161.35 168.37C161.426 168.325 161.348 168.301 161.35 168.37V168.37ZM159.897 161.683C159.755 161.701 159.576 161.352 159.681 161.439C159.67 161.54 159.652 161.641 159.549 161.689C159.732 161.691 159.845 161.644 159.897 161.683ZM156.194 159.673C153.334 158.369 150.347 157.312 147.378 156.326C145.259 155.622 143.066 155.074 140.997 154.241C140.219 153.928 139.84 153.724 139.093 154.27C138.034 155.045 137.367 156.418 136.864 157.587C135.878 159.881 135.103 162.253 134.088 164.54C133.04 166.901 131.806 169.332 130.893 171.609C130.381 172.754 129.983 173.783 130.164 174.896C130.298 176.418 131.606 177.113 132.739 177.734C135.124 179.041 137.757 179.994 140.153 181.025C140.34 181.132 140.423 181.18 140.318 181.108C142.339 180.063 144.295 178.771 146.218 177.581C146.08 176.912 146.21 176.132 146.262 175.379C146.329 174.397 146.391 173.53 146.486 172.49C146.798 171.533 146.844 170.517 147.133 169.494C147.429 168.386 147.82 167.186 148.296 166.085C149.295 163.775 150.634 162.093 153.039 160.667C153.93 159.889 155.125 159.69 156.194 159.673ZM198.183 221.912C202.059 224.151 206.021 226.212 210.191 227.898C212.131 228.714 214.107 229.571 216.126 230.185C218.463 230.894 219.926 229.695 221.392 227.886C226.629 221.426 230.784 213.874 233.54 206.213C234.82 202.875 236.281 199.267 236.23 195.862C236.061 192.066 232.265 190.547 229.253 188.87C222.581 185.198 215.772 181.486 208.913 177.854C195.66 170.679 182.37 163.467 168.759 156.961C162.175 153.813 155.451 150.92 148.496 148.648C146.754 148.079 144.998 147.548 143.065 146.946C141.18 146.498 138.56 145.215 136.734 146.972C134.476 149.143 132.88 152.621 131.59 155.412C130.103 158.594 128.851 161.863 127.608 164.904C126.259 168.111 124.427 171.123 123.158 174.351C121.772 177.874 123.226 180.581 126.434 182.03C128.829 183.252 131.072 184.715 133.396 186.061C133.396 186.061 133.397 186.061 133.397 186.061C134.91 184.993 136.439 183.948 137.974 182.914C135.78 181.981 133.551 181.078 131.46 179.956C129.507 178.908 127.804 177.304 127.625 174.934C127.342 173.039 128.475 170.859 129.313 169.004C130.366 166.672 131.467 164.36 132.465 162.004C133.867 158.693 134.985 152.397 139.192 151.434C140.726 151.057 142.121 151.985 143.374 152.312C145.665 153.039 147.949 153.766 150.185 154.56C154.263 156.131 158.763 157.777 162.625 160.19C162.852 160.332 162.994 160.51 163.077 160.701C163.247 160.686 163.308 160.599 163.595 160.677C165.361 160.695 167.008 161.515 168.153 162.834C168.212 163.236 168.328 163.395 168.358 163.927C171.059 163.861 173.796 164.493 175.679 166.615C175.822 166.777 175.84 166.904 175.831 167.278C175.858 167.263 175.898 167.223 175.924 167.211C183.405 170.562 190.902 173.855 198.124 177.692C200.76 179.093 203.407 180.474 206.032 181.895C207.762 182.806 210.339 184 211.472 186.137C212.316 187.857 211.566 189.912 211.004 191.648C210.222 193.856 209.57 195.683 208.635 197.605C208.586 197.703 208.53 197.791 208.469 197.869C208.699 198.584 208.691 199.522 208.746 200.249C208.41 202.431 208.049 204.7 206.695 206.635C205.972 207.668 205.034 208.763 204.287 209.552C203.578 210.331 202.568 210.773 201.989 211.613C201.213 212.361 200.487 212.861 199.73 213.394C199.153 213.822 198.592 214.275 197.949 214.556C197.959 216.965 197.929 219.374 197.868 221.783C197.926 221.879 198.078 221.851 198.183 221.912ZM188.839 236.096C190.715 236.829 192.545 237.676 194.327 238.61C195.005 230.472 195.492 221.988 195.433 213.676C195.262 213.021 195.57 212.98 196.055 212.642C196.222 212.465 196.456 212.334 196.763 212.285C197.279 212.048 198.048 211.499 198.626 211.113C199.307 210.66 199.821 210.217 200.413 209.663C200.913 209.118 201.597 208.75 202.132 208.221C202.8 207.558 203.414 206.809 203.998 206.07C204.592 205.317 205.2 204.51 205.572 203.622C205.911 202.813 206.014 201.92 206.129 201.061C206.208 200.179 206.36 199.271 206.044 198.459C205.951 198.336 205.881 198.198 205.84 198.049C205.547 197.566 205.121 197.182 204.679 196.833C204.849 197.795 204.994 198.753 204.988 199.747C204.871 201.563 204.419 202.966 203.635 204.432C203.305 205.052 202.368 205.12 201.87 204.769C201.268 204.345 201.263 203.608 201.592 202.994C202.177 201.898 202.463 200.789 202.472 199.571C202.344 198.716 202.252 197.656 202.083 196.749C201.852 195.51 201.829 194.176 201.329 193.015C200.797 191.913 200.018 191.196 198.934 190.911C199.474 192.389 199.877 193.946 200.149 195.501C200.348 196.639 200.22 197.758 200.149 198.909C200.046 200.559 197.532 200.372 197.634 198.733C197.697 197.702 197.814 196.934 197.601 196.021C197.35 194.869 197.116 193.399 196.669 192.131C195.637 189.503 194.171 186.988 191.328 186.522C191.242 186.508 191.158 186.487 191.078 186.46C191.296 186.732 191.507 187.005 191.715 187.267C192.349 188.397 193.172 189.219 193.776 190.283C195.046 192.522 195.625 195.058 195.387 197.674C195.238 199.322 192.723 199.138 192.872 197.498C193.098 195.021 192.376 192.727 191.045 190.706C190.358 190.075 189.813 189.198 189.167 188.265C188.866 187.854 187.827 186.247 186.853 186.558C185.87 187.322 189.051 192.259 189.529 192.957C190.153 193.96 190.751 194.997 190.754 196.375C190.99 197.51 190.648 198.791 190.016 199.9C189.354 201.923 188.213 204.035 186.886 205.437C186.678 205.834 186.111 206.197 185.729 206.051C185.43 206.127 185.099 206.091 184.775 205.879C183.258 204.883 181.781 203.763 180.182 202.901C179.536 202.552 178.586 202.248 178.017 202.27C177.988 202.271 177.948 202.279 177.847 202.37C178.095 202.591 178.252 202.916 178.454 203.215C180.521 206.268 183.506 208.717 186.757 210.397C186.918 210.48 187.036 210.61 187.119 210.763C187.272 211.121 187.525 211.317 187.388 211.903C187.356 213.632 187.217 215.512 186.869 217.275C187.028 217.442 186.977 217.56 187.014 217.548C186.821 219.448 186.575 221.342 186.222 223.225C185.888 225.01 185.451 226.772 184.928 228.515C184.248 230.109 183.829 231.988 183.894 233.784C183.902 234.017 183.854 234.223 183.771 234.407C185.489 234.885 187.128 235.411 188.839 236.096ZM182.546 239.226C182.726 239.255 182.88 239.317 183.013 239.397C183.255 239.307 183.537 239.306 183.847 239.454C187.504 241.195 191.192 242.869 194.908 244.483C194.972 244.02 195.036 243.558 195.1 243.095C195.005 243.021 195.238 242.396 195.285 242.049C194.628 241.597 193.713 241.432 193.168 240.89C192.347 240.456 191.511 240.05 190.627 239.719C188.929 238.872 187.149 238.173 185.205 237.48C184.4 237.262 183.328 237.161 182.505 236.72C182.085 236.606 181.664 236.498 181.241 236.395C181.083 237.13 180.901 238.09 180.468 238.774C181.215 238.919 181.947 239.129 182.546 239.226ZM179.009 237.06C178.892 237.046 178.8 237.046 178.725 237.054C178.815 237.046 178.909 237.048 179.009 237.06ZM178.551 237.102C178.371 237.2 178.518 237.374 178.551 237.102V237.102ZM129.249 219.353C127.824 220.858 126.661 222.612 125.58 224.355C124.687 225.736 124.543 227.477 123.438 228.666C123.025 229.112 122.53 229.424 121.955 229.595C121.63 229.692 121.303 229.665 120.984 229.749C120.523 229.87 120.645 229.417 120.518 230.009C120.434 230.406 121.04 231.089 121.251 231.242C121.435 231.675 121.606 232.135 121.643 232.613C121.85 235.304 118.345 236.737 116.124 237.281C116.104 237.33 116.089 237.379 116.063 237.428C114.693 239.733 113.435 242.128 111.987 244.393C127.959 256.008 144.413 267.329 160.859 278.457C162.038 276.141 163.174 273.807 164.179 271.425C166.108 266.79 167.168 261.913 168.698 257.161C169.338 254.987 170.33 252.55 171.486 250.383C172.558 248.371 173.988 246.616 175.162 244.672C175.944 243.378 176.173 242.21 176.525 240.785C176.702 240.071 176.825 239.339 177.593 238.998C177.605 239.028 177.719 238.927 177.783 238.895C177.491 238.212 177.733 237.24 178.552 237.088C178.555 237.062 178.556 237.034 178.556 237.001C178.558 236.712 178.709 236.295 178.77 236.011C178.878 235.51 178.934 234.964 179.204 234.516C179.703 233.683 180.571 233.651 181.38 233.829C181.402 230.259 182.961 226.886 183.637 223.414C183.976 221.675 184.135 220.045 184.412 218.169C172.039 210.421 159.13 203.567 146.375 196.471C146.179 196.361 146.045 196.226 145.953 196.077C143.901 198.194 142.079 200.623 139.652 202.274C139.911 202.837 140.047 203.681 139.507 204.488C138.792 205.559 137.953 206.566 137.182 207.597C137.173 207.609 137.163 207.616 137.154 207.627C137.328 208.027 137.271 208.564 137.018 208.904C134.241 212.255 131.839 215.87 129.249 219.353ZM43.8604 268.494C46.9989 270.413 50.1441 272.229 53.1198 274.402C56.9426 267.461 60.6543 260.455 64.2216 253.397C64.3249 253.189 64.4631 253.031 64.6182 252.91C66.4252 249.866 67.8862 246.782 69.48 243.457C69.9356 242.376 71.2177 240.221 71.0466 238.898C70.8443 237.333 66.4931 235.605 65.111 235.106C63.5992 233.977 61.925 232.858 60.1486 232.178C58.089 231.39 56.6679 232.067 55.4136 233.826C53.2757 236.825 51.5638 240.384 49.9767 243.645C48.913 246.593 47.5644 248.979 46.085 251.773C44.8389 254.262 42.9855 256.964 41.8915 259.598C41.2221 261.153 40.5248 263.036 40.6963 264.731C40.8824 266.569 42.4282 267.619 43.8604 268.494ZM206.346 210.021C207.518 207.839 208.267 205.642 209.231 203.536C209.854 202.176 210.579 200.865 211.209 199.509C212.257 197.253 212.921 194.859 213.985 192.601C214.819 190.733 215.949 188.653 218.532 189.288C220.288 189.719 221.56 190.978 223.228 191.661C224.738 192.45 226.334 193.061 227.868 193.801C230.549 195.094 232.649 196.939 231.969 200.222C231.542 201.815 231.076 202.927 230.473 204.221C229.713 205.534 229.295 207.052 228.759 208.459C227.288 212.269 225.539 215.972 223.488 219.633C222.704 221.063 221.802 223.276 220.096 223.996C218.902 224.501 217.526 224.271 216.509 223.648C212.829 221.94 209.318 219.751 205.759 217.807C205.595 217.701 205.65 217.736 205.6 217.698C202.844 215.89 205.334 212.312 206.346 210.021ZM206.858 215.479C206.999 215.567 207.041 215.599 207.086 215.628C207.139 215.649 207.152 215.638 207.246 215.695C210.355 217.644 213.691 219.3 216.717 221.02C217.502 221.282 218.292 221.783 219.034 221.684C219.799 221.492 220.302 220.203 220.628 219.555C221.606 217.969 222.49 216.326 223.236 214.765C224.788 211.665 225.998 208.6 227.071 205.416C227.9 203.629 229.049 201.863 229.486 199.902C230.15 196.92 226.506 196.006 224.414 195.066C223.132 194.49 221.737 193.813 220.447 193.082C219.842 192.654 218.2 191.283 217.154 191.594C217.021 191.813 216.543 193.021 216.352 193.428C215.975 194.228 215.424 195.094 215.283 195.857C214.556 197.635 214.026 199.46 213.161 201.187C211.857 203.618 210.786 206.134 209.769 208.721C209.164 210.17 208.44 211.525 207.711 212.912C207.469 213.372 207.254 213.852 206.942 214.24C207.001 214.615 206.824 214.973 206.858 215.26C206.778 215.708 206.781 215.46 206.858 215.479ZM275.173 224.912C275.089 224.807 275 224.708 274.715 224.562C274.471 224.079 274.572 223.544 274.885 223.055C275.038 222.817 275.268 222.634 275.554 222.57C275.794 222.492 275.915 222.31 276.163 222.505C276.969 222.862 277.54 223.203 278.046 223.666C278.625 224.195 279.074 224.761 279.451 225.472C279.385 225.632 279.506 225.515 279.52 225.553C279.396 225.506 279.66 225.728 279.726 225.818C280.101 226.326 280.084 227.011 279.476 227.375C279.232 227.939 278.482 228.087 277.994 227.701C277.106 226.999 276.279 226.212 275.536 225.353C275.385 225.234 275.136 224.997 275.173 224.912Z" fill="#55523F" stroke="black" stroke-width="0.215797"/>
</svg>
