<svg width="1202" height="561" viewBox="0 0 1202 561" fill="none" xmlns="http://www.w3.org/2000/svg">
<rect x="1.4082" y="1" width="1200" height="559.086" rx="27" fill="#FFF0C9"/>
<mask id="mask0_6819_767" style="mask-type:alpha" maskUnits="userSpaceOnUse" x="0" y="0" width="1202" height="561">
<rect x="0.814453" y="0.723877" width="1201.18" height="559.638" rx="27" fill="#F2F2F2"/>
</mask>
<g mask="url(#mask0_6819_767)">
<rect x="-1.00098" y="335.635" width="278.256" height="58.6846" rx="29.3423" transform="rotate(14.0677 -1.00098 335.635)" fill="#FFF8E4"/>
<rect x="351.848" y="429.563" width="384.001" height="58.6846" rx="29.3423" transform="rotate(51.8426 351.848 429.563)" fill="#FFE4AF"/>
<rect x="-43.4336" y="-136.11" width="384.001" height="58.6846" rx="29.3423" transform="rotate(30.9527 -43.4336 -136.11)" fill="#FFE4AF"/>
<rect x="385.703" y="-173.178" width="384.001" height="58.6846" rx="29.3423" transform="rotate(53.9359 385.703 -173.178)" fill="#FFF8E4"/>
<circle cx="1160.55" cy="121.123" r="31.3852" fill="#FFF8E4"/>
<rect x="1241.53" y="289.398" width="212.54" height="58.6846" rx="29.3423" transform="rotate(155.252 1241.53 289.398)" fill="#FFF8E4"/>
</g>
<circle cx="1092.75" cy="462.433" r="31.3852" fill="#FFE0A4"/>
<circle cx="689.01" cy="267.489" r="31.3852" fill="#FFF8E4"/>
<circle cx="491.367" cy="469.223" r="31.3852" fill="#FFF8E4"/>
<circle cx="406.325" cy="89.7378" r="31.3852" fill="#FFE4AF"/>
<rect x="816.288" y="122.686" width="212.54" height="58.6846" rx="29.3423" transform="rotate(135 816.288 122.686)" fill="#FFE4AF"/>
</svg>
