<svg width="15" height="15" viewBox="0 0 15 15" fill="none" xmlns="http://www.w3.org/2000/svg">
<path d="M6.5 14C6.5 14.5523 6.94772 15 7.5 15C8.05228 15 8.5 14.5523 8.5 14L6.5 14ZM8.20711 0.292893C7.81658 -0.0976315 7.18342 -0.0976314 6.79289 0.292893L0.428932 6.65685C0.0384075 7.04738 0.0384075 7.68054 0.428932 8.07107C0.819456 8.46159 1.45262 8.46159 1.84315 8.07107L7.5 2.41421L13.1569 8.07107C13.5474 8.46159 14.1805 8.46159 14.5711 8.07107C14.9616 7.68054 14.9616 7.04738 14.5711 6.65685L8.20711 0.292893ZM8.5 14L8.5 1L6.5 1L6.5 14L8.5 14Z" fill="white"/>
</svg>
