<?xml version="1.0" encoding="utf-8"?>
<!-- Generator: Adobe Illustrator 26.3.1, SVG Export Plug-In . SVG Version: 6.00 Build 0)  -->
<svg version="1.1" id="레이어_1" xmlns="http://www.w3.org/2000/svg" xmlns:xlink="http://www.w3.org/1999/xlink" x="0px"
	 y="0px" viewBox="0 0 50 50" style="enable-background:new 0 0 50 50;" xml:space="preserve">
<style type="text/css">
	.st0{fill:#FFFFFF;}
</style>
<g>
	<g>
		<path class="st0" d="M36,39.9H19.9c-0.2,0-0.4-0.1-0.6-0.3L8.7,24.7c-1.3-1.3-1.3-3.4,0-4.8c1.3-1.3,3.5-1.3,4.8,0l3,3V6.5
			c0-1,0.5-2,1.2-2.6c0.8-0.6,1.8-0.9,2.8-0.7c1.6,0.3,2.7,1.7,2.7,3.4v8.5c0.6-0.4,1.2-0.6,2-0.6c1.1,0,2.1,0.5,2.7,1.3
			c0.6-0.8,1.6-1.3,2.7-1.3c1.1,0,2.1,0.5,2.7,1.3c0.2-0.2,0.3-0.4,0.5-0.5c0.8-0.6,1.8-0.9,2.8-0.7l0,0c1.6,0.3,2.7,1.7,2.7,3.4
			v8.4c0,4.6-0.9,9-2.7,13.2C36.5,39.8,36.3,39.9,36,39.9z M20.3,38.5h15.2c1.6-3.9,2.4-8,2.4-12.2v-8.4c0-1-0.7-1.8-1.6-2
			c-0.6-0.1-1.2,0-1.7,0.4c-0.5,0.4-0.7,0.9-0.7,1.5c0,0.4-0.3,0.7-0.7,0.7s-0.7-0.3-0.7-0.7c0-1.1-0.9-2-2-2c-1.1,0-2,0.9-2,2
			c0,0.4-0.3,0.7-0.7,0.7s-0.7-0.3-0.7-0.7c0-1.1-0.9-2-2-2c-1,0-1.8,0.7-1.9,1.7c0,0.2-0.2,0.4-0.4,0.5c-0.2,0.1-0.5,0.1-0.7,0
			c-0.2-0.1-0.4-0.4-0.4-0.6V6.5c0-1-0.7-1.8-1.5-2c-0.6-0.1-1.2,0-1.7,0.4c-0.5,0.4-0.7,0.9-0.7,1.5v18.2c0,0.3-0.2,0.5-0.4,0.7
			c-0.3,0.1-0.6,0-0.8-0.2L12.5,21c-0.8-0.8-2-0.8-2.8,0c-0.8,0.8-0.8,2,0,2.8c0,0,0.1,0.1,0.1,0.1L20.3,38.5z"/>
	</g>
	<g>
		<path class="st0" d="M36,46.9H19.9c-0.4,0-0.7-0.3-0.7-0.7v-4.7h1.4v4h14.7v-4h1.4v4.7C36.7,46.6,36.4,46.9,36,46.9z"/>
	</g>
</g>
</svg>
