<?xml version="1.0" encoding="utf-8"?>
<!-- Generator: Adobe Illustrator 26.3.1, SVG Export Plug-In . SVG Version: 6.00 Build 0)  -->
<svg version="1.1" id="레이어_1" xmlns="http://www.w3.org/2000/svg" xmlns:xlink="http://www.w3.org/1999/xlink" x="0px"
	 y="0px" viewBox="0 0 100 100" style="enable-background:new 0 0 100 100;" xml:space="preserve">
<style type="text/css">
	.st0{fill:#687EF8;}
	.st1{fill:#FFFFFF;}
	.st2{fill:none;}
</style>
<g>
	<g>
		<circle class="st0" cx="50" cy="50" r="48"/>
	</g>
	<g>
		<g>
			<path class="st0" d="M75.2,73.6H24.8c-1.6,0-3-1.3-3-3V38c0-1.6,1.3-3,3-3h50.4c1.6,0,3,1.3,3,3v32.6
				C78.2,72.2,76.8,73.6,75.2,73.6z"/>
			<path class="st1" d="M75.2,74.6H24.8c-2.2,0-4-1.8-4-4V38c0-2.2,1.8-4,4-4h50.4c2.2,0,4,1.8,4,4v32.6
				C79.2,72.8,77.4,74.6,75.2,74.6z M24.8,36c-1.1,0-2,0.9-2,2v32.6c0,1.1,0.9,2,2,2h50.4c1.1,0,2-0.9,2-2V38c0-1.1-0.9-2-2-2H24.8z
				"/>
		</g>
		<g>
			<rect x="38.7" y="39.6" class="st0" width="34.7" height="29.4"/>
			<path class="st1" d="M73.3,70H38.7c-0.6,0-1-0.4-1-1V39.6c0-0.6,0.4-1,1-1h34.7c0.6,0,1,0.4,1,1V69C74.3,69.5,73.9,70,73.3,70z
				 M39.7,68h32.7V40.6H39.7V68z"/>
		</g>
		<g>
			<circle class="st0" cx="30.1" cy="54.3" r="3.5"/>
			<path class="st1" d="M30.1,58.8c-2.5,0-4.5-2-4.5-4.5s2-4.5,4.5-4.5s4.5,2,4.5,4.5S32.6,58.8,30.1,58.8z M30.1,51.8
				c-1.4,0-2.5,1.1-2.5,2.5s1.1,2.5,2.5,2.5s2.5-1.1,2.5-2.5S31.5,51.8,30.1,51.8z"/>
		</g>
		<g>
			<line class="st2" x1="26.6" y1="42.6" x2="33.6" y2="42.6"/>
			<rect x="26.6" y="41.6" class="st1" width="7" height="2"/>
		</g>
		<g>
			<line class="st2" x1="33.6" y1="66" x2="26.6" y2="66"/>
			<rect x="26.6" y="65" class="st1" width="7" height="2"/>
		</g>
		<g>
			<line class="st2" x1="26.6" y1="47" x2="33.6" y2="47"/>
			<rect x="26.6" y="46" class="st1" width="7" height="2"/>
		</g>
		<g>
			<line class="st2" x1="33.6" y1="61.6" x2="26.6" y2="61.6"/>
			<rect x="26.6" y="60.6" class="st1" width="7" height="2"/>
		</g>
		<g>
			<g>
				<polygon class="st0" points="64.7,54.8 59.3,54.8 60.1,25.4 63.9,25.4 				"/>
				<path class="st1" d="M64.7,55.8h-5.4c-0.3,0-0.5-0.1-0.7-0.3s-0.3-0.5-0.3-0.7l0.8-29.4c0-0.5,0.5-1,1-1h3.8c0.5,0,1,0.4,1,1
					l0.8,29.4c0,0.3-0.1,0.5-0.3,0.7S65,55.8,64.7,55.8z M60.3,53.8h3.3l-0.7-27.4h-1.8L60.3,53.8z"/>
			</g>
			<g>
				<path class="st0" d="M62,20.4L62,20.4c-0.9,0-1.7,0.8-1.7,1.7v3.3h3.4v-3.3C63.7,21.1,62.9,20.4,62,20.4z"/>
				<path class="st1" d="M63.7,26.4h-3.4c-0.6,0-1-0.4-1-1v-3.3c0-1.5,1.2-2.7,2.7-2.7s2.7,1.2,2.7,2.7v3.3
					C64.7,26,64.3,26.4,63.7,26.4z M61.3,24.4h1.4v-2.3c0-0.4-0.3-0.7-0.7-0.7s-0.7,0.3-0.7,0.7V24.4z"/>
			</g>
			<g>
				<polygon class="st0" points="62.5,61.6 61.5,61.6 59.7,54.8 64.3,54.8 				"/>
				<path class="st1" d="M62.5,62.6h-1.1c-0.5,0-0.9-0.3-1-0.7l-1.8-6.8c-0.1-0.3,0-0.6,0.2-0.9c0.2-0.2,0.5-0.4,0.8-0.4h4.7
					c0.3,0,0.6,0.1,0.8,0.4c0.2,0.2,0.3,0.6,0.2,0.9l-1.8,6.8C63.4,62.3,63,62.6,62.5,62.6z M61,55.8l1,3.9l1-3.9H61z"/>
			</g>
		</g>
	</g>
</g>
</svg>
