<?xml version="1.0" encoding="utf-8"?>
<!-- Generator: Adobe Illustrator 26.3.1, SVG Export Plug-In . SVG Version: 6.00 Build 0)  -->
<svg version="1.1" id="레이어_1" xmlns="http://www.w3.org/2000/svg" xmlns:xlink="http://www.w3.org/1999/xlink" x="0px"
	 y="0px" viewBox="0 0 100 100" style="enable-background:new 0 0 100 100;" xml:space="preserve">
<style type="text/css">
	.st0{fill:#687EF8;}
	.st1{fill:#FFFFFF;}
	.st2{fill:none;}
</style>
<g>
	<g>
		<circle class="st0" cx="50" cy="50" r="48"/>
	</g>
	<g>
		<g>
			<rect x="29.7" y="28.7" class="st0" width="46.8" height="46.8"/>
			<path class="st1" d="M76.4,76.4H29.7c-0.6,0-1-0.4-1-1V28.7c0-0.6,0.4-1,1-1h46.8c0.6,0,1,0.4,1,1v46.8
				C77.4,76,77,76.4,76.4,76.4z M30.7,74.4h44.8V29.7H30.7V74.4z"/>
		</g>
		<g>
			<rect x="25.6" y="24.6" class="st0" width="46.8" height="46.8"/>
			<path class="st1" d="M72.3,72.3H25.6c-0.6,0-1-0.4-1-1V24.6c0-0.6,0.4-1,1-1h46.8c0.6,0,1,0.4,1,1v46.8
				C73.3,71.8,72.8,72.3,72.3,72.3z M26.6,70.3h44.8V25.6H26.6V70.3z"/>
		</g>
		<g>
			<rect x="25.6" y="24.6" class="st0" width="46.8" height="6.3"/>
			<path class="st1" d="M72.3,31.9H25.6c-0.6,0-1-0.4-1-1v-6.3c0-0.6,0.4-1,1-1h46.8c0.6,0,1,0.4,1,1v6.3
				C73.3,31.5,72.8,31.9,72.3,31.9z M26.6,29.9h44.8v-4.3H26.6V29.9z"/>
		</g>
		<g>
			<line class="st2" x1="33.2" y1="27.8" x2="35.4" y2="27.8"/>
			<rect x="33.2" y="26.8" class="st1" width="2.2" height="2"/>
		</g>
		<g>
			<line class="st2" x1="37.3" y1="27.8" x2="39.5" y2="27.8"/>
			<rect x="37.3" y="26.8" class="st1" width="2.2" height="2"/>
		</g>
		<g>
			<g>
				<path class="st1" d="M30.1,50.3l11.2-6v2.3l-8.8,4.6l8.8,4.8v2.3l-11.2-6V50.3z"/>
			</g>
			<g>
				<path class="st1" d="M44.3,59.5l6.9-18.6h2.1l-6.9,18.6H44.3z"/>
			</g>
			<g>
				<path class="st1" d="M67.4,52.4l-11.2,6V56l8.8-4.6l-8.8-4.8v-2.3l11.2,6.1V52.4z"/>
			</g>
		</g>
	</g>
</g>
</svg>
