<svg width="20" height="20" viewBox="0 0 20 20" fill="none" xmlns="http://www.w3.org/2000/svg">
<g clip-path="url(#clip0_56_81)">
<path d="M15.0001 10L12.5001 10L15.8334 13.3333L19.1667 10L16.6667 10C16.6667 6.31668 13.6834 3.33334 10.0001 3.33334C8.69175 3.33334 7.47508 3.71668 6.45008 4.36668L7.66675 5.58334C8.35842 5.20834 9.15842 5.00001 10.0001 5.00001C12.7584 5.00001 15.0001 7.24168 15.0001 10ZM13.5501 15.6333L12.3334 14.4167C11.6334 14.7833 10.8417 15 10.0001 15C7.24175 15 5.00008 12.7583 5.00008 10L7.50008 10L4.16675 6.66668L0.833416 10L3.33342 10C3.33342 13.6833 6.31675 16.6667 10.0001 16.6667C11.3084 16.6667 12.5251 16.2833 13.5501 15.6333Z" fill="#EF075B"/>
</g>
<defs>
<clipPath id="clip0_56_81">
<rect width="20" height="20" fill="white" transform="translate(20) rotate(90)"/>
</clipPath>
</defs>
</svg>
