<svg width="335" height="116" viewBox="0 0 335 116" fill="none" xmlns="http://www.w3.org/2000/svg">
<path fill-rule="evenodd" clip-rule="evenodd" d="M335 48.1612C325.171 63.1222 308.239 73.0002 289 73.0002C258.624 73.0002 234 48.3759 234 18.0002C234 11.6963 235.061 5.64007 237.013 0.000244141H20C8.95431 0.000244141 0 8.95455 0 20.0002V96.0002C0 99.2116 0.756894 102.246 2.10202 104.935C9.96433 99.3106 19.5956 96.0002 30 96.0002C46.0602 96.0002 60.2782 103.888 68.9916 116H225.801C222.808 112.504 221 107.963 221 103C221 91.9545 229.954 83.0002 241 83.0002C252.046 83.0002 261 91.9545 261 103C261 107.963 259.192 112.504 256.199 116H315C326.046 116 335 107.046 335 96.0002V48.1612ZM274.681 0.000244141C269.391 4.21418 266 10.7112 266 18.0002C266 30.7028 276.297 41.0002 289 41.0002C301.703 41.0002 312 30.7028 312 18.0002C312 10.7112 308.609 4.21418 303.319 0.000244141H274.681ZM247.667 103C247.667 106.682 244.682 109.667 241 109.667C237.318 109.667 234.333 106.682 234.333 103C234.333 99.3183 237.318 96.3336 241 96.3336C244.682 96.3336 247.667 99.3183 247.667 103Z" fill="#FFD074"/>
</svg>
