<svg width="335" height="117" viewBox="0 0 335 117" fill="none" xmlns="http://www.w3.org/2000/svg">
<path fill-rule="evenodd" clip-rule="evenodd" d="M20 0.0012207C8.95431 0.0012207 0 8.95552 0 20.0012V96.0012C0 107.047 8.95431 116.001 20 116.001H184.249C175.841 90.7078 181.714 65.9845 197.455 60.6567C209.592 56.5489 224.071 65.1637 234.045 80.8748C249.291 70.2038 265.968 67.8155 275.594 76.2725C284.818 84.3762 285 100.183 277.415 116.001H315C326.046 116.001 335 107.047 335 96.0012V60.6331C330.624 65.723 325.17 68.2198 320.486 66.6149C320.421 66.5926 320.357 66.5696 320.293 66.546C314.771 66.0308 308.306 62.4595 303.121 56.5133C294.955 47.147 293.06 35.4349 298.888 30.3537C303.431 26.3927 311.326 27.6303 318.455 32.8054C323.06 25.923 329.545 22.204 335 24.02V20.0012C335 8.95553 326.046 0.0012207 315 0.0012207H20ZM159.284 24.3346C161.902 28.8688 165.979 31.6281 169.273 31.4149C172.567 31.6284 176.644 28.869 179.262 24.3346C182.476 18.7681 182.273 12.6345 178.81 10.6348C176.154 9.10129 172.351 10.4442 169.273 13.6641C166.195 10.4442 162.392 9.10126 159.736 10.6348C156.273 12.6345 156.07 18.7681 159.284 24.3346Z" fill="#9DF8D7"/>
</svg>
