<?xml version="1.0" encoding="utf-8"?>
<!-- Generator: Adobe Illustrator 26.5.0, SVG Export Plug-In . SVG Version: 6.00 Build 0)  -->
<svg version="1.1" id="레이어_1" xmlns="http://www.w3.org/2000/svg" xmlns:xlink="http://www.w3.org/1999/xlink" x="0px"
	 y="0px" viewBox="0 0 335 116" style="enable-background:new 0 0 335 116;" xml:space="preserve">
<style type="text/css">
	.st0{fill:none;}
	.st1{fill:#B0D3FF;}
</style>
<g>
	<path class="st0" d="M45.1,85.7c0.9-3.7-0.7-7.6-4.2-9.6c-3.4-1.9-7.5-1.4-10.2,1.1c-2.7-2.5-6.9-3-10.2-1.1
		c-3.4,1.9-5,5.8-4.2,9.4C12.7,86.6,10,90,10,94c0,4,2.6,7.3,6.3,8.4c-0.7,3.5,0.9,7.3,4.2,9.2c3.4,1.9,7.5,1.4,10.2-1.1
		c2.7,2.5,6.9,3,10.2,1.1c3.4-1.9,4.9-5.8,4.2-9.4c3.3-1.2,5.7-4.4,5.7-8.2C50.9,90.2,48.4,87,45.1,85.7z"/>
	<path class="st1" d="M195.4,0H0v20v2v74c0,11,9,20,20,20h103.7c-3.5-3.2-5.7-7.8-5.7-12.9c0-8,5.3-14.8,12.7-16.9
		c-1.5-7.2,1.7-15,8.4-18.9c6.7-3.9,15-2.8,20.5,2.1c5.5-4.9,13.8-6,20.5-2.1c6.9,4,10,11.9,8.3,19.2c6.8,2.4,11.6,8.9,11.6,16.5
		c0,5.1-2.2,9.7-5.7,12.9H315c11,0,20-9,20-20V20c0-11-9-20-20-20h-2.3c0.2,1.3,0.3,2.6,0.3,4c0,10-6.3,18.4-15.2,21.6
		c2.1,9.6-2.1,19.8-11,25c-8.9,5.1-19.8,3.7-27-2.8c-7.2,6.5-18.1,7.9-27,2.8c-8.8-5.1-13-15.1-11.1-24.5C212,23.3,205,14.5,205,4
		c0-1.4,0.1-2.7,0.3-4h-8.8 M0-4 M45.1,102.2c0.7,3.6-0.8,7.4-4.2,9.4c-3.4,1.9-7.5,1.4-10.2-1.1c-2.7,2.5-6.9,3-10.2,1.1
		c-3.3-1.9-4.9-5.6-4.2-9.2c-3.6-1.1-6.3-4.4-6.3-8.4c0-4,2.7-7.3,6.3-8.4c-0.8-3.6,0.8-7.4,4.2-9.4c3.4-1.9,7.5-1.4,10.2,1.1
		c2.7-2.5,6.9-3,10.2-1.1c3.4,2,5,5.9,4.2,9.6c3.4,1.2,5.8,4.4,5.8,8.2C50.9,97.7,48.5,101,45.1,102.2z"/>
</g>
</svg>
