<svg width="27" height="30" viewBox="0 0 27 30" fill="none" xmlns="http://www.w3.org/2000/svg">
<path d="M24.64 6.58839V20.9555C24.64 22.1276 23.7552 23.203 22.6688 23.348L22.3216 23.3963C20.4848 23.6621 17.8976 24.4838 15.8144 25.4263C15.0864 25.7526 14.28 25.1605 14.28 24.3026V7.49464C14.28 7.04756 14.5152 6.63673 14.8848 6.41923C16.9344 5.22298 20.0368 4.15964 22.1424 3.96631H22.2096C23.5536 3.96631 24.64 5.13839 24.64 6.58839Z" fill="#F33A00"/>
<path d="M11.9952 6.41923C9.94561 5.22298 6.84321 4.15964 4.73761 3.96631H4.65921C3.31521 3.96631 2.22881 5.13839 2.22881 6.58839V20.9555C2.22881 22.1276 3.11361 23.203 4.20001 23.348L4.54721 23.3963C6.38401 23.6621 8.97121 24.4838 11.0544 25.4263C11.7824 25.7526 12.5888 25.1605 12.5888 24.3026V7.49464C12.5888 7.03548 12.3648 6.63673 11.9952 6.41923ZM5.60001 10.0805H8.12001C8.57921 10.0805 8.96001 10.4913 8.96001 10.9867C8.96001 11.4942 8.57921 11.893 8.12001 11.893H5.60001C5.14081 11.893 4.76001 11.4942 4.76001 10.9867C4.76001 10.4913 5.14081 10.0805 5.60001 10.0805ZM8.96001 15.518H5.60001C5.14081 15.518 4.76001 15.1192 4.76001 14.6117C4.76001 14.1163 5.14081 13.7055 5.60001 13.7055H8.96001C9.41921 13.7055 9.80001 14.1163 9.80001 14.6117C9.80001 15.1192 9.41921 15.518 8.96001 15.518Z" fill="#F33A00"/>
</svg>
