<?xml version="1.0" encoding="utf-8"?>
<!-- Generator: Adobe Illustrator 26.3.1, SVG Export Plug-In . SVG Version: 6.00 Build 0)  -->
<svg version="1.1" id="레이어_1" xmlns="http://www.w3.org/2000/svg" xmlns:xlink="http://www.w3.org/1999/xlink" x="0px"
	 y="0px" viewBox="0 0 100 100" style="enable-background:new 0 0 100 100;" xml:space="preserve">
<style type="text/css">
	.st0{fill:#687EF8;}
	.st1{fill:none;}
	.st2{fill:#FFFFFF;}
</style>
<g>
	<circle class="st0" cx="50" cy="50" r="48"/>
</g>
<g>
	<g>
		<line class="st1" x1="50.4" y1="26.7" x2="74.6" y2="26.7"/>
		<rect x="50.4" y="25.7" class="st2" width="24.2" height="2"/>
	</g>
	<g>
		<circle class="st0" cx="74.6" cy="26.7" r="1.6"/>
		<path class="st2" d="M74.6,29.3c-1.4,0-2.6-1.2-2.6-2.6s1.2-2.6,2.6-2.6s2.6,1.2,2.6,2.6C77.2,28.2,76,29.3,74.6,29.3z M74.6,26.1
			c-0.3,0-0.6,0.3-0.6,0.6s0.3,0.6,0.6,0.6s0.6-0.3,0.6-0.6S74.9,26.1,74.6,26.1z"/>
	</g>
	<g>
		<path class="st2" d="M79.6,55.3h-2c0-15-12.2-27.2-27.2-27.2S23.2,40.3,23.2,55.3h-2c0-16.1,13.1-29.2,29.2-29.2
			S79.6,39.2,79.6,55.3z"/>
	</g>
	<g>
		<path class="st2" d="M50.4,71.2c-0.3,0-0.6-0.1-0.8-0.4l-9.7-12.9c-0.2-0.3-0.3-0.6-0.1-1l9.7-24.7c0.2-0.4,0.5-0.6,0.9-0.6
			s0.8,0.3,0.9,0.6L61,56.9c0.1,0.3,0.1,0.7-0.1,1l-9.7,12.9C51,71.1,50.7,71.2,50.4,71.2z M41.9,57.1l8.5,11.4L59,57.1l-8.5-21.8
			L41.9,57.1z"/>
	</g>
	<g>
		<rect x="42.5" y="66.2" class="st0" width="15.8" height="5.6"/>
		<path class="st2" d="M58.3,72.7H42.5c-0.6,0-1-0.4-1-1v-5.6c0-0.6,0.4-1,1-1h15.8c0.6,0,1,0.4,1,1v5.6
			C59.3,72.3,58.9,72.7,58.3,72.7z M43.5,70.7h13.8v-3.6H43.5V70.7z"/>
	</g>
	<g>
		<polyline class="st0" points="42,84.8 43.4,71.7 57.4,71.7 58.8,84.8 		"/>
		<path class="st2" d="M57.9,85l-1.3-12.2H44.3L43,85l-2-0.2l1.4-13.1c0.1-0.5,0.5-0.9,1-0.9h14c0.5,0,0.9,0.4,1,0.9l1.4,13.1
			L57.9,85z"/>
	</g>
	<g>
		<line class="st1" x1="50.4" y1="32.6" x2="50.4" y2="55.3"/>
		<rect x="49.4" y="32.6" class="st2" width="2" height="22.7"/>
	</g>
	<g>
		<circle class="st2" cx="50.4" cy="55.3" r="1.9"/>
		<path class="st2" d="M50.4,58.2c-1.6,0-2.9-1.3-2.9-2.9s1.3-2.9,2.9-2.9s2.9,1.3,2.9,2.9S52,58.2,50.4,58.2z M50.4,54.4
			c-0.5,0-0.9,0.4-0.9,0.9s0.4,0.9,0.9,0.9s0.9-0.4,0.9-0.9S50.9,54.4,50.4,54.4z"/>
	</g>
	<g>
		<rect x="19.9" y="53" class="st0" width="4.7" height="4.7"/>
		<path class="st2" d="M24.6,58.7h-4.7c-0.6,0-1-0.4-1-1V53c0-0.6,0.4-1,1-1h4.7c0.6,0,1,0.4,1,1v4.7C25.6,58.2,25.2,58.7,24.6,58.7
			z M20.9,56.7h2.7V54h-2.7V56.7z"/>
	</g>
	<g>
		<rect x="76.2" y="53" class="st0" width="4.7" height="4.7"/>
		<path class="st2" d="M80.9,58.7h-4.7c-0.6,0-1-0.4-1-1V53c0-0.6,0.4-1,1-1h4.7c0.6,0,1,0.4,1,1v4.7C81.9,58.2,81.5,58.7,80.9,58.7
			z M77.2,56.7h2.7V54h-2.7V56.7z"/>
	</g>
	<g>
		<line class="st1" x1="50.4" y1="26.7" x2="26.3" y2="26.7"/>
		<rect x="26.3" y="25.7" class="st2" width="24.2" height="2"/>
	</g>
	<g>
		<rect x="48.1" y="24.4" class="st0" width="4.7" height="4.7"/>
		<path class="st2" d="M52.8,30.1h-4.7c-0.6,0-1-0.4-1-1v-4.7c0-0.6,0.4-1,1-1h4.7c0.6,0,1,0.4,1,1v4.7
			C53.8,29.6,53.3,30.1,52.8,30.1z M49.1,28.1h2.7v-2.7h-2.7V28.1z"/>
	</g>
	<g>
		<circle class="st0" cx="26.3" cy="26.7" r="1.6"/>
		<path class="st2" d="M26.3,29.3c-1.4,0-2.6-1.2-2.6-2.6s1.2-2.6,2.6-2.6s2.6,1.2,2.6,2.6C28.8,28.2,27.7,29.3,26.3,29.3z
			 M26.3,26.1c-0.3,0-0.6,0.3-0.6,0.6s0.3,0.6,0.6,0.6s0.6-0.3,0.6-0.6S26.6,26.1,26.3,26.1z"/>
	</g>
</g>
</svg>
